<svg xmlns="http://www.w3.org/2000/svg" width="127.594" height="132.301" viewBox="0 0 127.594 132.301">
  <g id="Grupo_1204373" data-name="Grupo 1204373" transform="translate(-1043.406 -6043.699)">
    <path id="Rectángulo_401180" data-name="Rectángulo 401180" d="M59,0H89a0,0,0,0,1,0,0V91a0,0,0,0,1,0,0H0a0,0,0,0,1,0,0V59A59,59,0,0,1,59,0Z" transform="translate(1043.406 6043.699)" fill="#fff"/>
    <circle id="Elipse_11831" data-name="Elipse 11831" cx="55.5" cy="55.5" r="55.5" transform="translate(1060 6065)" fill="#aaca79"/>
    <g id="Like" transform="translate(1072.264 6090)">
      <path id="Trazado_1261794" data-name="Trazado 1261794" d="M29.828,57.241c0-38.737.378-37.278-.973-39.638A7.207,7.207,0,0,0,22.621,14H8.207A7.207,7.207,0,0,0,1,21.207V57.241a7.207,7.207,0,0,0,7.207,7.207H22.621a7.207,7.207,0,0,0,7.207-7.207Z" transform="translate(0.802 -12.198)" fill="#6fabe6"/>
      <path id="Trazado_1261795" data-name="Trazado 1261795" d="M20.216,60.838c-15.927,0-15.1.09-16.216-.234V36.443A22.449,22.449,0,0,1,26.449,13.994c1.351,2.342.973.9.973,39.638A7.207,7.207,0,0,1,20.216,60.838ZM18.089,46.749a3.6,3.6,0,1,0-.259,3.431A3.6,3.6,0,0,0,18.089,46.749Z" transform="translate(3.207 -8.588)" fill="#82bcf4"/>
      <path id="Trazado_1261796" data-name="Trazado 1261796" d="M16.207,21.615a3.6,3.6,0,1,0-1.649,3.02A3.6,3.6,0,0,0,16.207,21.615Z" transform="translate(7.215 19.824)" fill="#dad7e5"/>
      <path id="Trazado_1261797" data-name="Trazado 1261797" d="M15.075,18.318a3.6,3.6,0,0,0-4.757,4.757,3.6,3.6,0,0,0,4.757-4.757Z" transform="translate(8.023 21.644)" fill="#edebf2"/>
      <path id="Trazado_1261798" data-name="Trazado 1261798" d="M69.466,27.351a5.405,5.405,0,0,0-3.82-1.586,5.405,5.405,0,1,0,0-10.81,5.405,5.405,0,0,0,3.82-9.225C67.3,3.568,68.115,4.145,38.621,4.145L17,9.55V41.981a34.035,34.035,0,0,1,12.162,8.63c2.126,2.5,5.549,10.5,6.576,14.63l.541,2.144c1.5,5.946,11.351,3.315,11.351-3.784,0-4.234-2.216-12.216-3.6-16.215,22.99,0,23.3.559,25.44-1.586a5.405,5.405,0,0,0-3.82-9.225,5.405,5.405,0,0,0,3.82-9.225Z" transform="translate(13.629 -0.541)" fill="#f6ccaf"/>
      <path id="Trazado_1261799" data-name="Trazado 1261799" d="M30.711,11.012c2.667,3.135,5.729,11.3,7.009,16.36a4.36,4.36,0,0,1-5.3-3.189A50.142,50.142,0,0,0,25.305,7.408a29.242,29.242,0,0,0-3.5-3.351,30.737,30.737,0,0,1,8.9,6.955Z" transform="translate(17.486 42.662)" fill="#edb996"/>
      <path id="Trazado_1261800" data-name="Trazado 1261800" d="M41.089,22.732A24.666,24.666,0,0,0,22.405,46.641V59.127A52.248,52.248,0,0,0,17,56.226V23.8L38.621,18.39H65.647a5.405,5.405,0,0,1,5.081,3.6C45.521,21.993,45,21.759,41.089,22.732Z" transform="translate(13.629 -14.787)" fill="#edb996"/>
      <path id="Trazado_1261801" data-name="Trazado 1261801" d="M13.405,27.81a5.405,5.405,0,1,1,5.405-5.405A5.405,5.405,0,0,1,13.405,27.81Zm0-7.207a1.8,1.8,0,1,0,1.8,1.8A1.8,1.8,0,0,0,13.405,20.6Z" transform="translate(6.414 19.034)"/>
      <path id="Trazado_1261802" data-name="Trazado 1261802" d="M84.032,39.12a7.207,7.207,0,0,1-4.757,12.612H60.087A64.321,64.321,0,0,1,63.06,65.966c0,9.477-12.792,12.4-14.81,4.4A49.619,49.619,0,0,0,41.44,54.327a28.683,28.683,0,0,0-9.009-6.865,9.009,9.009,0,0,1-9.009,9.675H9.009A9.009,9.009,0,0,1,0,48.129V12.094A9.009,9.009,0,0,1,9.009,3.086H23.422a9.009,9.009,0,0,1,8.7,6.774L51.818,4.888H79.276A7.207,7.207,0,0,1,84.032,17.5a7.207,7.207,0,0,1,0,10.81,7.207,7.207,0,0,1,0,10.81ZM23.422,6.689H9.009A5.405,5.405,0,0,0,3.6,12.094V48.129a5.405,5.405,0,0,0,5.405,5.405H23.422a5.405,5.405,0,0,0,5.405-5.405V12.094A5.405,5.405,0,0,0,23.422,6.689ZM79.276,37.319a3.6,3.6,0,1,0,0-7.207,1.8,1.8,0,1,1,0-3.6,3.6,3.6,0,1,0,0-7.207,1.8,1.8,0,1,1,0-3.6,3.6,3.6,0,0,0,2.54-6.144c-1.5-1.5-.721-1.063-29.35-1.063L32.431,13.5V43.408c10.576,5.3,15.261,10.306,19.224,26.089.937,3.6,7.711,1.8,7.711-3.477S55.98,50.6,55.943,50.489a1.8,1.8,0,0,1,1.712-2.36c22.882,0,22.684.432,24.161-1.063a3.6,3.6,0,0,0-2.54-6.144,1.8,1.8,0,1,1,0-3.6Z" transform="translate(0 -3.086)"/>
    </g>
  </g>
</svg>
