<svg xmlns="http://www.w3.org/2000/svg" width="129.594" height="132.301" viewBox="0 0 129.594 132.301">
  <g id="Grupo_1204372" data-name="Grupo 1204372" transform="translate(-413.406 -6043.699)">
    <g id="Grupo_1100811" data-name="Grupo 1100811" transform="translate(2.068 3386.921)">
      <path id="Rectángulo_401150" data-name="Rectángulo 401150" d="M59,0H89a0,0,0,0,1,0,0V91a0,0,0,0,1,0,0H0a0,0,0,0,1,0,0V59A59,59,0,0,1,59,0Z" transform="translate(411.337 2656.778)" fill="#fff"/>
    </g>
    <circle id="Elipse_11832" data-name="Elipse 11832" cx="55.5" cy="55.5" r="55.5" transform="translate(432 6065)" fill="#0a4666"/>
    <g id="Like" transform="translate(444.264 6076.914)">
      <path id="Trazado_1261794" data-name="Trazado 1261794" d="M29.828,21.207c0,38.737.378,37.278-.973,39.638a7.207,7.207,0,0,1-6.234,3.6H8.207A7.207,7.207,0,0,1,1,57.241V21.207A7.207,7.207,0,0,1,8.207,14H22.621a7.207,7.207,0,0,1,7.207,7.207Z" transform="translate(0.802 8.75)" fill="#6fabe6"/>
      <path id="Trazado_1261795" data-name="Trazado 1261795" d="M20.215,14.005c-15.927,0-15.1-.09-16.215.234V38.4A22.449,22.449,0,0,0,26.449,60.85c1.351-2.342.973-.9.973-39.638A7.207,7.207,0,0,0,20.215,14.005ZM18.089,28.095a3.6,3.6,0,1,1-.259-3.431A3.6,3.6,0,0,1,18.089,28.095Z" transform="translate(3.207 8.745)" fill="#82bcf4"/>
      <path id="Trazado_1261796" data-name="Trazado 1261796" d="M16.207,21.6a3.6,3.6,0,1,1-1.649-3.02A3.6,3.6,0,0,1,16.207,21.6Z" transform="translate(7.215 11.96)" fill="#dad7e5"/>
      <path id="Trazado_1261797" data-name="Trazado 1261797" d="M15.075,23.075a3.6,3.6,0,0,1-4.757-4.757,3.6,3.6,0,0,1,4.757,4.757Z" transform="translate(8.023 11.963)" fill="#edebf2"/>
      <path id="Trazado_1261798" data-name="Trazado 1261798" d="M69.466,47.4a5.405,5.405,0,0,1-3.82,1.586,5.405,5.405,0,1,1,0,10.81,5.405,5.405,0,0,1,3.82,9.225C67.3,71.18,68.115,70.6,38.621,70.6L17,65.2V32.767a34.035,34.035,0,0,0,12.162-8.63c2.126-2.5,5.549-10.5,6.576-14.63l.541-2.144c1.5-5.946,11.351-3.315,11.351,3.784,0,4.234-2.216,12.216-3.6,16.215,22.99,0,23.3-.559,25.44,1.586a5.405,5.405,0,0,1-3.82,9.225,5.405,5.405,0,0,1,3.82,9.225Z" transform="translate(13.629 0.793)" fill="#f6ccaf"/>
      <path id="Trazado_1261799" data-name="Trazado 1261799" d="M30.71,20.548c2.667-3.135,5.729-11.3,7.009-16.36a4.36,4.36,0,0,0-5.3,3.189,50.142,50.142,0,0,1-7.117,16.774,29.242,29.242,0,0,1-3.5,3.351,30.737,30.737,0,0,0,8.9-6.955Z" transform="translate(17.485 0.779)" fill="#edb996"/>
      <path id="Trazado_1261800" data-name="Trazado 1261800" d="M41.089,54.785A24.666,24.666,0,0,1,22.405,30.876V18.39A52.249,52.249,0,0,1,17,21.291V53.722l21.621,5.405H65.646a5.405,5.405,0,0,0,5.081-3.6C45.521,55.523,45,55.758,41.089,54.785Z" transform="translate(13.629 12.27)" fill="#edb996"/>
      <path id="Trazado_1261801" data-name="Trazado 1261801" d="M13.405,17a5.405,5.405,0,1,0,5.405,5.405A5.405,5.405,0,0,0,13.405,17Zm0,7.207a1.8,1.8,0,1,1,1.8-1.8A1.8,1.8,0,0,1,13.405,24.207Z" transform="translate(6.414 11.155)"/>
      <path id="Trazado_1261802" data-name="Trazado 1261802" d="M84.032,38.966a7.207,7.207,0,0,0-4.757-12.612H60.087A64.321,64.321,0,0,0,63.06,12.12c0-9.477-12.792-12.4-14.81-4.4A49.619,49.619,0,0,1,41.44,23.759a28.683,28.683,0,0,1-9.009,6.865,9.009,9.009,0,0,0-9.009-9.675H9.009A9.009,9.009,0,0,0,0,29.957V65.991A9.009,9.009,0,0,0,9.009,75H23.422a9.009,9.009,0,0,0,8.7-6.774L51.817,73.2H79.276a7.207,7.207,0,0,0,4.757-12.612,7.207,7.207,0,0,0,0-10.81,7.207,7.207,0,0,0,0-10.81ZM23.422,71.4H9.009A5.405,5.405,0,0,1,3.6,65.991V29.957a5.405,5.405,0,0,1,5.405-5.405H23.422a5.405,5.405,0,0,1,5.405,5.405V65.991A5.405,5.405,0,0,1,23.422,71.4ZM79.276,40.767a3.6,3.6,0,1,1,0,7.207,1.8,1.8,0,1,0,0,3.6,3.6,3.6,0,0,1,0,7.207,1.8,1.8,0,1,0,0,3.6,3.6,3.6,0,0,1,2.54,6.144c-1.5,1.5-.721,1.063-29.35,1.063L32.431,64.586V34.677c10.576-5.3,15.261-10.306,19.224-26.089.937-3.6,7.711-1.8,7.711,3.477S55.979,27.489,55.943,27.6a1.8,1.8,0,0,0,1.712,2.36c22.882,0,22.684-.432,24.161,1.063a3.6,3.6,0,0,1-2.54,6.144,1.8,1.8,0,0,0,0,3.6Z" transform="translate(0 0)"/>
    </g>
  </g>
</svg>
