<svg xmlns="http://www.w3.org/2000/svg" width="500.446" height="244.971" viewBox="0 0 500.446 244.971">
  <g id="Grupo_1204389" data-name="Grupo 1204389" transform="translate(-834.554 -1823.117)">
    <path id="Trazado_125100" data-name="Trazado 125100" d="M-566-8829.878h451.706" transform="translate(1449.244 10815.924)" fill="none" stroke="#d8d8d8" stroke-width="1"/>
    <path id="Trazado_125089" data-name="Trazado 125089" d="M-532.875-8960.756l15.052-52.212,15.978,86.162,15.9-104.916,14.583,90.122,15.318-55,14.8,52.862,15.162-17.016L-412-8943.74l15.691-17.016,16.345-52.212,14.23,52.212,15.564-53.95,15.372,53.95h15.5l16.077-18.292h13.965l14.908-35.658,31.059,70.966,14.671-17.016L-213.6-8996.6l15.137,17.555,16.027-17.555,15.01,17.555" transform="translate(1418.633 10930.147)" fill="none" stroke="#0a4666" stroke-width="1"/>
    <path id="Trazado_1261997" data-name="Trazado 1261997" d="M4.544-2.729A3.718,3.718,0,0,1,4.056-.606,1.735,1.735,0,0,1,2.531.088,1.747,1.747,0,0,1,1.015-.591a3.529,3.529,0,0,1-.51-2.028V-3.7A3.636,3.636,0,0,1,.993-5.8a1.748,1.748,0,0,1,1.529-.686,1.764,1.764,0,0,1,1.521.661,3.508,3.508,0,0,1,.5,2.041ZM3.731-3.841a2.979,2.979,0,0,0-.29-1.505,1,1,0,0,0-.918-.472.985.985,0,0,0-.91.47A2.909,2.909,0,0,0,1.318-3.9v1.3a3.027,3.027,0,0,0,.3,1.531,1,1,0,0,0,.912.494.983.983,0,0,0,.894-.466,2.917,2.917,0,0,0,.305-1.468ZM5.643,1.274,5.181.958A2.121,2.121,0,0,0,5.612-.229V-.962h.8v.637A2,2,0,0,1,6.19.563,2.078,2.078,0,0,1,5.643,1.274ZM8.534-3.595h.611a1.343,1.343,0,0,0,.905-.3,1.013,1.013,0,0,0,.33-.8A.992.992,0,0,0,9.259-5.818a1.166,1.166,0,0,0-.842.3,1.054,1.054,0,0,0-.314.8H7.291a1.632,1.632,0,0,1,.556-1.263,2.025,2.025,0,0,1,1.413-.5,2,2,0,0,1,1.419.479,1.73,1.73,0,0,1,.514,1.332,1.4,1.4,0,0,1-.27.809,1.632,1.632,0,0,1-.736.584A1.572,1.572,0,0,1,11-2.729a1.538,1.538,0,0,1,.288.945,1.745,1.745,0,0,1-.562,1.367A2.106,2.106,0,0,1,9.264.088,2.162,2.162,0,0,1,7.8-.4a1.618,1.618,0,0,1-.565-1.288h.817a1.046,1.046,0,0,0,.33.809,1.254,1.254,0,0,0,.883.3,1.23,1.23,0,0,0,.9-.308,1.186,1.186,0,0,0,.312-.883,1.076,1.076,0,0,0-.343-.857,1.493,1.493,0,0,0-.989-.308H8.534Z" transform="translate(891 1977)" fill="#6c6c6c"/>
    <path id="Trazado_1261998" data-name="Trazado 1261998" d="M4.544-2.729A3.718,3.718,0,0,1,4.056-.606,1.735,1.735,0,0,1,2.531.088,1.747,1.747,0,0,1,1.015-.591a3.529,3.529,0,0,1-.51-2.028V-3.7A3.636,3.636,0,0,1,.993-5.8a1.748,1.748,0,0,1,1.529-.686,1.764,1.764,0,0,1,1.521.661,3.508,3.508,0,0,1,.5,2.041ZM3.731-3.841a2.979,2.979,0,0,0-.29-1.505,1,1,0,0,0-.918-.472.985.985,0,0,0-.91.47A2.909,2.909,0,0,0,1.318-3.9v1.3a3.027,3.027,0,0,0,.3,1.531,1,1,0,0,0,.912.494.983.983,0,0,0,.894-.466,2.917,2.917,0,0,0,.305-1.468ZM5.643,1.274,5.181.958A2.121,2.121,0,0,0,5.612-.229V-.962h.8v.637A2,2,0,0,1,6.19.563,2.078,2.078,0,0,1,5.643,1.274ZM10.024,0H9.207V-5.418l-1.639.6v-.738L9.9-6.429h.127Z" transform="translate(921 2005)" fill="#6c6c6c"/>
    <path id="Trazado_1261999" data-name="Trazado 1261999" d="M4.544-2.729A3.718,3.718,0,0,1,4.056-.606,1.735,1.735,0,0,1,2.531.088,1.747,1.747,0,0,1,1.015-.591a3.529,3.529,0,0,1-.51-2.028V-3.7A3.636,3.636,0,0,1,.993-5.8a1.748,1.748,0,0,1,1.529-.686,1.764,1.764,0,0,1,1.521.661,3.508,3.508,0,0,1,.5,2.041ZM3.731-3.841a2.979,2.979,0,0,0-.29-1.505,1,1,0,0,0-.918-.472.985.985,0,0,0-.91.47A2.909,2.909,0,0,0,1.318-3.9v1.3a3.027,3.027,0,0,0,.3,1.531,1,1,0,0,0,.912.494.983.983,0,0,0,.894-.466,2.917,2.917,0,0,0,.305-1.468ZM5.643,1.274,5.181.958A2.121,2.121,0,0,0,5.612-.229V-.962h.8v.637A2,2,0,0,1,6.19.563,2.078,2.078,0,0,1,5.643,1.274Zm5.84-7.216L8.833,0H7.98l2.641-5.73H7.159V-6.4h4.324Z" transform="translate(938 1902)" fill="#6c6c6c"/>
    <path id="Trazado_1262000" data-name="Trazado 1262000" d="M4.544-2.729A3.718,3.718,0,0,1,4.056-.606,1.735,1.735,0,0,1,2.531.088,1.747,1.747,0,0,1,1.015-.591a3.529,3.529,0,0,1-.51-2.028V-3.7A3.636,3.636,0,0,1,.993-5.8a1.748,1.748,0,0,1,1.529-.686,1.764,1.764,0,0,1,1.521.661,3.508,3.508,0,0,1,.5,2.041ZM3.731-3.841a2.979,2.979,0,0,0-.29-1.505,1,1,0,0,0-.918-.472.985.985,0,0,0-.91.47A2.909,2.909,0,0,0,1.318-3.9v1.3a3.027,3.027,0,0,0,.3,1.531,1,1,0,0,0,.912.494.983.983,0,0,0,.894-.466,2.917,2.917,0,0,0,.305-1.468ZM5.643,1.274,5.181.958A2.121,2.121,0,0,0,5.612-.229V-.962h.8v.637A2,2,0,0,1,6.19.563,2.078,2.078,0,0,1,5.643,1.274ZM11.544,0H7.352V-.584L9.567-3.045a5.262,5.262,0,0,0,.679-.907,1.515,1.515,0,0,0,.187-.723,1.148,1.148,0,0,0-.3-.822,1.06,1.06,0,0,0-.809-.321,1.256,1.256,0,0,0-.943.345,1.318,1.318,0,0,0-.336.96H7.229A1.887,1.887,0,0,1,7.8-5.941a2.11,2.11,0,0,1,1.523-.545,2.027,2.027,0,0,1,1.411.468,1.6,1.6,0,0,1,.519,1.246,3.66,3.66,0,0,1-1.2,2.25L8.332-.664h3.212Z" transform="translate(950 1988)" fill="#6c6c6c"/>
    <path id="Trazado_1262001" data-name="Trazado 1262001" d="M4.544-2.729A3.718,3.718,0,0,1,4.056-.606,1.735,1.735,0,0,1,2.531.088,1.747,1.747,0,0,1,1.015-.591a3.529,3.529,0,0,1-.51-2.028V-3.7A3.636,3.636,0,0,1,.993-5.8a1.748,1.748,0,0,1,1.529-.686,1.764,1.764,0,0,1,1.521.661,3.508,3.508,0,0,1,.5,2.041ZM3.731-3.841a2.979,2.979,0,0,0-.29-1.505,1,1,0,0,0-.918-.472.985.985,0,0,0-.91.47A2.909,2.909,0,0,0,1.318-3.9v1.3a3.027,3.027,0,0,0,.3,1.531,1,1,0,0,0,.912.494.983.983,0,0,0,.894-.466,2.917,2.917,0,0,0,.305-1.468ZM5.643,1.274,5.181.958A2.121,2.121,0,0,0,5.612-.229V-.962h.8v.637A2,2,0,0,1,6.19.563,2.078,2.078,0,0,1,5.643,1.274ZM7.726-3.208,8.051-6.4h3.278v.751H8.741L8.547-3.9a2.065,2.065,0,0,1,1.068-.277A1.765,1.765,0,0,1,11-3.6a2.265,2.265,0,0,1,.514,1.562,2.186,2.186,0,0,1-.534,1.558A1.946,1.946,0,0,1,9.492.088a2.023,2.023,0,0,1-1.384-.47,1.877,1.877,0,0,1-.611-1.3h.769a1.291,1.291,0,0,0,.391.828,1.216,1.216,0,0,0,.835.279,1.1,1.1,0,0,0,.89-.387,1.617,1.617,0,0,0,.323-1.068,1.484,1.484,0,0,0-.349-1.031,1.188,1.188,0,0,0-.929-.389,1.34,1.34,0,0,0-.835.233l-.215.176Z" transform="translate(967 1937)" fill="#6c6c6c"/>
    <path id="Trazado_1262002" data-name="Trazado 1262002" d="M4.544-2.729A3.718,3.718,0,0,1,4.056-.606,1.735,1.735,0,0,1,2.531.088,1.747,1.747,0,0,1,1.015-.591a3.529,3.529,0,0,1-.51-2.028V-3.7A3.636,3.636,0,0,1,.993-5.8a1.748,1.748,0,0,1,1.529-.686,1.764,1.764,0,0,1,1.521.661,3.508,3.508,0,0,1,.5,2.041ZM3.731-3.841a2.979,2.979,0,0,0-.29-1.505,1,1,0,0,0-.918-.472.985.985,0,0,0-.91.47A2.909,2.909,0,0,0,1.318-3.9v1.3a3.027,3.027,0,0,0,.3,1.531,1,1,0,0,0,.912.494.983.983,0,0,0,.894-.466,2.917,2.917,0,0,0,.305-1.468ZM5.643,1.274,5.181.958A2.121,2.121,0,0,0,5.612-.229V-.962h.8v.637A2,2,0,0,1,6.19.563,2.078,2.078,0,0,1,5.643,1.274ZM11.544,0H7.352V-.584L9.567-3.045a5.262,5.262,0,0,0,.679-.907,1.515,1.515,0,0,0,.187-.723,1.148,1.148,0,0,0-.3-.822,1.06,1.06,0,0,0-.809-.321,1.256,1.256,0,0,0-.943.345,1.318,1.318,0,0,0-.336.96H7.229A1.887,1.887,0,0,1,7.8-5.941a2.11,2.11,0,0,1,1.523-.545,2.027,2.027,0,0,1,1.411.468,1.6,1.6,0,0,1,.519,1.246,3.66,3.66,0,0,1-1.2,2.25L8.332-.664h3.212Z" transform="translate(982 1989)" fill="#6c6c6c"/>
    <path id="Trazado_1262003" data-name="Trazado 1262003" d="M4.544-2.729A3.718,3.718,0,0,1,4.056-.606,1.735,1.735,0,0,1,2.531.088,1.747,1.747,0,0,1,1.015-.591a3.529,3.529,0,0,1-.51-2.028V-3.7A3.636,3.636,0,0,1,.993-5.8a1.748,1.748,0,0,1,1.529-.686,1.764,1.764,0,0,1,1.521.661,3.508,3.508,0,0,1,.5,2.041ZM3.731-3.841a2.979,2.979,0,0,0-.29-1.505,1,1,0,0,0-.918-.472.985.985,0,0,0-.91.47A2.909,2.909,0,0,0,1.318-3.9v1.3a3.027,3.027,0,0,0,.3,1.531,1,1,0,0,0,.912.494.983.983,0,0,0,.894-.466,2.917,2.917,0,0,0,.305-1.468ZM5.643,1.274,5.181.958A2.121,2.121,0,0,0,5.612-.229V-.962h.8v.637A2,2,0,0,1,6.19.563,2.078,2.078,0,0,1,5.643,1.274ZM8.534-3.595h.611a1.343,1.343,0,0,0,.905-.3,1.013,1.013,0,0,0,.33-.8A.992.992,0,0,0,9.259-5.818a1.166,1.166,0,0,0-.842.3,1.054,1.054,0,0,0-.314.8H7.291a1.632,1.632,0,0,1,.556-1.263,2.025,2.025,0,0,1,1.413-.5,2,2,0,0,1,1.419.479,1.73,1.73,0,0,1,.514,1.332,1.4,1.4,0,0,1-.27.809,1.632,1.632,0,0,1-.736.584A1.572,1.572,0,0,1,11-2.729a1.538,1.538,0,0,1,.288.945,1.745,1.745,0,0,1-.562,1.367A2.106,2.106,0,0,1,9.264.088,2.162,2.162,0,0,1,7.8-.4a1.618,1.618,0,0,1-.565-1.288h.817a1.046,1.046,0,0,0,.33.809,1.254,1.254,0,0,0,.883.3,1.23,1.23,0,0,0,.9-.308,1.186,1.186,0,0,0,.312-.883,1.076,1.076,0,0,0-.343-.857,1.493,1.493,0,0,0-.989-.308H8.534Z" transform="translate(999 1975)" fill="#6c6c6c"/>
    <path id="Trazado_1262004" data-name="Trazado 1262004" d="M4.544-2.729A3.718,3.718,0,0,1,4.056-.606,1.735,1.735,0,0,1,2.531.088,1.747,1.747,0,0,1,1.015-.591a3.529,3.529,0,0,1-.51-2.028V-3.7A3.636,3.636,0,0,1,.993-5.8a1.748,1.748,0,0,1,1.529-.686,1.764,1.764,0,0,1,1.521.661,3.508,3.508,0,0,1,.5,2.041ZM3.731-3.841a2.979,2.979,0,0,0-.29-1.505,1,1,0,0,0-.918-.472.985.985,0,0,0-.91.47A2.909,2.909,0,0,0,1.318-3.9v1.3a3.027,3.027,0,0,0,.3,1.531,1,1,0,0,0,.912.494.983.983,0,0,0,.894-.466,2.917,2.917,0,0,0,.305-1.468ZM5.643,1.274,5.181.958A2.121,2.121,0,0,0,5.612-.229V-.962h.8v.637A2,2,0,0,1,6.19.563,2.078,2.078,0,0,1,5.643,1.274ZM11.544,0H7.352V-.584L9.567-3.045a5.262,5.262,0,0,0,.679-.907,1.515,1.515,0,0,0,.187-.723,1.148,1.148,0,0,0-.3-.822,1.06,1.06,0,0,0-.809-.321,1.256,1.256,0,0,0-.943.345,1.318,1.318,0,0,0-.336.96H7.229A1.887,1.887,0,0,1,7.8-5.941a2.11,2.11,0,0,1,1.523-.545,2.027,2.027,0,0,1,1.411.468,1.6,1.6,0,0,1,.519,1.246,3.66,3.66,0,0,1-1.2,2.25L8.332-.664h3.212Z" transform="translate(1013 1989)" fill="#6c6c6c"/>
    <path id="Trazado_1262005" data-name="Trazado 1262005" d="M4.544-2.729A3.718,3.718,0,0,1,4.056-.606,1.735,1.735,0,0,1,2.531.088,1.747,1.747,0,0,1,1.015-.591a3.529,3.529,0,0,1-.51-2.028V-3.7A3.636,3.636,0,0,1,.993-5.8a1.748,1.748,0,0,1,1.529-.686,1.764,1.764,0,0,1,1.521.661,3.508,3.508,0,0,1,.5,2.041ZM3.731-3.841a2.979,2.979,0,0,0-.29-1.505,1,1,0,0,0-.918-.472.985.985,0,0,0-.91.47A2.909,2.909,0,0,0,1.318-3.9v1.3a3.027,3.027,0,0,0,.3,1.531,1,1,0,0,0,.912.494.983.983,0,0,0,.894-.466,2.917,2.917,0,0,0,.305-1.468ZM5.643,1.274,5.181.958A2.121,2.121,0,0,0,5.612-.229V-.962h.8v.637A2,2,0,0,1,6.19.563,2.078,2.078,0,0,1,5.643,1.274ZM8.534-3.595h.611a1.343,1.343,0,0,0,.905-.3,1.013,1.013,0,0,0,.33-.8A.992.992,0,0,0,9.259-5.818a1.166,1.166,0,0,0-.842.3,1.054,1.054,0,0,0-.314.8H7.291a1.632,1.632,0,0,1,.556-1.263,2.025,2.025,0,0,1,1.413-.5,2,2,0,0,1,1.419.479,1.73,1.73,0,0,1,.514,1.332,1.4,1.4,0,0,1-.27.809,1.632,1.632,0,0,1-.736.584A1.572,1.572,0,0,1,11-2.729a1.538,1.538,0,0,1,.288.945,1.745,1.745,0,0,1-.562,1.367A2.106,2.106,0,0,1,9.264.088,2.162,2.162,0,0,1,7.8-.4a1.618,1.618,0,0,1-.565-1.288h.817a1.046,1.046,0,0,0,.33.809,1.254,1.254,0,0,0,.883.3,1.23,1.23,0,0,0,.9-.308,1.186,1.186,0,0,0,.312-.883,1.076,1.076,0,0,0-.343-.857,1.493,1.493,0,0,0-.989-.308H8.534Z" transform="translate(1027 1975)" fill="#6c6c6c"/>
    <path id="Trazado_1262006" data-name="Trazado 1262006" d="M4.544-2.729A3.718,3.718,0,0,1,4.056-.606,1.735,1.735,0,0,1,2.531.088,1.747,1.747,0,0,1,1.015-.591a3.529,3.529,0,0,1-.51-2.028V-3.7A3.636,3.636,0,0,1,.993-5.8a1.748,1.748,0,0,1,1.529-.686,1.764,1.764,0,0,1,1.521.661,3.508,3.508,0,0,1,.5,2.041ZM3.731-3.841a2.979,2.979,0,0,0-.29-1.505,1,1,0,0,0-.918-.472.985.985,0,0,0-.91.47A2.909,2.909,0,0,0,1.318-3.9v1.3a3.027,3.027,0,0,0,.3,1.531,1,1,0,0,0,.912.494.983.983,0,0,0,.894-.466,2.917,2.917,0,0,0,.305-1.468ZM5.643,1.274,5.181.958A2.121,2.121,0,0,0,5.612-.229V-.962h.8v.637A2,2,0,0,1,6.19.563,2.078,2.078,0,0,1,5.643,1.274ZM8.534-3.595h.611a1.343,1.343,0,0,0,.905-.3,1.013,1.013,0,0,0,.33-.8A.992.992,0,0,0,9.259-5.818a1.166,1.166,0,0,0-.842.3,1.054,1.054,0,0,0-.314.8H7.291a1.632,1.632,0,0,1,.556-1.263,2.025,2.025,0,0,1,1.413-.5,2,2,0,0,1,1.419.479,1.73,1.73,0,0,1,.514,1.332,1.4,1.4,0,0,1-.27.809,1.632,1.632,0,0,1-.736.584A1.572,1.572,0,0,1,11-2.729a1.538,1.538,0,0,1,.288.945,1.745,1.745,0,0,1-.562,1.367A2.106,2.106,0,0,1,9.264.088,2.162,2.162,0,0,1,7.8-.4a1.618,1.618,0,0,1-.565-1.288h.817a1.046,1.046,0,0,0,.33.809,1.254,1.254,0,0,0,.883.3,1.23,1.23,0,0,0,.9-.308,1.186,1.186,0,0,0,.312-.883,1.076,1.076,0,0,0-.343-.857,1.493,1.493,0,0,0-.989-.308H8.534Z" transform="translate(1086 1981)" fill="#6c6c6c"/>
    <path id="Trazado_1262007" data-name="Trazado 1262007" d="M4.544-2.729A3.718,3.718,0,0,1,4.056-.606,1.735,1.735,0,0,1,2.531.088,1.747,1.747,0,0,1,1.015-.591a3.529,3.529,0,0,1-.51-2.028V-3.7A3.636,3.636,0,0,1,.993-5.8a1.748,1.748,0,0,1,1.529-.686,1.764,1.764,0,0,1,1.521.661,3.508,3.508,0,0,1,.5,2.041ZM3.731-3.841a2.979,2.979,0,0,0-.29-1.505,1,1,0,0,0-.918-.472.985.985,0,0,0-.91.47A2.909,2.909,0,0,0,1.318-3.9v1.3a3.027,3.027,0,0,0,.3,1.531,1,1,0,0,0,.912.494.983.983,0,0,0,.894-.466,2.917,2.917,0,0,0,.305-1.468ZM5.643,1.274,5.181.958A2.121,2.121,0,0,0,5.612-.229V-.962h.8v.637A2,2,0,0,1,6.19.563,2.078,2.078,0,0,1,5.643,1.274ZM8.534-3.595h.611a1.343,1.343,0,0,0,.905-.3,1.013,1.013,0,0,0,.33-.8A.992.992,0,0,0,9.259-5.818a1.166,1.166,0,0,0-.842.3,1.054,1.054,0,0,0-.314.8H7.291a1.632,1.632,0,0,1,.556-1.263,2.025,2.025,0,0,1,1.413-.5,2,2,0,0,1,1.419.479,1.73,1.73,0,0,1,.514,1.332,1.4,1.4,0,0,1-.27.809,1.632,1.632,0,0,1-.736.584A1.572,1.572,0,0,1,11-2.729a1.538,1.538,0,0,1,.288.945,1.745,1.745,0,0,1-.562,1.367A2.106,2.106,0,0,1,9.264.088,2.162,2.162,0,0,1,7.8-.4a1.618,1.618,0,0,1-.565-1.288h.817a1.046,1.046,0,0,0,.33.809,1.254,1.254,0,0,0,.883.3,1.23,1.23,0,0,0,.9-.308,1.186,1.186,0,0,0,.312-.883,1.076,1.076,0,0,0-.343-.857,1.493,1.493,0,0,0-.989-.308H8.534Z" transform="translate(1104 1975)" fill="#6c6c6c"/>
    <path id="Trazado_1262008" data-name="Trazado 1262008" d="M4.544-2.729A3.718,3.718,0,0,1,4.056-.606,1.735,1.735,0,0,1,2.531.088,1.747,1.747,0,0,1,1.015-.591a3.529,3.529,0,0,1-.51-2.028V-3.7A3.636,3.636,0,0,1,.993-5.8a1.748,1.748,0,0,1,1.529-.686,1.764,1.764,0,0,1,1.521.661,3.508,3.508,0,0,1,.5,2.041ZM3.731-3.841a2.979,2.979,0,0,0-.29-1.505,1,1,0,0,0-.918-.472.985.985,0,0,0-.91.47A2.909,2.909,0,0,0,1.318-3.9v1.3a3.027,3.027,0,0,0,.3,1.531,1,1,0,0,0,.912.494.983.983,0,0,0,.894-.466,2.917,2.917,0,0,0,.305-1.468ZM5.643,1.274,5.181.958A2.121,2.121,0,0,0,5.612-.229V-.962h.8v.637A2,2,0,0,1,6.19.563,2.078,2.078,0,0,1,5.643,1.274Zm5.142-3.423h.888v.664h-.888V0H9.967V-1.485H7.053v-.479L9.918-6.4h.866Zm-2.808,0H9.967V-5.287l-.1.176Z" transform="translate(1116 1945)" fill="#12263f"/>
    <path id="Trazado_1262009" data-name="Trazado 1262009" d="M4.544-2.729A3.718,3.718,0,0,1,4.056-.606,1.735,1.735,0,0,1,2.531.088,1.747,1.747,0,0,1,1.015-.591a3.529,3.529,0,0,1-.51-2.028V-3.7A3.636,3.636,0,0,1,.993-5.8a1.748,1.748,0,0,1,1.529-.686,1.764,1.764,0,0,1,1.521.661,3.508,3.508,0,0,1,.5,2.041ZM3.731-3.841a2.979,2.979,0,0,0-.29-1.505,1,1,0,0,0-.918-.472.985.985,0,0,0-.91.47A2.909,2.909,0,0,0,1.318-3.9v1.3a3.027,3.027,0,0,0,.3,1.531,1,1,0,0,0,.912.494.983.983,0,0,0,.894-.466,2.917,2.917,0,0,0,.305-1.468ZM5.643,1.274,5.181.958A2.121,2.121,0,0,0,5.612-.229V-.962h.8v.637A2,2,0,0,1,6.19.563,2.078,2.078,0,0,1,5.643,1.274Zm5.142-3.423h.888v.664h-.888V0H9.967V-1.485H7.053v-.479L9.918-6.4h.866Zm-2.808,0H9.967V-5.287l-.1.176Z" transform="translate(1133 1954)" fill="#6c6c6c"/>
    <path id="Trazado_1262010" data-name="Trazado 1262010" d="M4.544-2.729A3.718,3.718,0,0,1,4.056-.606,1.735,1.735,0,0,1,2.531.088,1.747,1.747,0,0,1,1.015-.591a3.529,3.529,0,0,1-.51-2.028V-3.7A3.636,3.636,0,0,1,.993-5.8a1.748,1.748,0,0,1,1.529-.686,1.764,1.764,0,0,1,1.521.661,3.508,3.508,0,0,1,.5,2.041ZM3.731-3.841a2.979,2.979,0,0,0-.29-1.505,1,1,0,0,0-.918-.472.985.985,0,0,0-.91.47A2.909,2.909,0,0,0,1.318-3.9v1.3a3.027,3.027,0,0,0,.3,1.531,1,1,0,0,0,.912.494.983.983,0,0,0,.894-.466,2.917,2.917,0,0,0,.305-1.468ZM5.643,1.274,5.181.958A2.121,2.121,0,0,0,5.612-.229V-.962h.8v.637A2,2,0,0,1,6.19.563,2.078,2.078,0,0,1,5.643,1.274Zm5.142-3.423h.888v.664h-.888V0H9.967V-1.485H7.053v-.479L9.918-6.4h.866Zm-2.808,0H9.967V-5.287l-.1.176Z" transform="translate(1164 1954)" fill="#6c6c6c"/>
    <path id="Trazado_1262011" data-name="Trazado 1262011" d="M4.544-2.729A3.718,3.718,0,0,1,4.056-.606,1.735,1.735,0,0,1,2.531.088,1.747,1.747,0,0,1,1.015-.591a3.529,3.529,0,0,1-.51-2.028V-3.7A3.636,3.636,0,0,1,.993-5.8a1.748,1.748,0,0,1,1.529-.686,1.764,1.764,0,0,1,1.521.661,3.508,3.508,0,0,1,.5,2.041ZM3.731-3.841a2.979,2.979,0,0,0-.29-1.505,1,1,0,0,0-.918-.472.985.985,0,0,0-.91.47A2.909,2.909,0,0,0,1.318-3.9v1.3a3.027,3.027,0,0,0,.3,1.531,1,1,0,0,0,.912.494.983.983,0,0,0,.894-.466,2.917,2.917,0,0,0,.305-1.468ZM5.643,1.274,5.181.958A2.121,2.121,0,0,0,5.612-.229V-.962h.8v.637A2,2,0,0,1,6.19.563,2.078,2.078,0,0,1,5.643,1.274ZM11.544,0H7.352V-.584L9.567-3.045a5.262,5.262,0,0,0,.679-.907,1.515,1.515,0,0,0,.187-.723,1.148,1.148,0,0,0-.3-.822,1.06,1.06,0,0,0-.809-.321,1.256,1.256,0,0,0-.943.345,1.318,1.318,0,0,0-.336.96H7.229A1.887,1.887,0,0,1,7.8-5.941a2.11,2.11,0,0,1,1.523-.545,2.027,2.027,0,0,1,1.411.468,1.6,1.6,0,0,1,.519,1.246,3.66,3.66,0,0,1-1.2,2.25L8.332-.664h3.212Z" transform="translate(1181 1989)" fill="#6c6c6c"/>
    <path id="Trazado_1262012" data-name="Trazado 1262012" d="M4.544-2.729A3.718,3.718,0,0,1,4.056-.606,1.735,1.735,0,0,1,2.531.088,1.747,1.747,0,0,1,1.015-.591a3.529,3.529,0,0,1-.51-2.028V-3.7A3.636,3.636,0,0,1,.993-5.8a1.748,1.748,0,0,1,1.529-.686,1.764,1.764,0,0,1,1.521.661,3.508,3.508,0,0,1,.5,2.041ZM3.731-3.841a2.979,2.979,0,0,0-.29-1.505,1,1,0,0,0-.918-.472.985.985,0,0,0-.91.47A2.909,2.909,0,0,0,1.318-3.9v1.3a3.027,3.027,0,0,0,.3,1.531,1,1,0,0,0,.912.494.983.983,0,0,0,.894-.466,2.917,2.917,0,0,0,.305-1.468ZM5.643,1.274,5.181.958A2.121,2.121,0,0,0,5.612-.229V-.962h.8v.637A2,2,0,0,1,6.19.563,2.078,2.078,0,0,1,5.643,1.274ZM8.534-3.595h.611a1.343,1.343,0,0,0,.905-.3,1.013,1.013,0,0,0,.33-.8A.992.992,0,0,0,9.259-5.818a1.166,1.166,0,0,0-.842.3,1.054,1.054,0,0,0-.314.8H7.291a1.632,1.632,0,0,1,.556-1.263,2.025,2.025,0,0,1,1.413-.5,2,2,0,0,1,1.419.479,1.73,1.73,0,0,1,.514,1.332,1.4,1.4,0,0,1-.27.809,1.632,1.632,0,0,1-.736.584A1.572,1.572,0,0,1,11-2.729a1.538,1.538,0,0,1,.288.945,1.745,1.745,0,0,1-.562,1.367A2.106,2.106,0,0,1,9.264.088,2.162,2.162,0,0,1,7.8-.4a1.618,1.618,0,0,1-.565-1.288h.817a1.046,1.046,0,0,0,.33.809,1.254,1.254,0,0,0,.883.3,1.23,1.23,0,0,0,.9-.308,1.186,1.186,0,0,0,.312-.883,1.076,1.076,0,0,0-.343-.857,1.493,1.493,0,0,0-.989-.308H8.534Z" transform="translate(1194 1976)" fill="#6c6c6c"/>
    <path id="Trazado_1262013" data-name="Trazado 1262013" d="M4.544-2.729A3.718,3.718,0,0,1,4.056-.606,1.735,1.735,0,0,1,2.531.088,1.747,1.747,0,0,1,1.015-.591a3.529,3.529,0,0,1-.51-2.028V-3.7A3.636,3.636,0,0,1,.993-5.8a1.748,1.748,0,0,1,1.529-.686,1.764,1.764,0,0,1,1.521.661,3.508,3.508,0,0,1,.5,2.041ZM3.731-3.841a2.979,2.979,0,0,0-.29-1.505,1,1,0,0,0-.918-.472.985.985,0,0,0-.91.47A2.909,2.909,0,0,0,1.318-3.9v1.3a3.027,3.027,0,0,0,.3,1.531,1,1,0,0,0,.912.494.983.983,0,0,0,.894-.466,2.917,2.917,0,0,0,.305-1.468ZM5.643,1.274,5.181.958A2.121,2.121,0,0,0,5.612-.229V-.962h.8v.637A2,2,0,0,1,6.19.563,2.078,2.078,0,0,1,5.643,1.274ZM7.726-3.208,8.051-6.4h3.278v.751H8.741L8.547-3.9a2.065,2.065,0,0,1,1.068-.277A1.765,1.765,0,0,1,11-3.6a2.265,2.265,0,0,1,.514,1.562,2.186,2.186,0,0,1-.534,1.558A1.946,1.946,0,0,1,9.492.088a2.023,2.023,0,0,1-1.384-.47,1.877,1.877,0,0,1-.611-1.3h.769a1.291,1.291,0,0,0,.391.828,1.216,1.216,0,0,0,.835.279,1.1,1.1,0,0,0,.89-.387,1.617,1.617,0,0,0,.323-1.068,1.484,1.484,0,0,0-.349-1.031,1.188,1.188,0,0,0-.929-.389,1.34,1.34,0,0,0-.835.233l-.215.176Z" transform="translate(1209 1937)" fill="#6c6c6c"/>
    <path id="Trazado_1262014" data-name="Trazado 1262014" d="M4.544-2.729A3.718,3.718,0,0,1,4.056-.606,1.735,1.735,0,0,1,2.531.088,1.747,1.747,0,0,1,1.015-.591a3.529,3.529,0,0,1-.51-2.028V-3.7A3.636,3.636,0,0,1,.993-5.8a1.748,1.748,0,0,1,1.529-.686,1.764,1.764,0,0,1,1.521.661,3.508,3.508,0,0,1,.5,2.041ZM3.731-3.841a2.979,2.979,0,0,0-.29-1.505,1,1,0,0,0-.918-.472.985.985,0,0,0-.91.47A2.909,2.909,0,0,0,1.318-3.9v1.3a3.027,3.027,0,0,0,.3,1.531,1,1,0,0,0,.912.494.983.983,0,0,0,.894-.466,2.917,2.917,0,0,0,.305-1.468ZM5.643,1.274,5.181.958A2.121,2.121,0,0,0,5.612-.229V-.962h.8v.637A2,2,0,0,1,6.19.563,2.078,2.078,0,0,1,5.643,1.274Zm5.142-3.423h.888v.664h-.888V0H9.967V-1.485H7.053v-.479L9.918-6.4h.866Zm-2.808,0H9.967V-5.287l-.1.176Z" transform="translate(1223 1954)" fill="#6c6c6c"/>
    <path id="Trazado_1262015" data-name="Trazado 1262015" d="M4.544-2.729A3.718,3.718,0,0,1,4.056-.606,1.735,1.735,0,0,1,2.531.088,1.747,1.747,0,0,1,1.015-.591a3.529,3.529,0,0,1-.51-2.028V-3.7A3.636,3.636,0,0,1,.993-5.8a1.748,1.748,0,0,1,1.529-.686,1.764,1.764,0,0,1,1.521.661,3.508,3.508,0,0,1,.5,2.041ZM3.731-3.841a2.979,2.979,0,0,0-.29-1.505,1,1,0,0,0-.918-.472.985.985,0,0,0-.91.47A2.909,2.909,0,0,0,1.318-3.9v1.3a3.027,3.027,0,0,0,.3,1.531,1,1,0,0,0,.912.494.983.983,0,0,0,.894-.466,2.917,2.917,0,0,0,.305-1.468ZM5.643,1.274,5.181.958A2.121,2.121,0,0,0,5.612-.229V-.962h.8v.637A2,2,0,0,1,6.19.563,2.078,2.078,0,0,1,5.643,1.274ZM7.726-3.208,8.051-6.4h3.278v.751H8.741L8.547-3.9a2.065,2.065,0,0,1,1.068-.277A1.765,1.765,0,0,1,11-3.6a2.265,2.265,0,0,1,.514,1.562,2.186,2.186,0,0,1-.534,1.558A1.946,1.946,0,0,1,9.492.088a2.023,2.023,0,0,1-1.384-.47,1.877,1.877,0,0,1-.611-1.3h.769a1.291,1.291,0,0,0,.391.828,1.216,1.216,0,0,0,.835.279,1.1,1.1,0,0,0,.89-.387,1.617,1.617,0,0,0,.323-1.068,1.484,1.484,0,0,0-.349-1.031,1.188,1.188,0,0,0-.929-.389,1.34,1.34,0,0,0-.835.233l-.215.176Z" transform="translate(1241 1937)" fill="#6c6c6c"/>
    <path id="Trazado_1262016" data-name="Trazado 1262016" d="M4.544-2.729A3.718,3.718,0,0,1,4.056-.606,1.735,1.735,0,0,1,2.531.088,1.747,1.747,0,0,1,1.015-.591a3.529,3.529,0,0,1-.51-2.028V-3.7A3.636,3.636,0,0,1,.993-5.8a1.748,1.748,0,0,1,1.529-.686,1.764,1.764,0,0,1,1.521.661,3.508,3.508,0,0,1,.5,2.041ZM3.731-3.841a2.979,2.979,0,0,0-.29-1.505,1,1,0,0,0-.918-.472.985.985,0,0,0-.91.47A2.909,2.909,0,0,0,1.318-3.9v1.3a3.027,3.027,0,0,0,.3,1.531,1,1,0,0,0,.912.494.983.983,0,0,0,.894-.466,2.917,2.917,0,0,0,.305-1.468ZM5.643,1.274,5.181.958A2.121,2.121,0,0,0,5.612-.229V-.962h.8v.637A2,2,0,0,1,6.19.563,2.078,2.078,0,0,1,5.643,1.274Zm5.142-3.423h.888v.664h-.888V0H9.967V-1.485H7.053v-.479L9.918-6.4h.866Zm-2.808,0H9.967V-5.287l-.1.176Z" transform="translate(1248 1961)" fill="#6c6c6c"/>
    <path id="Trazado_125090" data-name="Trazado 125090" d="M87.941-8975.793h10.5" transform="translate(1189.715 10902.219)" fill="none" stroke="#0a4666" stroke-width="2"/>
    <path id="Trazado_125091" data-name="Trazado 125091" d="M87.941-8975.793h10.5" transform="translate(1189.715 10918.554)" fill="none" stroke="#db6e5f" stroke-width="2"/>
    <path id="Trazado_125092" data-name="Trazado 125092" d="M87.941-8975.793h10.5" transform="translate(1189.715 10936.233)" fill="none" stroke="#b5c7d1" stroke-width="2"/>
    <path id="Trazado_125093" data-name="Trazado 125093" d="M87.941-8975.793h10.5" transform="translate(1189.715 10952.568)" fill="none" stroke="#aaca79" stroke-width="2"/>
    <path id="Trazado_1262017" data-name="Trazado 1262017" d="M2.5,0A2.5,2.5,0,1,1,0,2.5,2.5,2.5,0,0,1,2.5,0Z" transform="translate(883 1965)" fill="#0a4666"/>
    <path id="Trazado_1262018" data-name="Trazado 1262018" d="M2.5,0A2.784,2.784,0,0,1,5,3,2.784,2.784,0,0,1,2.5,6,2.784,2.784,0,0,1,0,3,2.784,2.784,0,0,1,2.5,0Z" transform="translate(898 1914)" fill="#0a4666"/>
    <path id="Trazado_1262019" data-name="Trazado 1262019" d="M2,0A2.292,2.292,0,0,1,4,2.5,2.292,2.292,0,0,1,2,5,2.292,2.292,0,0,1,0,2.5,2.292,2.292,0,0,1,2,0Z" transform="translate(915 1999)" fill="#0a4666"/>
    <path id="Trazado_1262020" data-name="Trazado 1262020" d="M2.5,0A2.5,2.5,0,1,1,0,2.5,2.5,2.5,0,0,1,2.5,0Z" transform="translate(930 1898)" fill="#0a4666"/>
    <path id="Trazado_1262021" data-name="Trazado 1262021" d="M2.5,0A2.5,2.5,0,1,1,0,2.5,2.5,2.5,0,0,1,2.5,0Z" transform="translate(945 1984)" fill="#0a4666"/>
    <path id="Trazado_1262022" data-name="Trazado 1262022" d="M2.5,0A2.5,2.5,0,1,1,0,2.5,2.5,2.5,0,0,1,2.5,0Z" transform="translate(960 1930)" fill="#0a4666"/>
    <path id="Trazado_1262023" data-name="Trazado 1262023" d="M2,0A2.292,2.292,0,0,1,4,2.5,2.292,2.292,0,0,1,2,5,2.292,2.292,0,0,1,0,2.5,2.292,2.292,0,0,1,2,0Z" transform="translate(976 1983)" fill="#0a4666"/>
    <path id="Trazado_1262024" data-name="Trazado 1262024" d="M2.5,0A2.5,2.5,0,1,1,0,2.5,2.5,2.5,0,0,1,2.5,0Z" transform="translate(990 1967)" fill="#0a4666"/>
    <path id="Trazado_1262025" data-name="Trazado 1262025" d="M2.5,0A2.5,2.5,0,1,1,0,2.5,2.5,2.5,0,0,1,2.5,0Z" transform="translate(1004 1983)" fill="#0a4666"/>
    <path id="Trazado_1262026" data-name="Trazado 1262026" d="M2.5,0A2.5,2.5,0,1,1,0,2.5,2.5,2.5,0,0,1,2.5,0Z" transform="translate(1020 1967)" fill="#0a4666"/>
    <path id="Trazado_1262027" data-name="Trazado 1262027" d="M2,0C3.1,0,4,1.343,4,3S3.1,6,2,6,0,4.657,0,3,.9,0,2,0Z" transform="translate(1037 1914)" fill="#0a4666"/>
    <path id="Trazado_1262028" data-name="Trazado 1262028" d="M2.5,0A2.5,2.5,0,1,1,0,2.5,2.5,2.5,0,0,1,2.5,0Z" transform="translate(1050 1967)" fill="#0a4666"/>
    <path id="Trazado_1262029" data-name="Trazado 1262029" d="M2.5,0A2.5,2.5,0,1,1,0,2.5,2.5,2.5,0,0,1,2.5,0Z" transform="translate(1066 1913)" fill="#0a4666"/>
    <path id="Trazado_1262030" data-name="Trazado 1262030" d="M2.5,0A2.5,2.5,0,1,1,0,2.5,2.5,2.5,0,0,1,2.5,0Z" transform="translate(1081 1967)" fill="#0a4666"/>
    <path id="Trazado_1262031" data-name="Trazado 1262031" d="M2,0A2.292,2.292,0,0,1,4,2.5,2.292,2.292,0,0,1,2,5,2.292,2.292,0,0,1,0,2.5,2.292,2.292,0,0,1,2,0Z" transform="translate(1098 1967)" fill="#0a4666"/>
    <path id="Trazado_1262032" data-name="Trazado 1262032" d="M2.5,0A2.292,2.292,0,0,1,5,2,2.292,2.292,0,0,1,2.5,4,2.292,2.292,0,0,1,0,2,2.292,2.292,0,0,1,2.5,0Z" transform="translate(1113 1949)" fill="#0a4666"/>
    <path id="Trazado_1262033" data-name="Trazado 1262033" d="M2.5,0A2.292,2.292,0,0,1,5,2,2.292,2.292,0,0,1,2.5,4,2.292,2.292,0,0,1,0,2,2.292,2.292,0,0,1,2.5,0Z" transform="translate(1128 1949)" fill="#0a4666"/>
    <path id="Trazado_1262034" data-name="Trazado 1262034" d="M2.5,0A2.5,2.5,0,1,1,0,2.5,2.5,2.5,0,0,1,2.5,0Z" transform="translate(1142 1913)" fill="#0a4666"/>
    <path id="Trazado_1262035" data-name="Trazado 1262035" d="M2.5,0A2.5,2.5,0,1,1,0,2.5,2.5,2.5,0,0,1,2.5,0Z" transform="translate(1173 1983)" fill="#0a4666"/>
    <path id="Trazado_1262036" data-name="Trazado 1262036" d="M2.5,0A2.5,2.5,0,1,1,0,2.5,2.5,2.5,0,0,1,2.5,0Z" transform="translate(1187 1967)" fill="#0a4666"/>
    <path id="Trazado_1262037" data-name="Trazado 1262037" d="M2,0A2.292,2.292,0,0,1,4,2.5,2.292,2.292,0,0,1,2,5,2.292,2.292,0,0,1,0,2.5,2.292,2.292,0,0,1,2,0Z" transform="translate(1203 1931)" fill="#0a4666"/>
    <path id="Trazado_1262038" data-name="Trazado 1262038" d="M2.5,0A2.292,2.292,0,0,1,5,2,2.292,2.292,0,0,1,2.5,4,2.292,2.292,0,0,1,0,2,2.292,2.292,0,0,1,2.5,0Z" transform="translate(1218 1949)" fill="#0a4666"/>
    <path id="Trazado_1262039" data-name="Trazado 1262039" d="M2.5,0A2.5,2.5,0,1,1,0,2.5,2.5,2.5,0,0,1,2.5,0Z" transform="translate(1233 1931)" fill="#0a4666"/>
    <path id="Trazado_1262040" data-name="Trazado 1262040" d="M2.5,0A2.292,2.292,0,0,1,5,2,2.292,2.292,0,0,1,2.5,4,2.292,2.292,0,0,1,0,2,2.292,2.292,0,0,1,2.5,0Z" transform="translate(1249 1950)" fill="#0a4666"/>
    <path id="Trazado_125094" data-name="Trazado 125094" d="M-532.875-9077.033h365.621" transform="translate(1418.633 10947.834)" fill="none" stroke="#b5c7d1" stroke-width="2"/>
    <path id="Trazado_125095" data-name="Trazado 125095" d="M-532.875-9077.033h365.621" transform="translate(1418.633 11115.49)" fill="none" stroke="#aaca79" stroke-width="2"/>
    <path id="Trazado_1262041" data-name="Trazado 1262041" d="M4.544-2.729A3.718,3.718,0,0,1,4.056-.606,1.735,1.735,0,0,1,2.531.088,1.747,1.747,0,0,1,1.015-.591a3.529,3.529,0,0,1-.51-2.028V-3.7A3.636,3.636,0,0,1,.993-5.8a1.748,1.748,0,0,1,1.529-.686,1.764,1.764,0,0,1,1.521.661,3.508,3.508,0,0,1,.5,2.041ZM3.731-3.841a2.979,2.979,0,0,0-.29-1.505,1,1,0,0,0-.918-.472.985.985,0,0,0-.91.47A2.909,2.909,0,0,0,1.318-3.9v1.3a3.027,3.027,0,0,0,.3,1.531,1,1,0,0,0,.912.494.983.983,0,0,0,.894-.466,2.917,2.917,0,0,0,.305-1.468ZM5.643,1.274,5.181.958A2.121,2.121,0,0,0,5.612-.229V-.962h.8v.637A2,2,0,0,1,6.19.563,2.078,2.078,0,0,1,5.643,1.274ZM8.534-3.595h.611a1.343,1.343,0,0,0,.905-.3,1.013,1.013,0,0,0,.33-.8A.992.992,0,0,0,9.259-5.818a1.166,1.166,0,0,0-.842.3,1.054,1.054,0,0,0-.314.8H7.291a1.632,1.632,0,0,1,.556-1.263,2.025,2.025,0,0,1,1.413-.5,2,2,0,0,1,1.419.479,1.73,1.73,0,0,1,.514,1.332,1.4,1.4,0,0,1-.27.809,1.632,1.632,0,0,1-.736.584A1.572,1.572,0,0,1,11-2.729a1.538,1.538,0,0,1,.288.945,1.745,1.745,0,0,1-.562,1.367A2.106,2.106,0,0,1,9.264.088,2.162,2.162,0,0,1,7.8-.4a1.618,1.618,0,0,1-.565-1.288h.817a1.046,1.046,0,0,0,.33.809,1.254,1.254,0,0,0,.883.3,1.23,1.23,0,0,0,.9-.308,1.186,1.186,0,0,0,.312-.883,1.076,1.076,0,0,0-.343-.857,1.493,1.493,0,0,0-.989-.308H8.534Z" transform="translate(1059 1975)" fill="#6c6c6c"/>
    <path id="Trazado_125096" data-name="Trazado 125096" d="M-532.875-9077.033h365.621" transform="translate(1418.633 11044.18)" fill="none" stroke="#db6e5f" stroke-width="2"/>
    <path id="Trazado_1262042" data-name="Trazado 1262042" d="M3.2,0H2.386V-5.418l-1.639.6v-.738l2.329-.875H3.2ZM5.643,1.274,5.181.958A2.121,2.121,0,0,0,5.612-.229V-.962h.8v.637A2,2,0,0,1,6.19.563,2.078,2.078,0,0,1,5.643,1.274Zm5.722-4a3.718,3.718,0,0,1-.488,2.123A1.735,1.735,0,0,1,9.352.088,1.747,1.747,0,0,1,7.835-.591a3.529,3.529,0,0,1-.51-2.028V-3.7a3.636,3.636,0,0,1,.488-2.1,1.748,1.748,0,0,1,1.529-.686,1.764,1.764,0,0,1,1.521.661,3.508,3.508,0,0,1,.5,2.041Zm-.813-1.112a2.979,2.979,0,0,0-.29-1.505,1,1,0,0,0-.918-.472.985.985,0,0,0-.91.47A2.909,2.909,0,0,0,8.139-3.9v1.3a3.027,3.027,0,0,0,.3,1.531,1,1,0,0,0,.912.494.983.983,0,0,0,.894-.466,2.917,2.917,0,0,0,.305-1.468Z" transform="translate(864 1850)" fill="#6c6c6c"/>
    <path id="Trazado_1262043" data-name="Trazado 1262043" d="M4.544-2.729A3.718,3.718,0,0,1,4.056-.606,1.735,1.735,0,0,1,2.531.088,1.747,1.747,0,0,1,1.015-.591a3.529,3.529,0,0,1-.51-2.028V-3.7A3.636,3.636,0,0,1,.993-5.8a1.748,1.748,0,0,1,1.529-.686,1.764,1.764,0,0,1,1.521.661,3.508,3.508,0,0,1,.5,2.041ZM3.731-3.841a2.979,2.979,0,0,0-.29-1.505,1,1,0,0,0-.918-.472.985.985,0,0,0-.91.47A2.909,2.909,0,0,0,1.318-3.9v1.3a3.027,3.027,0,0,0,.3,1.531,1,1,0,0,0,.912.494.983.983,0,0,0,.894-.466,2.917,2.917,0,0,0,.305-1.468ZM5.643,1.274,5.181.958A2.121,2.121,0,0,0,5.612-.229V-.962h.8v.637A2,2,0,0,1,6.19.563,2.078,2.078,0,0,1,5.643,1.274Zm5.59-6a1.486,1.486,0,0,1-.253.853,1.719,1.719,0,0,1-.683.584,1.834,1.834,0,0,1,.793.628,1.581,1.581,0,0,1,.292.936A1.672,1.672,0,0,1,10.822-.4,2.153,2.153,0,0,1,9.347.088,2.143,2.143,0,0,1,7.868-.406a1.68,1.68,0,0,1-.556-1.321A1.629,1.629,0,0,1,7.6-2.663,1.764,1.764,0,0,1,8.38-3.3a1.677,1.677,0,0,1-.672-.584,1.507,1.507,0,0,1-.246-.848A1.654,1.654,0,0,1,7.98-6.012a1.945,1.945,0,0,1,1.367-.475,1.947,1.947,0,0,1,1.365.475A1.65,1.65,0,0,1,11.232-4.729Zm-.664,2.984a1.179,1.179,0,0,0-.341-.875,1.208,1.208,0,0,0-.89-.338,1.187,1.187,0,0,0-.881.334,1.193,1.193,0,0,0-.332.879,1.136,1.136,0,0,0,.323.857,1.24,1.24,0,0,0,.9.312,1.236,1.236,0,0,0,.9-.314A1.133,1.133,0,0,0,10.569-1.745ZM9.347-5.818a1.049,1.049,0,0,0-.776.3,1.09,1.09,0,0,0-.3.806,1.084,1.084,0,0,0,.292.789,1.037,1.037,0,0,0,.78.3,1.037,1.037,0,0,0,.78-.3,1.084,1.084,0,0,0,.292-.789,1.085,1.085,0,0,0-.3-.8A1.034,1.034,0,0,0,9.347-5.818Z" transform="translate(864 1884)" fill="#6c6c6c"/>
    <path id="Trazado_1262044" data-name="Trazado 1262044" d="M4.544-2.729A3.718,3.718,0,0,1,4.056-.606,1.735,1.735,0,0,1,2.531.088,1.747,1.747,0,0,1,1.015-.591a3.529,3.529,0,0,1-.51-2.028V-3.7A3.636,3.636,0,0,1,.993-5.8a1.748,1.748,0,0,1,1.529-.686,1.764,1.764,0,0,1,1.521.661,3.508,3.508,0,0,1,.5,2.041ZM3.731-3.841a2.979,2.979,0,0,0-.29-1.505,1,1,0,0,0-.918-.472.985.985,0,0,0-.91.47A2.909,2.909,0,0,0,1.318-3.9v1.3a3.027,3.027,0,0,0,.3,1.531,1,1,0,0,0,.912.494.983.983,0,0,0,.894-.466,2.917,2.917,0,0,0,.305-1.468ZM5.643,1.274,5.181.958A2.121,2.121,0,0,0,5.612-.229V-.962h.8v.637A2,2,0,0,1,6.19.563,2.078,2.078,0,0,1,5.643,1.274Zm4.9-7.677v.69h-.149a2.141,2.141,0,0,0-1.512.563,2.341,2.341,0,0,0-.65,1.534,1.735,1.735,0,0,1,1.38-.58,1.659,1.659,0,0,1,1.334.589,2.271,2.271,0,0,1,.5,1.521,2.264,2.264,0,0,1-.538,1.582A1.854,1.854,0,0,1,9.461.088a1.826,1.826,0,0,1-1.49-.705A2.8,2.8,0,0,1,7.4-2.435v-.312a4.212,4.212,0,0,1,.754-2.7A2.768,2.768,0,0,1,10.4-6.4ZM9.475-3.52a1.3,1.3,0,0,0-.769.25,1.305,1.305,0,0,0-.488.628v.3a2.1,2.1,0,0,0,.356,1.274,1.067,1.067,0,0,0,.888.483,1.034,1.034,0,0,0,.864-.4,1.678,1.678,0,0,0,.314-1.059,1.678,1.678,0,0,0-.319-1.066A1.021,1.021,0,0,0,9.475-3.52Z" transform="translate(864 1920)" fill="#6c6c6c"/>
    <path id="Trazado_1262045" data-name="Trazado 1262045" d="M4.544-2.729A3.718,3.718,0,0,1,4.056-.606,1.735,1.735,0,0,1,2.531.088,1.747,1.747,0,0,1,1.015-.591a3.529,3.529,0,0,1-.51-2.028V-3.7A3.636,3.636,0,0,1,.993-5.8a1.748,1.748,0,0,1,1.529-.686,1.764,1.764,0,0,1,1.521.661,3.508,3.508,0,0,1,.5,2.041ZM3.731-3.841a2.979,2.979,0,0,0-.29-1.505,1,1,0,0,0-.918-.472.985.985,0,0,0-.91.47A2.909,2.909,0,0,0,1.318-3.9v1.3a3.027,3.027,0,0,0,.3,1.531,1,1,0,0,0,.912.494.983.983,0,0,0,.894-.466,2.917,2.917,0,0,0,.305-1.468ZM5.643,1.274,5.181.958A2.121,2.121,0,0,0,5.612-.229V-.962h.8v.637A2,2,0,0,1,6.19.563,2.078,2.078,0,0,1,5.643,1.274Zm5.142-3.423h.888v.664h-.888V0H9.967V-1.485H7.053v-.479L9.918-6.4h.866Zm-2.808,0H9.967V-5.287l-.1.176Z" transform="translate(864 1954)" fill="#6c6c6c"/>
    <path id="Trazado_1262046" data-name="Trazado 1262046" d="M4.544-2.729A3.718,3.718,0,0,1,4.056-.606,1.735,1.735,0,0,1,2.531.088,1.747,1.747,0,0,1,1.015-.591a3.529,3.529,0,0,1-.51-2.028V-3.7A3.636,3.636,0,0,1,.993-5.8a1.748,1.748,0,0,1,1.529-.686,1.764,1.764,0,0,1,1.521.661,3.508,3.508,0,0,1,.5,2.041ZM3.731-3.841a2.979,2.979,0,0,0-.29-1.505,1,1,0,0,0-.918-.472.985.985,0,0,0-.91.47A2.909,2.909,0,0,0,1.318-3.9v1.3a3.027,3.027,0,0,0,.3,1.531,1,1,0,0,0,.912.494.983.983,0,0,0,.894-.466,2.917,2.917,0,0,0,.305-1.468ZM5.643,1.274,5.181.958A2.121,2.121,0,0,0,5.612-.229V-.962h.8v.637A2,2,0,0,1,6.19.563,2.078,2.078,0,0,1,5.643,1.274ZM11.544,0H7.352V-.584L9.567-3.045a5.262,5.262,0,0,0,.679-.907,1.515,1.515,0,0,0,.187-.723,1.148,1.148,0,0,0-.3-.822,1.06,1.06,0,0,0-.809-.321,1.256,1.256,0,0,0-.943.345,1.318,1.318,0,0,0-.336.96H7.229A1.887,1.887,0,0,1,7.8-5.941a2.11,2.11,0,0,1,1.523-.545,2.027,2.027,0,0,1,1.411.468,1.6,1.6,0,0,1,.519,1.246,3.66,3.66,0,0,1-1.2,2.25L8.332-.664h3.212Z" transform="translate(864 1989)" fill="#6c6c6c"/>
    <path id="Trazado_1262047" data-name="Trazado 1262047" d="M2.051-2.121H.145v-.59H2.051Zm4.2-.3A3.305,3.305,0,0,1,5.813-.539,1.542,1.542,0,0,1,4.457.078a1.553,1.553,0,0,1-1.348-.6,3.137,3.137,0,0,1-.453-1.8v-.965A3.232,3.232,0,0,1,3.09-5.156a1.554,1.554,0,0,1,1.359-.609A1.568,1.568,0,0,1,5.8-5.178a3.119,3.119,0,0,1,.445,1.814Zm-.723-.988a2.648,2.648,0,0,0-.258-1.338.887.887,0,0,0-.816-.42.876.876,0,0,0-.809.418,2.585,2.585,0,0,0-.262,1.285v1.156A2.69,2.69,0,0,0,3.646-.951a.886.886,0,0,0,.811.439.874.874,0,0,0,.795-.414,2.593,2.593,0,0,0,.271-1.3Zm1.7,4.547L6.813.852A1.885,1.885,0,0,0,7.2-.2V-.855H7.9v.566A1.779,1.779,0,0,1,7.709.5,1.847,1.847,0,0,1,7.223,1.133ZM12.469,0H8.742V-.52l1.969-2.187a4.677,4.677,0,0,0,.6-.807,1.346,1.346,0,0,0,.166-.643,1.02,1.02,0,0,0-.27-.73.942.942,0,0,0-.719-.285,1.116,1.116,0,0,0-.838.307,1.171,1.171,0,0,0-.3.854H8.633a1.677,1.677,0,0,1,.506-1.27,1.875,1.875,0,0,1,1.354-.484,1.8,1.8,0,0,1,1.254.416,1.419,1.419,0,0,1,.461,1.107,3.253,3.253,0,0,1-1.07,2L9.613-.59h2.855Z" transform="translate(862 2057)" fill="#6c6c6c"/>
    <path id="Trazado_1262048" data-name="Trazado 1262048" d="M2.848,0H2.121V-4.816L.664-4.281v-.656l2.07-.777h.113Z" transform="translate(883 2067)" fill="#6c6c6c"/>
    <path id="Trazado_1262049" data-name="Trazado 1262049" d="M4.2,0H.473V-.52L2.441-2.707a4.677,4.677,0,0,0,.6-.807,1.346,1.346,0,0,0,.166-.643,1.02,1.02,0,0,0-.27-.73.942.942,0,0,0-.719-.285,1.116,1.116,0,0,0-.838.307,1.171,1.171,0,0,0-.3.854H.363a1.677,1.677,0,0,1,.506-1.27,1.875,1.875,0,0,1,1.354-.484,1.8,1.8,0,0,1,1.254.416,1.419,1.419,0,0,1,.461,1.107,3.253,3.253,0,0,1-1.07,2L1.344-.59H4.2Z" transform="translate(898 2067)" fill="#6c6c6c"/>
    <path id="Trazado_1262050" data-name="Trazado 1262050" d="M1.523-3.2h.543a1.193,1.193,0,0,0,.8-.27.9.9,0,0,0,.293-.707.882.882,0,0,0-1-1A1.036,1.036,0,0,0,1.42-4.9a.936.936,0,0,0-.279.709H.418A1.451,1.451,0,0,1,.912-5.318a1.8,1.8,0,0,1,1.256-.447A1.779,1.779,0,0,1,3.43-5.34a1.538,1.538,0,0,1,.457,1.184,1.248,1.248,0,0,1-.24.719,1.451,1.451,0,0,1-.654.52,1.4,1.4,0,0,1,.725.492,1.367,1.367,0,0,1,.256.84,1.551,1.551,0,0,1-.5,1.215,1.872,1.872,0,0,1-1.3.449,1.922,1.922,0,0,1-1.3-.434A1.438,1.438,0,0,1,.367-1.5h.727a.93.93,0,0,0,.293.719,1.114,1.114,0,0,0,.785.27,1.093,1.093,0,0,0,.8-.273A1.054,1.054,0,0,0,3.25-1.57a.956.956,0,0,0-.3-.762,1.328,1.328,0,0,0-.879-.273H1.523Z" transform="translate(915 2067)" fill="#6c6c6c"/>
    <path id="Trazado_1262051" data-name="Trazado 1262051" d="M3.523-1.91h.789v.59H3.523V0H2.8V-1.32H.207v-.426L2.754-5.687h.77Zm-2.5,0H2.8V-4.7l-.086.156Z" transform="translate(930 2067)" fill="#6c6c6c"/>
    <path id="Trazado_1262052" data-name="Trazado 1262052" d="M.8-2.852l.289-2.836H4.008v.668h-2.3L1.535-3.469a1.835,1.835,0,0,1,.949-.246A1.569,1.569,0,0,1,3.719-3.2a2.013,2.013,0,0,1,.457,1.389A1.943,1.943,0,0,1,3.7-.428,1.73,1.73,0,0,1,2.375.078,1.8,1.8,0,0,1,1.145-.34,1.668,1.668,0,0,1,.6-1.5h.684a1.148,1.148,0,0,0,.348.736,1.081,1.081,0,0,0,.742.248.975.975,0,0,0,.791-.344A1.437,1.437,0,0,0,3.453-1.8a1.319,1.319,0,0,0-.311-.916,1.056,1.056,0,0,0-.826-.346,1.191,1.191,0,0,0-.742.207L1.383-2.7Z" transform="translate(945 2067)" fill="#6c6c6c"/>
    <path id="Trazado_1262053" data-name="Trazado 1262053" d="M3.309-5.691v.613H3.176a1.9,1.9,0,0,0-1.344.5,2.081,2.081,0,0,0-.578,1.363A1.543,1.543,0,0,1,2.48-3.73a1.475,1.475,0,0,1,1.186.523,2.019,2.019,0,0,1,.443,1.352A2.013,2.013,0,0,1,3.631-.449,1.648,1.648,0,0,1,2.348.078,1.623,1.623,0,0,1,1.023-.549,2.485,2.485,0,0,1,.516-2.164v-.277a3.744,3.744,0,0,1,.67-2.4,2.46,2.46,0,0,1,1.994-.85ZM2.359-3.129a1.153,1.153,0,0,0-.684.223,1.16,1.16,0,0,0-.434.559v.266A1.866,1.866,0,0,0,1.559-.949a.948.948,0,0,0,.789.43.919.919,0,0,0,.768-.359,1.491,1.491,0,0,0,.279-.941,1.492,1.492,0,0,0-.283-.947A.908.908,0,0,0,2.359-3.129Z" transform="translate(962 2067)" fill="#6c6c6c"/>
    <path id="Trazado_1262054" data-name="Trazado 1262054" d="M4.145-5.281,1.789,0H1.031L3.379-5.094H.3v-.594H4.145Z" transform="translate(976 2067)" fill="#6c6c6c"/>
    <path id="Trazado_1262055" data-name="Trazado 1262055" d="M3.922-4.2a1.321,1.321,0,0,1-.225.758,1.528,1.528,0,0,1-.607.52,1.63,1.63,0,0,1,.705.559,1.406,1.406,0,0,1,.26.832,1.486,1.486,0,0,1-.5,1.176A1.913,1.913,0,0,1,2.246.078,1.9,1.9,0,0,1,.932-.361,1.493,1.493,0,0,1,.438-1.535a1.448,1.448,0,0,1,.252-.832,1.568,1.568,0,0,1,.7-.562,1.491,1.491,0,0,1-.6-.52A1.34,1.34,0,0,1,.57-4.2a1.47,1.47,0,0,1,.461-1.141,1.729,1.729,0,0,1,1.215-.422,1.731,1.731,0,0,1,1.213.422A1.467,1.467,0,0,1,3.922-4.2Zm-.59,2.652a1.048,1.048,0,0,0-.3-.777,1.074,1.074,0,0,0-.791-.3,1.055,1.055,0,0,0-.783.3,1.06,1.06,0,0,0-.295.781,1.01,1.01,0,0,0,.287.762,1.1,1.1,0,0,0,.8.277,1.1,1.1,0,0,0,.8-.279A1.007,1.007,0,0,0,3.332-1.551ZM2.246-5.172a.932.932,0,0,0-.689.264.969.969,0,0,0-.264.717.964.964,0,0,0,.26.7.922.922,0,0,0,.693.268.922.922,0,0,0,.693-.268.964.964,0,0,0,.26-.7A.964.964,0,0,0,2.93-4.9.919.919,0,0,0,2.246-5.172Z" transform="translate(991 2067)" fill="#6c6c6c"/>
    <path id="Trazado_1262056" data-name="Trazado 1262056" d="M3.242-2.5a1.768,1.768,0,0,1-.541.434,1.468,1.468,0,0,1-.689.164,1.515,1.515,0,0,1-.857-.242A1.574,1.574,0,0,1,.59-2.826a2.324,2.324,0,0,1-.2-.971A2.368,2.368,0,0,1,.607-4.824a1.593,1.593,0,0,1,.615-.7,1.754,1.754,0,0,1,.93-.242,1.588,1.588,0,0,1,1.33.631,2.752,2.752,0,0,1,.486,1.721V-3.2A3.677,3.677,0,0,1,3.313-.779,2.521,2.521,0,0,1,1.332,0H1.191V-.605h.152a1.987,1.987,0,0,0,1.375-.467A2.005,2.005,0,0,0,3.242-2.5Zm-1.113,0a1.116,1.116,0,0,0,.67-.223,1.313,1.313,0,0,0,.447-.551v-.289a1.989,1.989,0,0,0-.309-1.156.921.921,0,0,0-.781-.445.928.928,0,0,0-.766.365,1.507,1.507,0,0,0-.289.963,1.568,1.568,0,0,0,.279.959A.884.884,0,0,0,2.129-2.5Z" transform="translate(1007 2067)" fill="#6c6c6c"/>
    <path id="Trazado_1262057" data-name="Trazado 1262057" d="M3.2,0H2.386V-5.418l-1.639.6v-.738l2.329-.875H3.2ZM9.6-2.729A3.718,3.718,0,0,1,9.11-.606,1.735,1.735,0,0,1,7.585.088,1.747,1.747,0,0,1,6.069-.591a3.529,3.529,0,0,1-.51-2.028V-3.7a3.636,3.636,0,0,1,.488-2.1,1.748,1.748,0,0,1,1.529-.686A1.764,1.764,0,0,1,9.1-5.825a3.508,3.508,0,0,1,.5,2.041ZM8.785-3.841a2.979,2.979,0,0,0-.29-1.505,1,1,0,0,0-.918-.472.985.985,0,0,0-.91.47A2.909,2.909,0,0,0,6.372-3.9v1.3a3.027,3.027,0,0,0,.3,1.531,1,1,0,0,0,.912.494.983.983,0,0,0,.894-.466,2.917,2.917,0,0,0,.305-1.468Z" transform="translate(1019 2068)" fill="#6c6c6c"/>
    <path id="Trazado_1262058" data-name="Trazado 1262058" d="M3.2,0H2.386V-5.418l-1.639.6v-.738l2.329-.875H3.2ZM8.257,0H7.44V-5.418l-1.639.6v-.738L8.13-6.429h.127Z" transform="translate(1035 2068)" fill="#6c6c6c"/>
    <path id="Trazado_1262059" data-name="Trazado 1262059" d="M3.2,0H2.386V-5.418l-1.639.6v-.738l2.329-.875H3.2ZM9.778,0H5.585V-.584L7.8-3.045a5.262,5.262,0,0,0,.679-.907,1.515,1.515,0,0,0,.187-.723,1.148,1.148,0,0,0-.3-.822,1.06,1.06,0,0,0-.809-.321,1.256,1.256,0,0,0-.943.345,1.318,1.318,0,0,0-.336.96H5.462a1.887,1.887,0,0,1,.569-1.428,2.11,2.11,0,0,1,1.523-.545,2.027,2.027,0,0,1,1.411.468,1.6,1.6,0,0,1,.519,1.246,3.66,3.66,0,0,1-1.2,2.25L6.565-.664H9.778Z" transform="translate(1050 2068)" fill="#6c6c6c"/>
    <path id="Trazado_1262060" data-name="Trazado 1262060" d="M3.2,0H2.386V-5.418l-1.639.6v-.738l2.329-.875H3.2ZM6.768-3.595h.611a1.343,1.343,0,0,0,.905-.3,1.013,1.013,0,0,0,.33-.8A.992.992,0,0,0,7.493-5.818a1.166,1.166,0,0,0-.842.3,1.054,1.054,0,0,0-.314.8H5.524A1.632,1.632,0,0,1,6.08-5.983a2.025,2.025,0,0,1,1.413-.5,2,2,0,0,1,1.419.479,1.73,1.73,0,0,1,.514,1.332,1.4,1.4,0,0,1-.27.809,1.632,1.632,0,0,1-.736.584,1.572,1.572,0,0,1,.815.554,1.538,1.538,0,0,1,.288.945A1.745,1.745,0,0,1,8.96-.417,2.106,2.106,0,0,1,7.5.088,2.162,2.162,0,0,1,6.031-.4a1.618,1.618,0,0,1-.565-1.288h.817a1.046,1.046,0,0,0,.33.809,1.254,1.254,0,0,0,.883.3,1.23,1.23,0,0,0,.9-.308,1.186,1.186,0,0,0,.312-.883,1.076,1.076,0,0,0-.343-.857,1.493,1.493,0,0,0-.989-.308H6.768Z" transform="translate(1064 2068)" fill="#6c6c6c"/>
    <path id="Trazado_1262061" data-name="Trazado 1262061" d="M3.2,0H2.386V-5.418l-1.639.6v-.738l2.329-.875H3.2ZM9.018-2.149h.888v.664H9.018V0H8.2V-1.485H5.287v-.479L8.152-6.4h.866Zm-2.808,0H8.2V-5.287l-.1.176Z" transform="translate(1079 2068)" fill="#6c6c6c"/>
    <path id="Trazado_1262062" data-name="Trazado 1262062" d="M3.2,0H2.386V-5.418l-1.639.6v-.738l2.329-.875H3.2ZM5.959-3.208,6.284-6.4H9.563v.751H6.974L6.781-3.9a2.065,2.065,0,0,1,1.068-.277A1.765,1.765,0,0,1,9.237-3.6a2.265,2.265,0,0,1,.514,1.562A2.186,2.186,0,0,1,9.218-.481,1.946,1.946,0,0,1,7.726.088a2.023,2.023,0,0,1-1.384-.47,1.877,1.877,0,0,1-.611-1.3H6.5a1.291,1.291,0,0,0,.391.828,1.216,1.216,0,0,0,.835.279,1.1,1.1,0,0,0,.89-.387A1.617,1.617,0,0,0,8.938-2.03a1.484,1.484,0,0,0-.349-1.031A1.188,1.188,0,0,0,7.66-3.45a1.34,1.34,0,0,0-.835.233l-.215.176Z" transform="translate(1094 2068)" fill="#6c6c6c"/>
    <path id="Trazado_1262063" data-name="Trazado 1262063" d="M3.2,0H2.386V-5.418l-1.639.6v-.738l2.329-.875H3.2ZM8.776-6.4v.69H8.626a2.141,2.141,0,0,0-1.512.563,2.341,2.341,0,0,0-.65,1.534,1.735,1.735,0,0,1,1.38-.58,1.659,1.659,0,0,1,1.334.589,2.271,2.271,0,0,1,.5,1.521A2.264,2.264,0,0,1,9.138-.505,1.854,1.854,0,0,1,7.695.088a1.826,1.826,0,0,1-1.49-.705,2.8,2.8,0,0,1-.571-1.817v-.312a4.212,4.212,0,0,1,.754-2.7A2.768,2.768,0,0,1,8.631-6.4ZM7.708-3.52a1.3,1.3,0,0,0-.769.25,1.305,1.305,0,0,0-.488.628v.3a2.1,2.1,0,0,0,.356,1.274,1.067,1.067,0,0,0,.888.483,1.034,1.034,0,0,0,.864-.4,1.678,1.678,0,0,0,.314-1.059,1.678,1.678,0,0,0-.319-1.066A1.021,1.021,0,0,0,7.708-3.52Z" transform="translate(1108 2068)" fill="#6c6c6c"/>
    <path id="Trazado_1262064" data-name="Trazado 1262064" d="M3.2,0H2.386V-5.418l-1.639.6v-.738l2.329-.875H3.2ZM9.716-5.941,7.066,0H6.214L8.855-5.73H5.392V-6.4H9.716Z" transform="translate(1124 2068)" fill="#6c6c6c"/>
    <path id="Trazado_1262065" data-name="Trazado 1262065" d="M3.2,0H2.386V-5.418l-1.639.6v-.738l2.329-.875H3.2ZM9.466-4.729a1.486,1.486,0,0,1-.253.853,1.719,1.719,0,0,1-.683.584,1.834,1.834,0,0,1,.793.628,1.581,1.581,0,0,1,.292.936A1.672,1.672,0,0,1,9.055-.4,2.153,2.153,0,0,1,7.581.088,2.143,2.143,0,0,1,6.1-.406a1.68,1.68,0,0,1-.556-1.321,1.629,1.629,0,0,1,.283-.936A1.764,1.764,0,0,1,6.614-3.3a1.677,1.677,0,0,1-.672-.584A1.507,1.507,0,0,1,5.7-4.729a1.654,1.654,0,0,1,.519-1.283,1.945,1.945,0,0,1,1.367-.475,1.947,1.947,0,0,1,1.365.475A1.65,1.65,0,0,1,9.466-4.729ZM8.8-1.745a1.179,1.179,0,0,0-.341-.875,1.208,1.208,0,0,0-.89-.338,1.187,1.187,0,0,0-.881.334,1.193,1.193,0,0,0-.332.879,1.136,1.136,0,0,0,.323.857,1.24,1.24,0,0,0,.9.312,1.236,1.236,0,0,0,.9-.314A1.133,1.133,0,0,0,8.8-1.745ZM7.581-5.818a1.049,1.049,0,0,0-.776.3,1.09,1.09,0,0,0-.3.806,1.084,1.084,0,0,0,.292.789,1.037,1.037,0,0,0,.78.3,1.037,1.037,0,0,0,.78-.3,1.084,1.084,0,0,0,.292-.789,1.085,1.085,0,0,0-.3-.8A1.034,1.034,0,0,0,7.581-5.818Z" transform="translate(1140 2068)" fill="#6c6c6c"/>
    <path id="Trazado_1262066" data-name="Trazado 1262066" d="M3.2,0H2.386V-5.418l-1.639.6v-.738l2.329-.875H3.2ZM8.7-2.812a1.989,1.989,0,0,1-.609.488,1.651,1.651,0,0,1-.776.185,1.7,1.7,0,0,1-.965-.272,1.771,1.771,0,0,1-.635-.767,2.614,2.614,0,0,1-.224-1.092,2.664,2.664,0,0,1,.244-1.156,1.792,1.792,0,0,1,.692-.787,1.974,1.974,0,0,1,1.046-.272,1.787,1.787,0,0,1,1.5.71,3.1,3.1,0,0,1,.547,1.936V-3.6A4.136,4.136,0,0,1,8.78-.877,2.836,2.836,0,0,1,6.552,0H6.394V-.681h.171a2.236,2.236,0,0,0,1.547-.525A2.256,2.256,0,0,0,8.7-2.812Zm-1.252,0a1.255,1.255,0,0,0,.754-.25,1.477,1.477,0,0,0,.5-.62v-.325a2.237,2.237,0,0,0-.347-1.3,1.036,1.036,0,0,0-.879-.5,1.044,1.044,0,0,0-.861.411,1.7,1.7,0,0,0-.325,1.083,1.764,1.764,0,0,0,.314,1.079A1,1,0,0,0,7.449-2.812Z" transform="translate(1154 2068)" fill="#6c6c6c"/>
    <path id="Trazado_1262067" data-name="Trazado 1262067" d="M4.724,0H.532V-.584L2.747-3.045a5.262,5.262,0,0,0,.679-.907,1.515,1.515,0,0,0,.187-.723,1.148,1.148,0,0,0-.3-.822A1.06,1.06,0,0,0,2.5-5.818a1.256,1.256,0,0,0-.943.345,1.318,1.318,0,0,0-.336.96H.409A1.887,1.887,0,0,1,.978-5.941,2.11,2.11,0,0,1,2.5-6.486a2.027,2.027,0,0,1,1.411.468A1.6,1.6,0,0,1,4.43-4.772a3.66,3.66,0,0,1-1.2,2.25L1.512-.664H4.724ZM9.6-2.729A3.718,3.718,0,0,1,9.11-.606,1.735,1.735,0,0,1,7.585.088,1.747,1.747,0,0,1,6.069-.591a3.529,3.529,0,0,1-.51-2.028V-3.7a3.636,3.636,0,0,1,.488-2.1,1.748,1.748,0,0,1,1.529-.686A1.764,1.764,0,0,1,9.1-5.825a3.508,3.508,0,0,1,.5,2.041ZM8.785-3.841a2.979,2.979,0,0,0-.29-1.505,1,1,0,0,0-.918-.472.985.985,0,0,0-.91.47A2.909,2.909,0,0,0,6.372-3.9v1.3a3.027,3.027,0,0,0,.3,1.531,1,1,0,0,0,.912.494.983.983,0,0,0,.894-.466,2.917,2.917,0,0,0,.305-1.468Z" transform="translate(1170 2068)" fill="#6c6c6c"/>
    <path id="Trazado_1262068" data-name="Trazado 1262068" d="M4.724,0H.532V-.584L2.747-3.045a5.262,5.262,0,0,0,.679-.907,1.515,1.515,0,0,0,.187-.723,1.148,1.148,0,0,0-.3-.822A1.06,1.06,0,0,0,2.5-5.818a1.256,1.256,0,0,0-.943.345,1.318,1.318,0,0,0-.336.96H.409A1.887,1.887,0,0,1,.978-5.941,2.11,2.11,0,0,1,2.5-6.486a2.027,2.027,0,0,1,1.411.468A1.6,1.6,0,0,1,4.43-4.772a3.66,3.66,0,0,1-1.2,2.25L1.512-.664H4.724ZM8.257,0H7.44V-5.418l-1.639.6v-.738L8.13-6.429h.127Z" transform="translate(1185 2068)" fill="#6c6c6c"/>
    <path id="Trazado_1262069" data-name="Trazado 1262069" d="M4.724,0H.532V-.584L2.747-3.045a5.262,5.262,0,0,0,.679-.907,1.515,1.515,0,0,0,.187-.723,1.148,1.148,0,0,0-.3-.822A1.06,1.06,0,0,0,2.5-5.818a1.256,1.256,0,0,0-.943.345,1.318,1.318,0,0,0-.336.96H.409A1.887,1.887,0,0,1,.978-5.941,2.11,2.11,0,0,1,2.5-6.486a2.027,2.027,0,0,1,1.411.468A1.6,1.6,0,0,1,4.43-4.772a3.66,3.66,0,0,1-1.2,2.25L1.512-.664H4.724ZM9.778,0H5.585V-.584L7.8-3.045a5.262,5.262,0,0,0,.679-.907,1.515,1.515,0,0,0,.187-.723,1.148,1.148,0,0,0-.3-.822,1.06,1.06,0,0,0-.809-.321,1.256,1.256,0,0,0-.943.345,1.318,1.318,0,0,0-.336.96H5.462a1.887,1.887,0,0,1,.569-1.428,2.11,2.11,0,0,1,1.523-.545,2.027,2.027,0,0,1,1.411.468,1.6,1.6,0,0,1,.519,1.246,3.66,3.66,0,0,1-1.2,2.25L6.565-.664H9.778Z" transform="translate(1200 2068)" fill="#6c6c6c"/>
    <path id="Trazado_1262070" data-name="Trazado 1262070" d="M4.724,0H.532V-.584L2.747-3.045a5.262,5.262,0,0,0,.679-.907,1.515,1.515,0,0,0,.187-.723,1.148,1.148,0,0,0-.3-.822A1.06,1.06,0,0,0,2.5-5.818a1.256,1.256,0,0,0-.943.345,1.318,1.318,0,0,0-.336.96H.409A1.887,1.887,0,0,1,.978-5.941,2.11,2.11,0,0,1,2.5-6.486a2.027,2.027,0,0,1,1.411.468A1.6,1.6,0,0,1,4.43-4.772a3.66,3.66,0,0,1-1.2,2.25L1.512-.664H4.724ZM6.768-3.595h.611a1.343,1.343,0,0,0,.905-.3,1.013,1.013,0,0,0,.33-.8A.992.992,0,0,0,7.493-5.818a1.166,1.166,0,0,0-.842.3,1.054,1.054,0,0,0-.314.8H5.524A1.632,1.632,0,0,1,6.08-5.983a2.025,2.025,0,0,1,1.413-.5,2,2,0,0,1,1.419.479,1.73,1.73,0,0,1,.514,1.332,1.4,1.4,0,0,1-.27.809,1.632,1.632,0,0,1-.736.584,1.572,1.572,0,0,1,.815.554,1.538,1.538,0,0,1,.288.945A1.745,1.745,0,0,1,8.96-.417,2.106,2.106,0,0,1,7.5.088,2.162,2.162,0,0,1,6.031-.4a1.618,1.618,0,0,1-.565-1.288h.817a1.046,1.046,0,0,0,.33.809,1.254,1.254,0,0,0,.883.3,1.23,1.23,0,0,0,.9-.308,1.186,1.186,0,0,0,.312-.883,1.076,1.076,0,0,0-.343-.857,1.493,1.493,0,0,0-.989-.308H6.768Z" transform="translate(1217 2068)" fill="#6c6c6c"/>
    <path id="Trazado_1262071" data-name="Trazado 1262071" d="M4.724,0H.532V-.584L2.747-3.045a5.262,5.262,0,0,0,.679-.907,1.515,1.515,0,0,0,.187-.723,1.148,1.148,0,0,0-.3-.822A1.06,1.06,0,0,0,2.5-5.818a1.256,1.256,0,0,0-.943.345,1.318,1.318,0,0,0-.336.96H.409A1.887,1.887,0,0,1,.978-5.941,2.11,2.11,0,0,1,2.5-6.486a2.027,2.027,0,0,1,1.411.468A1.6,1.6,0,0,1,4.43-4.772a3.66,3.66,0,0,1-1.2,2.25L1.512-.664H4.724ZM9.018-2.149h.888v.664H9.018V0H8.2V-1.485H5.287v-.479L8.152-6.4h.866Zm-2.808,0H8.2V-5.287l-.1.176Z" transform="translate(1233 2068)" fill="#6c6c6c"/>
    <path id="Trazado_1262072" data-name="Trazado 1262072" d="M4.724,0H.532V-.584L2.747-3.045a5.262,5.262,0,0,0,.679-.907,1.515,1.515,0,0,0,.187-.723,1.148,1.148,0,0,0-.3-.822A1.06,1.06,0,0,0,2.5-5.818a1.256,1.256,0,0,0-.943.345,1.318,1.318,0,0,0-.336.96H.409A1.887,1.887,0,0,1,.978-5.941,2.11,2.11,0,0,1,2.5-6.486a2.027,2.027,0,0,1,1.411.468A1.6,1.6,0,0,1,4.43-4.772a3.66,3.66,0,0,1-1.2,2.25L1.512-.664H4.724ZM5.959-3.208,6.284-6.4H9.563v.751H6.974L6.781-3.9a2.065,2.065,0,0,1,1.068-.277A1.765,1.765,0,0,1,9.237-3.6a2.265,2.265,0,0,1,.514,1.562A2.186,2.186,0,0,1,9.218-.481,1.946,1.946,0,0,1,7.726.088a2.023,2.023,0,0,1-1.384-.47,1.877,1.877,0,0,1-.611-1.3H6.5a1.291,1.291,0,0,0,.391.828,1.216,1.216,0,0,0,.835.279,1.1,1.1,0,0,0,.89-.387A1.617,1.617,0,0,0,8.938-2.03a1.484,1.484,0,0,0-.349-1.031A1.188,1.188,0,0,0,7.66-3.45a1.34,1.34,0,0,0-.835.233l-.215.176Z" transform="translate(1246 2068)" fill="#6c6c6c"/>
    <path id="Trazado_1262073" data-name="Trazado 1262073" d="M3.089-2.588h-1.5V0H.738V-6.4H2.856a2.507,2.507,0,0,1,1.663.492A1.771,1.771,0,0,1,5.1-4.474a1.723,1.723,0,0,1-.323,1.042,1.928,1.928,0,0,1-.9.664l1.5,2.716V0H4.478Zm-1.5-.69h1.3a1.464,1.464,0,0,0,1-.325,1.1,1.1,0,0,0,.371-.87,1.157,1.157,0,0,0-.354-.91A1.5,1.5,0,0,0,2.878-5.7H1.586ZM9.092,0a1.708,1.708,0,0,1-.114-.5A1.814,1.814,0,0,1,7.625.088a1.678,1.678,0,0,1-1.154-.4,1.287,1.287,0,0,1-.45-1.009,1.344,1.344,0,0,1,.565-1.154,2.662,2.662,0,0,1,1.589-.411h.791v-.374a.913.913,0,0,0-.255-.679,1.024,1.024,0,0,0-.751-.253,1.185,1.185,0,0,0-.729.22.647.647,0,0,0-.294.532H6.117a1.122,1.122,0,0,1,.253-.688,1.725,1.725,0,0,1,.686-.525,2.306,2.306,0,0,1,.951-.193,1.88,1.88,0,0,1,1.288.411A1.482,1.482,0,0,1,9.778-3.3v2.188A2.676,2.676,0,0,0,9.945-.07V0ZM7.743-.62a1.429,1.429,0,0,0,.725-.2,1.2,1.2,0,0,0,.5-.514v-.976H8.328q-1.494,0-1.494.875a.74.74,0,0,0,.255.6A.98.98,0,0,0,7.743-.62Zm4.078-4.135.026.6a1.733,1.733,0,0,1,1.424-.686q1.507,0,1.521,1.7V0h-.813V-3.146a1.1,1.1,0,0,0-.235-.76.942.942,0,0,0-.719-.246,1.173,1.173,0,0,0-.694.211,1.432,1.432,0,0,0-.466.554V0h-.813V-4.755Zm4,2.338a2.8,2.8,0,0,1,.514-1.769A1.644,1.644,0,0,1,17.7-4.843a1.636,1.636,0,0,1,1.358.615l.04-.527h.743V-.114a1.934,1.934,0,0,1-.547,1.455,2.019,2.019,0,0,1-1.47.532,2.446,2.446,0,0,1-1.006-.22,1.732,1.732,0,0,1-.751-.6l.422-.488a1.59,1.59,0,0,0,1.279.646,1.246,1.246,0,0,0,.925-.334,1.277,1.277,0,0,0,.332-.94V-.475a1.671,1.671,0,0,1-1.332.563,1.624,1.624,0,0,1-1.351-.672A2.938,2.938,0,0,1,15.825-2.417Zm.817.092a2.132,2.132,0,0,0,.33,1.263,1.071,1.071,0,0,0,.923.459,1.191,1.191,0,0,0,1.129-.7V-3.472A1.2,1.2,0,0,0,17.9-4.153a1.081,1.081,0,0,0-.927.461A2.322,2.322,0,0,0,16.642-2.325Zm4.21-.1a2.808,2.808,0,0,1,.275-1.257,2.049,2.049,0,0,1,.765-.861,2.081,2.081,0,0,1,1.118-.3,2.005,2.005,0,0,1,1.571.672,2.587,2.587,0,0,1,.6,1.789v.057a2.833,2.833,0,0,1-.266,1.246,2.019,2.019,0,0,1-.76.859,2.105,2.105,0,0,1-1.136.308,2,2,0,0,1-1.567-.672,2.574,2.574,0,0,1-.6-1.78Zm.817.1a2.034,2.034,0,0,0,.367,1.27,1.174,1.174,0,0,0,.982.479A1.167,1.167,0,0,0,24-1.061a2.224,2.224,0,0,0,.365-1.36A2.031,2.031,0,0,0,24-3.689a1.181,1.181,0,0,0-.987-.486,1.167,1.167,0,0,0-.971.479A2.208,2.208,0,0,0,21.669-2.325Z" transform="translate(1294 1929)" fill="#6c6c6c"/>
    <path id="Trazado_1262074" data-name="Trazado 1262074" d="M1.591-.69H4.623V0H.743V-6.4h.848Zm8.7-1.34A2.354,2.354,0,0,1,9.543-.464,2.456,2.456,0,0,1,7.866.088,2.255,2.255,0,0,1,6.049-.725,3.271,3.271,0,0,1,5.366-2.9v-.615a3.646,3.646,0,0,1,.319-1.569,2.38,2.38,0,0,1,.9-1.039,2.514,2.514,0,0,1,1.354-.363,2.312,2.312,0,0,1,1.635.569,2.382,2.382,0,0,1,.716,1.575H9.444a1.83,1.83,0,0,0-.477-1.107,1.445,1.445,0,0,0-1.026-.343,1.51,1.51,0,0,0-1.268.6,2.742,2.742,0,0,0-.459,1.7v.62a2.819,2.819,0,0,0,.435,1.657A1.406,1.406,0,0,0,7.866-.6,1.624,1.624,0,0,0,8.945-.921a1.768,1.768,0,0,0,.5-1.11Z" transform="translate(1294 1945)" fill="#6c6c6c"/>
    <path id="Trazado_1262075" data-name="Trazado 1262075" d="M1.591-.69H4.623V0H.743V-6.4h.848Zm5.88-2.162a3.967,3.967,0,0,1-1.58-.767A1.465,1.465,0,0,1,5.4-4.742,1.548,1.548,0,0,1,6-5.992a2.4,2.4,0,0,1,1.571-.494,2.621,2.621,0,0,1,1.176.255,1.933,1.933,0,0,1,.8.7,1.8,1.8,0,0,1,.283.98H8.982a1.164,1.164,0,0,0-.369-.912,1.5,1.5,0,0,0-1.042-.332,1.539,1.539,0,0,0-.973.275.916.916,0,0,0-.349.762.824.824,0,0,0,.332.661A3.257,3.257,0,0,0,7.71-3.6,5.23,5.23,0,0,1,8.958-3.1a1.894,1.894,0,0,1,.668.631,1.61,1.61,0,0,1,.218.848A1.5,1.5,0,0,1,9.237-.38,2.586,2.586,0,0,1,7.616.088a3.008,3.008,0,0,1-1.23-.253A2.071,2.071,0,0,1,5.5-.857a1.689,1.689,0,0,1-.31-1h.848a1.1,1.1,0,0,0,.428.916A1.8,1.8,0,0,0,7.616-.6,1.658,1.658,0,0,0,8.64-.875.885.885,0,0,0,9-1.617a.869.869,0,0,0-.33-.727A3.8,3.8,0,0,0,7.471-2.852Z" transform="translate(1294 1962)" fill="#6c6c6c"/>
    <path id="Trazado_1262076" data-name="Trazado 1262076" d="M1.591-.69H4.623V0H.743V-6.4h.848Zm4.9.69H5.647V-6.4h.844Z" transform="translate(1296 1980)" fill="#6c6c6c"/>
    <path id="Trazado_1262077" data-name="Trazado 1262077" d="M8.265-1.143a3.582,3.582,0,0,1-1.5.92A6.489,6.489,0,0,1,4.589.127a3.871,3.871,0,0,1-2.9-1.111A4.5,4.5,0,0,1,.527-4.075l-.006-.8A5.516,5.516,0,0,1,1-7.259,3.582,3.582,0,0,1,2.384-8.826a3.905,3.905,0,0,1,2.079-.549,4.094,4.094,0,0,1,2.682.79A3.349,3.349,0,0,1,8.258-6.227H6.113a1.752,1.752,0,0,0-.5-1.1,1.6,1.6,0,0,0-1.079-.33,1.454,1.454,0,0,0-1.295.711A3.8,3.8,0,0,0,2.78-4.919v.559a3.716,3.716,0,0,0,.473,2.079,1.673,1.673,0,0,0,1.489.7,1.872,1.872,0,0,0,1.295-.387V-3.409H4.488v-1.53H8.265Zm5.351-3.79-.7-.051a1.266,1.266,0,0,0-1.295.635V0H9.477V-6.868h2.006l.07.882A1.656,1.656,0,0,1,13.057-7a2.086,2.086,0,0,1,.6.076ZM18.256,0a2.415,2.415,0,0,1-.2-.616A1.989,1.989,0,0,1,16.4.127a2.437,2.437,0,0,1-1.65-.587,1.869,1.869,0,0,1-.679-1.476A1.921,1.921,0,0,1,14.9-3.625,4.2,4.2,0,0,1,17.3-4.2h.66v-.362q0-.946-.819-.946a.668.668,0,0,0-.762.749H14.238a1.921,1.921,0,0,1,.847-1.619A3.558,3.558,0,0,1,17.247-7a3.122,3.122,0,0,1,2.076.641A2.229,2.229,0,0,1,20.1-4.6v3.041A3.114,3.114,0,0,0,20.4-.108V0ZM16.917-1.4a1.193,1.193,0,0,0,.663-.171,1.074,1.074,0,0,0,.378-.387v-1.1h-.622q-1.117,0-1.117,1a.612.612,0,0,0,.2.473A.712.712,0,0,0,16.917-1.4ZM17.45-9.75h2.26L17.945-7.757H16.2ZM21.785,0V-5.383h-1V-6.868h1V-7.1a2.622,2.622,0,0,1,.9-2.1,3.6,3.6,0,0,1,2.342-.686,8.312,8.312,0,0,1,2.234.368l-.292,1.688-.355-.1a5.656,5.656,0,0,0-1.46-.184q-1.225,0-1.225,1.117v.121h1.346v1.485H23.931V0Zm6.462,0H26.1V-6.868h2.152Zm4.208-1.523a.951.951,0,0,0,.7-.244A.9.9,0,0,0,33.4-2.45H35.4A2.375,2.375,0,0,1,34.592-.6a3.01,3.01,0,0,1-2.085.724,3.048,3.048,0,0,1-2.361-.939,3.7,3.7,0,0,1-.863-2.6V-3.5a4.183,4.183,0,0,1,.384-1.838,2.8,2.8,0,0,1,1.108-1.225A3.3,3.3,0,0,1,32.487-7a2.972,2.972,0,0,1,2.126.743A2.634,2.634,0,0,1,35.4-4.24H33.4a1.174,1.174,0,0,0-.26-.819.9.9,0,0,0-.7-.286q-.832,0-.971,1.06a7.48,7.48,0,0,0-.044.927,2.938,2.938,0,0,0,.248,1.435A.857.857,0,0,0,32.456-1.523ZM36.036-3.5a4.054,4.054,0,0,1,.4-1.831,2.86,2.86,0,0,1,1.149-1.235A3.46,3.46,0,0,1,39.343-7a3.158,3.158,0,0,1,2.431.955,3.666,3.666,0,0,1,.889,2.6v.076a3.557,3.557,0,0,1-.892,2.549,3.166,3.166,0,0,1-2.415.943A3.2,3.2,0,0,1,37-.752a3.439,3.439,0,0,1-.958-2.384Zm2.139.133a2.556,2.556,0,0,0,.3,1.4.994.994,0,0,0,.882.444q1.143,0,1.168-1.758V-3.5q0-1.847-1.181-1.847-1.073,0-1.162,1.593Zm8.4-.121a4.2,4.2,0,0,1,.7-2.571A2.319,2.319,0,0,1,49.245-7a1.972,1.972,0,0,1,1.549.724V-9.75h2.146V0H51.016l-.108-.736a2.026,2.026,0,0,1-1.676.863A2.315,2.315,0,0,1,47.29-.812,4.329,4.329,0,0,1,46.573-3.485Zm2.139.133q0,1.828,1.066,1.828a1.053,1.053,0,0,0,1.016-.6V-4.735a1.025,1.025,0,0,0-1-.609q-.99,0-1.073,1.6ZM57.478.127A3.531,3.531,0,0,1,54.92-.816a3.255,3.255,0,0,1-.978-2.453v-.178a4.218,4.218,0,0,1,.39-1.86,2.857,2.857,0,0,1,1.139-1.247A3.44,3.44,0,0,1,57.25-7a2.973,2.973,0,0,1,2.285.9,3.53,3.53,0,0,1,.838,2.5v.832H56.12a1.542,1.542,0,0,0,.5.908,1.492,1.492,0,0,0,1,.33,1.923,1.923,0,0,0,1.587-.711l.978,1.155A2.733,2.733,0,0,1,59.055-.2,3.829,3.829,0,0,1,57.478.127Zm-.241-5.472q-.939,0-1.117,1.244h2.158v-.165a1.06,1.06,0,0,0-.26-.8A1.036,1.036,0,0,0,57.237-5.345ZM72.046-3.129a3.375,3.375,0,0,1-.521,1.7A3.141,3.141,0,0,1,70.189-.279a4.548,4.548,0,0,1-1.965.406A3.629,3.629,0,0,1,65.355-1.06a4.9,4.9,0,0,1-1.047-3.352v-.457a5.594,5.594,0,0,1,.473-2.377A3.583,3.583,0,0,1,66.143-8.82,3.8,3.8,0,0,1,68.2-9.375a3.984,3.984,0,0,1,2.7.885,3.5,3.5,0,0,1,1.162,2.441H69.843a1.655,1.655,0,0,0-.425-1.212A1.749,1.749,0,0,0,68.2-7.63a1.331,1.331,0,0,0-1.219.622,4,4,0,0,0-.406,1.987v.654a4.424,4.424,0,0,0,.371,2.114,1.359,1.359,0,0,0,1.279.635A1.711,1.711,0,0,0,69.4-1.98a1.536,1.536,0,0,0,.432-1.149Zm.686-.368a4.054,4.054,0,0,1,.4-1.831A2.86,2.86,0,0,1,74.28-6.563,3.46,3.46,0,0,1,76.039-7a3.158,3.158,0,0,1,2.431.955,3.666,3.666,0,0,1,.889,2.6v.076a3.557,3.557,0,0,1-.892,2.549,3.166,3.166,0,0,1-2.415.943A3.2,3.2,0,0,1,73.7-.752a3.439,3.439,0,0,1-.958-2.384Zm2.139.133a2.556,2.556,0,0,0,.3,1.4.994.994,0,0,0,.882.444q1.143,0,1.168-1.758V-3.5q0-1.847-1.181-1.847-1.073,0-1.162,1.593Zm7.4-3.5.07.806A2.329,2.329,0,0,1,84.3-7a1.96,1.96,0,0,1,1.6.641,3.052,3.052,0,0,1,.549,1.93V0H84.3V-4.335a1.159,1.159,0,0,0-.209-.765.969.969,0,0,0-.762-.244,1.02,1.02,0,0,0-.933.5V0H80.26V-6.868Zm7.858-1.708v1.708h1.13v1.485h-1.13v3.142a.8.8,0,0,0,.14.54.749.749,0,0,0,.552.152,3.138,3.138,0,0,0,.533-.038v1.53a3.948,3.948,0,0,1-1.206.184,2.241,2.241,0,0,1-1.631-.521,2.133,2.133,0,0,1-.527-1.581V-5.383h-.876V-6.868h.876V-8.576ZM96.25-4.932l-.7-.051a1.266,1.266,0,0,0-1.295.635V0H92.111V-6.868h2.006l.07.882A1.656,1.656,0,0,1,95.691-7a2.086,2.086,0,0,1,.6.076ZM96.522-3.5a4.054,4.054,0,0,1,.4-1.831,2.86,2.86,0,0,1,1.149-1.235A3.46,3.46,0,0,1,99.83-7a3.158,3.158,0,0,1,2.431.955,3.666,3.666,0,0,1,.889,2.6v.076a3.557,3.557,0,0,1-.892,2.549,3.166,3.166,0,0,1-2.415.943,3.2,3.2,0,0,1-2.355-.879,3.439,3.439,0,0,1-.958-2.384Zm2.139.133a2.556,2.556,0,0,0,.3,1.4.994.994,0,0,0,.882.444q1.143,0,1.168-1.758V-3.5q0-1.847-1.181-1.847-1.073,0-1.162,1.593ZM106.349,0H104.2V-9.75h2.146Zm8.1-6.17,1.511-3.072H118.5l-2.583,4.583L118.574,0H116l-1.555-3.129L112.893,0h-2.564l2.647-4.659L110.4-9.242h2.539Zm7.941,3.015h-3.815V-4.812h3.815Zm5.2-.108h-1.206V0h-2.228V-9.242h3.637a4.057,4.057,0,0,1,2.571.73,2.475,2.475,0,0,1,.927,2.063,3.006,3.006,0,0,1-.39,1.6,2.771,2.771,0,0,1-1.222,1.028L131.606-.1V0h-2.387Zm-1.206-1.72h1.409a1.267,1.267,0,0,0,.955-.333,1.286,1.286,0,0,0,.321-.93,1.3,1.3,0,0,0-.324-.936,1.255,1.255,0,0,0-.952-.34h-1.409Z" transform="translate(1011 1833)" fill="#12263f"/>
    <path id="Trazado_1262078" data-name="Trazado 1262078" d="M.537,0V-7.109h2.29a3.369,3.369,0,0,1,1.694.427A3,3,0,0,1,5.7-5.476,3.641,3.641,0,0,1,6.123-3.73V-3.4a3.662,3.662,0,0,1-.413,1.75A3.016,3.016,0,0,1,4.548-.442,3.3,3.3,0,0,1,2.876,0ZM2.251-5.786v4.468h.6a1.333,1.333,0,0,0,1.133-.525,2.572,2.572,0,0,0,.4-1.56v-.308a2.551,2.551,0,0,0-.4-1.553,1.356,1.356,0,0,0-1.152-.522ZM9.482.1A2.716,2.716,0,0,1,7.515-.627a2.5,2.5,0,0,1-.752-1.887v-.137a3.245,3.245,0,0,1,.3-1.431,2.2,2.2,0,0,1,.876-.959,2.646,2.646,0,0,1,1.367-.339,2.287,2.287,0,0,1,1.758.691,2.715,2.715,0,0,1,.645,1.926v.64H8.438a1.186,1.186,0,0,0,.386.7,1.148,1.148,0,0,0,.771.254,1.479,1.479,0,0,0,1.221-.547l.752.889a2.1,2.1,0,0,1-.872.676A2.945,2.945,0,0,1,9.482.1ZM9.3-4.111q-.723,0-.859.957H10.1v-.127a.815.815,0,0,0-.2-.613A.8.8,0,0,0,9.3-4.111Zm5.84,2.627a.38.38,0,0,0-.22-.337,3.342,3.342,0,0,0-.835-.264,3.807,3.807,0,0,1-1.016-.359,1.7,1.7,0,0,1-.61-.54,1.288,1.288,0,0,1-.21-.728,1.46,1.46,0,0,1,.6-1.2,2.474,2.474,0,0,1,1.572-.471,2.741,2.741,0,0,1,1.68.474,1.481,1.481,0,0,1,.635,1.245h-1.65q0-.635-.669-.635a.663.663,0,0,0-.435.144.446.446,0,0,0-.176.359.409.409,0,0,0,.215.356,2.03,2.03,0,0,0,.686.225,5.928,5.928,0,0,1,.828.21,1.5,1.5,0,0,1,1.191,1.47,1.384,1.384,0,0,1-.642,1.177A2.816,2.816,0,0,1,14.419.1a2.873,2.873,0,0,1-1.211-.244,2.025,2.025,0,0,1-.83-.664,1.5,1.5,0,0,1-.3-.884h1.538a.636.636,0,0,0,.244.535,1,1,0,0,0,.6.168.79.79,0,0,0,.505-.137A.437.437,0,0,0,15.137-1.484ZM19.6-1.958l.835-3.325h1.733L20.444,0h-1.68L17.041-5.283h1.738ZM24.395,0h-1.65V-5.283h1.65ZM22.646-6.646a.734.734,0,0,1,.254-.576.958.958,0,0,1,.659-.225.958.958,0,0,1,.659.225.734.734,0,0,1,.254.576.734.734,0,0,1-.254.576.958.958,0,0,1-.659.225.958.958,0,0,1-.659-.225A.734.734,0,0,1,22.646-6.646ZM28.384,0a1.858,1.858,0,0,1-.156-.474A1.53,1.53,0,0,1,26.958.1a1.874,1.874,0,0,1-1.27-.452,1.438,1.438,0,0,1-.522-1.135,1.478,1.478,0,0,1,.635-1.3,3.234,3.234,0,0,1,1.846-.439h.508v-.278q0-.728-.63-.728a.514.514,0,0,0-.586.576H25.293A1.477,1.477,0,0,1,25.945-4.9a2.737,2.737,0,0,1,1.663-.479,2.4,2.4,0,0,1,1.6.493,1.715,1.715,0,0,1,.6,1.353V-1.2a2.4,2.4,0,0,0,.225,1.113V0Zm-1.03-1.074a.918.918,0,0,0,.51-.132.826.826,0,0,0,.291-.3v-.845h-.479q-.859,0-.859.771a.471.471,0,0,0,.151.364A.548.548,0,0,0,27.354-1.074Zm5.6-.1a.732.732,0,0,0,.537-.188.689.689,0,0,0,.186-.525h1.543a1.827,1.827,0,0,1-.623,1.426,2.316,2.316,0,0,1-1.6.557,2.345,2.345,0,0,1-1.816-.723,2.847,2.847,0,0,1-.664-2V-2.7a3.218,3.218,0,0,1,.3-1.414,2.151,2.151,0,0,1,.852-.942,2.541,2.541,0,0,1,1.318-.33,2.287,2.287,0,0,1,1.636.571,2.026,2.026,0,0,1,.605,1.548H33.672a.9.9,0,0,0-.2-.63.691.691,0,0,0-.537-.22q-.64,0-.747.815a5.754,5.754,0,0,0-.034.713,2.26,2.26,0,0,0,.19,1.1A.659.659,0,0,0,32.949-1.172ZM37.646,0H36V-5.283h1.65ZM35.9-6.646a.734.734,0,0,1,.254-.576.958.958,0,0,1,.659-.225.958.958,0,0,1,.659.225.734.734,0,0,1,.254.576.734.734,0,0,1-.254.576.958.958,0,0,1-.659.225.958.958,0,0,1-.659-.225A.734.734,0,0,1,35.9-6.646ZM38.452-2.69A3.118,3.118,0,0,1,38.76-4.1a2.2,2.2,0,0,1,.884-.95A2.662,2.662,0,0,1,41-5.381a2.429,2.429,0,0,1,1.87.735,2.82,2.82,0,0,1,.684,2v.059a2.736,2.736,0,0,1-.686,1.96A2.436,2.436,0,0,1,41.006.1a2.463,2.463,0,0,1-1.812-.676,2.645,2.645,0,0,1-.737-1.833Zm1.646.1a1.966,1.966,0,0,0,.229,1.074.765.765,0,0,0,.679.342q.879,0,.9-1.353V-2.69q0-1.421-.908-1.421-.825,0-.894,1.226Zm5.688-2.7.054.62a1.792,1.792,0,0,1,1.509-.718,1.507,1.507,0,0,1,1.233.493A2.348,2.348,0,0,1,49-3.4V0h-1.65V-3.335a.892.892,0,0,0-.161-.588.745.745,0,0,0-.586-.188.785.785,0,0,0-.718.381V0H44.243V-5.283ZM52.471.1A2.716,2.716,0,0,1,50.5-.627a2.5,2.5,0,0,1-.752-1.887v-.137a3.245,3.245,0,0,1,.3-1.431,2.2,2.2,0,0,1,.876-.959,2.646,2.646,0,0,1,1.367-.339,2.287,2.287,0,0,1,1.758.691A2.715,2.715,0,0,1,54.7-2.764v.64H51.426a1.186,1.186,0,0,0,.386.7,1.148,1.148,0,0,0,.771.254A1.479,1.479,0,0,0,53.8-1.719l.752.889a2.1,2.1,0,0,1-.872.676A2.945,2.945,0,0,1,52.471.1Zm-.186-4.209q-.723,0-.859.957h1.66v-.127a.815.815,0,0,0-.2-.613A.8.8,0,0,0,52.285-4.111Zm5.84,2.627a.38.38,0,0,0-.22-.337,3.342,3.342,0,0,0-.835-.264,3.807,3.807,0,0,1-1.016-.359,1.7,1.7,0,0,1-.61-.54,1.288,1.288,0,0,1-.21-.728,1.46,1.46,0,0,1,.6-1.2,2.474,2.474,0,0,1,1.572-.471,2.741,2.741,0,0,1,1.68.474,1.481,1.481,0,0,1,.635,1.245h-1.65q0-.635-.669-.635a.663.663,0,0,0-.435.144.446.446,0,0,0-.176.359.409.409,0,0,0,.215.356,2.03,2.03,0,0,0,.686.225,5.928,5.928,0,0,1,.828.21,1.5,1.5,0,0,1,1.191,1.47A1.384,1.384,0,0,1,59.07-.356,2.816,2.816,0,0,1,57.407.1,2.873,2.873,0,0,1,56.2-.146a2.025,2.025,0,0,1-.83-.664,1.5,1.5,0,0,1-.3-.884h1.538a.636.636,0,0,0,.244.535,1,1,0,0,0,.6.168.79.79,0,0,0,.505-.137A.437.437,0,0,0,58.125-1.484Z" transform="translate(842 1983) rotate(-90)" fill="#12263f"/>
    <g id="Trazado_1262079" data-name="Trazado 1262079" transform="translate(883 1848)" fill="none">
      <path d="M0,0H452V207H0Z" stroke="none"/>
      <path d="M 1 1 L 1 206 L 451 206 L 451 1 L 1 1 M 0 0 L 452 0 L 452 207 L 0 207 L 0 0 Z" stroke="none" fill="#ccc"/>
    </g>
    <path id="Trazado_125097" data-name="Trazado 125097" d="M-566-8829.878h451.706" transform="translate(1449.244 10847.7)" fill="none" stroke="#d8d8d8" stroke-width="1"/>
    <path id="Trazado_125098" data-name="Trazado 125098" d="M-566-8829.878h451.706" transform="translate(1449.244 10762.302)" fill="none" stroke="#d8d8d8" stroke-width="1"/>
    <path id="Trazado_125099" data-name="Trazado 125099" d="M-566-8829.878h451.706" transform="translate(1449.244 10745.813)" fill="none" stroke="#d8d8d8" stroke-width="1"/>
    <path id="Trazado_1262080" data-name="Trazado 1262080" d="M4.544-2.729A3.718,3.718,0,0,1,4.056-.606,1.735,1.735,0,0,1,2.531.088,1.747,1.747,0,0,1,1.015-.591a3.529,3.529,0,0,1-.51-2.028V-3.7A3.636,3.636,0,0,1,.993-5.8a1.748,1.748,0,0,1,1.529-.686,1.764,1.764,0,0,1,1.521.661,3.508,3.508,0,0,1,.5,2.041ZM3.731-3.841a2.979,2.979,0,0,0-.29-1.505,1,1,0,0,0-.918-.472.985.985,0,0,0-.91.47A2.909,2.909,0,0,0,1.318-3.9v1.3a3.027,3.027,0,0,0,.3,1.531,1,1,0,0,0,.912.494.983.983,0,0,0,.894-.466,2.917,2.917,0,0,0,.305-1.468ZM5.643,1.274,5.181.958A2.121,2.121,0,0,0,5.612-.229V-.962h.8v.637A2,2,0,0,1,6.19.563,2.078,2.078,0,0,1,5.643,1.274Zm4.9-7.677v.69h-.149a2.141,2.141,0,0,0-1.512.563,2.341,2.341,0,0,0-.65,1.534,1.735,1.735,0,0,1,1.38-.58,1.659,1.659,0,0,1,1.334.589,2.271,2.271,0,0,1,.5,1.521,2.264,2.264,0,0,1-.538,1.582A1.854,1.854,0,0,1,9.461.088a1.826,1.826,0,0,1-1.49-.705A2.8,2.8,0,0,1,7.4-2.435v-.312a4.212,4.212,0,0,1,.754-2.7A2.768,2.768,0,0,1,10.4-6.4ZM9.475-3.52a1.3,1.3,0,0,0-.769.25,1.305,1.305,0,0,0-.488.628v.3a2.1,2.1,0,0,0,.356,1.274,1.067,1.067,0,0,0,.888.483,1.034,1.034,0,0,0,.864-.4,1.678,1.678,0,0,0,.314-1.059,1.678,1.678,0,0,0-.319-1.066A1.021,1.021,0,0,0,9.475-3.52Z" transform="translate(1043 1920)" fill="#6c6c6c"/>
    <path id="Trazado_1262081" data-name="Trazado 1262081" d="M4.544-2.729A3.718,3.718,0,0,1,4.056-.606,1.735,1.735,0,0,1,2.531.088,1.747,1.747,0,0,1,1.015-.591a3.529,3.529,0,0,1-.51-2.028V-3.7A3.636,3.636,0,0,1,.993-5.8a1.748,1.748,0,0,1,1.529-.686,1.764,1.764,0,0,1,1.521.661,3.508,3.508,0,0,1,.5,2.041ZM3.731-3.841a2.979,2.979,0,0,0-.29-1.505,1,1,0,0,0-.918-.472.985.985,0,0,0-.91.47A2.909,2.909,0,0,0,1.318-3.9v1.3a3.027,3.027,0,0,0,.3,1.531,1,1,0,0,0,.912.494.983.983,0,0,0,.894-.466,2.917,2.917,0,0,0,.305-1.468ZM5.643,1.274,5.181.958A2.121,2.121,0,0,0,5.612-.229V-.962h.8v.637A2,2,0,0,1,6.19.563,2.078,2.078,0,0,1,5.643,1.274Zm4.9-7.677v.69h-.149a2.141,2.141,0,0,0-1.512.563,2.341,2.341,0,0,0-.65,1.534,1.735,1.735,0,0,1,1.38-.58,1.659,1.659,0,0,1,1.334.589,2.271,2.271,0,0,1,.5,1.521,2.264,2.264,0,0,1-.538,1.582A1.854,1.854,0,0,1,9.461.088a1.826,1.826,0,0,1-1.49-.705A2.8,2.8,0,0,1,7.4-2.435v-.312a4.212,4.212,0,0,1,.754-2.7A2.768,2.768,0,0,1,10.4-6.4ZM9.475-3.52a1.3,1.3,0,0,0-.769.25,1.305,1.305,0,0,0-.488.628v.3a2.1,2.1,0,0,0,.356,1.274,1.067,1.067,0,0,0,.888.483,1.034,1.034,0,0,0,.864-.4,1.678,1.678,0,0,0,.314-1.059,1.678,1.678,0,0,0-.319-1.066A1.021,1.021,0,0,0,9.475-3.52Z" transform="translate(1074 1920)" fill="#6c6c6c"/>
    <path id="Trazado_1262082" data-name="Trazado 1262082" d="M4.544-2.729A3.718,3.718,0,0,1,4.056-.606,1.735,1.735,0,0,1,2.531.088,1.747,1.747,0,0,1,1.015-.591a3.529,3.529,0,0,1-.51-2.028V-3.7A3.636,3.636,0,0,1,.993-5.8a1.748,1.748,0,0,1,1.529-.686,1.764,1.764,0,0,1,1.521.661,3.508,3.508,0,0,1,.5,2.041ZM3.731-3.841a2.979,2.979,0,0,0-.29-1.505,1,1,0,0,0-.918-.472.985.985,0,0,0-.91.47A2.909,2.909,0,0,0,1.318-3.9v1.3a3.027,3.027,0,0,0,.3,1.531,1,1,0,0,0,.912.494.983.983,0,0,0,.894-.466,2.917,2.917,0,0,0,.305-1.468ZM5.643,1.274,5.181.958A2.121,2.121,0,0,0,5.612-.229V-.962h.8v.637A2,2,0,0,1,6.19.563,2.078,2.078,0,0,1,5.643,1.274Zm4.9-7.677v.69h-.149a2.141,2.141,0,0,0-1.512.563,2.341,2.341,0,0,0-.65,1.534,1.735,1.735,0,0,1,1.38-.58,1.659,1.659,0,0,1,1.334.589,2.271,2.271,0,0,1,.5,1.521,2.264,2.264,0,0,1-.538,1.582A1.854,1.854,0,0,1,9.461.088a1.826,1.826,0,0,1-1.49-.705A2.8,2.8,0,0,1,7.4-2.435v-.312a4.212,4.212,0,0,1,.754-2.7A2.768,2.768,0,0,1,10.4-6.4ZM9.475-3.52a1.3,1.3,0,0,0-.769.25,1.305,1.305,0,0,0-.488.628v.3a2.1,2.1,0,0,0,.356,1.274,1.067,1.067,0,0,0,.888.483,1.034,1.034,0,0,0,.864-.4,1.678,1.678,0,0,0,.314-1.059,1.678,1.678,0,0,0-.319-1.066A1.021,1.021,0,0,0,9.475-3.52Z" transform="translate(1149 1920)" fill="#6c6c6c"/>
    <path id="Trazado_1262083" data-name="Trazado 1262083" d="M4.544-2.729A3.718,3.718,0,0,1,4.056-.606,1.735,1.735,0,0,1,2.531.088,1.747,1.747,0,0,1,1.015-.591a3.529,3.529,0,0,1-.51-2.028V-3.7A3.636,3.636,0,0,1,.993-5.8a1.748,1.748,0,0,1,1.529-.686,1.764,1.764,0,0,1,1.521.661,3.508,3.508,0,0,1,.5,2.041ZM3.731-3.841a2.979,2.979,0,0,0-.29-1.505,1,1,0,0,0-.918-.472.985.985,0,0,0-.91.47A2.909,2.909,0,0,0,1.318-3.9v1.3a3.027,3.027,0,0,0,.3,1.531,1,1,0,0,0,.912.494.983.983,0,0,0,.894-.466,2.917,2.917,0,0,0,.305-1.468ZM5.643,1.274,5.181.958A2.121,2.121,0,0,0,5.612-.229V-.962h.8v.637A2,2,0,0,1,6.19.563,2.078,2.078,0,0,1,5.643,1.274Zm4.9-7.677v.69h-.149a2.141,2.141,0,0,0-1.512.563,2.341,2.341,0,0,0-.65,1.534,1.735,1.735,0,0,1,1.38-.58,1.659,1.659,0,0,1,1.334.589,2.271,2.271,0,0,1,.5,1.521,2.264,2.264,0,0,1-.538,1.582A1.854,1.854,0,0,1,9.461.088a1.826,1.826,0,0,1-1.49-.705A2.8,2.8,0,0,1,7.4-2.435v-.312a4.212,4.212,0,0,1,.754-2.7A2.768,2.768,0,0,1,10.4-6.4ZM9.475-3.52a1.3,1.3,0,0,0-.769.25,1.305,1.305,0,0,0-.488.628v.3a2.1,2.1,0,0,0,.356,1.274,1.067,1.067,0,0,0,.888.483,1.034,1.034,0,0,0,.864-.4,1.678,1.678,0,0,0,.314-1.059,1.678,1.678,0,0,0-.319-1.066A1.021,1.021,0,0,0,9.475-3.52Z" transform="translate(905 1920)" fill="#6c6c6c"/>
    <path id="Trazado_125101" data-name="Trazado 125101" d="M-537-8840.371v-7.018" transform="translate(1437.924 10858.194)" fill="none" stroke="#bebebe" stroke-width="1"/>
    <path id="Trazado_125102" data-name="Trazado 125102" d="M-537-8840.371v-7.018" transform="translate(1453.775 10858.194)" fill="none" stroke="#bebebe" stroke-width="1"/>
    <path id="Trazado_125103" data-name="Trazado 125103" d="M-537-8840.371v-7.018" transform="translate(1467.187 10858.194)" fill="none" stroke="#bebebe" stroke-width="1"/>
    <path id="Trazado_125104" data-name="Trazado 125104" d="M-537-8840.371v-7.018" transform="translate(1484.867 10858.194)" fill="none" stroke="#bebebe" stroke-width="1"/>
    <path id="Trazado_125105" data-name="Trazado 125105" d="M-537-8840.371v-7.018" transform="translate(1499.499 10858.194)" fill="none" stroke="#bebebe" stroke-width="1"/>
    <path id="Trazado_125106" data-name="Trazado 125106" d="M-537-8840.371v-7.018" transform="translate(1515.35 10858.194)" fill="none" stroke="#bebebe" stroke-width="1"/>
    <path id="Trazado_125107" data-name="Trazado 125107" d="M-537-8840.371v-7.018" transform="translate(1528.763 10858.194)" fill="none" stroke="#bebebe" stroke-width="1"/>
    <path id="Trazado_125108" data-name="Trazado 125108" d="M-537-8840.371v-7.018" transform="translate(1546.443 10858.194)" fill="none" stroke="#bebebe" stroke-width="1"/>
    <path id="Trazado_125109" data-name="Trazado 125109" d="M-537-8840.371v-7.018" transform="translate(1559.855 10858.194)" fill="none" stroke="#bebebe" stroke-width="1"/>
    <path id="Trazado_125110" data-name="Trazado 125110" d="M-537-8840.371v-7.018" transform="translate(1575.706 10858.194)" fill="none" stroke="#bebebe" stroke-width="1"/>
    <path id="Trazado_125111" data-name="Trazado 125111" d="M-537-8840.371v-7.018" transform="translate(1589.119 10858.194)" fill="none" stroke="#bebebe" stroke-width="1"/>
    <path id="Trazado_125112" data-name="Trazado 125112" d="M-537-8840.371v-7.018" transform="translate(1606.799 10858.194)" fill="none" stroke="#bebebe" stroke-width="1"/>
    <path id="Trazado_125113" data-name="Trazado 125113" d="M-537-8840.371v-7.018" transform="translate(1621.431 10858.194)" fill="none" stroke="#bebebe" stroke-width="1"/>
    <path id="Trazado_125114" data-name="Trazado 125114" d="M-537-8840.371v-7.018" transform="translate(1637.282 10858.194)" fill="none" stroke="#bebebe" stroke-width="1"/>
    <path id="Trazado_125115" data-name="Trazado 125115" d="M-537-8840.371v-7.018" transform="translate(1650.694 10858.194)" fill="none" stroke="#bebebe" stroke-width="1"/>
    <path id="Trazado_125116" data-name="Trazado 125116" d="M-537-8840.371v-7.018" transform="translate(1666.545 10858.194)" fill="none" stroke="#bebebe" stroke-width="1"/>
    <path id="Trazado_125117" data-name="Trazado 125117" d="M-537-8840.371v-7.018" transform="translate(1679.958 10858.194)" fill="none" stroke="#bebebe" stroke-width="1"/>
    <path id="Trazado_125118" data-name="Trazado 125118" d="M-537-8840.371v-7.018" transform="translate(1697.638 10858.194)" fill="none" stroke="#bebebe" stroke-width="1"/>
    <path id="Trazado_125119" data-name="Trazado 125119" d="M-537-8840.371v-7.018" transform="translate(1712.27 10858.194)" fill="none" stroke="#bebebe" stroke-width="1"/>
    <path id="Trazado_125120" data-name="Trazado 125120" d="M-537-8840.371v-7.018" transform="translate(1728.121 10858.194)" fill="none" stroke="#bebebe" stroke-width="1"/>
    <path id="Trazado_125121" data-name="Trazado 125121" d="M-537-8840.371v-7.018" transform="translate(1741.533 10858.194)" fill="none" stroke="#bebebe" stroke-width="1"/>
    <path id="Trazado_125122" data-name="Trazado 125122" d="M-537-8840.371v-7.018" transform="translate(1757.384 10858.194)" fill="none" stroke="#bebebe" stroke-width="1"/>
    <path id="Trazado_125123" data-name="Trazado 125123" d="M-537-8840.371v-7.018" transform="translate(1773.235 10858.194)" fill="none" stroke="#bebebe" stroke-width="1"/>
    <path id="Trazado_125124" data-name="Trazado 125124" d="M-537-8840.371v-7.018" transform="translate(1789.086 10858.194)" fill="none" stroke="#bebebe" stroke-width="1"/>
  </g>
</svg>
