<svg xmlns="http://www.w3.org/2000/svg" width="693.156" height="235.375" viewBox="0 0 693.156 235.375">
  <g id="Grupo_1204389" data-name="Grupo 1204389" transform="translate(-453.591 -1278)">
    <path id="Trazado_125081" data-name="Trazado 125081" d="M-574.25-10865.859H108.41" transform="translate(1027.841 12253.137)" fill="none" stroke="#0a4666" stroke-width="3"/>
    <path id="Trazado_125082" data-name="Trazado 125082" d="M-449.845-10984.847l93.613,93.613-114.093,114.094" transform="translate(1031.593 12278.358)" fill="none" stroke="#0a4666" stroke-width="3"/>
    <path id="Trazado_125083" data-name="Trazado 125083" d="M-394.3-10918.815h-51.132" transform="translate(1028.643 12264.362)" fill="none" stroke="#0a4666" stroke-width="3"/>
    <path id="Trazado_125084" data-name="Trazado 125084" d="M-338.867-10918.815H-445.435" transform="translate(973.206 12347.824)" fill="none" stroke="#0a4666" stroke-width="3"/>
    <path id="Trazado_125085" data-name="Trazado 125085" d="M37.236,0H0" transform="translate(557.194 1455.338) rotate(-45)" fill="none" stroke="#0a4666" stroke-width="3"/>
    <path id="Trazado_125086" data-name="Trazado 125086" d="M-133.911-10984.847l93.735,93.735-97.441,97.441" transform="translate(1000.32 12278.358)" fill="none" stroke="#0a4666" stroke-width="3"/>
    <path id="Trazado_125087" data-name="Trazado 125087" d="M-391.054-10918.815h-54.38" transform="translate(1309.499 12264.362)" fill="none" stroke="#0a4666" stroke-width="3"/>
    <path id="Trazado_125088" data-name="Trazado 125088" d="M-391.054-10918.815h-54.38" transform="translate(1309.499 12347.824)" fill="none" stroke="#0a4666" stroke-width="3"/>
    <path id="Trazado_125803" data-name="Trazado 125803" d="M7.831-5.289a3.3,3.3,0,0,1-1.05,2.195,3.44,3.44,0,0,1-2.349.773A3.159,3.159,0,0,1,1.887-3.46,4.582,4.582,0,0,1,.93-6.508v-.862a5.107,5.107,0,0,1,.446-2.2,3.334,3.334,0,0,1,1.265-1.456,3.523,3.523,0,0,1,1.9-.508,3.239,3.239,0,0,1,2.29.8,3.338,3.338,0,0,1,1,2.207H6.643a2.564,2.564,0,0,0-.668-1.551,2.025,2.025,0,0,0-1.438-.48,2.116,2.116,0,0,0-1.776.837,3.841,3.841,0,0,0-.643,2.383v.868A3.949,3.949,0,0,0,2.727-4.15a1.97,1.97,0,0,0,1.705.862,2.275,2.275,0,0,0,1.511-.446,2.477,2.477,0,0,0,.7-1.555Zm5.547,2.844a2.393,2.393,0,0,1-.16-.7,2.541,2.541,0,0,1-1.9.825,2.351,2.351,0,0,1-1.616-.557,1.8,1.8,0,0,1-.631-1.413,1.883,1.883,0,0,1,.791-1.616,3.73,3.73,0,0,1,2.226-.576H13.2v-.523a1.279,1.279,0,0,0-.357-.951,1.435,1.435,0,0,0-1.053-.354A1.661,1.661,0,0,0,10.768-8a.907.907,0,0,0-.412.745H9.21a1.572,1.572,0,0,1,.354-.963,2.416,2.416,0,0,1,.96-.736,3.231,3.231,0,0,1,1.333-.271,2.633,2.633,0,0,1,1.8.576,2.076,2.076,0,0,1,.677,1.585V-4a3.748,3.748,0,0,0,.234,1.459v.1Zm-1.89-.868A2,2,0,0,0,12.5-3.589a1.676,1.676,0,0,0,.7-.72V-5.676h-.893q-2.093,0-2.093,1.225a1.037,1.037,0,0,0,.357.837A1.372,1.372,0,0,0,11.488-3.312Zm8.748.209a2.419,2.419,0,0,1-1.952.782,2.071,2.071,0,0,1-1.622-.619A2.678,2.678,0,0,1,16.1-4.771V-9.106h1.139v4.3q0,1.514,1.231,1.514a1.7,1.7,0,0,0,1.736-.973V-9.106h1.139v6.661H20.261Zm6.717-1.108a.838.838,0,0,0-.348-.717,3.348,3.348,0,0,0-1.213-.44,5.734,5.734,0,0,1-1.373-.443,1.953,1.953,0,0,1-.751-.616,1.473,1.473,0,0,1-.243-.85,1.728,1.728,0,0,1,.693-1.385,2.7,2.7,0,0,1,1.77-.566,2.783,2.783,0,0,1,1.838.585,1.858,1.858,0,0,1,.7,1.5H26.885a1.028,1.028,0,0,0-.4-.807,1.488,1.488,0,0,0-1-.339,1.557,1.557,0,0,0-.973.271.853.853,0,0,0-.351.708.691.691,0,0,0,.326.622,4.015,4.015,0,0,0,1.179.4,6.143,6.143,0,0,1,1.382.456,2.016,2.016,0,0,1,.785.637,1.567,1.567,0,0,1,.255.908,1.7,1.7,0,0,1-.714,1.431,3,3,0,0,1-1.853.539A3.354,3.354,0,0,1,24.109-2.6a2.3,2.3,0,0,1-.963-.791,1.907,1.907,0,0,1-.348-1.1h1.139a1.179,1.179,0,0,0,.459.908,1.779,1.779,0,0,0,1.13.336,1.837,1.837,0,0,0,1.037-.262A.8.8,0,0,0,26.953-4.211Zm6.735,1.767a2.393,2.393,0,0,1-.16-.7,2.541,2.541,0,0,1-1.9.825,2.351,2.351,0,0,1-1.616-.557,1.8,1.8,0,0,1-.631-1.413,1.883,1.883,0,0,1,.791-1.616A3.73,3.73,0,0,1,32.4-6.483H33.51v-.523a1.279,1.279,0,0,0-.357-.951A1.435,1.435,0,0,0,32.1-8.311,1.661,1.661,0,0,0,31.078-8a.907.907,0,0,0-.412.745H29.52a1.572,1.572,0,0,1,.354-.963,2.416,2.416,0,0,1,.96-.736,3.231,3.231,0,0,1,1.333-.271,2.633,2.633,0,0,1,1.8.576,2.076,2.076,0,0,1,.677,1.585V-4a3.748,3.748,0,0,0,.234,1.459v.1ZM31.8-3.312a2,2,0,0,0,1.016-.277,1.676,1.676,0,0,0,.7-.72V-5.676h-.893q-2.093,0-2.093,1.225a1.037,1.037,0,0,0,.357.837A1.372,1.372,0,0,0,31.8-3.312Z" transform="translate(555.057 1289.531)" fill="#445130"/>
    <path id="Trazado_125804" data-name="Trazado 125804" d="M2.5-6.053v3.509H1.32v-8.964H4.626a3.321,3.321,0,0,1,2.306.751,2.546,2.546,0,0,1,.834,1.989,2.513,2.513,0,0,1-.816,2.01,3.47,3.47,0,0,1-2.336.7Zm0-.967H4.626a2.126,2.126,0,0,0,1.453-.446,1.631,1.631,0,0,0,.5-1.29,1.685,1.685,0,0,0-.5-1.281,1.992,1.992,0,0,0-1.385-.5H2.5ZM8.714-5.936A3.935,3.935,0,0,1,9.1-7.7,2.87,2.87,0,0,1,10.17-8.9a2.916,2.916,0,0,1,1.567-.425,2.809,2.809,0,0,1,2.2.942,3.624,3.624,0,0,1,.84,2.506v.08a3.969,3.969,0,0,1-.372,1.745,2.828,2.828,0,0,1-1.065,1.2,2.95,2.95,0,0,1-1.591.431,2.8,2.8,0,0,1-2.195-.942,3.606,3.606,0,0,1-.84-2.493ZM9.859-5.8a2.85,2.85,0,0,0,.514,1.779,1.645,1.645,0,0,0,1.376.671,1.635,1.635,0,0,0,1.379-.68,3.116,3.116,0,0,0,.511-1.905,2.845,2.845,0,0,0-.52-1.776,1.654,1.654,0,0,0-1.382-.68,1.635,1.635,0,0,0-1.361.671A3.093,3.093,0,0,0,9.859-5.8Zm9.567-2.383a3.413,3.413,0,0,0-.56-.043,1.5,1.5,0,0,0-1.521.954v4.728H16.207V-9.2h1.108l.018.77a1.773,1.773,0,0,1,1.588-.893,1.164,1.164,0,0,1,.5.086ZM23.317-5.93a3.91,3.91,0,0,1,.72-2.484,2.334,2.334,0,0,1,1.933-.914,2.332,2.332,0,0,1,1.865.794l.049-.671h1.047V.017H27.793V-3.159a2.39,2.39,0,0,1-1.835.739,2.3,2.3,0,0,1-1.924-.939,4,4,0,0,1-.717-2.49Zm1.139.129A2.964,2.964,0,0,0,24.94-4a1.537,1.537,0,0,0,1.3.653,1.705,1.705,0,0,0,1.551-.9V-7.512a1.711,1.711,0,0,0-1.539-.88,1.549,1.549,0,0,0-1.311.656A3.226,3.226,0,0,0,24.456-5.8ZM34.873-3.2a2.419,2.419,0,0,1-1.952.782A2.071,2.071,0,0,1,31.3-3.039a2.678,2.678,0,0,1-.563-1.832V-9.2h1.139v4.3q0,1.514,1.231,1.514a1.7,1.7,0,0,0,1.736-.973V-9.2h1.139v6.661H34.9Zm5.6.782a2.911,2.911,0,0,1-2.2-.89,3.3,3.3,0,0,1-.85-2.379V-5.9a4,4,0,0,1,.379-1.77A2.954,2.954,0,0,1,38.86-8.888a2.662,2.662,0,0,1,1.474-.44,2.5,2.5,0,0,1,2.019.856,3.705,3.705,0,0,1,.72,2.45v.474H38.561a2.368,2.368,0,0,0,.576,1.591,1.809,1.809,0,0,0,1.4.606A1.984,1.984,0,0,0,41.559-3.6a2.568,2.568,0,0,0,.733-.653l.7.542A2.8,2.8,0,0,1,40.476-2.42Zm-.142-5.972a1.519,1.519,0,0,0-1.157.5A2.439,2.439,0,0,0,38.6-6.484h3.337V-6.57a2.169,2.169,0,0,0-.468-1.345A1.43,1.43,0,0,0,40.334-8.392ZM40.888-12h1.379l-1.65,1.81H39.7Z" transform="translate(525.603 1350.309)" fill="#12263f"/>
    <path id="Trazado_125805" data-name="Trazado 125805" d="M7.831-5.289a3.3,3.3,0,0,1-1.05,2.195,3.44,3.44,0,0,1-2.349.773A3.159,3.159,0,0,1,1.887-3.46,4.582,4.582,0,0,1,.93-6.508v-.862a5.107,5.107,0,0,1,.446-2.2,3.334,3.334,0,0,1,1.265-1.456,3.523,3.523,0,0,1,1.9-.508,3.239,3.239,0,0,1,2.29.8,3.338,3.338,0,0,1,1,2.207H6.643a2.564,2.564,0,0,0-.668-1.551,2.025,2.025,0,0,0-1.438-.48,2.116,2.116,0,0,0-1.776.837,3.841,3.841,0,0,0-.643,2.383v.868A3.949,3.949,0,0,0,2.727-4.15a1.97,1.97,0,0,0,1.705.862,2.275,2.275,0,0,0,1.511-.446,2.477,2.477,0,0,0,.7-1.555Zm5.547,2.844a2.393,2.393,0,0,1-.16-.7,2.541,2.541,0,0,1-1.9.825,2.351,2.351,0,0,1-1.616-.557,1.8,1.8,0,0,1-.631-1.413,1.883,1.883,0,0,1,.791-1.616,3.73,3.73,0,0,1,2.226-.576H13.2v-.523a1.279,1.279,0,0,0-.357-.951,1.435,1.435,0,0,0-1.053-.354A1.661,1.661,0,0,0,10.768-8a.907.907,0,0,0-.412.745H9.21a1.572,1.572,0,0,1,.354-.963,2.416,2.416,0,0,1,.96-.736,3.231,3.231,0,0,1,1.333-.271,2.633,2.633,0,0,1,1.8.576,2.076,2.076,0,0,1,.677,1.585V-4a3.748,3.748,0,0,0,.234,1.459v.1Zm-1.89-.868A2,2,0,0,0,12.5-3.589a1.676,1.676,0,0,0,.7-.72V-5.676h-.893q-2.093,0-2.093,1.225a1.037,1.037,0,0,0,.357.837A1.372,1.372,0,0,0,11.488-3.312Zm8.748.209a2.419,2.419,0,0,1-1.952.782,2.071,2.071,0,0,1-1.622-.619A2.678,2.678,0,0,1,16.1-4.771V-9.106h1.139v4.3q0,1.514,1.231,1.514a1.7,1.7,0,0,0,1.736-.973V-9.106h1.139v6.661H20.261Zm6.717-1.108a.838.838,0,0,0-.348-.717,3.348,3.348,0,0,0-1.213-.44,5.734,5.734,0,0,1-1.373-.443,1.953,1.953,0,0,1-.751-.616,1.473,1.473,0,0,1-.243-.85,1.728,1.728,0,0,1,.693-1.385,2.7,2.7,0,0,1,1.77-.566,2.783,2.783,0,0,1,1.838.585,1.858,1.858,0,0,1,.7,1.5H26.885a1.028,1.028,0,0,0-.4-.807,1.488,1.488,0,0,0-1-.339,1.557,1.557,0,0,0-.973.271.853.853,0,0,0-.351.708.691.691,0,0,0,.326.622,4.015,4.015,0,0,0,1.179.4,6.143,6.143,0,0,1,1.382.456,2.016,2.016,0,0,1,.785.637,1.567,1.567,0,0,1,.255.908,1.7,1.7,0,0,1-.714,1.431,3,3,0,0,1-1.853.539A3.354,3.354,0,0,1,24.109-2.6a2.3,2.3,0,0,1-.963-.791,1.907,1.907,0,0,1-.348-1.1h1.139a1.179,1.179,0,0,0,.459.908,1.779,1.779,0,0,0,1.13.336,1.837,1.837,0,0,0,1.037-.262A.8.8,0,0,0,26.953-4.211Zm6.735,1.767a2.393,2.393,0,0,1-.16-.7,2.541,2.541,0,0,1-1.9.825,2.351,2.351,0,0,1-1.616-.557,1.8,1.8,0,0,1-.631-1.413,1.883,1.883,0,0,1,.791-1.616A3.73,3.73,0,0,1,32.4-6.483H33.51v-.523a1.279,1.279,0,0,0-.357-.951A1.435,1.435,0,0,0,32.1-8.311,1.661,1.661,0,0,0,31.078-8a.907.907,0,0,0-.412.745H29.52a1.572,1.572,0,0,1,.354-.963,2.416,2.416,0,0,1,.96-.736,3.231,3.231,0,0,1,1.333-.271,2.633,2.633,0,0,1,1.8.576,2.076,2.076,0,0,1,.677,1.585V-4a3.748,3.748,0,0,0,.234,1.459v.1ZM31.8-3.312a2,2,0,0,0,1.016-.277,1.676,1.676,0,0,0,.7-.72V-5.676h-.893q-2.093,0-2.093,1.225a1.037,1.037,0,0,0,.357.837A1.372,1.372,0,0,0,31.8-3.312Z" transform="translate(453.591 1432.953)" fill="#445130"/>
    <path id="Trazado_125806" data-name="Trazado 125806" d="M1.182,5.947V9.456H0V.493H3.306a3.321,3.321,0,0,1,2.306.751,2.546,2.546,0,0,1,.834,1.989,2.513,2.513,0,0,1-.816,2.01,3.47,3.47,0,0,1-2.336.7Zm0-.967H3.306a2.126,2.126,0,0,0,1.453-.446,1.631,1.631,0,0,0,.5-1.29,1.685,1.685,0,0,0-.5-1.281,1.992,1.992,0,0,0-1.385-.5H1.182ZM7.394,6.064A3.935,3.935,0,0,1,7.779,4.3,2.87,2.87,0,0,1,8.85,3.1a2.916,2.916,0,0,1,1.567-.425,2.809,2.809,0,0,1,2.2.942,3.624,3.624,0,0,1,.84,2.506V6.2a3.969,3.969,0,0,1-.372,1.745,2.828,2.828,0,0,1-1.065,1.2,2.95,2.95,0,0,1-1.591.431,2.8,2.8,0,0,1-2.195-.942,3.606,3.606,0,0,1-.84-2.493ZM8.539,6.2a2.85,2.85,0,0,0,.514,1.779,1.742,1.742,0,0,0,2.755-.009,3.116,3.116,0,0,0,.511-1.905,2.845,2.845,0,0,0-.52-1.776,1.654,1.654,0,0,0-1.382-.68,1.635,1.635,0,0,0-1.361.671A3.093,3.093,0,0,0,8.539,6.2Zm9.567-2.383a3.413,3.413,0,0,0-.56-.043,1.5,1.5,0,0,0-1.521.954V9.456H14.886V2.8h1.108l.018.77A1.773,1.773,0,0,1,17.6,2.672a1.164,1.164,0,0,1,.5.086ZM22,6.07a3.91,3.91,0,0,1,.72-2.484,2.542,2.542,0,0,1,3.8-.12l.049-.671h1.047v9.222H26.473V8.841a2.39,2.39,0,0,1-1.835.739,2.3,2.3,0,0,1-1.924-.939A4,4,0,0,1,22,6.15Zm1.139.129A2.964,2.964,0,0,0,23.619,8a1.537,1.537,0,0,0,1.3.653,1.705,1.705,0,0,0,1.551-.9V4.488a1.711,1.711,0,0,0-1.539-.88,1.549,1.549,0,0,0-1.311.656A3.226,3.226,0,0,0,23.136,6.2ZM33.553,8.8A2.419,2.419,0,0,1,31.6,9.58a2.071,2.071,0,0,1-1.622-.619,2.678,2.678,0,0,1-.563-1.832V2.8h1.139V7.1q0,1.514,1.231,1.514a1.7,1.7,0,0,0,1.736-.973V2.8h1.139V9.456H33.578Zm5.6.782a2.911,2.911,0,0,1-2.2-.89A3.3,3.3,0,0,1,36.1,6.31V6.1a4,4,0,0,1,.379-1.77,2.954,2.954,0,0,1,1.059-1.219,2.662,2.662,0,0,1,1.474-.44,2.5,2.5,0,0,1,2.019.856,3.705,3.705,0,0,1,.72,2.45v.474H37.241a2.368,2.368,0,0,0,.576,1.591,1.809,1.809,0,0,0,1.4.606A1.984,1.984,0,0,0,40.239,8.4a2.568,2.568,0,0,0,.733-.653l.7.542A2.8,2.8,0,0,1,39.155,9.58Zm-.142-5.972a1.519,1.519,0,0,0-1.157.5,2.439,2.439,0,0,0-.579,1.407h3.337V5.43a2.169,2.169,0,0,0-.468-1.345A1.43,1.43,0,0,0,39.014,3.608ZM39.568,0h1.379L39.3,1.81H38.38Z" transform="translate(513.427 1483.77) rotate(-45)" fill="#12263f"/>
    <path id="Trazado_125811" data-name="Trazado 125811" d="M7.831-5.289a3.3,3.3,0,0,1-1.05,2.195,3.44,3.44,0,0,1-2.349.773A3.159,3.159,0,0,1,1.887-3.46,4.582,4.582,0,0,1,.93-6.508v-.862a5.107,5.107,0,0,1,.446-2.2,3.334,3.334,0,0,1,1.265-1.456,3.523,3.523,0,0,1,1.9-.508,3.239,3.239,0,0,1,2.29.8,3.338,3.338,0,0,1,1,2.207H6.643a2.564,2.564,0,0,0-.668-1.551,2.025,2.025,0,0,0-1.438-.48,2.116,2.116,0,0,0-1.776.837,3.841,3.841,0,0,0-.643,2.383v.868A3.949,3.949,0,0,0,2.727-4.15a1.97,1.97,0,0,0,1.705.862,2.275,2.275,0,0,0,1.511-.446,2.477,2.477,0,0,0,.7-1.555Zm5.547,2.844a2.393,2.393,0,0,1-.16-.7,2.541,2.541,0,0,1-1.9.825,2.351,2.351,0,0,1-1.616-.557,1.8,1.8,0,0,1-.631-1.413,1.883,1.883,0,0,1,.791-1.616,3.73,3.73,0,0,1,2.226-.576H13.2v-.523a1.279,1.279,0,0,0-.357-.951,1.435,1.435,0,0,0-1.053-.354A1.661,1.661,0,0,0,10.768-8a.907.907,0,0,0-.412.745H9.21a1.572,1.572,0,0,1,.354-.963,2.416,2.416,0,0,1,.96-.736,3.231,3.231,0,0,1,1.333-.271,2.633,2.633,0,0,1,1.8.576,2.076,2.076,0,0,1,.677,1.585V-4a3.748,3.748,0,0,0,.234,1.459v.1Zm-1.89-.868A2,2,0,0,0,12.5-3.589a1.676,1.676,0,0,0,.7-.72V-5.676h-.893q-2.093,0-2.093,1.225a1.037,1.037,0,0,0,.357.837A1.372,1.372,0,0,0,11.488-3.312Zm8.748.209a2.419,2.419,0,0,1-1.952.782,2.071,2.071,0,0,1-1.622-.619A2.678,2.678,0,0,1,16.1-4.771V-9.106h1.139v4.3q0,1.514,1.231,1.514a1.7,1.7,0,0,0,1.736-.973V-9.106h1.139v6.661H20.261Zm6.717-1.108a.838.838,0,0,0-.348-.717,3.348,3.348,0,0,0-1.213-.44,5.734,5.734,0,0,1-1.373-.443,1.953,1.953,0,0,1-.751-.616,1.473,1.473,0,0,1-.243-.85,1.728,1.728,0,0,1,.693-1.385,2.7,2.7,0,0,1,1.77-.566,2.783,2.783,0,0,1,1.838.585,1.858,1.858,0,0,1,.7,1.5H26.885a1.028,1.028,0,0,0-.4-.807,1.488,1.488,0,0,0-1-.339,1.557,1.557,0,0,0-.973.271.853.853,0,0,0-.351.708.691.691,0,0,0,.326.622,4.015,4.015,0,0,0,1.179.4,6.143,6.143,0,0,1,1.382.456,2.016,2.016,0,0,1,.785.637,1.567,1.567,0,0,1,.255.908,1.7,1.7,0,0,1-.714,1.431,3,3,0,0,1-1.853.539A3.354,3.354,0,0,1,24.109-2.6a2.3,2.3,0,0,1-.963-.791,1.907,1.907,0,0,1-.348-1.1h1.139a1.179,1.179,0,0,0,.459.908,1.779,1.779,0,0,0,1.13.336,1.837,1.837,0,0,0,1.037-.262A.8.8,0,0,0,26.953-4.211Zm6.735,1.767a2.393,2.393,0,0,1-.16-.7,2.541,2.541,0,0,1-1.9.825,2.351,2.351,0,0,1-1.616-.557,1.8,1.8,0,0,1-.631-1.413,1.883,1.883,0,0,1,.791-1.616A3.73,3.73,0,0,1,32.4-6.483H33.51v-.523a1.279,1.279,0,0,0-.357-.951A1.435,1.435,0,0,0,32.1-8.311,1.661,1.661,0,0,0,31.078-8a.907.907,0,0,0-.412.745H29.52a1.572,1.572,0,0,1,.354-.963,2.416,2.416,0,0,1,.96-.736,3.231,3.231,0,0,1,1.333-.271,2.633,2.633,0,0,1,1.8.576,2.076,2.076,0,0,1,.677,1.585V-4a3.748,3.748,0,0,0,.234,1.459v.1ZM31.8-3.312a2,2,0,0,0,1.016-.277,1.676,1.676,0,0,0,.7-.72V-5.676h-.893q-2.093,0-2.093,1.225a1.037,1.037,0,0,0,.357.837A1.372,1.372,0,0,0,31.8-3.312Z" transform="translate(535.311 1515.696)" fill="#445130"/>
    <path id="Trazado_125807" data-name="Trazado 125807" d="M2.5-6.053v3.509H1.32v-8.964H4.626a3.321,3.321,0,0,1,2.306.751,2.546,2.546,0,0,1,.834,1.989,2.513,2.513,0,0,1-.816,2.01,3.47,3.47,0,0,1-2.336.7Zm0-.967H4.626a2.126,2.126,0,0,0,1.453-.446,1.631,1.631,0,0,0,.5-1.29,1.685,1.685,0,0,0-.5-1.281,1.992,1.992,0,0,0-1.385-.5H2.5ZM8.714-5.936A3.935,3.935,0,0,1,9.1-7.7,2.87,2.87,0,0,1,10.17-8.9a2.916,2.916,0,0,1,1.567-.425,2.809,2.809,0,0,1,2.2.942,3.624,3.624,0,0,1,.84,2.506v.08a3.969,3.969,0,0,1-.372,1.745,2.828,2.828,0,0,1-1.065,1.2,2.95,2.95,0,0,1-1.591.431,2.8,2.8,0,0,1-2.195-.942,3.606,3.606,0,0,1-.84-2.493ZM9.859-5.8a2.85,2.85,0,0,0,.514,1.779,1.645,1.645,0,0,0,1.376.671,1.635,1.635,0,0,0,1.379-.68,3.116,3.116,0,0,0,.511-1.905,2.845,2.845,0,0,0-.52-1.776,1.654,1.654,0,0,0-1.382-.68,1.635,1.635,0,0,0-1.361.671A3.093,3.093,0,0,0,9.859-5.8Zm9.567-2.383a3.413,3.413,0,0,0-.56-.043,1.5,1.5,0,0,0-1.521.954v4.728H16.207V-9.2h1.108l.018.77a1.773,1.773,0,0,1,1.588-.893,1.164,1.164,0,0,1,.5.086ZM23.317-5.93a3.91,3.91,0,0,1,.72-2.484,2.334,2.334,0,0,1,1.933-.914,2.332,2.332,0,0,1,1.865.794l.049-.671h1.047V.017H27.793V-3.159a2.39,2.39,0,0,1-1.835.739,2.3,2.3,0,0,1-1.924-.939,4,4,0,0,1-.717-2.49Zm1.139.129A2.964,2.964,0,0,0,24.94-4a1.537,1.537,0,0,0,1.3.653,1.705,1.705,0,0,0,1.551-.9V-7.512a1.711,1.711,0,0,0-1.539-.88,1.549,1.549,0,0,0-1.311.656A3.226,3.226,0,0,0,24.456-5.8ZM34.873-3.2a2.419,2.419,0,0,1-1.952.782A2.071,2.071,0,0,1,31.3-3.039a2.678,2.678,0,0,1-.563-1.832V-9.2h1.139v4.3q0,1.514,1.231,1.514a1.7,1.7,0,0,0,1.736-.973V-9.2h1.139v6.661H34.9Zm5.6.782a2.911,2.911,0,0,1-2.2-.89,3.3,3.3,0,0,1-.85-2.379V-5.9a4,4,0,0,1,.379-1.77A2.954,2.954,0,0,1,38.86-8.888a2.662,2.662,0,0,1,1.474-.44,2.5,2.5,0,0,1,2.019.856,3.705,3.705,0,0,1,.72,2.45v.474H38.561a2.368,2.368,0,0,0,.576,1.591,1.809,1.809,0,0,0,1.4.606A1.984,1.984,0,0,0,41.559-3.6a2.568,2.568,0,0,0,.733-.653l.7.542A2.8,2.8,0,0,1,40.476-2.42Zm-.142-5.972a1.519,1.519,0,0,0-1.157.5A2.439,2.439,0,0,0,38.6-6.484h3.337V-6.57a2.169,2.169,0,0,0-.468-1.345A1.43,1.43,0,0,0,40.334-8.392ZM40.888-12h1.379l-1.65,1.81H39.7Z" transform="translate(801.513 1350.309)" fill="#12263f"/>
    <path id="Trazado_125808" data-name="Trazado 125808" d="M2.5-6.053v3.509H1.32v-8.964H4.626a3.321,3.321,0,0,1,2.306.751,2.546,2.546,0,0,1,.834,1.989,2.513,2.513,0,0,1-.816,2.01,3.47,3.47,0,0,1-2.336.7Zm0-.967H4.626a2.126,2.126,0,0,0,1.453-.446,1.631,1.631,0,0,0,.5-1.29,1.685,1.685,0,0,0-.5-1.281,1.992,1.992,0,0,0-1.385-.5H2.5ZM8.714-5.936A3.935,3.935,0,0,1,9.1-7.7,2.87,2.87,0,0,1,10.17-8.9a2.916,2.916,0,0,1,1.567-.425,2.809,2.809,0,0,1,2.2.942,3.624,3.624,0,0,1,.84,2.506v.08a3.969,3.969,0,0,1-.372,1.745,2.828,2.828,0,0,1-1.065,1.2,2.95,2.95,0,0,1-1.591.431,2.8,2.8,0,0,1-2.195-.942,3.606,3.606,0,0,1-.84-2.493ZM9.859-5.8a2.85,2.85,0,0,0,.514,1.779,1.645,1.645,0,0,0,1.376.671,1.635,1.635,0,0,0,1.379-.68,3.116,3.116,0,0,0,.511-1.905,2.845,2.845,0,0,0-.52-1.776,1.654,1.654,0,0,0-1.382-.68,1.635,1.635,0,0,0-1.361.671A3.093,3.093,0,0,0,9.859-5.8Zm9.567-2.383a3.413,3.413,0,0,0-.56-.043,1.5,1.5,0,0,0-1.521.954v4.728H16.207V-9.2h1.108l.018.77a1.773,1.773,0,0,1,1.588-.893,1.164,1.164,0,0,1,.5.086ZM23.317-5.93a3.91,3.91,0,0,1,.72-2.484,2.334,2.334,0,0,1,1.933-.914,2.332,2.332,0,0,1,1.865.794l.049-.671h1.047V.017H27.793V-3.159a2.39,2.39,0,0,1-1.835.739,2.3,2.3,0,0,1-1.924-.939,4,4,0,0,1-.717-2.49Zm1.139.129A2.964,2.964,0,0,0,24.94-4a1.537,1.537,0,0,0,1.3.653,1.705,1.705,0,0,0,1.551-.9V-7.512a1.711,1.711,0,0,0-1.539-.88,1.549,1.549,0,0,0-1.311.656A3.226,3.226,0,0,0,24.456-5.8ZM34.873-3.2a2.419,2.419,0,0,1-1.952.782A2.071,2.071,0,0,1,31.3-3.039a2.678,2.678,0,0,1-.563-1.832V-9.2h1.139v4.3q0,1.514,1.231,1.514a1.7,1.7,0,0,0,1.736-.973V-9.2h1.139v6.661H34.9Zm5.6.782a2.911,2.911,0,0,1-2.2-.89,3.3,3.3,0,0,1-.85-2.379V-5.9a4,4,0,0,1,.379-1.77A2.954,2.954,0,0,1,38.86-8.888a2.662,2.662,0,0,1,1.474-.44,2.5,2.5,0,0,1,2.019.856,3.705,3.705,0,0,1,.72,2.45v.474H38.561a2.368,2.368,0,0,0,.576,1.591,1.809,1.809,0,0,0,1.4.606A1.984,1.984,0,0,0,41.559-3.6a2.568,2.568,0,0,0,.733-.653l.7.542A2.8,2.8,0,0,1,40.476-2.42Zm-.142-5.972a1.519,1.519,0,0,0-1.157.5A2.439,2.439,0,0,0,38.6-6.484h3.337V-6.57a2.169,2.169,0,0,0-.468-1.345A1.43,1.43,0,0,0,40.334-8.392ZM40.888-12h1.379l-1.65,1.81H39.7Z" transform="translate(801.513 1433.053)" fill="#12263f"/>
    <path id="Trazado_125809" data-name="Trazado 125809" d="M7.831-5.289a3.3,3.3,0,0,1-1.05,2.195,3.44,3.44,0,0,1-2.349.773A3.159,3.159,0,0,1,1.887-3.46,4.582,4.582,0,0,1,.93-6.508v-.862a5.107,5.107,0,0,1,.446-2.2,3.334,3.334,0,0,1,1.265-1.456,3.523,3.523,0,0,1,1.9-.508,3.239,3.239,0,0,1,2.29.8,3.338,3.338,0,0,1,1,2.207H6.643a2.564,2.564,0,0,0-.668-1.551,2.025,2.025,0,0,0-1.438-.48,2.116,2.116,0,0,0-1.776.837,3.841,3.841,0,0,0-.643,2.383v.868A3.949,3.949,0,0,0,2.727-4.15a1.97,1.97,0,0,0,1.705.862,2.275,2.275,0,0,0,1.511-.446,2.477,2.477,0,0,0,.7-1.555Zm5.547,2.844a2.393,2.393,0,0,1-.16-.7,2.541,2.541,0,0,1-1.9.825,2.351,2.351,0,0,1-1.616-.557,1.8,1.8,0,0,1-.631-1.413,1.883,1.883,0,0,1,.791-1.616,3.73,3.73,0,0,1,2.226-.576H13.2v-.523a1.279,1.279,0,0,0-.357-.951,1.435,1.435,0,0,0-1.053-.354A1.661,1.661,0,0,0,10.768-8a.907.907,0,0,0-.412.745H9.21a1.572,1.572,0,0,1,.354-.963,2.416,2.416,0,0,1,.96-.736,3.231,3.231,0,0,1,1.333-.271,2.633,2.633,0,0,1,1.8.576,2.076,2.076,0,0,1,.677,1.585V-4a3.748,3.748,0,0,0,.234,1.459v.1Zm-1.89-.868A2,2,0,0,0,12.5-3.589a1.676,1.676,0,0,0,.7-.72V-5.676h-.893q-2.093,0-2.093,1.225a1.037,1.037,0,0,0,.357.837A1.372,1.372,0,0,0,11.488-3.312Zm8.748.209a2.419,2.419,0,0,1-1.952.782,2.071,2.071,0,0,1-1.622-.619A2.678,2.678,0,0,1,16.1-4.771V-9.106h1.139v4.3q0,1.514,1.231,1.514a1.7,1.7,0,0,0,1.736-.973V-9.106h1.139v6.661H20.261Zm6.717-1.108a.838.838,0,0,0-.348-.717,3.348,3.348,0,0,0-1.213-.44,5.734,5.734,0,0,1-1.373-.443,1.953,1.953,0,0,1-.751-.616,1.473,1.473,0,0,1-.243-.85,1.728,1.728,0,0,1,.693-1.385,2.7,2.7,0,0,1,1.77-.566,2.783,2.783,0,0,1,1.838.585,1.858,1.858,0,0,1,.7,1.5H26.885a1.028,1.028,0,0,0-.4-.807,1.488,1.488,0,0,0-1-.339,1.557,1.557,0,0,0-.973.271.853.853,0,0,0-.351.708.691.691,0,0,0,.326.622,4.015,4.015,0,0,0,1.179.4,6.143,6.143,0,0,1,1.382.456,2.016,2.016,0,0,1,.785.637,1.567,1.567,0,0,1,.255.908,1.7,1.7,0,0,1-.714,1.431,3,3,0,0,1-1.853.539A3.354,3.354,0,0,1,24.109-2.6a2.3,2.3,0,0,1-.963-.791,1.907,1.907,0,0,1-.348-1.1h1.139a1.179,1.179,0,0,0,.459.908,1.779,1.779,0,0,0,1.13.336,1.837,1.837,0,0,0,1.037-.262A.8.8,0,0,0,26.953-4.211Zm6.735,1.767a2.393,2.393,0,0,1-.16-.7,2.541,2.541,0,0,1-1.9.825,2.351,2.351,0,0,1-1.616-.557,1.8,1.8,0,0,1-.631-1.413,1.883,1.883,0,0,1,.791-1.616A3.73,3.73,0,0,1,32.4-6.483H33.51v-.523a1.279,1.279,0,0,0-.357-.951A1.435,1.435,0,0,0,32.1-8.311,1.661,1.661,0,0,0,31.078-8a.907.907,0,0,0-.412.745H29.52a1.572,1.572,0,0,1,.354-.963,2.416,2.416,0,0,1,.96-.736,3.231,3.231,0,0,1,1.333-.271,2.633,2.633,0,0,1,1.8.576,2.076,2.076,0,0,1,.677,1.585V-4a3.748,3.748,0,0,0,.234,1.459v.1ZM31.8-3.312a2,2,0,0,0,1.016-.277,1.676,1.676,0,0,0,.7-.72V-5.676h-.893q-2.093,0-2.093,1.225a1.037,1.037,0,0,0,.357.837A1.372,1.372,0,0,0,31.8-3.312Z" transform="translate(833.299 1289.531)" fill="#445130"/>
    <path id="Trazado_125810" data-name="Trazado 125810" d="M7.831-5.289a3.3,3.3,0,0,1-1.05,2.195,3.44,3.44,0,0,1-2.349.773A3.159,3.159,0,0,1,1.887-3.46,4.582,4.582,0,0,1,.93-6.508v-.862a5.107,5.107,0,0,1,.446-2.2,3.334,3.334,0,0,1,1.265-1.456,3.523,3.523,0,0,1,1.9-.508,3.239,3.239,0,0,1,2.29.8,3.338,3.338,0,0,1,1,2.207H6.643a2.564,2.564,0,0,0-.668-1.551,2.025,2.025,0,0,0-1.438-.48,2.116,2.116,0,0,0-1.776.837,3.841,3.841,0,0,0-.643,2.383v.868A3.949,3.949,0,0,0,2.727-4.15a1.97,1.97,0,0,0,1.705.862,2.275,2.275,0,0,0,1.511-.446,2.477,2.477,0,0,0,.7-1.555Zm5.547,2.844a2.393,2.393,0,0,1-.16-.7,2.541,2.541,0,0,1-1.9.825,2.351,2.351,0,0,1-1.616-.557,1.8,1.8,0,0,1-.631-1.413,1.883,1.883,0,0,1,.791-1.616,3.73,3.73,0,0,1,2.226-.576H13.2v-.523a1.279,1.279,0,0,0-.357-.951,1.435,1.435,0,0,0-1.053-.354A1.661,1.661,0,0,0,10.768-8a.907.907,0,0,0-.412.745H9.21a1.572,1.572,0,0,1,.354-.963,2.416,2.416,0,0,1,.96-.736,3.231,3.231,0,0,1,1.333-.271,2.633,2.633,0,0,1,1.8.576,2.076,2.076,0,0,1,.677,1.585V-4a3.748,3.748,0,0,0,.234,1.459v.1Zm-1.89-.868A2,2,0,0,0,12.5-3.589a1.676,1.676,0,0,0,.7-.72V-5.676h-.893q-2.093,0-2.093,1.225a1.037,1.037,0,0,0,.357.837A1.372,1.372,0,0,0,11.488-3.312Zm8.748.209a2.419,2.419,0,0,1-1.952.782,2.071,2.071,0,0,1-1.622-.619A2.678,2.678,0,0,1,16.1-4.771V-9.106h1.139v4.3q0,1.514,1.231,1.514a1.7,1.7,0,0,0,1.736-.973V-9.106h1.139v6.661H20.261Zm6.717-1.108a.838.838,0,0,0-.348-.717,3.348,3.348,0,0,0-1.213-.44,5.734,5.734,0,0,1-1.373-.443,1.953,1.953,0,0,1-.751-.616,1.473,1.473,0,0,1-.243-.85,1.728,1.728,0,0,1,.693-1.385,2.7,2.7,0,0,1,1.77-.566,2.783,2.783,0,0,1,1.838.585,1.858,1.858,0,0,1,.7,1.5H26.885a1.028,1.028,0,0,0-.4-.807,1.488,1.488,0,0,0-1-.339,1.557,1.557,0,0,0-.973.271.853.853,0,0,0-.351.708.691.691,0,0,0,.326.622,4.015,4.015,0,0,0,1.179.4,6.143,6.143,0,0,1,1.382.456,2.016,2.016,0,0,1,.785.637,1.567,1.567,0,0,1,.255.908,1.7,1.7,0,0,1-.714,1.431,3,3,0,0,1-1.853.539A3.354,3.354,0,0,1,24.109-2.6a2.3,2.3,0,0,1-.963-.791,1.907,1.907,0,0,1-.348-1.1h1.139a1.179,1.179,0,0,0,.459.908,1.779,1.779,0,0,0,1.13.336,1.837,1.837,0,0,0,1.037-.262A.8.8,0,0,0,26.953-4.211Zm6.735,1.767a2.393,2.393,0,0,1-.16-.7,2.541,2.541,0,0,1-1.9.825,2.351,2.351,0,0,1-1.616-.557,1.8,1.8,0,0,1-.631-1.413,1.883,1.883,0,0,1,.791-1.616A3.73,3.73,0,0,1,32.4-6.483H33.51v-.523a1.279,1.279,0,0,0-.357-.951A1.435,1.435,0,0,0,32.1-8.311,1.661,1.661,0,0,0,31.078-8a.907.907,0,0,0-.412.745H29.52a1.572,1.572,0,0,1,.354-.963,2.416,2.416,0,0,1,.96-.736,3.231,3.231,0,0,1,1.333-.271,2.633,2.633,0,0,1,1.8.576,2.076,2.076,0,0,1,.677,1.585V-4a3.748,3.748,0,0,0,.234,1.459v.1ZM31.8-3.312a2,2,0,0,0,1.016-.277,1.676,1.676,0,0,0,.7-.72V-5.676h-.893q-2.093,0-2.093,1.225a1.037,1.037,0,0,0,.357.837A1.372,1.372,0,0,0,31.8-3.312Z" transform="translate(833.299 1499.147)" fill="#445130"/>
    <path id="Trazado_125812" data-name="Trazado 125812" d="M8.15-2.544H6.962L2.449-9.451v6.908H1.261v-8.964H2.449L6.974-4.569v-6.938H8.15Zm4.685.123a2.911,2.911,0,0,1-2.2-.89,3.3,3.3,0,0,1-.85-2.379V-5.9a4,4,0,0,1,.379-1.77,2.954,2.954,0,0,1,1.059-1.219,2.662,2.662,0,0,1,1.474-.44,2.5,2.5,0,0,1,2.019.856,3.705,3.705,0,0,1,.72,2.45v.474H10.92A2.368,2.368,0,0,0,11.5-3.957a1.809,1.809,0,0,0,1.4.606A1.984,1.984,0,0,0,13.918-3.6a2.568,2.568,0,0,0,.733-.653l.7.542A2.8,2.8,0,0,1,12.835-2.42Zm-.142-5.972a1.519,1.519,0,0,0-1.157.5,2.439,2.439,0,0,0-.579,1.407h3.337V-6.57a2.169,2.169,0,0,0-.468-1.345A1.43,1.43,0,0,0,12.693-8.392ZM19.422-3.35a1.641,1.641,0,0,0,1.065-.369,1.3,1.3,0,0,0,.5-.923H22.07a2.065,2.065,0,0,1-.394,1.09,2.6,2.6,0,0,1-.97.825,2.8,2.8,0,0,1-1.284.308,2.744,2.744,0,0,1-2.164-.908,3.617,3.617,0,0,1-.8-2.484V-6a4.01,4.01,0,0,1,.357-1.73,2.72,2.72,0,0,1,1.025-1.176,2.912,2.912,0,0,1,1.579-.419,2.672,2.672,0,0,1,1.862.671,2.4,2.4,0,0,1,.791,1.742H20.992A1.57,1.57,0,0,0,20.5-7.977a1.523,1.523,0,0,0-1.087-.416,1.594,1.594,0,0,0-1.345.625,2.935,2.935,0,0,0-.477,1.807v.215a2.876,2.876,0,0,0,.474,1.773A1.6,1.6,0,0,0,19.422-3.35Zm6.692.93a2.911,2.911,0,0,1-2.2-.89,3.3,3.3,0,0,1-.85-2.379V-5.9a4,4,0,0,1,.379-1.77A2.954,2.954,0,0,1,24.5-8.888a2.662,2.662,0,0,1,1.474-.44,2.5,2.5,0,0,1,2.019.856,3.705,3.705,0,0,1,.72,2.45v.474H24.2a2.368,2.368,0,0,0,.576,1.591,1.809,1.809,0,0,0,1.4.606A1.984,1.984,0,0,0,27.2-3.6a2.568,2.568,0,0,0,.733-.653l.7.542A2.8,2.8,0,0,1,26.114-2.42Zm-.142-5.972a1.519,1.519,0,0,0-1.157.5,2.439,2.439,0,0,0-.579,1.407h3.337V-6.57a2.169,2.169,0,0,0-.468-1.345A1.43,1.43,0,0,0,25.973-8.392Zm7.936,4.082a.838.838,0,0,0-.348-.717,3.348,3.348,0,0,0-1.213-.44,5.734,5.734,0,0,1-1.373-.443,1.953,1.953,0,0,1-.751-.616,1.473,1.473,0,0,1-.243-.85,1.728,1.728,0,0,1,.693-1.385,2.7,2.7,0,0,1,1.77-.566,2.783,2.783,0,0,1,1.838.585,1.858,1.858,0,0,1,.7,1.5H33.841a1.028,1.028,0,0,0-.4-.807,1.488,1.488,0,0,0-1-.339,1.557,1.557,0,0,0-.973.271.853.853,0,0,0-.351.708.691.691,0,0,0,.326.622,4.015,4.015,0,0,0,1.179.4,6.143,6.143,0,0,1,1.382.456,2.016,2.016,0,0,1,.785.637,1.567,1.567,0,0,1,.255.908,1.7,1.7,0,0,1-.714,1.431,3,3,0,0,1-1.853.539A3.354,3.354,0,0,1,31.064-2.7a2.3,2.3,0,0,1-.963-.791,1.907,1.907,0,0,1-.348-1.1h1.139a1.179,1.179,0,0,0,.459.908,1.779,1.779,0,0,0,1.13.336,1.837,1.837,0,0,0,1.037-.262A.8.8,0,0,0,33.909-4.311Zm3.86,1.767H36.63V-9.2h1.139Zm-1.231-8.428a.68.68,0,0,1,.169-.468.636.636,0,0,1,.5-.191.646.646,0,0,1,.5.191.673.673,0,0,1,.172.468.651.651,0,0,1-.172.462.657.657,0,0,1-.5.185.647.647,0,0,1-.5-.185A.657.657,0,0,1,36.537-10.972ZM39.314-5.93A3.9,3.9,0,0,1,40.04-8.4a2.3,2.3,0,0,1,1.9-.933,2.31,2.31,0,0,1,1.853.8V-12h1.139v9.456H43.888l-.055-.714a2.319,2.319,0,0,1-1.9.837,2.275,2.275,0,0,1-1.887-.948,3.947,3.947,0,0,1-.73-2.475Zm1.139.129a2.955,2.955,0,0,0,.468,1.773,1.513,1.513,0,0,0,1.293.64A1.662,1.662,0,0,0,43.8-4.36V-7.42a1.674,1.674,0,0,0-1.57-.942,1.52,1.52,0,0,0-1.305.646A3.253,3.253,0,0,0,40.453-5.8ZM50.814-2.544a2.393,2.393,0,0,1-.16-.7,2.541,2.541,0,0,1-1.9.825,2.351,2.351,0,0,1-1.616-.557,1.8,1.8,0,0,1-.631-1.413A1.883,1.883,0,0,1,47.3-6.007a3.73,3.73,0,0,1,2.226-.576h1.108v-.523a1.279,1.279,0,0,0-.357-.951,1.435,1.435,0,0,0-1.053-.354A1.661,1.661,0,0,0,48.2-8.1a.907.907,0,0,0-.412.745H46.646A1.572,1.572,0,0,1,47-8.321a2.416,2.416,0,0,1,.96-.736,3.231,3.231,0,0,1,1.333-.271,2.633,2.633,0,0,1,1.8.576,2.076,2.076,0,0,1,.677,1.585V-4.1a3.748,3.748,0,0,0,.234,1.459v.1Zm-1.89-.868a2,2,0,0,0,1.016-.277,1.676,1.676,0,0,0,.7-.72V-5.776h-.893q-2.093,0-2.093,1.225a1.037,1.037,0,0,0,.357.837A1.372,1.372,0,0,0,48.924-3.412ZM53.283-5.93A3.9,3.9,0,0,1,54.01-8.4a2.3,2.3,0,0,1,1.9-.933,2.31,2.31,0,0,1,1.853.8V-12H58.9v9.456H57.857L57.8-3.258a2.319,2.319,0,0,1-1.9.837,2.275,2.275,0,0,1-1.887-.948,3.947,3.947,0,0,1-.73-2.475Zm1.139.129a2.955,2.955,0,0,0,.468,1.773,1.513,1.513,0,0,0,1.293.64,1.662,1.662,0,0,0,1.582-.973V-7.42a1.674,1.674,0,0,0-1.57-.942,1.52,1.52,0,0,0-1.305.646A3.253,3.253,0,0,0,54.422-5.8ZM1.039,9.579a9.518,9.518,0,0,1,.372-2.672A7.762,7.762,0,0,1,2.523,4.579,4.727,4.727,0,0,1,4.056,3.1l.234.751A4.9,4.9,0,0,0,2.815,5.958a9.128,9.128,0,0,0-.631,3.171l-.006.523a9.175,9.175,0,0,0,.868,4.125A4.926,4.926,0,0,0,4.29,15.415l-.234.7a4.879,4.879,0,0,1-1.564-1.527A8.557,8.557,0,0,1,1.039,9.579ZM5.57,13.217V4.253H8.1a4.073,4.073,0,0,1,2.069.517,3.5,3.5,0,0,1,1.388,1.471,4.789,4.789,0,0,1,.5,2.192v.573a4.806,4.806,0,0,1-.489,2.222,3.443,3.443,0,0,1-1.4,1.465,4.333,4.333,0,0,1-2.115.523ZM6.752,5.226V12.25H8a2.707,2.707,0,0,0,2.127-.85,3.508,3.508,0,0,0,.76-2.42V8.458a3.564,3.564,0,0,0-.717-2.373,2.553,2.553,0,0,0-2.035-.859ZM14.9,13.217H13.758V6.556H14.9ZM13.666,4.789a.68.68,0,0,1,.169-.468.636.636,0,0,1,.5-.191.646.646,0,0,1,.5.191.673.673,0,0,1,.172.468.651.651,0,0,1-.172.462.657.657,0,0,1-.5.185.647.647,0,0,1-.5-.185A.657.657,0,0,1,13.666,4.789Zm3.614,8.428V7.436H16.227v-.88H17.28V5.872a2.268,2.268,0,0,1,.573-1.656,2.163,2.163,0,0,1,1.619-.585,2.989,2.989,0,0,1,.782.1l-.062.923a3.271,3.271,0,0,0-.616-.055,1.113,1.113,0,0,0-.856.323,1.308,1.308,0,0,0-.3.927v.7h1.422v.88H18.419v5.781Zm6.434.123a2.911,2.911,0,0,1-2.2-.89,3.3,3.3,0,0,1-.85-2.379V9.862a4,4,0,0,1,.379-1.77A2.954,2.954,0,0,1,22.1,6.873a2.662,2.662,0,0,1,1.474-.44,2.5,2.5,0,0,1,2.019.856,3.705,3.705,0,0,1,.72,2.45v.474H21.8a2.368,2.368,0,0,0,.576,1.591,1.809,1.809,0,0,0,1.4.606,1.984,1.984,0,0,0,1.022-.246,2.568,2.568,0,0,0,.733-.653l.7.542A2.8,2.8,0,0,1,23.713,13.34Zm-.142-5.972a1.519,1.519,0,0,0-1.157.5,2.439,2.439,0,0,0-.579,1.407h3.337V9.191A2.169,2.169,0,0,0,24.7,7.845,1.43,1.43,0,0,0,23.572,7.368Zm7.277.209a3.413,3.413,0,0,0-.56-.043,1.5,1.5,0,0,0-1.521.954v4.728H27.629V6.556h1.108l.018.77a1.773,1.773,0,0,1,1.588-.893,1.164,1.164,0,0,1,.5.086Zm3.694,5.762a2.911,2.911,0,0,1-2.2-.89,3.3,3.3,0,0,1-.85-2.379V9.862a4,4,0,0,1,.379-1.77,2.954,2.954,0,0,1,1.059-1.219,2.662,2.662,0,0,1,1.474-.44,2.5,2.5,0,0,1,2.019.856,3.705,3.705,0,0,1,.72,2.45v.474H32.628A2.368,2.368,0,0,0,33.2,11.8a1.809,1.809,0,0,0,1.4.606,1.984,1.984,0,0,0,1.022-.246,2.568,2.568,0,0,0,.733-.653l.7.542A2.8,2.8,0,0,1,34.543,13.34ZM34.4,7.368a1.519,1.519,0,0,0-1.157.5,2.439,2.439,0,0,0-.579,1.407H36V9.191a2.169,2.169,0,0,0-.468-1.345A1.43,1.43,0,0,0,34.4,7.368Zm5.135-.813.037.837a2.427,2.427,0,0,1,1.995-.96q2.112,0,2.13,2.383v4.4H42.558V8.809a1.534,1.534,0,0,0-.329-1.065A1.32,1.32,0,0,0,41.222,7.4a1.644,1.644,0,0,0-.973.3,2.007,2.007,0,0,0-.653.776v4.747H38.458V6.556Zm8.551,5.855a1.641,1.641,0,0,0,1.065-.369,1.3,1.3,0,0,0,.5-.923h1.077a2.065,2.065,0,0,1-.394,1.09,2.6,2.6,0,0,1-.97.825,2.8,2.8,0,0,1-1.284.308,2.744,2.744,0,0,1-2.164-.908,3.617,3.617,0,0,1-.8-2.484V9.757a4.01,4.01,0,0,1,.357-1.73A2.72,2.72,0,0,1,46.5,6.851a2.912,2.912,0,0,1,1.579-.419,2.672,2.672,0,0,1,1.862.671,2.4,2.4,0,0,1,.791,1.742H49.657a1.57,1.57,0,0,0-.489-1.062,1.523,1.523,0,0,0-1.087-.416,1.594,1.594,0,0,0-1.345.625A2.935,2.935,0,0,0,46.258,9.8v.215a2.876,2.876,0,0,0,.474,1.773A1.6,1.6,0,0,0,48.087,12.41Zm5.165.807H52.113V6.556h1.139ZM52.021,4.789a.68.68,0,0,1,.169-.468.636.636,0,0,1,.5-.191.646.646,0,0,1,.5.191.673.673,0,0,1,.172.468.651.651,0,0,1-.172.462.657.657,0,0,1-.5.185.647.647,0,0,1-.5-.185A.657.657,0,0,1,52.021,4.789Zm7.166,8.428a2.393,2.393,0,0,1-.16-.7,2.541,2.541,0,0,1-1.9.825,2.351,2.351,0,0,1-1.616-.557,1.8,1.8,0,0,1-.631-1.413,1.883,1.883,0,0,1,.791-1.616A3.73,3.73,0,0,1,57.9,9.178h1.108V8.655a1.279,1.279,0,0,0-.357-.951A1.435,1.435,0,0,0,57.6,7.35a1.661,1.661,0,0,0-1.022.308.907.907,0,0,0-.412.745H55.019a1.572,1.572,0,0,1,.354-.963,2.416,2.416,0,0,1,.96-.736,3.231,3.231,0,0,1,1.333-.271,2.633,2.633,0,0,1,1.8.576,2.077,2.077,0,0,1,.677,1.585v3.066a3.748,3.748,0,0,0,.234,1.459v.1Zm-1.89-.868a2,2,0,0,0,1.016-.277,1.676,1.676,0,0,0,.7-.72V9.985h-.893q-2.093,0-2.093,1.225a1.037,1.037,0,0,0,.357.837A1.372,1.372,0,0,0,57.3,12.349Zm7.48-2.518A3.9,3.9,0,0,1,65.5,7.365a2.472,2.472,0,0,1,3.755-.132V3.761H70.4v9.456H69.351L69.3,12.5a2.319,2.319,0,0,1-1.9.837,2.275,2.275,0,0,1-1.887-.948,3.947,3.947,0,0,1-.73-2.475Zm1.139.129a2.955,2.955,0,0,0,.468,1.773,1.513,1.513,0,0,0,1.293.64,1.662,1.662,0,0,0,1.582-.973V8.341a1.674,1.674,0,0,0-1.57-.942,1.52,1.52,0,0,0-1.305.646A3.253,3.253,0,0,0,65.916,9.96Zm9.013,3.38a2.91,2.91,0,0,1-2.2-.89,3.3,3.3,0,0,1-.85-2.379V9.862a4,4,0,0,1,.379-1.77,2.954,2.954,0,0,1,1.059-1.219,2.662,2.662,0,0,1,1.474-.44,2.5,2.5,0,0,1,2.019.856,3.705,3.705,0,0,1,.72,2.45v.474H73.015A2.368,2.368,0,0,0,73.59,11.8a1.809,1.809,0,0,0,1.4.606,1.984,1.984,0,0,0,1.022-.246,2.568,2.568,0,0,0,.733-.653l.7.542A2.8,2.8,0,0,1,74.929,13.34Zm-.142-5.972a1.519,1.519,0,0,0-1.157.5,2.439,2.439,0,0,0-.579,1.407h3.337V9.191a2.169,2.169,0,0,0-.468-1.345A1.43,1.43,0,0,0,74.788,7.368ZM4.548,25.351H2.443v3.626H1.255V20.014H4.222a3.512,3.512,0,0,1,2.33.69,2.481,2.481,0,0,1,.816,2.007,2.413,2.413,0,0,1-.453,1.459,2.7,2.7,0,0,1-1.259.93l2.106,3.8v.074H6.494Zm-2.106-.967H4.259a2.051,2.051,0,0,0,1.4-.456,1.539,1.539,0,0,0,.52-1.219,1.621,1.621,0,0,0-.5-1.274,2.1,2.1,0,0,0-1.431-.449H2.443ZM11.61,29.1a2.911,2.911,0,0,1-2.2-.89,3.3,3.3,0,0,1-.85-2.379v-.209a4,4,0,0,1,.379-1.77,2.954,2.954,0,0,1,1.059-1.219,2.662,2.662,0,0,1,1.474-.44,2.5,2.5,0,0,1,2.019.856,3.705,3.705,0,0,1,.72,2.45v.474H9.7a2.368,2.368,0,0,0,.576,1.591,1.809,1.809,0,0,0,1.4.606,1.984,1.984,0,0,0,1.022-.246,2.568,2.568,0,0,0,.733-.653l.7.542A2.8,2.8,0,0,1,11.61,29.1Zm-.142-5.972a1.519,1.519,0,0,0-1.157.5,2.439,2.439,0,0,0-.579,1.407h3.337v-.086a2.169,2.169,0,0,0-.468-1.345A1.43,1.43,0,0,0,11.468,23.129ZM19.4,27.211a.838.838,0,0,0-.348-.717,3.348,3.348,0,0,0-1.213-.44,5.734,5.734,0,0,1-1.373-.443,1.953,1.953,0,0,1-.751-.616,1.473,1.473,0,0,1-.243-.85,1.728,1.728,0,0,1,.693-1.385,2.7,2.7,0,0,1,1.77-.566,2.783,2.783,0,0,1,1.838.585,1.858,1.858,0,0,1,.7,1.5H19.336a1.028,1.028,0,0,0-.4-.807,1.488,1.488,0,0,0-1-.339,1.557,1.557,0,0,0-.973.271.853.853,0,0,0-.351.708.691.691,0,0,0,.326.622,4.015,4.015,0,0,0,1.179.4,6.143,6.143,0,0,1,1.382.456,2.016,2.016,0,0,1,.785.637,1.567,1.567,0,0,1,.255.908,1.7,1.7,0,0,1-.714,1.431,3,3,0,0,1-1.853.539,3.354,3.354,0,0,1-1.416-.283,2.3,2.3,0,0,1-.963-.791,1.907,1.907,0,0,1-.348-1.1h1.139a1.179,1.179,0,0,0,.459.908,1.779,1.779,0,0,0,1.13.336,1.837,1.837,0,0,0,1.037-.262A.8.8,0,0,0,19.4,27.211Zm6.735,1.108a2.419,2.419,0,0,1-1.952.782,2.071,2.071,0,0,1-1.622-.619A2.678,2.678,0,0,1,22,26.65V22.316h1.139v4.3q0,1.514,1.231,1.514a1.7,1.7,0,0,0,1.736-.973V22.316h1.139v6.661H26.164Zm4.076.659H29.076V19.521h1.139ZM33.582,20.7v1.613h1.244v.88H33.582v4.131a.923.923,0,0,0,.166.6.7.7,0,0,0,.566.2,2.757,2.757,0,0,0,.542-.074v.923a3.3,3.3,0,0,1-.874.123,1.418,1.418,0,0,1-1.151-.462,1.984,1.984,0,0,1-.388-1.311V23.2H31.23v-.88h1.213V20.7Zm6.686,8.274a2.392,2.392,0,0,1-.16-.7,2.541,2.541,0,0,1-1.9.825,2.351,2.351,0,0,1-1.616-.557,1.8,1.8,0,0,1-.631-1.413,1.883,1.883,0,0,1,.791-1.616,3.73,3.73,0,0,1,2.226-.576H40.09v-.523a1.279,1.279,0,0,0-.357-.951,1.435,1.435,0,0,0-1.053-.354,1.661,1.661,0,0,0-1.022.308.907.907,0,0,0-.412.745H36.1a1.572,1.572,0,0,1,.354-.963,2.416,2.416,0,0,1,.96-.736,3.231,3.231,0,0,1,1.333-.271,2.633,2.633,0,0,1,1.8.576,2.076,2.076,0,0,1,.677,1.585V27.42a3.748,3.748,0,0,0,.234,1.459v.1Zm-1.89-.868a2,2,0,0,0,1.016-.277,1.676,1.676,0,0,0,.7-.72V25.745H39.2q-2.093,0-2.093,1.225a1.037,1.037,0,0,0,.357.837A1.372,1.372,0,0,0,38.378,28.11Zm4.359-2.518a3.9,3.9,0,0,1,.726-2.466,2.472,2.472,0,0,1,3.755-.132V19.521h1.139v9.456H47.311l-.055-.714a2.319,2.319,0,0,1-1.9.837,2.275,2.275,0,0,1-1.887-.948,3.947,3.947,0,0,1-.73-2.475Zm1.139.129a2.955,2.955,0,0,0,.468,1.773,1.513,1.513,0,0,0,1.293.64,1.662,1.662,0,0,0,1.582-.973V24.1a1.674,1.674,0,0,0-1.57-.942,1.52,1.52,0,0,0-1.305.646A3.253,3.253,0,0,0,43.876,25.721Zm5.947-.135a3.935,3.935,0,0,1,.385-1.761,2.87,2.87,0,0,1,1.071-1.207,2.916,2.916,0,0,1,1.567-.425,2.809,2.809,0,0,1,2.2.942,3.624,3.624,0,0,1,.84,2.506v.08a3.969,3.969,0,0,1-.372,1.745,2.828,2.828,0,0,1-1.065,1.2,2.95,2.95,0,0,1-1.591.431,2.8,2.8,0,0,1-2.195-.942,3.606,3.606,0,0,1-.84-2.493Zm1.145.135a2.85,2.85,0,0,0,.514,1.779,1.742,1.742,0,0,0,2.755-.009,3.116,3.116,0,0,0,.511-1.905,2.845,2.845,0,0,0-.52-1.776,1.654,1.654,0,0,0-1.382-.68,1.635,1.635,0,0,0-1.361.671A3.093,3.093,0,0,0,50.968,25.721Zm10.226,1.49a.838.838,0,0,0-.348-.717,3.348,3.348,0,0,0-1.213-.44,5.734,5.734,0,0,1-1.373-.443,1.953,1.953,0,0,1-.751-.616,1.473,1.473,0,0,1-.243-.85,1.728,1.728,0,0,1,.693-1.385,2.7,2.7,0,0,1,1.77-.566,2.783,2.783,0,0,1,1.838.585,1.858,1.858,0,0,1,.7,1.5H61.126a1.028,1.028,0,0,0-.4-.807,1.488,1.488,0,0,0-1-.339,1.557,1.557,0,0,0-.973.271.853.853,0,0,0-.351.708.691.691,0,0,0,.326.622,4.015,4.015,0,0,0,1.179.4,6.143,6.143,0,0,1,1.382.456,2.016,2.016,0,0,1,.785.637,1.567,1.567,0,0,1,.256.908,1.7,1.7,0,0,1-.714,1.431,3,3,0,0,1-1.853.539,3.354,3.354,0,0,1-1.416-.283,2.3,2.3,0,0,1-.963-.791,1.907,1.907,0,0,1-.348-1.1h1.139a1.179,1.179,0,0,0,.459.908,1.779,1.779,0,0,0,1.13.336,1.837,1.837,0,0,0,1.037-.262A.8.8,0,0,0,61.194,27.211Zm5.251-1.81a9.523,9.523,0,0,1-.36,2.632,7.783,7.783,0,0,1-1.1,2.324,4.828,4.828,0,0,1-1.555,1.514l-.24-.7a4.949,4.949,0,0,0,1.524-2.256,9.761,9.761,0,0,0,.588-3.4v-.2a10.135,10.135,0,0,0-.271-2.4,8.113,8.113,0,0,0-.754-1.992,4.6,4.6,0,0,0-1.087-1.373l.24-.7a4.81,4.81,0,0,1,1.548,1.5,7.8,7.8,0,0,1,1.1,2.321A9.743,9.743,0,0,1,66.446,25.4Z" transform="translate(1058.268 1342.429)" fill="#88a160"/>
    <path id="Trazado_125813" data-name="Trazado 125813" d="M8.274,0l8.274,14.185H0Z" transform="translate(1146.747 1379.004) rotate(90)" fill="#0a4666"/>
  </g>
</svg>
