<svg xmlns="http://www.w3.org/2000/svg" width="396" height="279" viewBox="0 0 396 279">
  <g id="Grupo_1204385" data-name="Grupo 1204385" transform="translate(-872 -6624)">
    <path id="Trazado_1261941" data-name="Trazado 1261941" d="M12.816,17,14.793,5.625l3.547.008a4.705,4.705,0,0,1,2.969.8,2.488,2.488,0,0,1,.9,2.242A2.865,2.865,0,0,1,20.215,11.2a1.911,1.911,0,0,1,1.055.879,2.63,2.63,0,0,1,.32,1.52,3.291,3.291,0,0,1-1.262,2.5A5,5,0,0,1,17.184,17Zm3.156-4.953-.539,3.07,1.8.008a2.327,2.327,0,0,0,1.414-.418,1.658,1.658,0,0,0,.68-1.129,1.4,1.4,0,0,0-.191-1.1,1.269,1.269,0,0,0-1.012-.426Zm.281-1.656,1.555.016A2.475,2.475,0,0,0,19.227,10a1.575,1.575,0,0,0,.66-1.086q.2-1.375-1.445-1.383l-1.687-.008ZM25.238,17H22.949L24.918,5.625h2.289ZM36.52,15.563a3.837,3.837,0,0,1-1.785,1.191,7.523,7.523,0,0,1-2.652.395,4.114,4.114,0,0,1-2.047-.512,3.572,3.572,0,0,1-1.391-1.449,5.128,5.128,0,0,1-.578-2.156,9.841,9.841,0,0,1,.238-2.645,7.438,7.438,0,0,1,1.086-2.664,5.076,5.076,0,0,1,1.848-1.711,4.868,4.868,0,0,1,2.391-.543,3.954,3.954,0,0,1,2.789,1,4.165,4.165,0,0,1,1.148,2.785l-2.2-.008a2.331,2.331,0,0,0-.508-1.406A1.731,1.731,0,0,0,33.6,7.359a2.467,2.467,0,0,0-2.277,1.27,7.9,7.9,0,0,0-.949,3.816,3.355,3.355,0,0,0,.41,2.07,1.7,1.7,0,0,0,1.488.75,3.171,3.171,0,0,0,1.984-.555l.383-1.961H32.559l.3-1.727h4.344ZM42,17,43.973,5.625l3.266.008a4.473,4.473,0,0,1,2.066.52,3.905,3.905,0,0,1,1.488,1.426,4.883,4.883,0,0,1,.688,2.094,6.911,6.911,0,0,1-.016,1.391l-.055.414a6.5,6.5,0,0,1-1.965,4.012A5.558,5.558,0,0,1,45.512,17Zm3.938-9.477-1.32,7.594.953.008A3.127,3.127,0,0,0,48.1,13.969a5.976,5.976,0,0,0,1.1-3.492l.016-.25a3.151,3.151,0,0,0-.492-1.977,1.879,1.879,0,0,0-1.539-.719Zm12.914,7.133H54.879L53.707,17H51.184L57.262,5.625h2.117L61.543,17H59.207Zm-3.031-1.9h2.742l-.641-4.234ZM71.707,7.523H68.332L66.691,17H64.4l1.641-9.477H62.707l.336-1.9h9Zm5.469,7.133H73.207L72.035,17H69.512L75.59,5.625h2.117L79.871,17H77.535Zm-3.031-1.9h2.742l-.641-4.234Z" transform="translate(1025.5 6792.618)" fill="#12263f"/>
    <g id="Grupo_1101881" data-name="Grupo 1101881" transform="translate(1041.438 6726.063)">
      <g id="Grupo_1101880" data-name="Grupo 1101880">
        <g id="Grupo_1101877" data-name="Grupo 1101877">
          <path id="Trazado_877289" data-name="Trazado 877289" d="M62.564,117H10.625A3.125,3.125,0,0,1,7.5,113.875v-39.4H65.689v39.4A3.125,3.125,0,0,1,62.564,117Z" transform="translate(-7.5 -66.593)" fill="#efedef"/>
          <path id="Trazado_877290" data-name="Trazado 877290" d="M60.845,74.474v34.534a3.125,3.125,0,0,1-3.125,3.125H7.5v1.743A3.125,3.125,0,0,0,10.625,117H62.564a3.125,3.125,0,0,0,3.125-3.125v-39.4Z" transform="translate(-7.5 -66.593)" fill="#e5e1e5"/>
          <path id="Trazado_877291" data-name="Trazado 877291" d="M7.5,74.474v39.4A3.125,3.125,0,0,0,10.625,117h9.51V74.474Z" transform="translate(-7.5 -66.593)" fill="#3a4852"/>
          <path id="Trazado_877292" data-name="Trazado 877292" d="M7.5,375.742v1.743a3.125,3.125,0,0,0,3.125,3.125h9.51v-4.868Z" transform="translate(-7.5 -330.203)" fill="#84a4bc"/>
          <path id="Trazado_877293" data-name="Trazado 877293" d="M62.564,11.428H10.625A3.125,3.125,0,0,0,7.5,14.553v4.756H65.689V14.553a3.125,3.125,0,0,0-3.125-3.125Z" transform="translate(-7.5 -11.428)" fill="#aaca79"/>
          <path id="Trazado_877294" data-name="Trazado 877294" d="M406.848,11.428h-5.881v7.881h9.006V14.553a3.125,3.125,0,0,0-3.125-3.125Z" transform="translate(-351.784 -11.428)" fill="#a6cdec"/>
          <path id="Trazado_877295" data-name="Trazado 877295" d="M435.977,11.428h-1.72v7.881H439.1V14.553a3.125,3.125,0,0,0-3.125-3.125Z" transform="translate(-380.912 -11.428)" fill="#a6cdec"/>
        </g>
        <g id="Grupo_1101879" data-name="Grupo 1101879" transform="translate(27.953 18.568)">
          <g id="Grupo_1101878" data-name="Grupo 1101878" transform="translate(0 8.403)">
            <path id="Trazado_877296" data-name="Trazado 877296" d="M388.69,384.763a12.608,12.608,0,0,1-2.239,1.782l9.9,9.9a2.843,2.843,0,1,0,4.02-4.021l-9.9-9.9A12.605,12.605,0,0,1,388.69,384.763Z" transform="translate(-367.035 -363.108)" fill="#a79ba7"/>
            <path id="Trazado_877322" data-name="Trazado 877322" d="M12.734,0A12.734,12.734,0,1,1,0,12.734,12.734,12.734,0,0,1,12.734,0Z" fill="#0a4666"/>
            <path id="Trazado_877297" data-name="Trazado 877297" d="M257.87,237.751a12.738,12.738,0,0,1-17.188,16.8,12.735,12.735,0,1,0,17.188-16.8Z" transform="translate(-239.487 -236.432)" fill="#01c0fa"/>
            <circle id="Elipse_11821" data-name="Elipse 11821" cx="8.114" cy="8.114" r="8.114" transform="translate(4.62 4.62)" fill="#c8effe"/>
            <path id="Trazado_877298" data-name="Trazado 877298" d="M307.21,293.072a12.738,12.738,0,0,1-11.4,11.149,8.113,8.113,0,0,0,11.4-11.149Z" transform="translate(-287.723 -284.837)" fill="#99e6fc"/>
            <path id="Trazado_877299" data-name="Trazado 877299" d="M276.421,346.189H270.38a8.117,8.117,0,0,0,7.291,5.955v-4.7A1.25,1.25,0,0,0,276.421,346.189Z" transform="translate(-265.473 -331.315)" fill="#aaca79"/>
            <path id="Trazado_877300" data-name="Trazado 877300" d="M295.812,374.437a8.07,8.07,0,0,0,4.112,1.446v-2.563A12.65,12.65,0,0,1,295.812,374.437Z" transform="translate(-287.726 -355.054)" fill="#fe4fb7"/>
          </g>
          <path id="Trazado_877301" data-name="Trazado 877301" d="M348.573,248.941H341.02a1.25,1.25,0,0,1-1.25-1.25v-7.553a1.25,1.25,0,0,1,1.25-1.25h7.553a1.25,1.25,0,0,1,1.25,1.25v7.553A1.25,1.25,0,0,1,348.573,248.941Z" transform="translate(-326.189 -229.024)" fill="#36dbe6"/>
          <path id="Trazado_877302" data-name="Trazado 877302" d="M382.652,238.888h-3.934a12.768,12.768,0,0,1,.19,10.053h3.744a1.25,1.25,0,0,0,1.25-1.25v-7.553A1.25,1.25,0,0,0,382.652,238.888Z" transform="translate(-360.269 -229.024)" fill="#ffc344"/>
          <path id="Trazado_877303" data-name="Trazado 877303" d="M454.181,189.309H450.82a1.25,1.25,0,0,1-1.25-1.25V184.7a1.25,1.25,0,0,1,1.25-1.25h3.361a1.25,1.25,0,0,1,1.25,1.25v3.361A1.25,1.25,0,0,1,454.181,189.309Z" transform="translate(-422.264 -180.514)" fill="#aaca79"/>
          <path id="Trazado_877304" data-name="Trazado 877304" d="M371.1,165.836h-3.361a1.25,1.25,0,0,1-1.25-1.25v-3.361a1.25,1.25,0,0,1,1.25-1.25H371.1a1.25,1.25,0,0,1,1.25,1.25v3.361A1.25,1.25,0,0,1,371.1,165.836Z" transform="translate(-349.565 -159.975)" fill="#445130"/>
          <path id="Trazado_877305" data-name="Trazado 877305" d="M371.1,159.975h-.929v2.371a1.25,1.25,0,0,1-1.25,1.25h-2.432v.99a1.25,1.25,0,0,0,1.25,1.25H371.1a1.25,1.25,0,0,0,1.25-1.25v-3.361A1.25,1.25,0,0,0,371.1,159.975Z" transform="translate(-349.565 -159.975)" fill="#083851"/>
        </g>
      </g>
    </g>
    <g id="Grupo_1101882" data-name="Grupo 1101882" transform="translate(1040.5 6725.126)">
      <path id="Trazado_877306" data-name="Trazado 877306" d="M212.013,121.412H182.456a.938.938,0,0,0,0,1.875h29.558a.938.938,0,0,0,0-1.875Z" transform="translate(-158.828 -106.727)"/>
      <path id="Trazado_877307" data-name="Trazado 877307" d="M139.326,121.412H138a.938.938,0,0,0,0,1.875h1.323a.937.937,0,0,0,0-1.875Z" transform="translate(-119.932 -106.727)"/>
      <path id="Trazado_877308" data-name="Trazado 877308" d="M139.326,175.92H138a.937.937,0,1,0,0,1.875h1.323a.937.937,0,1,0,0-1.875Z" transform="translate(-119.932 -154.421)"/>
      <path id="Trazado_877309" data-name="Trazado 877309" d="M139.326,230.429H138a.937.937,0,1,0,0,1.875h1.323a.937.937,0,1,0,0-1.875Z" transform="translate(-119.932 -202.116)"/>
      <path id="Trazado_877310" data-name="Trazado 877310" d="M139.326,284.937H138a.938.938,0,0,0,0,1.875h1.323a.938.938,0,0,0,0-1.875Z" transform="translate(-119.932 -249.811)"/>
      <path id="Trazado_877311" data-name="Trazado 877311" d="M139.326,339.445H138a.938.938,0,0,0,0,1.875h1.323a.938.938,0,0,0,0-1.875Z" transform="translate(-119.932 -297.505)"/>
      <path id="Trazado_877312" data-name="Trazado 877312" d="M41.555,121.412H38.247a.938.938,0,0,0,0,1.875h3.307a.937.937,0,1,0,0-1.875Z" transform="translate(-32.646 -106.727)"/>
      <path id="Trazado_877313" data-name="Trazado 877313" d="M41.555,175.92H38.247a.937.937,0,1,0,0,1.875h3.307a.937.937,0,1,0,0-1.875Z" transform="translate(-32.646 -154.421)"/>
      <path id="Trazado_877314" data-name="Trazado 877314" d="M41.555,230.429H38.247a.937.937,0,1,0,0,1.875h3.307a.937.937,0,1,0,0-1.875Z" transform="translate(-32.646 -202.116)"/>
      <path id="Trazado_877315" data-name="Trazado 877315" d="M41.555,284.937H38.247a.938.938,0,0,0,0,1.875h3.307a.938.938,0,0,0,0-1.875Z" transform="translate(-32.646 -249.811)"/>
      <path id="Trazado_877316" data-name="Trazado 877316" d="M41.555,339.445H38.247a.938.938,0,0,0,0,1.875h3.307a.938.938,0,0,0,0-1.875Z" transform="translate(-32.646 -297.505)"/>
      <path id="Trazado_877317" data-name="Trazado 877317" d="M39.443,35.451a.937.937,0,1,0,0,1.875h.233a.937.937,0,1,0,0-1.875Z" transform="translate(-33.692 -31.511)"/>
      <path id="Trazado_877318" data-name="Trazado 877318" d="M73.438,35.451a.937.937,0,1,0,0,1.875h.233a.937.937,0,1,0,0-1.875Z" transform="translate(-63.438 -31.511)"/>
      <path id="Trazado_877319" data-name="Trazado 877319" d="M107.436,35.451a.937.937,0,1,0,0,1.875h.233a.937.937,0,1,0,0-1.875Z" transform="translate(-93.186 -31.511)"/>
      <path id="Trazado_877320" data-name="Trazado 877320" d="M62.893,60.492l-4.836-4.836a4.053,4.053,0,0,0,2.008-3.508V33.167h.743a2.19,2.19,0,0,0,2.187-2.187V27.618a2.19,2.19,0,0,0-2.187-2.187h-.743V7.991A4.067,4.067,0,0,0,56,3.928H44A.937.937,0,0,0,44,5.8h5.182v6.006H1.875V7.991A2.19,2.19,0,0,1,4.062,5.8H39.626a.937.937,0,1,0,0-1.875H4.062A4.067,4.067,0,0,0,0,7.991V52.147A4.067,4.067,0,0,0,4.062,56.21h30.4a13.645,13.645,0,0,0,13.779.322l3.1,3.1A.938.938,0,0,0,52.664,58.3l-2.818-2.818a13.788,13.788,0,0,0,2.695-2.695l9.026,9.026a1.905,1.905,0,1,1-2.695,2.695L55.757,61.4a.938.938,0,1,0-1.326,1.326l3.115,3.115a3.781,3.781,0,0,0,5.346-5.346ZM61.12,27.618v3.361a.313.313,0,0,1-.312.313H57.446a.313.313,0,0,1-.312-.312V27.618a.313.313,0,0,1,.312-.312h3.361a.313.313,0,0,1,.313.313ZM51.058,5.8H56a2.19,2.19,0,0,1,2.187,2.187v3.818H51.058ZM41.624,56.367a11.8,11.8,0,0,1,0-23.593c.262,0,.524.01.785.027a2.183,2.183,0,0,0-.876,1.747v.973a9.051,9.051,0,1,0,9.142,9.049c0-.094,0-.188-.005-.283h.6a2.19,2.19,0,0,0,2.03-1.376A11.8,11.8,0,0,1,41.624,56.367ZM48.8,44.57a7.185,7.185,0,0,1-6.775,7.165V47.961a2.19,2.19,0,0,0-2.187-2.187H34.55A7.168,7.168,0,0,1,41.534,37.4v4.7a2.19,2.19,0,0,0,2.188,2.187H48.8q.006.142.006.283Zm-8.65,7.024a7.2,7.2,0,0,1-5.009-3.946h4.7a.313.313,0,0,1,.313.313Zm3.57-9.181a.313.313,0,0,1-.312-.312V34.548a.313.313,0,0,1,.313-.312h7.553a.313.313,0,0,1,.313.313V42.1a.313.313,0,0,1-.312.312Zm9.74-4.683V34.548a2.19,2.19,0,0,0-2.187-2.187h-3.5a13.668,13.668,0,0,0-12.054-.12H23.627a.937.937,0,1,0,0,1.875h9.2a13.744,13.744,0,0,0-3.709,4.938H23.627a.937.937,0,1,0,0,1.875h4.819a13.639,13.639,0,0,0-.493,3.641c0,.437.021.87.062,1.3H23.627a.937.937,0,1,0,0,1.875h4.7a13.671,13.671,0,0,0,3.741,6.592H14.51V25.187a.937.937,0,1,0-1.875,0V54.335H4.062a2.19,2.19,0,0,1-2.187-2.187V13.684h10.76v7.128a.937.937,0,0,0,1.875,0V13.684h43.68V25.431h-.743a2.19,2.19,0,0,0-2.187,2.187v3.361a2.19,2.19,0,0,0,2.187,2.188h.743V52.148a2.181,2.181,0,0,1-1.548,2.093l-3.055-3.055a13.659,13.659,0,0,0-.124-13.456Z" transform="translate(0 -3.928)"/>
      <path id="Trazado_877321" data-name="Trazado 877321" d="M209.25,152.476h-3.361a2.19,2.19,0,0,0-2.187,2.187v.743H182.456a.937.937,0,1,0,0,1.875H203.7v.743a2.19,2.19,0,0,0,2.188,2.188h3.361a2.19,2.19,0,0,0,2.188-2.187v-3.361A2.19,2.19,0,0,0,209.25,152.476Zm.313,5.549a.313.313,0,0,1-.312.313h-3.361a.313.313,0,0,1-.312-.312v-3.361a.313.313,0,0,1,.313-.312h3.361a.313.313,0,0,1,.313.313Z" transform="translate(-158.828 -133.908)"/>
    </g>
    <g id="Trazado_1261942" data-name="Trazado 1261942" transform="translate(952 6642)" fill="none">
      <path d="M121,0A121,121,0,1,1,0,121,121,121,0,0,1,121,0Z" stroke="none"/>
      <path d="M 121 3 C 112.9918975830078 3 104.9897003173828 3.806594848632812 97.2156982421875 5.39739990234375 C 89.64083862304688 6.947433471679688 82.18992614746094 9.260330200195312 75.07000732421875 12.27180480957031 C 68.07865905761719 15.22889709472656 61.33529663085938 18.88909912109375 55.02716064453125 23.15077209472656 C 48.77822875976562 27.37246704101562 42.90190124511719 32.22093200683594 37.5614013671875 37.5614013671875 C 32.22093200683594 42.90190124511719 27.37246704101562 48.77822875976562 23.15077209472656 55.02716064453125 C 18.88909912109375 61.33529663085938 15.22889709472656 68.07865905761719 12.27180480957031 75.07000732421875 C 9.260330200195312 82.18992614746094 6.947433471679688 89.64083862304688 5.39739990234375 97.2156982421875 C 3.806594848632812 104.9897003173828 3 112.9918975830078 3 121 C 3 129.0081024169922 3.806594848632812 137.0102996826172 5.39739990234375 144.7843017578125 C 6.947433471679688 152.3591613769531 9.260330200195312 159.81005859375 12.27180480957031 166.9299926757812 C 15.22889709472656 173.9213256835938 18.88909912109375 180.6647033691406 23.15077209472656 186.9728393554688 C 27.37246704101562 193.2217712402344 32.22093200683594 199.0980987548828 37.5614013671875 204.4385986328125 C 42.90190124511719 209.7790679931641 48.77822875976562 214.6275329589844 55.02716064453125 218.8492279052734 C 61.33529663085938 223.1109008789062 68.07865905761719 226.7711029052734 75.07000732421875 229.7281951904297 C 82.18992614746094 232.7396697998047 89.64083862304688 235.0525665283203 97.2156982421875 236.6026000976562 C 104.9897003173828 238.1934051513672 112.9918975830078 239 121 239 C 129.0081024169922 239 137.0102996826172 238.1934051513672 144.7843017578125 236.6026000976562 C 152.3591613769531 235.0525665283203 159.81005859375 232.7396697998047 166.9299926757812 229.7281951904297 C 173.9213256835938 226.7711029052734 180.6647033691406 223.1109008789062 186.9728393554688 218.8492279052734 C 193.2217712402344 214.6275329589844 199.0980987548828 209.7790679931641 204.4385986328125 204.4385986328125 C 209.7790679931641 199.0980987548828 214.6275329589844 193.2217712402344 218.8492279052734 186.9728393554688 C 223.1109008789062 180.6647033691406 226.7711029052734 173.9213256835938 229.7281951904297 166.9299926757812 C 232.7396697998047 159.81005859375 235.0525665283203 152.3591613769531 236.6026000976562 144.7843017578125 C 238.1934051513672 137.0102996826172 239 129.0081024169922 239 121 C 239 112.9918975830078 238.1934051513672 104.9897003173828 236.6026000976562 97.2156982421875 C 235.0525665283203 89.64083862304688 232.7396697998047 82.18992614746094 229.7281951904297 75.07000732421875 C 226.7711029052734 68.07865905761719 223.1109008789062 61.33529663085938 218.8492279052734 55.02716064453125 C 214.6275329589844 48.77822875976562 209.7790679931641 42.90190124511719 204.4385986328125 37.5614013671875 C 199.0980987548828 32.22093200683594 193.2217712402344 27.37246704101562 186.9728393554688 23.15077209472656 C 180.6647033691406 18.88909912109375 173.9213256835938 15.22889709472656 166.9299926757812 12.27180480957031 C 159.81005859375 9.260330200195312 152.3591613769531 6.947433471679688 144.7843017578125 5.39739990234375 C 137.0102996826172 3.806594848632812 129.0081024169922 3 121 3 M 121 0 C 187.8264312744141 0 242 54.17356872558594 242 121 C 242 187.8264312744141 187.8264312744141 242 121 242 C 54.17356872558594 242 0 187.8264312744141 0 121 C 0 54.17356872558594 54.17356872558594 0 121 0 Z" stroke="none" fill="#0a4666"/>
    </g>
    <g id="Trazado_1261943" data-name="Trazado 1261943" transform="translate(1010 6624)" fill="#84a4bc">
      <path d="M 113 62.5 L 12 62.5 C 8.92823314666748 62.5 6.040333271026611 61.30378341674805 3.868266582489014 59.13173294067383 C 1.696216702461243 56.95966720581055 0.5 54.0717658996582 0.5 51 L 0.5 12 C 0.5 8.92823314666748 1.696216702461243 6.040333271026611 3.868266582489014 3.868266582489014 C 6.040333271026611 1.696216702461243 8.92823314666748 0.5 12 0.5 L 113 0.5 C 116.0717697143555 0.5 118.9596633911133 1.696216702461243 121.1317367553711 3.868266582489014 C 123.3037796020508 6.040333271026611 124.5 8.92823314666748 124.5 12 L 124.5 51 C 124.5 54.0717658996582 123.3037796020508 56.95966720581055 121.1317367553711 59.13173294067383 C 118.9596633911133 61.30378341674805 116.0717697143555 62.5 113 62.5 Z" stroke="none"/>
      <path d="M 12 1 C 9.061798095703125 1 6.299453735351562 2.144199371337891 4.221832275390625 4.221832275390625 C 2.144203186035156 6.299449920654297 1 9.061798095703125 1 12 L 1 51 C 1 53.93820190429688 2.144203186035156 56.7005500793457 4.221832275390625 58.77816772460938 C 6.299453735351562 60.85580062866211 9.061798095703125 62 12 62 L 113 62 C 115.9382019042969 62 118.7005462646484 60.85580062866211 120.7781677246094 58.77816772460938 C 122.8557968139648 56.7005500793457 124 53.93820190429688 124 51 L 124 12 C 124 9.061798095703125 122.8557968139648 6.299449920654297 120.7781677246094 4.221832275390625 C 118.7005462646484 2.144199371337891 115.9382019042969 1 113 1 L 12 1 M 12 0 L 113 0 C 119.6274185180664 0 125 5.372581481933594 125 12 L 125 51 C 125 57.62741851806641 119.6274185180664 63 113 63 L 12 63 C 5.372581481933594 63 0 57.62741851806641 0 51 L 0 12 C 0 5.372581481933594 5.372581481933594 0 12 0 Z" stroke="none" fill="#aaca79"/>
    </g>
    <path id="Trazado_1261944" data-name="Trazado 1261944" d="M8.855,12.4H6.184V17H4.676V5.625H8.441A4.457,4.457,0,0,1,11.4,6.5a3.148,3.148,0,0,1,1.035,2.547,3.062,3.062,0,0,1-.574,1.852,3.428,3.428,0,0,1-1.6,1.18l2.672,4.828V17H11.324ZM6.184,11.172h2.3a2.6,2.6,0,0,0,1.777-.578,1.953,1.953,0,0,0,.66-1.547A2.057,2.057,0,0,0,10.3,7.43a2.666,2.666,0,0,0-1.816-.57h-2.3Zm11.633,5.984a3.693,3.693,0,0,1-2.8-1.129,4.19,4.19,0,0,1-1.078-3.02v-.266a5.073,5.073,0,0,1,.48-2.246,3.748,3.748,0,0,1,1.344-1.547,3.378,3.378,0,0,1,1.871-.559A3.166,3.166,0,0,1,20.2,9.477a4.7,4.7,0,0,1,.914,3.109v.6H15.387a3,3,0,0,0,.73,2.02,2.3,2.3,0,0,0,1.777.77,2.517,2.517,0,0,0,1.3-.312,3.259,3.259,0,0,0,.93-.828l.883.688A3.55,3.55,0,0,1,17.816,17.156Zm-.18-7.578a1.928,1.928,0,0,0-1.469.637A3.1,3.1,0,0,0,15.434,12h4.234v-.109a2.753,2.753,0,0,0-.594-1.707A1.815,1.815,0,0,0,17.637,9.578Zm8.539,6.4a2.082,2.082,0,0,0,1.352-.469,1.649,1.649,0,0,0,.641-1.172h1.367a2.621,2.621,0,0,1-.5,1.383,3.293,3.293,0,0,1-1.23,1.047,3.55,3.55,0,0,1-1.629.391A3.482,3.482,0,0,1,23.43,16a4.59,4.59,0,0,1-1.02-3.152v-.242a5.089,5.089,0,0,1,.453-2.2,3.451,3.451,0,0,1,1.3-1.492,3.7,3.7,0,0,1,2-.531,3.39,3.39,0,0,1,2.363.852,3.043,3.043,0,0,1,1,2.211H28.168a1.992,1.992,0,0,0-.621-1.348,1.932,1.932,0,0,0-1.379-.527,2.023,2.023,0,0,0-1.707.793,3.724,3.724,0,0,0-.605,2.293v.273a3.65,3.65,0,0,0,.6,2.25A2.033,2.033,0,0,0,26.176,15.977Zm4.6-3.281a4.993,4.993,0,0,1,.488-2.234A3.643,3.643,0,0,1,32.625,8.93a3.7,3.7,0,0,1,1.988-.539,3.565,3.565,0,0,1,2.793,1.2,4.6,4.6,0,0,1,1.066,3.18v.1A5.036,5.036,0,0,1,38,15.082a3.589,3.589,0,0,1-1.352,1.527,3.743,3.743,0,0,1-2.02.547,3.556,3.556,0,0,1-2.785-1.2A4.575,4.575,0,0,1,30.777,12.8Zm1.453.172a3.616,3.616,0,0,0,.652,2.258,2.211,2.211,0,0,0,3.5-.012,3.955,3.955,0,0,0,.648-2.418,3.61,3.61,0,0,0-.66-2.254,2.1,2.1,0,0,0-1.754-.863,2.075,2.075,0,0,0-1.727.852A3.925,3.925,0,0,0,32.23,12.867ZM41.855,17H40.41V5h1.445Zm5.82.156a3.693,3.693,0,0,1-2.8-1.129,4.19,4.19,0,0,1-1.078-3.02v-.266a5.073,5.073,0,0,1,.48-2.246,3.748,3.748,0,0,1,1.344-1.547A3.378,3.378,0,0,1,47.5,8.391a3.166,3.166,0,0,1,2.563,1.086,4.7,4.7,0,0,1,.914,3.109v.6H45.246a3,3,0,0,0,.73,2.02,2.3,2.3,0,0,0,1.777.77,2.517,2.517,0,0,0,1.3-.312,3.259,3.259,0,0,0,.93-.828l.883.688A3.55,3.55,0,0,1,47.676,17.156ZM47.5,9.578a1.928,1.928,0,0,0-1.469.637A3.1,3.1,0,0,0,45.293,12h4.234v-.109a2.753,2.753,0,0,0-.594-1.707A1.815,1.815,0,0,0,47.5,9.578Zm8.539,6.4a2.082,2.082,0,0,0,1.352-.469,1.649,1.649,0,0,0,.641-1.172h1.367a2.621,2.621,0,0,1-.5,1.383,3.293,3.293,0,0,1-1.23,1.047,3.55,3.55,0,0,1-1.629.391A3.482,3.482,0,0,1,53.289,16a4.59,4.59,0,0,1-1.02-3.152v-.242a5.089,5.089,0,0,1,.453-2.2,3.451,3.451,0,0,1,1.3-1.492,3.7,3.7,0,0,1,2-.531,3.39,3.39,0,0,1,2.363.852,3.043,3.043,0,0,1,1,2.211H58.027a1.992,1.992,0,0,0-.621-1.348,1.932,1.932,0,0,0-1.379-.527,2.023,2.023,0,0,0-1.707.793,3.724,3.724,0,0,0-.605,2.293v.273a3.65,3.65,0,0,0,.6,2.25A2.033,2.033,0,0,0,56.035,15.977Zm8.375,0a2.082,2.082,0,0,0,1.352-.469,1.649,1.649,0,0,0,.641-1.172H67.77a2.621,2.621,0,0,1-.5,1.383,3.293,3.293,0,0,1-1.23,1.047,3.55,3.55,0,0,1-1.629.391A3.482,3.482,0,0,1,61.664,16a4.59,4.59,0,0,1-1.02-3.152v-.242a5.089,5.089,0,0,1,.453-2.2,3.451,3.451,0,0,1,1.3-1.492,3.7,3.7,0,0,1,2-.531,3.39,3.39,0,0,1,2.363.852,3.043,3.043,0,0,1,1,2.211H66.4a1.992,1.992,0,0,0-.621-1.348A1.932,1.932,0,0,0,64.4,9.578a2.023,2.023,0,0,0-1.707.793,3.724,3.724,0,0,0-.605,2.293v.273a3.65,3.65,0,0,0,.6,2.25A2.033,2.033,0,0,0,64.41,15.977ZM70.965,17H69.52V8.547h1.445ZM69.4,6.3a.863.863,0,0,1,.215-.594.807.807,0,0,1,.637-.242.819.819,0,0,1,.641.242.854.854,0,0,1,.219.594.826.826,0,0,1-.219.586.834.834,0,0,1-.641.234.821.821,0,0,1-.637-.234A.834.834,0,0,1,69.4,6.3ZM72.895,12.7a4.993,4.993,0,0,1,.488-2.234A3.643,3.643,0,0,1,74.742,8.93a3.7,3.7,0,0,1,1.988-.539,3.565,3.565,0,0,1,2.793,1.2,4.6,4.6,0,0,1,1.066,3.18v.1a5.036,5.036,0,0,1-.473,2.215,3.589,3.589,0,0,1-1.352,1.527,3.743,3.743,0,0,1-2.02.547,3.556,3.556,0,0,1-2.785-1.2A4.575,4.575,0,0,1,72.895,12.8Zm1.453.172A3.616,3.616,0,0,0,75,15.125a2.211,2.211,0,0,0,3.5-.012,3.955,3.955,0,0,0,.648-2.418,3.61,3.61,0,0,0-.66-2.254,2.1,2.1,0,0,0-1.754-.863A2.075,2.075,0,0,0,75,10.43,3.925,3.925,0,0,0,74.348,12.867ZM77.387,5h1.75L77.043,7.3H75.879ZM83.77,8.547l.047,1.063a3.08,3.08,0,0,1,2.531-1.219q2.68,0,2.7,3.023V17H87.605V11.406a1.946,1.946,0,0,0-.418-1.352,1.675,1.675,0,0,0-1.277-.437,2.086,2.086,0,0,0-1.234.375,2.546,2.546,0,0,0-.828.984V17H82.4V8.547ZM16.676,36.7a4.952,4.952,0,0,1,.922-3.129,3.137,3.137,0,0,1,4.766-.168V29h1.445V41H22.48l-.07-.906A2.943,2.943,0,0,1,20,41.156a2.887,2.887,0,0,1-2.395-1.2,5.008,5.008,0,0,1-.926-3.141Zm1.445.164a3.749,3.749,0,0,0,.594,2.25,1.92,1.92,0,0,0,1.641.813A2.108,2.108,0,0,0,22.363,38.7V34.813a2.125,2.125,0,0,0-1.992-1.2,1.929,1.929,0,0,0-1.656.82A4.128,4.128,0,0,0,18.121,36.867Zm11.438,4.289a3.693,3.693,0,0,1-2.8-1.129,4.19,4.19,0,0,1-1.078-3.02v-.266a5.073,5.073,0,0,1,.48-2.246,3.748,3.748,0,0,1,1.344-1.547,3.378,3.378,0,0,1,1.871-.559,3.166,3.166,0,0,1,2.563,1.086,4.7,4.7,0,0,1,.914,3.109v.6H27.129a3,3,0,0,0,.73,2.02,2.3,2.3,0,0,0,1.777.77,2.517,2.517,0,0,0,1.3-.312,3.259,3.259,0,0,0,.93-.828l.883.688A3.55,3.55,0,0,1,29.559,41.156Zm-.18-7.578a1.928,1.928,0,0,0-1.469.637A3.1,3.1,0,0,0,27.176,36H31.41v-.109a2.753,2.753,0,0,0-.594-1.707A1.815,1.815,0,0,0,29.379,33.578ZM38.137,36.7a4.952,4.952,0,0,1,.922-3.129,3.137,3.137,0,0,1,4.766-.168V29H45.27V41H43.941l-.07-.906a2.943,2.943,0,0,1-2.414,1.063,2.887,2.887,0,0,1-2.395-1.2,5.008,5.008,0,0,1-.926-3.141Zm1.445.164a3.749,3.749,0,0,0,.594,2.25,1.919,1.919,0,0,0,1.641.813A2.108,2.108,0,0,0,43.824,38.7V34.813a2.125,2.125,0,0,0-1.992-1.2,1.929,1.929,0,0,0-1.656.82A4.128,4.128,0,0,0,39.582,36.867ZM52.73,41a3.036,3.036,0,0,1-.2-.891,3.225,3.225,0,0,1-2.406,1.047,2.984,2.984,0,0,1-2.051-.707,2.287,2.287,0,0,1-.8-1.793,2.39,2.39,0,0,1,1-2.051,4.733,4.733,0,0,1,2.824-.73H52.5v-.664A1.623,1.623,0,0,0,52.051,34a1.821,1.821,0,0,0-1.336-.449,2.107,2.107,0,0,0-1.3.391,1.151,1.151,0,0,0-.523.945H47.441a2,2,0,0,1,.449-1.223,3.066,3.066,0,0,1,1.219-.934,4.1,4.1,0,0,1,1.691-.344,3.342,3.342,0,0,1,2.289.73,2.635,2.635,0,0,1,.859,2.012v3.891a4.757,4.757,0,0,0,.3,1.852V41Zm-2.4-1.1a2.54,2.54,0,0,0,1.289-.352,2.127,2.127,0,0,0,.883-.914V36.9H51.371q-2.656,0-2.656,1.555a1.316,1.316,0,0,0,.453,1.063A1.742,1.742,0,0,0,50.332,39.9Zm7.844-9.4v2.047h1.578v1.117H58.176v5.242a1.171,1.171,0,0,0,.211.762.888.888,0,0,0,.719.254,3.5,3.5,0,0,0,.688-.094V41a4.19,4.19,0,0,1-1.109.156,1.8,1.8,0,0,1-1.461-.586,2.517,2.517,0,0,1-.492-1.664V33.664H55.191V32.547H56.73V30.5ZM60.9,36.7a4.993,4.993,0,0,1,.488-2.234A3.643,3.643,0,0,1,62.75,32.93a3.7,3.7,0,0,1,1.988-.539,3.565,3.565,0,0,1,2.793,1.2,4.6,4.6,0,0,1,1.066,3.18v.1a5.036,5.036,0,0,1-.473,2.215,3.589,3.589,0,0,1-1.352,1.527,3.743,3.743,0,0,1-2.02.547,3.556,3.556,0,0,1-2.785-1.2A4.575,4.575,0,0,1,60.9,36.8Zm1.453.172a3.616,3.616,0,0,0,.652,2.258,2.211,2.211,0,0,0,3.5-.012,3.955,3.955,0,0,0,.648-2.418,3.61,3.61,0,0,0-.66-2.254,2.1,2.1,0,0,0-1.754-.863,2.075,2.075,0,0,0-1.727.852A3.925,3.925,0,0,0,62.355,36.867Zm12.977,1.891a1.064,1.064,0,0,0-.441-.91,4.249,4.249,0,0,0-1.539-.559,7.277,7.277,0,0,1-1.742-.562,2.479,2.479,0,0,1-.953-.781,1.869,1.869,0,0,1-.309-1.078,2.193,2.193,0,0,1,.879-1.758,3.432,3.432,0,0,1,2.246-.719,3.532,3.532,0,0,1,2.332.742,2.357,2.357,0,0,1,.895,1.9H75.246a1.3,1.3,0,0,0-.5-1.023,1.888,1.888,0,0,0-1.27-.43,1.976,1.976,0,0,0-1.234.344,1.082,1.082,0,0,0-.445.9.877.877,0,0,0,.414.789,5.1,5.1,0,0,0,1.5.508,7.8,7.8,0,0,1,1.754.578,2.558,2.558,0,0,1,1,.809,1.988,1.988,0,0,1,.324,1.152,2.163,2.163,0,0,1-.906,1.816,3.8,3.8,0,0,1-2.352.684,4.257,4.257,0,0,1-1.8-.359,2.922,2.922,0,0,1-1.223-1,2.42,2.42,0,0,1-.441-1.395H71.5a1.5,1.5,0,0,0,.582,1.152,2.258,2.258,0,0,0,1.434.426,2.331,2.331,0,0,0,1.316-.332A1.02,1.02,0,0,0,75.332,38.758Z" transform="translate(1026 6631.618)" fill="#12263f"/>
    <g id="Trazado_1261945" data-name="Trazado 1261945" transform="translate(1010 6840)" fill="#84a4bc">
      <path d="M 113 62.5 L 12 62.5 C 8.92823314666748 62.5 6.040333271026611 61.30378341674805 3.868266582489014 59.13173294067383 C 1.696216702461243 56.95966720581055 0.5 54.0717658996582 0.5 51 L 0.5 12 C 0.5 8.92823314666748 1.696216702461243 6.040333271026611 3.868266582489014 3.868266582489014 C 6.040333271026611 1.696216702461243 8.92823314666748 0.5 12 0.5 L 113 0.5 C 116.0717697143555 0.5 118.9596633911133 1.696216702461243 121.1317367553711 3.868266582489014 C 123.3037796020508 6.040333271026611 124.5 8.92823314666748 124.5 12 L 124.5 51 C 124.5 54.0717658996582 123.3037796020508 56.95966720581055 121.1317367553711 59.13173294067383 C 118.9596633911133 61.30378341674805 116.0717697143555 62.5 113 62.5 Z" stroke="none"/>
      <path d="M 12 1 C 9.061798095703125 1 6.299453735351562 2.144199371337891 4.221832275390625 4.221832275390625 C 2.144203186035156 6.299449920654297 1 9.061798095703125 1 12 L 1 51 C 1 53.93820190429688 2.144203186035156 56.7005500793457 4.221832275390625 58.77816772460938 C 6.299453735351562 60.85580062866211 9.061798095703125 62 12 62 L 113 62 C 115.9382019042969 62 118.7005462646484 60.85580062866211 120.7781677246094 58.77816772460938 C 122.8557968139648 56.7005500793457 124 53.93820190429688 124 51 L 124 12 C 124 9.061798095703125 122.8557968139648 6.299449920654297 120.7781677246094 4.221832275390625 C 118.7005462646484 2.144199371337891 115.9382019042969 1 113 1 L 12 1 M 12 0 L 113 0 C 119.6274185180664 0 125 5.372581481933594 125 12 L 125 51 C 125 57.62741851806641 119.6274185180664 63 113 63 L 12 63 C 5.372581481933594 63 0 57.62741851806641 0 51 L 0 12 C 0 5.372581481933594 5.372581481933594 0 12 0 Z" stroke="none" fill="#aaca79"/>
    </g>
    <path id="Trazado_1261946" data-name="Trazado 1261946" d="M26.293,14.031H21.527L20.457,17H18.91L23.254,5.625h1.313L28.918,17H27.379ZM21.98,12.8h3.867L23.91,7.477Zm9.609-4.25.047,1.063a3.08,3.08,0,0,1,2.531-1.219q2.68,0,2.7,3.023V17H35.426V11.406a1.946,1.946,0,0,0-.418-1.352,1.675,1.675,0,0,0-1.277-.437,2.086,2.086,0,0,0-1.234.375,2.546,2.546,0,0,0-.828.984V17H30.223V8.547ZM44.27,17a3.036,3.036,0,0,1-.2-.891,3.225,3.225,0,0,1-2.406,1.047,2.984,2.984,0,0,1-2.051-.707,2.287,2.287,0,0,1-.8-1.793,2.39,2.39,0,0,1,1-2.051,4.733,4.733,0,0,1,2.824-.73h1.406v-.664A1.623,1.623,0,0,0,43.59,10a1.821,1.821,0,0,0-1.336-.449,2.107,2.107,0,0,0-1.3.391,1.151,1.151,0,0,0-.523.945H38.98a2,2,0,0,1,.449-1.223,3.066,3.066,0,0,1,1.219-.934,4.1,4.1,0,0,1,1.691-.344,3.342,3.342,0,0,1,2.289.73,2.635,2.635,0,0,1,.859,2.012v3.891a4.757,4.757,0,0,0,.3,1.852V17Zm-2.4-1.1a2.54,2.54,0,0,0,1.289-.352,2.127,2.127,0,0,0,.883-.914V12.9H42.91q-2.656,0-2.656,1.555a1.316,1.316,0,0,0,.453,1.063A1.742,1.742,0,0,0,41.871,15.9ZM43.207,5h1.75L42.863,7.3H41.7Zm6.117,12H47.879V5h1.445Zm3.883,0H51.762V8.547h1.445ZM51.645,6.3a.863.863,0,0,1,.215-.594.807.807,0,0,1,.637-.242.819.819,0,0,1,.641.242.854.854,0,0,1,.219.594.826.826,0,0,1-.219.586.834.834,0,0,1-.641.234.821.821,0,0,1-.637-.234A.834.834,0,0,1,51.645,6.3Zm8.8,8.453a1.064,1.064,0,0,0-.441-.91,4.249,4.249,0,0,0-1.539-.559,7.277,7.277,0,0,1-1.742-.562,2.479,2.479,0,0,1-.953-.781,1.869,1.869,0,0,1-.309-1.078,2.193,2.193,0,0,1,.879-1.758,3.432,3.432,0,0,1,2.246-.719,3.532,3.532,0,0,1,2.332.742,2.357,2.357,0,0,1,.895,1.9H60.355a1.3,1.3,0,0,0-.5-1.023,1.888,1.888,0,0,0-1.27-.43,1.976,1.976,0,0,0-1.234.344,1.082,1.082,0,0,0-.445.9.877.877,0,0,0,.414.789,5.1,5.1,0,0,0,1.5.508,7.8,7.8,0,0,1,1.754.578,2.558,2.558,0,0,1,1,.809,1.988,1.988,0,0,1,.324,1.152,2.163,2.163,0,0,1-.906,1.816,3.8,3.8,0,0,1-2.352.684,4.257,4.257,0,0,1-1.8-.359,2.922,2.922,0,0,1-1.223-1,2.42,2.42,0,0,1-.441-1.395h1.445a1.5,1.5,0,0,0,.582,1.152,2.258,2.258,0,0,0,1.434.426,2.331,2.331,0,0,0,1.316-.332A1.02,1.02,0,0,0,60.441,14.758ZM65.34,17H63.895V8.547H65.34ZM63.777,6.3a.863.863,0,0,1,.215-.594.807.807,0,0,1,.637-.242.819.819,0,0,1,.641.242.854.854,0,0,1,.219.594.826.826,0,0,1-.219.586.834.834,0,0,1-.641.234.821.821,0,0,1-.637-.234A.834.834,0,0,1,63.777,6.3Zm8.8,8.453a1.064,1.064,0,0,0-.441-.91,4.249,4.249,0,0,0-1.539-.559,7.277,7.277,0,0,1-1.742-.562,2.479,2.479,0,0,1-.953-.781,1.869,1.869,0,0,1-.309-1.078,2.193,2.193,0,0,1,.879-1.758,3.432,3.432,0,0,1,2.246-.719,3.532,3.532,0,0,1,2.332.742,2.357,2.357,0,0,1,.895,1.9H72.488a1.3,1.3,0,0,0-.5-1.023,1.888,1.888,0,0,0-1.27-.43,1.976,1.976,0,0,0-1.234.344,1.082,1.082,0,0,0-.445.9.877.877,0,0,0,.414.789,5.1,5.1,0,0,0,1.5.508A7.8,7.8,0,0,1,72.7,12.7a2.558,2.558,0,0,1,1,.809,1.988,1.988,0,0,1,.324,1.152,2.163,2.163,0,0,1-.906,1.816,3.8,3.8,0,0,1-2.352.684,4.257,4.257,0,0,1-1.8-.359,2.922,2.922,0,0,1-1.223-1A2.42,2.42,0,0,1,67.3,14.4h1.445a1.5,1.5,0,0,0,.582,1.152,2.258,2.258,0,0,0,1.434.426,2.331,2.331,0,0,0,1.316-.332A1.02,1.02,0,0,0,72.574,14.758ZM16.676,36.7a4.952,4.952,0,0,1,.922-3.129,3.137,3.137,0,0,1,4.766-.168V29h1.445V41H22.48l-.07-.906A2.943,2.943,0,0,1,20,41.156a2.887,2.887,0,0,1-2.395-1.2,5.008,5.008,0,0,1-.926-3.141Zm1.445.164a3.749,3.749,0,0,0,.594,2.25,1.92,1.92,0,0,0,1.641.813A2.108,2.108,0,0,0,22.363,38.7V34.813a2.125,2.125,0,0,0-1.992-1.2,1.929,1.929,0,0,0-1.656.82A4.128,4.128,0,0,0,18.121,36.867Zm11.438,4.289a3.693,3.693,0,0,1-2.8-1.129,4.19,4.19,0,0,1-1.078-3.02v-.266a5.073,5.073,0,0,1,.48-2.246,3.748,3.748,0,0,1,1.344-1.547,3.378,3.378,0,0,1,1.871-.559,3.166,3.166,0,0,1,2.563,1.086,4.7,4.7,0,0,1,.914,3.109v.6H27.129a3,3,0,0,0,.73,2.02,2.3,2.3,0,0,0,1.777.77,2.517,2.517,0,0,0,1.3-.312,3.259,3.259,0,0,0,.93-.828l.883.688A3.55,3.55,0,0,1,29.559,41.156Zm-.18-7.578a1.928,1.928,0,0,0-1.469.637A3.1,3.1,0,0,0,27.176,36H31.41v-.109a2.753,2.753,0,0,0-.594-1.707A1.815,1.815,0,0,0,29.379,33.578ZM38.137,36.7a4.952,4.952,0,0,1,.922-3.129,3.137,3.137,0,0,1,4.766-.168V29H45.27V41H43.941l-.07-.906a2.943,2.943,0,0,1-2.414,1.063,2.887,2.887,0,0,1-2.395-1.2,5.008,5.008,0,0,1-.926-3.141Zm1.445.164a3.749,3.749,0,0,0,.594,2.25,1.919,1.919,0,0,0,1.641.813A2.108,2.108,0,0,0,43.824,38.7V34.813a2.125,2.125,0,0,0-1.992-1.2,1.929,1.929,0,0,0-1.656.82A4.128,4.128,0,0,0,39.582,36.867ZM52.73,41a3.036,3.036,0,0,1-.2-.891,3.225,3.225,0,0,1-2.406,1.047,2.984,2.984,0,0,1-2.051-.707,2.287,2.287,0,0,1-.8-1.793,2.39,2.39,0,0,1,1-2.051,4.733,4.733,0,0,1,2.824-.73H52.5v-.664A1.623,1.623,0,0,0,52.051,34a1.821,1.821,0,0,0-1.336-.449,2.107,2.107,0,0,0-1.3.391,1.151,1.151,0,0,0-.523.945H47.441a2,2,0,0,1,.449-1.223,3.066,3.066,0,0,1,1.219-.934,4.1,4.1,0,0,1,1.691-.344,3.342,3.342,0,0,1,2.289.73,2.635,2.635,0,0,1,.859,2.012v3.891a4.757,4.757,0,0,0,.3,1.852V41Zm-2.4-1.1a2.54,2.54,0,0,0,1.289-.352,2.127,2.127,0,0,0,.883-.914V36.9H51.371q-2.656,0-2.656,1.555a1.316,1.316,0,0,0,.453,1.063A1.742,1.742,0,0,0,50.332,39.9Zm7.844-9.4v2.047h1.578v1.117H58.176v5.242a1.171,1.171,0,0,0,.211.762.888.888,0,0,0,.719.254,3.5,3.5,0,0,0,.688-.094V41a4.19,4.19,0,0,1-1.109.156,1.8,1.8,0,0,1-1.461-.586,2.517,2.517,0,0,1-.492-1.664V33.664H55.191V32.547H56.73V30.5ZM60.9,36.7a4.993,4.993,0,0,1,.488-2.234A3.643,3.643,0,0,1,62.75,32.93a3.7,3.7,0,0,1,1.988-.539,3.565,3.565,0,0,1,2.793,1.2,4.6,4.6,0,0,1,1.066,3.18v.1a5.036,5.036,0,0,1-.473,2.215,3.589,3.589,0,0,1-1.352,1.527,3.743,3.743,0,0,1-2.02.547,3.556,3.556,0,0,1-2.785-1.2A4.575,4.575,0,0,1,60.9,36.8Zm1.453.172a3.616,3.616,0,0,0,.652,2.258,2.211,2.211,0,0,0,3.5-.012,3.955,3.955,0,0,0,.648-2.418,3.61,3.61,0,0,0-.66-2.254,2.1,2.1,0,0,0-1.754-.863,2.075,2.075,0,0,0-1.727.852A3.925,3.925,0,0,0,62.355,36.867Zm12.977,1.891a1.064,1.064,0,0,0-.441-.91,4.249,4.249,0,0,0-1.539-.559,7.277,7.277,0,0,1-1.742-.562,2.479,2.479,0,0,1-.953-.781,1.869,1.869,0,0,1-.309-1.078,2.193,2.193,0,0,1,.879-1.758,3.432,3.432,0,0,1,2.246-.719,3.532,3.532,0,0,1,2.332.742,2.357,2.357,0,0,1,.895,1.9H75.246a1.3,1.3,0,0,0-.5-1.023,1.888,1.888,0,0,0-1.27-.43,1.976,1.976,0,0,0-1.234.344,1.082,1.082,0,0,0-.445.9.877.877,0,0,0,.414.789,5.1,5.1,0,0,0,1.5.508,7.8,7.8,0,0,1,1.754.578,2.558,2.558,0,0,1,1,.809,1.988,1.988,0,0,1,.324,1.152,2.163,2.163,0,0,1-.906,1.816,3.8,3.8,0,0,1-2.352.684,4.257,4.257,0,0,1-1.8-.359,2.922,2.922,0,0,1-1.223-1,2.42,2.42,0,0,1-.441-1.395H71.5a1.5,1.5,0,0,0,.582,1.152,2.258,2.258,0,0,0,1.434.426,2.331,2.331,0,0,0,1.316-.332A1.02,1.02,0,0,0,75.332,38.758Z" transform="translate(1026 6847.618)" fill="#12263f"/>
    <g id="Trazado_1261947" data-name="Trazado 1261947" transform="translate(1143 6719)" fill="#84a4bc">
      <path d="M 113 62.5 L 12 62.5 C 8.92823314666748 62.5 6.040333271026611 61.30378341674805 3.868266582489014 59.13173294067383 C 1.696216702461243 56.95966720581055 0.5 54.0717658996582 0.5 51 L 0.5 12 C 0.5 8.92823314666748 1.696216702461243 6.040333271026611 3.868266582489014 3.868266582489014 C 6.040333271026611 1.696216702461243 8.92823314666748 0.5 12 0.5 L 113 0.5 C 116.0717697143555 0.5 118.9596633911133 1.696216702461243 121.1317367553711 3.868266582489014 C 123.3037796020508 6.040333271026611 124.5 8.92823314666748 124.5 12 L 124.5 51 C 124.5 54.0717658996582 123.3037796020508 56.95966720581055 121.1317367553711 59.13173294067383 C 118.9596633911133 61.30378341674805 116.0717697143555 62.5 113 62.5 Z" stroke="none"/>
      <path d="M 12 1 C 9.061798095703125 1 6.299453735351562 2.144199371337891 4.221832275390625 4.221832275390625 C 2.144203186035156 6.299449920654297 1 9.061798095703125 1 12 L 1 51 C 1 53.93820190429688 2.144203186035156 56.7005500793457 4.221832275390625 58.77816772460938 C 6.299453735351562 60.85580062866211 9.061798095703125 62 12 62 L 113 62 C 115.9382019042969 62 118.7005462646484 60.85580062866211 120.7781677246094 58.77816772460938 C 122.8557968139648 56.7005500793457 124 53.93820190429688 124 51 L 124 12 C 124 9.061798095703125 122.8557968139648 6.299449920654297 120.7781677246094 4.221832275390625 C 118.7005462646484 2.144199371337891 115.9382019042969 1 113 1 L 12 1 M 12 0 L 113 0 C 119.6274185180664 0 125 5.372581481933594 125 12 L 125 51 C 125 57.62741851806641 119.6274185180664 63 113 63 L 12 63 C 5.372581481933594 63 0 57.62741851806641 0 51 L 0 12 C 0 5.372581481933594 5.372581481933594 0 12 0 Z" stroke="none" fill="#aaca79"/>
    </g>
    <path id="Trazado_1261948" data-name="Trazado 1261948" d="M6.605,15.773H12V17H5.1V5.625H6.605ZM15.051,17H13.605V8.547h1.445ZM13.488,6.3a.863.863,0,0,1,.215-.594.807.807,0,0,1,.637-.242.819.819,0,0,1,.641.242A.854.854,0,0,1,15.2,6.3a.826.826,0,0,1-.219.586.834.834,0,0,1-.641.234.821.821,0,0,1-.637-.234A.834.834,0,0,1,13.488,6.3Zm5.234,2.242.039.938A3.122,3.122,0,0,1,21.27,8.391,2.417,2.417,0,0,1,23.684,9.75a3.2,3.2,0,0,1,1.1-.984,3.242,3.242,0,0,1,1.6-.375q2.781,0,2.828,2.945V17H27.762V11.422a1.941,1.941,0,0,0-.414-1.355,1.823,1.823,0,0,0-1.391-.449,1.916,1.916,0,0,0-1.336.48A1.949,1.949,0,0,0,24,11.391V17H22.551V11.461a1.613,1.613,0,0,0-1.8-1.844A1.934,1.934,0,0,0,18.8,10.828V17H17.355V8.547Zm19.8,4.32a5.062,5.062,0,0,1-.883,3.109,2.829,2.829,0,0,1-2.391,1.18,3.1,3.1,0,0,1-2.422-.977v4.07H31.387V8.547h1.32l.07.938A2.977,2.977,0,0,1,35.23,8.391a2.882,2.882,0,0,1,2.41,1.148,5.117,5.117,0,0,1,.887,3.2ZM37.082,12.7a3.735,3.735,0,0,0-.609-2.258A1.963,1.963,0,0,0,34.8,9.617a2.125,2.125,0,0,0-1.969,1.164V14.82a2.129,2.129,0,0,0,1.984,1.156,1.954,1.954,0,0,0,1.652-.824A4.077,4.077,0,0,0,37.082,12.7ZM41.934,17H40.488V8.547h1.445ZM40.371,6.3a.863.863,0,0,1,.215-.594.807.807,0,0,1,.637-.242.819.819,0,0,1,.641.242.854.854,0,0,1,.219.594.826.826,0,0,1-.219.586.834.834,0,0,1-.641.234.821.821,0,0,1-.637-.234A.834.834,0,0,1,40.371,6.3Zm7.383,10.852a3.693,3.693,0,0,1-2.8-1.129,4.19,4.19,0,0,1-1.078-3.02v-.266a5.073,5.073,0,0,1,.48-2.246A3.748,3.748,0,0,1,45.7,8.949a3.378,3.378,0,0,1,1.871-.559,3.166,3.166,0,0,1,2.563,1.086,4.7,4.7,0,0,1,.914,3.109v.6H45.324a3,3,0,0,0,.73,2.02,2.3,2.3,0,0,0,1.777.77,2.517,2.517,0,0,0,1.3-.312,3.259,3.259,0,0,0,.93-.828l.883.688A3.55,3.55,0,0,1,47.754,17.156Zm-.18-7.578a1.928,1.928,0,0,0-1.469.637A3.1,3.1,0,0,0,45.371,12h4.234v-.109a2.753,2.753,0,0,0-.594-1.707A1.815,1.815,0,0,0,47.574,9.578Zm6.508,6.242h4.945V17H52.316V15.938l4.664-6.2H52.387v-1.2h6.406V9.57ZM65.871,17a3.036,3.036,0,0,1-.2-.891,3.225,3.225,0,0,1-2.406,1.047,2.984,2.984,0,0,1-2.051-.707,2.287,2.287,0,0,1-.8-1.793,2.39,2.39,0,0,1,1-2.051,4.733,4.733,0,0,1,2.824-.73h1.406v-.664A1.623,1.623,0,0,0,65.191,10a1.821,1.821,0,0,0-1.336-.449,2.107,2.107,0,0,0-1.3.391,1.151,1.151,0,0,0-.523.945H60.582a2,2,0,0,1,.449-1.223,3.066,3.066,0,0,1,1.219-.934,4.1,4.1,0,0,1,1.691-.344,3.342,3.342,0,0,1,2.289.73,2.635,2.635,0,0,1,.859,2.012v3.891a4.757,4.757,0,0,0,.3,1.852V17Zm-2.4-1.1a2.54,2.54,0,0,0,1.289-.352,2.127,2.127,0,0,0,.883-.914V12.9H64.512q-2.656,0-2.656,1.555a1.316,1.316,0,0,0,.453,1.063A1.742,1.742,0,0,0,63.473,15.9Zm9.492-3.2a4.952,4.952,0,0,1,.922-3.129,3.137,3.137,0,0,1,4.766-.168V5H80.1V17H78.77l-.07-.906a2.943,2.943,0,0,1-2.414,1.063,2.887,2.887,0,0,1-2.395-1.2,5.008,5.008,0,0,1-.926-3.141Zm1.445.164A3.749,3.749,0,0,0,75,15.117a1.92,1.92,0,0,0,1.641.813A2.108,2.108,0,0,0,78.652,14.7V10.813a2.125,2.125,0,0,0-1.992-1.2,1.929,1.929,0,0,0-1.656.82A4.128,4.128,0,0,0,74.41,12.867Zm11.438,4.289a3.693,3.693,0,0,1-2.8-1.129,4.19,4.19,0,0,1-1.078-3.02v-.266a5.073,5.073,0,0,1,.48-2.246A3.748,3.748,0,0,1,83.8,8.949a3.378,3.378,0,0,1,1.871-.559A3.166,3.166,0,0,1,88.23,9.477a4.7,4.7,0,0,1,.914,3.109v.6H83.418a3,3,0,0,0,.73,2.02,2.3,2.3,0,0,0,1.777.77,2.517,2.517,0,0,0,1.3-.312,3.259,3.259,0,0,0,.93-.828l.883.688A3.55,3.55,0,0,1,85.848,17.156Zm-.18-7.578a1.928,1.928,0,0,0-1.469.637A3.1,3.1,0,0,0,83.465,12H87.7v-.109a2.753,2.753,0,0,0-.594-1.707A1.815,1.815,0,0,0,85.668,9.578ZM27.406,36.7a4.952,4.952,0,0,1,.922-3.129,3.137,3.137,0,0,1,4.766-.168V29h1.445V41H33.211l-.07-.906a2.943,2.943,0,0,1-2.414,1.063,2.887,2.887,0,0,1-2.395-1.2,5.008,5.008,0,0,1-.926-3.141Zm1.445.164a3.749,3.749,0,0,0,.594,2.25,1.92,1.92,0,0,0,1.641.813A2.108,2.108,0,0,0,33.094,38.7V34.813a2.125,2.125,0,0,0-1.992-1.2,1.929,1.929,0,0,0-1.656.82A4.128,4.128,0,0,0,28.852,36.867ZM42,41a3.036,3.036,0,0,1-.2-.891,3.225,3.225,0,0,1-2.406,1.047,2.984,2.984,0,0,1-2.051-.707,2.287,2.287,0,0,1-.8-1.793,2.39,2.39,0,0,1,1-2.051,4.733,4.733,0,0,1,2.824-.73h1.406v-.664A1.623,1.623,0,0,0,41.32,34a1.821,1.821,0,0,0-1.336-.449,2.107,2.107,0,0,0-1.3.391,1.151,1.151,0,0,0-.523.945H36.711a2,2,0,0,1,.449-1.223,3.066,3.066,0,0,1,1.219-.934,4.1,4.1,0,0,1,1.691-.344,3.342,3.342,0,0,1,2.289.73,2.635,2.635,0,0,1,.859,2.012v3.891a4.757,4.757,0,0,0,.3,1.852V41Zm-2.4-1.1a2.54,2.54,0,0,0,1.289-.352,2.127,2.127,0,0,0,.883-.914V36.9H40.641q-2.656,0-2.656,1.555a1.316,1.316,0,0,0,.453,1.063A1.742,1.742,0,0,0,39.6,39.9Zm7.844-9.4v2.047h1.578v1.117H47.445v5.242a1.171,1.171,0,0,0,.211.762.888.888,0,0,0,.719.254,3.5,3.5,0,0,0,.688-.094V41a4.19,4.19,0,0,1-1.109.156,1.8,1.8,0,0,1-1.461-.586A2.517,2.517,0,0,1,46,38.906V33.664H44.461V32.547H46V30.5Zm2.727,6.2a4.993,4.993,0,0,1,.488-2.234A3.643,3.643,0,0,1,52.02,32.93a3.7,3.7,0,0,1,1.988-.539,3.565,3.565,0,0,1,2.793,1.2,4.6,4.6,0,0,1,1.066,3.18v.1a5.036,5.036,0,0,1-.473,2.215,3.589,3.589,0,0,1-1.352,1.527,3.743,3.743,0,0,1-2.02.547,3.556,3.556,0,0,1-2.785-1.2A4.575,4.575,0,0,1,50.172,36.8Zm1.453.172a3.616,3.616,0,0,0,.652,2.258,2.211,2.211,0,0,0,3.5-.012,3.955,3.955,0,0,0,.648-2.418,3.61,3.61,0,0,0-.66-2.254,2.1,2.1,0,0,0-1.754-.863,2.075,2.075,0,0,0-1.727.852A3.925,3.925,0,0,0,51.625,36.867ZM64.6,38.758a1.064,1.064,0,0,0-.441-.91,4.249,4.249,0,0,0-1.539-.559,7.277,7.277,0,0,1-1.742-.562,2.479,2.479,0,0,1-.953-.781,1.869,1.869,0,0,1-.309-1.078,2.193,2.193,0,0,1,.879-1.758,3.432,3.432,0,0,1,2.246-.719,3.532,3.532,0,0,1,2.332.742,2.357,2.357,0,0,1,.895,1.9H64.516a1.3,1.3,0,0,0-.5-1.023,1.888,1.888,0,0,0-1.27-.43,1.976,1.976,0,0,0-1.234.344,1.082,1.082,0,0,0-.445.9.877.877,0,0,0,.414.789,5.1,5.1,0,0,0,1.5.508,7.8,7.8,0,0,1,1.754.578,2.558,2.558,0,0,1,1,.809,1.988,1.988,0,0,1,.324,1.152,2.163,2.163,0,0,1-.906,1.816,3.8,3.8,0,0,1-2.352.684,4.257,4.257,0,0,1-1.8-.359,2.922,2.922,0,0,1-1.223-1,2.42,2.42,0,0,1-.441-1.395h1.445a1.5,1.5,0,0,0,.582,1.152,2.258,2.258,0,0,0,1.434.426,2.331,2.331,0,0,0,1.316-.332A1.02,1.02,0,0,0,64.6,38.758Z" transform="translate(1159 6726.618)" fill="#12263f"/>
    <g id="Trazado_1261949" data-name="Trazado 1261949" transform="translate(872 6719)" fill="#84a4bc">
      <path d="M 113 62.5 L 12 62.5 C 8.92823314666748 62.5 6.040333271026611 61.30378341674805 3.868266582489014 59.13173294067383 C 1.696216702461243 56.95966720581055 0.5 54.0717658996582 0.5 51 L 0.5 12 C 0.5 8.92823314666748 1.696216702461243 6.040333271026611 3.868266582489014 3.868266582489014 C 6.040333271026611 1.696216702461243 8.92823314666748 0.5 12 0.5 L 113 0.5 C 116.0717697143555 0.5 118.9596633911133 1.696216702461243 121.1317367553711 3.868266582489014 C 123.3037796020508 6.040333271026611 124.5 8.92823314666748 124.5 12 L 124.5 51 C 124.5 54.0717658996582 123.3037796020508 56.95966720581055 121.1317367553711 59.13173294067383 C 118.9596633911133 61.30378341674805 116.0717697143555 62.5 113 62.5 Z" stroke="none"/>
      <path d="M 12 1 C 9.061798095703125 1 6.299453735351562 2.144199371337891 4.221832275390625 4.221832275390625 C 2.144203186035156 6.299449920654297 1 9.061798095703125 1 12 L 1 51 C 1 53.93820190429688 2.144203186035156 56.7005500793457 4.221832275390625 58.77816772460938 C 6.299453735351562 60.85580062866211 9.061798095703125 62 12 62 L 113 62 C 115.9382019042969 62 118.7005462646484 60.85580062866211 120.7781677246094 58.77816772460938 C 122.8557968139648 56.7005500793457 124 53.93820190429688 124 51 L 124 12 C 124 9.061798095703125 122.8557968139648 6.299449920654297 120.7781677246094 4.221832275390625 C 118.7005462646484 2.144199371337891 115.9382019042969 1 113 1 L 12 1 M 12 0 L 113 0 C 119.6274185180664 0 125 5.372581481933594 125 12 L 125 51 C 125 57.62741851806641 119.6274185180664 63 113 63 L 12 63 C 5.372581481933594 63 0 57.62741851806641 0 51 L 0 12 C 0 5.372581481933594 5.372581481933594 0 12 0 Z" stroke="none" fill="#aaca79"/>
    </g>
    <path id="Trazado_1261950" data-name="Trazado 1261950" d="M3.277,17h-1.5V5.625h1.5ZM7.16,8.547l.047,1.063A3.08,3.08,0,0,1,9.738,8.391q2.68,0,2.7,3.023V17H11V11.406a1.946,1.946,0,0,0-.418-1.352A1.675,1.675,0,0,0,9.3,9.617a2.086,2.086,0,0,0-1.234.375,2.546,2.546,0,0,0-.828.984V17H5.793V8.547ZM16.582,6.5V8.547H18.16V9.664H16.582v5.242a1.171,1.171,0,0,0,.211.762.888.888,0,0,0,.719.254,3.5,3.5,0,0,0,.688-.094V17a4.19,4.19,0,0,1-1.109.156,1.8,1.8,0,0,1-1.461-.586,2.517,2.517,0,0,1-.492-1.664V9.664H13.6V8.547h1.539V6.5Zm6.773,10.656a3.693,3.693,0,0,1-2.8-1.129,4.19,4.19,0,0,1-1.078-3.02v-.266a5.073,5.073,0,0,1,.48-2.246A3.748,3.748,0,0,1,21.3,8.949a3.378,3.378,0,0,1,1.871-.559,3.166,3.166,0,0,1,2.563,1.086,4.7,4.7,0,0,1,.914,3.109v.6H20.926a3,3,0,0,0,.73,2.02,2.3,2.3,0,0,0,1.777.77,2.517,2.517,0,0,0,1.3-.312,3.259,3.259,0,0,0,.93-.828l.883.688A3.55,3.55,0,0,1,23.355,17.156Zm-.18-7.578a1.928,1.928,0,0,0-1.469.637A3.1,3.1,0,0,0,20.973,12h4.234v-.109a2.753,2.753,0,0,0-.594-1.707A1.815,1.815,0,0,0,23.176,9.578Zm9.234.266a4.331,4.331,0,0,0-.711-.055A1.9,1.9,0,0,0,29.77,11v6H28.324V8.547H29.73l.023.977A2.251,2.251,0,0,1,31.77,8.391a1.477,1.477,0,0,1,.641.109Zm8.469,3.023A5.062,5.062,0,0,1,40,15.977a2.829,2.829,0,0,1-2.391,1.18,3.1,3.1,0,0,1-2.422-.977v4.07H33.738V8.547h1.32l.07.938a2.977,2.977,0,0,1,2.453-1.094,2.882,2.882,0,0,1,2.41,1.148,5.117,5.117,0,0,1,.887,3.2ZM39.434,12.7a3.735,3.735,0,0,0-.609-2.258,1.963,1.963,0,0,0-1.672-.828,2.125,2.125,0,0,0-1.969,1.164V14.82a2.129,2.129,0,0,0,1.984,1.156,1.954,1.954,0,0,0,1.652-.824A4.077,4.077,0,0,0,39.434,12.7ZM46.8,9.844a4.331,4.331,0,0,0-.711-.055A1.9,1.9,0,0,0,44.16,11v6H42.715V8.547h1.406l.023.977A2.251,2.251,0,0,1,46.16,8.391,1.477,1.477,0,0,1,46.8,8.5Zm4.836,7.313a3.693,3.693,0,0,1-2.8-1.129,4.19,4.19,0,0,1-1.078-3.02v-.266a5.073,5.073,0,0,1,.48-2.246,3.748,3.748,0,0,1,1.344-1.547,3.378,3.378,0,0,1,1.871-.559A3.166,3.166,0,0,1,54.02,9.477a4.7,4.7,0,0,1,.914,3.109v.6H49.207a3,3,0,0,0,.73,2.02,2.3,2.3,0,0,0,1.777.77,2.517,2.517,0,0,0,1.3-.312,3.259,3.259,0,0,0,.93-.828l.883.688A3.55,3.55,0,0,1,51.637,17.156Zm-.18-7.578a1.928,1.928,0,0,0-1.469.637A3.1,3.1,0,0,0,49.254,12h4.234v-.109a2.753,2.753,0,0,0-.594-1.707A1.815,1.815,0,0,0,51.457,9.578ZM58.566,6.5V8.547h1.578V9.664H58.566v5.242a1.171,1.171,0,0,0,.211.762.888.888,0,0,0,.719.254,3.5,3.5,0,0,0,.688-.094V17a4.19,4.19,0,0,1-1.109.156,1.8,1.8,0,0,1-1.461-.586,2.517,2.517,0,0,1-.492-1.664V9.664H55.582V8.547h1.539V6.5ZM67.051,17a3.036,3.036,0,0,1-.2-.891,3.225,3.225,0,0,1-2.406,1.047,2.984,2.984,0,0,1-2.051-.707,2.287,2.287,0,0,1-.8-1.793,2.39,2.39,0,0,1,1-2.051,4.733,4.733,0,0,1,2.824-.73h1.406v-.664A1.623,1.623,0,0,0,66.371,10a1.821,1.821,0,0,0-1.336-.449,2.108,2.108,0,0,0-1.3.391,1.151,1.151,0,0,0-.523.945H61.762a2,2,0,0,1,.449-1.223,3.066,3.066,0,0,1,1.219-.934,4.1,4.1,0,0,1,1.691-.344,3.342,3.342,0,0,1,2.289.73,2.635,2.635,0,0,1,.859,2.012v3.891a4.757,4.757,0,0,0,.3,1.852V17Zm-2.4-1.1a2.54,2.54,0,0,0,1.289-.352,2.127,2.127,0,0,0,.883-.914V12.9H65.691q-2.656,0-2.656,1.555a1.316,1.316,0,0,0,.453,1.063A1.742,1.742,0,0,0,64.652,15.9Zm9.273.078a2.082,2.082,0,0,0,1.352-.469,1.649,1.649,0,0,0,.641-1.172h1.367a2.621,2.621,0,0,1-.5,1.383,3.293,3.293,0,0,1-1.23,1.047,3.55,3.55,0,0,1-1.629.391A3.482,3.482,0,0,1,71.18,16a4.59,4.59,0,0,1-1.02-3.152v-.242a5.089,5.089,0,0,1,.453-2.2,3.451,3.451,0,0,1,1.3-1.492,3.7,3.7,0,0,1,2-.531,3.39,3.39,0,0,1,2.363.852,3.043,3.043,0,0,1,1,2.211H75.918a1.992,1.992,0,0,0-.621-1.348,1.932,1.932,0,0,0-1.379-.527,2.023,2.023,0,0,0-1.707.793,3.724,3.724,0,0,0-.605,2.293v.273a3.65,3.65,0,0,0,.6,2.25A2.033,2.033,0,0,0,73.926,15.977ZM80.48,17H79.035V8.547H80.48ZM78.918,6.3a.863.863,0,0,1,.215-.594.807.807,0,0,1,.637-.242.819.819,0,0,1,.641.242.854.854,0,0,1,.219.594.826.826,0,0,1-.219.586.834.834,0,0,1-.641.234.821.821,0,0,1-.637-.234A.834.834,0,0,1,78.918,6.3ZM82.41,12.7a4.993,4.993,0,0,1,.488-2.234A3.643,3.643,0,0,1,84.258,8.93a3.7,3.7,0,0,1,1.988-.539,3.565,3.565,0,0,1,2.793,1.2,4.6,4.6,0,0,1,1.066,3.18v.1a5.036,5.036,0,0,1-.473,2.215,3.589,3.589,0,0,1-1.352,1.527,3.743,3.743,0,0,1-2.02.547,3.556,3.556,0,0,1-2.785-1.2A4.575,4.575,0,0,1,82.41,12.8Zm1.453.172a3.616,3.616,0,0,0,.652,2.258,2.211,2.211,0,0,0,3.5-.012A3.955,3.955,0,0,0,88.66,12.7,3.61,3.61,0,0,0,88,10.441a2.1,2.1,0,0,0-1.754-.863,2.075,2.075,0,0,0-1.727.852A3.925,3.925,0,0,0,83.863,12.867ZM86.9,5h1.75L86.559,7.3H85.395Zm6.383,3.547.047,1.063a3.08,3.08,0,0,1,2.531-1.219q2.68,0,2.7,3.023V17H97.121V11.406a1.946,1.946,0,0,0-.418-1.352,1.675,1.675,0,0,0-1.277-.437,2.086,2.086,0,0,0-1.234.375,2.546,2.546,0,0,0-.828.984V17H91.918V8.547ZM19.926,36.7a4.952,4.952,0,0,1,.922-3.129,3.137,3.137,0,0,1,4.766-.168V29h1.445V41H25.73l-.07-.906a2.943,2.943,0,0,1-2.414,1.063,2.887,2.887,0,0,1-2.395-1.2,5.008,5.008,0,0,1-.926-3.141Zm1.445.164a3.749,3.749,0,0,0,.594,2.25,1.92,1.92,0,0,0,1.641.813A2.108,2.108,0,0,0,25.613,38.7V34.813a2.125,2.125,0,0,0-1.992-1.2,1.929,1.929,0,0,0-1.656.82A4.128,4.128,0,0,0,21.371,36.867Zm11.438,4.289a3.693,3.693,0,0,1-2.8-1.129,4.19,4.19,0,0,1-1.078-3.02v-.266a5.073,5.073,0,0,1,.48-2.246,3.748,3.748,0,0,1,1.344-1.547,3.378,3.378,0,0,1,1.871-.559,3.166,3.166,0,0,1,2.563,1.086,4.7,4.7,0,0,1,.914,3.109v.6H30.379a3,3,0,0,0,.73,2.02,2.3,2.3,0,0,0,1.777.77,2.517,2.517,0,0,0,1.3-.312,3.258,3.258,0,0,0,.93-.828l.883.688A3.55,3.55,0,0,1,32.809,41.156Zm-.18-7.578a1.928,1.928,0,0,0-1.469.637A3.1,3.1,0,0,0,30.426,36H34.66v-.109a2.753,2.753,0,0,0-.594-1.707A1.815,1.815,0,0,0,32.629,33.578ZM41.387,36.7a4.952,4.952,0,0,1,.922-3.129,3.137,3.137,0,0,1,4.766-.168V29H48.52V41H47.191l-.07-.906a2.943,2.943,0,0,1-2.414,1.063,2.887,2.887,0,0,1-2.395-1.2,5.008,5.008,0,0,1-.926-3.141Zm1.445.164a3.749,3.749,0,0,0,.594,2.25,1.919,1.919,0,0,0,1.641.813A2.108,2.108,0,0,0,47.074,38.7V34.813a2.125,2.125,0,0,0-1.992-1.2,1.929,1.929,0,0,0-1.656.82A4.128,4.128,0,0,0,42.832,36.867ZM55.98,41a3.036,3.036,0,0,1-.2-.891,3.225,3.225,0,0,1-2.406,1.047,2.984,2.984,0,0,1-2.051-.707,2.287,2.287,0,0,1-.8-1.793,2.39,2.39,0,0,1,1-2.051,4.733,4.733,0,0,1,2.824-.73h1.406v-.664A1.623,1.623,0,0,0,55.3,34a1.821,1.821,0,0,0-1.336-.449,2.107,2.107,0,0,0-1.3.391,1.151,1.151,0,0,0-.523.945H50.691a2,2,0,0,1,.449-1.223,3.066,3.066,0,0,1,1.219-.934,4.1,4.1,0,0,1,1.691-.344,3.342,3.342,0,0,1,2.289.73,2.635,2.635,0,0,1,.859,2.012v3.891a4.757,4.757,0,0,0,.3,1.852V41Zm-2.4-1.1a2.54,2.54,0,0,0,1.289-.352,2.127,2.127,0,0,0,.883-.914V36.9H54.621q-2.656,0-2.656,1.555a1.316,1.316,0,0,0,.453,1.063A1.742,1.742,0,0,0,53.582,39.9Zm7.844-9.4v2.047H63v1.117H61.426v5.242a1.171,1.171,0,0,0,.211.762.888.888,0,0,0,.719.254,3.5,3.5,0,0,0,.688-.094V41a4.19,4.19,0,0,1-1.109.156,1.8,1.8,0,0,1-1.461-.586,2.517,2.517,0,0,1-.492-1.664V33.664H58.441V32.547H59.98V30.5Zm2.727,6.2a4.993,4.993,0,0,1,.488-2.234A3.643,3.643,0,0,1,66,32.93a3.7,3.7,0,0,1,1.988-.539,3.565,3.565,0,0,1,2.793,1.2,4.6,4.6,0,0,1,1.066,3.18v.1a5.036,5.036,0,0,1-.473,2.215,3.589,3.589,0,0,1-1.352,1.527,3.743,3.743,0,0,1-2.02.547,3.556,3.556,0,0,1-2.785-1.2A4.575,4.575,0,0,1,64.152,36.8Zm1.453.172a3.616,3.616,0,0,0,.652,2.258,2.211,2.211,0,0,0,3.5-.012A3.955,3.955,0,0,0,70.4,36.7a3.61,3.61,0,0,0-.66-2.254,2.1,2.1,0,0,0-1.754-.863,2.075,2.075,0,0,0-1.727.852A3.925,3.925,0,0,0,65.605,36.867Zm12.977,1.891a1.064,1.064,0,0,0-.441-.91,4.249,4.249,0,0,0-1.539-.559,7.277,7.277,0,0,1-1.742-.562,2.479,2.479,0,0,1-.953-.781,1.869,1.869,0,0,1-.309-1.078,2.193,2.193,0,0,1,.879-1.758,3.432,3.432,0,0,1,2.246-.719,3.532,3.532,0,0,1,2.332.742,2.357,2.357,0,0,1,.895,1.9H78.5a1.3,1.3,0,0,0-.5-1.023,1.888,1.888,0,0,0-1.27-.43,1.976,1.976,0,0,0-1.234.344,1.082,1.082,0,0,0-.445.9.877.877,0,0,0,.414.789,5.1,5.1,0,0,0,1.5.508,7.8,7.8,0,0,1,1.754.578,2.558,2.558,0,0,1,1,.809,1.988,1.988,0,0,1,.324,1.152,2.163,2.163,0,0,1-.906,1.816,3.8,3.8,0,0,1-2.352.684,4.257,4.257,0,0,1-1.8-.359,2.922,2.922,0,0,1-1.223-1,2.42,2.42,0,0,1-.441-1.395h1.445a1.5,1.5,0,0,0,.582,1.152,2.258,2.258,0,0,0,1.434.426,2.331,2.331,0,0,0,1.316-.332A1.02,1.02,0,0,0,78.582,38.758Z" transform="translate(885 6726.618)" fill="#12263f"/>
  </g>
</svg>
