<svg xmlns="http://www.w3.org/2000/svg" width="735.174" height="191.342" viewBox="0 0 735.174 191.342">
  <g id="Grupo_1204383" data-name="Grupo 1204383" transform="translate(-432.517 -4476.981)">
    <path id="Trazado_125912" data-name="Trazado 125912" d="M583.945,337v14.014c0,1.043-2.9,1.887-6.472,1.887S571,352.057,571,351.014V337c0,1.043,2.9,1.886,6.472,1.886S583.945,338.043,583.945,337Z" transform="translate(-122.385 4161.01)" fill="#083851" stroke="#000" stroke-miterlimit="10" stroke-width="0.5"/>
    <path id="Trazado_1261892" data-name="Trazado 1261892" d="M6.5,0C10.09,0,13,.672,13,1.5S10.09,3,6.5,3,0,2.328,0,1.5,2.91,0,6.5,0Z" transform="translate(448.691 4496.981)" fill="#083851" stroke="#000" stroke-width="0.5"/>
    <path id="Trazado_125912-2" data-name="Trazado 125912" d="M583.945,337v14.014c0,1.043-2.9,1.887-6.472,1.887S571,352.057,571,351.014V337c0,1.043,2.9,1.886,6.472,1.886S583.945,338.043,583.945,337Z" transform="translate(-114.385 4162.01)" fill="#083851" stroke="#000" stroke-miterlimit="10" stroke-width="0.5"/>
    <path id="Trazado_1261893" data-name="Trazado 1261893" d="M6.5,0C10.09,0,13,.672,13,1.5S10.09,3,6.5,3,0,2.328,0,1.5,2.91,0,6.5,0Z" transform="translate(456.691 4497.981)" fill="#083851" stroke="#000" stroke-width="0.5"/>
    <path id="Trazado_125912-3" data-name="Trazado 125912" d="M588.092,337v14.014c0,1.043-3.828,1.887-8.546,1.887S571,352.057,571,351.014V337c0,1.043,3.828,1.886,8.546,1.886S588.092,338.043,588.092,337Z" transform="translate(-103.309 4163.01)" fill="#083851" stroke="#000" stroke-miterlimit="10" stroke-width="0.5"/>
    <path id="Trazado_1261894" data-name="Trazado 1261894" d="M8.574,0c4.735,0,8.574.672,8.574,1.5S13.309,3,8.574,3,0,2.328,0,1.5,3.839,0,8.574,0Z" transform="translate(467.767 4498.981)" fill="#083851" stroke="#000" stroke-width="0.5"/>
    <path id="Trazado_125912-4" data-name="Trazado 125912" d="M598.9,337v22.873c0,1.7-6.248,3.079-13.949,3.079S571,361.576,571,359.873V337c0,1.7,6.248,3.079,13.949,3.079S598.9,338.7,598.9,337Z" transform="translate(24.691 4171.124)" fill="#083851" stroke="#000" stroke-miterlimit="10" stroke-width="0.5"/>
    <path id="Trazado_1261895" data-name="Trazado 1261895" d="M13.994,0c7.729,0,13.994,1.1,13.994,2.448S21.723,4.9,13.994,4.9,0,3.8,0,2.448,6.265,0,13.994,0Z" transform="translate(595.814 4506.445)" fill="#083851" stroke="#000" stroke-width="0.5"/>
    <path id="Trazado_125913" data-name="Trazado 125913" d="M-6198.386-6710.038c.758,0,63.744,4.2,63.744,4.2" transform="translate(6702.691 11212.981)" fill="none" stroke="#a6cdec" stroke-width="2"/>
    <path id="Trazado_1261896" data-name="Trazado 1261896" d="M4.5,0,9,8H0Z" transform="translate(575.495 4503.236) rotate(94)" fill="#a6cdec"/>
    <path id="Trazado_125913-2" data-name="Trazado 125913" d="M-6198.386-6710.038c.758,0,63.744,4.2,63.744,4.2" transform="matrix(0.995, -0.105, 0.105, 0.995, 7377.85, 10547.061)" fill="none" stroke="#a6cdec" stroke-width="2"/>
    <path id="Trazado_1261897" data-name="Trazado 1261897" d="M4.5,0,9,8H0Z" transform="translate(582.86 4514.538) rotate(88)" fill="#a6cdec"/>
    <path id="Trazado_125913-3" data-name="Trazado 125913" d="M-6198.386-6710.038c.758,0,63.744,4.2,63.744,4.2" transform="matrix(0.946, -0.326, 0.326, 0.946, 8561.043, 8873.94)" fill="none" stroke="#a6cdec" stroke-width="2"/>
    <path id="Trazado_1261898" data-name="Trazado 1261898" d="M4.5,0,9,8H0Z" transform="matrix(0.259, 0.966, -0.966, 0.259, 583.186, 4524.571)" fill="#a6cdec"/>
    <path id="Trazado_125912-5" data-name="Trazado 125912" d="M588.092,337v14.014c0,1.043-3.828,1.887-8.546,1.887S571,352.057,571,351.014V337c0,1.043,3.828,1.886,8.546,1.886S588.092,338.043,588.092,337Z" transform="translate(-111.92 4194.01)" fill="#e4f0f9" stroke="#000" stroke-miterlimit="10" stroke-width="0.5"/>
    <path id="Trazado_1261899" data-name="Trazado 1261899" d="M8.574,0c4.735,0,8.574.672,8.574,1.5S13.309,3,8.574,3,0,2.328,0,1.5,3.839,0,8.574,0Z" transform="translate(459.155 4529.981)" fill="#e4f0f9" stroke="#000" stroke-width="0.5"/>
    <path id="Trazado_125912-6" data-name="Trazado 125912" d="M588.092,337v14.014c0,1.043-3.828,1.887-8.546,1.887S571,352.057,571,351.014V337c0,1.043,3.828,1.886,8.546,1.886S588.092,338.043,588.092,337Z" transform="translate(-126.92 4194.01)" fill="#e4f0f9" stroke="#000" stroke-miterlimit="10" stroke-width="0.5"/>
    <path id="Trazado_1261900" data-name="Trazado 1261900" d="M8.574,0c4.735,0,8.574.672,8.574,1.5S13.309,3,8.574,3,0,2.328,0,1.5,3.839,0,8.574,0Z" transform="translate(444.155 4529.981)" fill="#e4f0f9" stroke="#000" stroke-width="0.5"/>
    <g id="Trazado_1261901" data-name="Trazado 1261901" transform="translate(485.691 4527.981)" fill="#ddd">
      <path d="M 22.5 32.5 L 0.5 32.5 L 0.5 0.5 L 22.5 0.5 L 22.5 32.5 Z" stroke="none"/>
      <path d="M 1 1 L 1 32 L 22 32 L 22 1 L 1 1 M 0 0 L 23 0 L 23 33 L 0 33 L 0 0 Z" stroke="none" fill="#000"/>
    </g>
    <path id="Trazado_125914" data-name="Trazado 125914" d="M4,0V4H0Z" transform="translate(503.691 4555.981)"/>
    <path id="Trazado_125913-4" data-name="Trazado 125913" d="M-6198.386-6710.038c.758,0,63.744,4.2,63.744,4.2" transform="matrix(0.998, -0.07, 0.07, 0.998, 7287.433, 10780.53)" fill="none" stroke="#a6cdec" stroke-width="2"/>
    <path id="Trazado_1261902" data-name="Trazado 1261902" d="M4.5,0,9,8H0Z" transform="translate(707.114 4514.541) rotate(90)" fill="#a6cdec"/>
    <g id="Trazado_877279" data-name="Trazado 877279" transform="translate(711.691 4501.981)" fill="#88a160">
      <path d="M 30.5 41.5 L 0.5 41.5 L 0.5 0.5 L 30.5 0.5 L 30.5 41.5 Z" stroke="none"/>
      <path d="M 1 1 L 1 41 L 30 41 L 30 1 L 1 1 M 0 0 L 31 0 L 31 42 L 0 42 L 0 0 Z" stroke="none" fill="#000"/>
    </g>
    <path id="Trazado_125915" data-name="Trazado 125915" d="M-5942.3-6711v41.6" transform="translate(6661.691 11212.981)" fill="none" stroke="#0b0b0b" stroke-width="1"/>
    <path id="Trazado_125916" data-name="Trazado 125916" d="M-5950-6701.872h30.582" transform="translate(6661.691 11212.981)" fill="none" stroke="#000" stroke-width="1"/>
    <path id="Trazado_125913-5" data-name="Trazado 125913" d="M-6198.386-6710.038c.758,0,63.744,4.2,63.744,4.2" transform="matrix(0.998, -0.07, 0.07, 0.998, 7407.433, 10780.53)" fill="none" stroke="#a6cdec" stroke-width="2"/>
    <path id="Trazado_1261903" data-name="Trazado 1261903" d="M4.5,0,9,8H0Z" transform="translate(827.114 4514.541) rotate(90)" fill="#a6cdec"/>
    <g id="Trazado_1261904" data-name="Trazado 1261904" transform="translate(842.691 4502.981)" fill="#083851">
      <path d="M 54.5 41.5 L 0.5 41.5 L 0.5 0.5 L 54.5 0.5 L 54.5 41.5 Z" stroke="none"/>
      <path d="M 1 1 L 1 41 L 54 41 L 54 1 L 1 1 M 0 0 L 55 0 L 55 42 L 0 42 L 0 0 Z" stroke="none" fill="#000"/>
    </g>
    <path id="Trazado_125917" data-name="Trazado 125917" d="M-5921.575-6702.056l43.752-39.835" transform="translate(6774.691 11245.981)" fill="none" stroke="#000" stroke-width="1"/>
    <path id="Trazado_125920" data-name="Trazado 125920" d="M4.253-4.958H6.83v1.111H4.253v2.92H3.072v-2.92H.5V-4.958H3.072v-2.7H4.253Z" transform="translate(848.691 4515.981)" fill="#aaca79"/>
    <path id="Trazado_125921" data-name="Trazado 125921" d="M4.253-4.958H6.83v1.111H4.253v2.92H3.072v-2.92H.5V-4.958H3.072v-2.7H4.253Z" transform="translate(863.691 4515.981)" fill="#aaca79"/>
    <path id="Trazado_125918" data-name="Trazado 125918" d="M4.253-4.958H6.83v1.111H4.253v2.92H3.072v-2.92H.5V-4.958H3.072v-2.7H4.253Z" transform="translate(848.691 4526.981)" fill="#aaca79"/>
    <path id="Trazado_125919" data-name="Trazado 125919" d="M4.253-4.958H6.83v1.111H4.253v2.92H3.072v-2.92H.5V-4.958H3.072v-2.7H4.253Z" transform="translate(863.691 4526.981)" fill="#aaca79"/>
    <path id="Trazado_125922" data-name="Trazado 125922" d="M3.333-3.447H.235v-.958h3.1Z" transform="translate(884.691 4527.981)" fill="#a6cdec"/>
    <path id="Trazado_125923" data-name="Trazado 125923" d="M3.333-3.447H.235v-.958h3.1Z" transform="translate(884.691 4539.981)" fill="#a6cdec"/>
    <path id="Trazado_125924" data-name="Trazado 125924" d="M3.333-3.447H.235v-.958h3.1Z" transform="translate(871.66 4539.981)" fill="#a6cdec"/>
    <path id="Trazado_125925" data-name="Trazado 125925" d="M424.5,336.774,443.64,293.5l19.294,43.274Z" transform="translate(554.191 4206.156)" fill="#88a160"/>
    <path id="Trazado_125926" data-name="Trazado 125926" d="M518.377,251.5,509.5,263.151l19.294,43.274,7.891-14.147Z" transform="translate(488.408 4236.506)" fill="#083851"/>
    <g id="Trazado_1261905" data-name="Trazado 1261905" transform="translate(1107.691 4514.981)" fill="#083851">
      <path d="M 43.5 31.5 L 0.5 31.5 L 0.5 0.5 L 43.5 0.5 L 43.5 31.5 Z" stroke="none"/>
      <path d="M 1 1 L 1 31 L 43 31 L 43 1 L 1 1 M 0 0 L 44 0 L 44 32 L 0 32 L 0 0 Z" stroke="none" fill="#121212"/>
    </g>
    <path id="Trazado_125927" data-name="Trazado 125927" d="M-5595-6712.028l18.489-13.972" transform="translate(6702.691 11252.981)" fill="none" stroke="#0a4666" stroke-width="1"/>
    <path id="Trazado_125928" data-name="Trazado 125928" d="M-5566.545-6712.028l-10.563-13.839" transform="translate(6702.691 11252.981)" fill="none" stroke="#aaca79" stroke-width="1"/>
    <path id="Trazado_125929" data-name="Trazado 125929" d="M-5551.376-6723.691l-15.221,11.31" transform="translate(6702.691 11252.981)" fill="none" stroke="#0a4666" stroke-width="1"/>
    <path id="Trazado_125913-6" data-name="Trazado 125913" d="M-6198.386-6710.038c.758,0,63.744,4.2,63.744,4.2" transform="matrix(0.998, -0.07, 0.07, 0.998, 7553.433, 10780.53)" fill="none" stroke="#a6cdec" stroke-width="2"/>
    <path id="Trazado_1261906" data-name="Trazado 1261906" d="M4.5,0,9,8H0Z" transform="translate(973.114 4514.541) rotate(90)" fill="#a6cdec"/>
    <path id="Trazado_125913-7" data-name="Trazado 125913" d="M-6198.386-6710.038c.758,0,63.744,4.2,63.744,4.2" transform="matrix(0.998, -0.07, 0.07, 0.998, 7684.433, 10780.53)" fill="none" stroke="#a6cdec" stroke-width="2"/>
    <path id="Trazado_1261907" data-name="Trazado 1261907" d="M4.5,0,9,8H0Z" transform="translate(1104.114 4514.541) rotate(90)" fill="#a6cdec"/>
    <path id="Trazado_1261908" data-name="Trazado 1261908" d="M0,0H10V12H0Z" transform="translate(659.691 4485.981)" fill="#afafaf"/>
    <path id="Trazado_1261909" data-name="Trazado 1261909" d="M10,0,20,12H0Z" transform="translate(674.691 4504.981) rotate(180)" fill="#afafaf"/>
    <path id="Trazado_1261910" data-name="Trazado 1261910" d="M0,0H10V12H0Z" transform="translate(532.691 4476.981)" fill="#afafaf"/>
    <path id="Trazado_1261911" data-name="Trazado 1261911" d="M10,0,20,12H0Z" transform="translate(547.691 4495.981) rotate(180)" fill="#afafaf"/>
    <path id="Trazado_1261912" data-name="Trazado 1261912" d="M0,0H10V12H0Z" transform="translate(928.691 4485.981)" fill="#afafaf"/>
    <path id="Trazado_1261913" data-name="Trazado 1261913" d="M10,0,20,12H0Z" transform="translate(943.691 4504.981) rotate(180)" fill="#afafaf"/>
    <path id="Trazado_1261914" data-name="Trazado 1261914" d="M0,0H10V12H0Z" transform="translate(1052.691 4485.981)" fill="#afafaf"/>
    <path id="Trazado_1261915" data-name="Trazado 1261915" d="M10,0,20,12H0Z" transform="translate(1067.691 4504.981) rotate(180)" fill="#afafaf"/>
    <path id="Trazado_125930" data-name="Trazado 125930" d="M-6095.048-6631.174v27.956" transform="translate(6702.739 11212.981)" fill="none" stroke="#aaca79" stroke-width="1" stroke-dasharray="3"/>
    <path id="Trazado_1261916" data-name="Trazado 1261916" d="M4,0,8,7H0Z" transform="translate(603.691 4574.981)" fill="#aaca79"/>
    <path id="Trazado_1261917" data-name="Trazado 1261917" d="M4,0,8,7H0Z" transform="translate(611.691 4614.981) rotate(180)" fill="#aaca79"/>
    <path id="Trazado_125930-2" data-name="Trazado 125930" d="M-6095.048-6631.174v27.956" transform="translate(6821.739 11212.981)" fill="none" stroke="#aaca79" stroke-width="1" stroke-dasharray="3"/>
    <path id="Trazado_1261918" data-name="Trazado 1261918" d="M4,0,8,7H0Z" transform="translate(722.691 4574.981)" fill="#aaca79"/>
    <path id="Trazado_1261919" data-name="Trazado 1261919" d="M4,0,8,7H0Z" transform="translate(730.691 4614.981) rotate(180)" fill="#aaca79"/>
    <path id="Trazado_125930-3" data-name="Trazado 125930" d="M-6095.048-6631.174v27.956" transform="translate(6955.739 11212.981)" fill="none" stroke="#aaca79" stroke-width="1" stroke-dasharray="3"/>
    <path id="Trazado_1261920" data-name="Trazado 1261920" d="M4,0,8,7H0Z" transform="translate(856.691 4574.981)" fill="#aaca79"/>
    <path id="Trazado_1261921" data-name="Trazado 1261921" d="M4,0,8,7H0Z" transform="translate(864.691 4614.981) rotate(180)" fill="#aaca79"/>
    <path id="Trazado_125930-4" data-name="Trazado 125930" d="M-6095.048-6631.174v27.956" transform="translate(7089.739 11212.981)" fill="none" stroke="#aaca79" stroke-width="1" stroke-dasharray="3"/>
    <path id="Trazado_1261922" data-name="Trazado 1261922" d="M4,0,8,7H0Z" transform="translate(990.691 4574.981)" fill="#aaca79"/>
    <path id="Trazado_1261923" data-name="Trazado 1261923" d="M4,0,8,7H0Z" transform="translate(998.691 4614.981) rotate(180)" fill="#aaca79"/>
    <path id="Trazado_125930-5" data-name="Trazado 125930" d="M-6095.048-6631.174v27.956" transform="translate(7223.739 11212.981)" fill="none" stroke="#aaca79" stroke-width="1" stroke-dasharray="3"/>
    <path id="Trazado_1261924" data-name="Trazado 1261924" d="M4,0,8,7H0Z" transform="translate(1124.691 4574.981)" fill="#aaca79"/>
    <path id="Trazado_1261925" data-name="Trazado 1261925" d="M4,0,8,7H0Z" transform="translate(1132.691 4614.981) rotate(180)" fill="#aaca79"/>
    <path id="Trazado_125932" data-name="Trazado 125932" d="M-5570-6585.24h-571.252" transform="translate(6702.691 11212.981)" fill="none" stroke="#59836c" stroke-width="2" stroke-dasharray="6"/>
    <path id="Trazado_1261926" data-name="Trazado 1261926" d="M4,0,8,7H0Z" transform="translate(556.191 4631.742) rotate(-90)" fill="#b5c7d1"/>
    <path id="Trazado_125939" data-name="Trazado 125939" d="M0,0H89V38.316H0Z" transform="translate(500.691 4577.981)" fill="#e5efd6"/>
    <path id="Trazado_125941" data-name="Trazado 125941" d="M0,0H89V38.316H0Z" transform="translate(627.691 4577.981)" fill="#e5efd6"/>
    <path id="Trazado_125943" data-name="Trazado 125943" d="M0,0H76V38.316H0Z" transform="translate(759.691 4577.981)" fill="#e5efd6"/>
    <path id="Trazado_125945" data-name="Trazado 125945" d="M0,0H82.346V38.316H0Z" transform="translate(902.691 4577.981)" fill="#e5efd6"/>
    <path id="Trazado_125947" data-name="Trazado 125947" d="M0,0H76V38.316H0Z" transform="translate(1023.691 4577.981)" fill="#e5efd6"/>
    <path id="Trazado_125949" data-name="Trazado 125949" d="M0,0H76V33.368H0Z" transform="translate(1091.691 4634.956)" fill="#e5efd6"/>
    <path id="Trazado_1261927" data-name="Trazado 1261927" d="M-37.427,0h-1.312V-9.953h1.313Zm3.4-7.4.041.93a2.7,2.7,0,0,1,2.215-1.066q2.345,0,2.365,2.646V0h-1.265V-4.895a1.7,1.7,0,0,0-.366-1.183,1.466,1.466,0,0,0-1.118-.383,1.825,1.825,0,0,0-1.08.328,2.228,2.228,0,0,0-.725.861V0h-1.265V-7.4Zm8.244-1.791V-7.4H-24.4v.978h-1.381v4.587a1.024,1.024,0,0,0,.185.667.777.777,0,0,0,.629.222,3.062,3.062,0,0,0,.6-.082V0a3.666,3.666,0,0,1-.971.137,1.575,1.575,0,0,1-1.278-.513,2.2,2.2,0,0,1-.431-1.456V-6.419H-28.4V-7.4h1.347V-9.187ZM-19.858.137a3.232,3.232,0,0,1-2.447-.988,3.666,3.666,0,0,1-.943-2.642v-.232a4.438,4.438,0,0,1,.42-1.965,3.28,3.28,0,0,1,1.176-1.354,2.956,2.956,0,0,1,1.637-.489,2.77,2.77,0,0,1,2.242.95,4.114,4.114,0,0,1,.8,2.721v.526h-5.011a2.629,2.629,0,0,0,.639,1.767A2.009,2.009,0,0,0-19.79-.9a2.2,2.2,0,0,0,1.135-.273,2.851,2.851,0,0,0,.813-.725l.772.6A3.106,3.106,0,0,1-19.858.137Zm-.157-6.631a1.687,1.687,0,0,0-1.285.557,2.708,2.708,0,0,0-.643,1.562h3.705v-.1a2.409,2.409,0,0,0-.52-1.494A1.588,1.588,0,0,0-20.016-6.494Zm4.2,2.734a4.347,4.347,0,0,1,.8-2.751,2.558,2.558,0,0,1,2.119-1.022,2.544,2.544,0,0,1,2.112.957l.062-.82h1.155V-.178a3.009,3.009,0,0,1-.851,2.263,3.141,3.141,0,0,1-2.287.827,3.8,3.8,0,0,1-1.565-.342,2.7,2.7,0,0,1-1.169-.937l.656-.759a2.473,2.473,0,0,0,1.989,1,1.938,1.938,0,0,0,1.439-.52A1.986,1.986,0,0,0-10.835-.1V-.738a2.6,2.6,0,0,1-2.071.875,2.527,2.527,0,0,1-2.1-1.046A4.571,4.571,0,0,1-15.812-3.76Zm1.271.144a3.316,3.316,0,0,0,.513,1.965,1.666,1.666,0,0,0,1.436.714,1.852,1.852,0,0,0,1.757-1.087V-5.4a1.874,1.874,0,0,0-1.743-1.06,1.681,1.681,0,0,0-1.442.718A3.612,3.612,0,0,0-14.54-3.616ZM-4.081-6.262A3.79,3.79,0,0,0-4.7-6.31,1.667,1.667,0,0,0-6.392-5.25V0H-7.656V-7.4h1.23l.021.854a1.969,1.969,0,0,1,1.764-.991,1.292,1.292,0,0,1,.561.1ZM1.374,0A2.657,2.657,0,0,1,1.2-.779,2.822,2.822,0,0,1-.909.137,2.611,2.611,0,0,1-2.7-.482a2,2,0,0,1-.7-1.569,2.091,2.091,0,0,1,.878-1.794A4.142,4.142,0,0,1-.055-4.484h1.23v-.581a1.42,1.42,0,0,0-.4-1.056A1.593,1.593,0,0,0-.39-6.515a1.844,1.844,0,0,0-1.135.342,1.007,1.007,0,0,0-.458.827H-3.254a1.745,1.745,0,0,1,.393-1.07,2.683,2.683,0,0,1,1.066-.817,3.588,3.588,0,0,1,1.48-.3,2.924,2.924,0,0,1,2,.639,2.306,2.306,0,0,1,.752,1.76v3.4A4.162,4.162,0,0,0,2.7-.109V0Zm-2.1-.964A2.223,2.223,0,0,0,.4-1.271a1.861,1.861,0,0,0,.772-.8V-3.589H.185q-2.324,0-2.324,1.36a1.151,1.151,0,0,0,.4.93A1.524,1.524,0,0,0-.725-.964ZM7.39-.9a1.822,1.822,0,0,0,1.183-.41,1.443,1.443,0,0,0,.561-1.025h1.2a2.293,2.293,0,0,1-.437,1.21,2.881,2.881,0,0,1-1.077.916A3.107,3.107,0,0,1,7.39.137a3.047,3.047,0,0,1-2.4-1.008A4.016,4.016,0,0,1,4.095-3.63v-.212a4.453,4.453,0,0,1,.4-1.921A3.02,3.02,0,0,1,5.629-7.068a3.233,3.233,0,0,1,1.753-.465,2.966,2.966,0,0,1,2.068.745,2.663,2.663,0,0,1,.878,1.935h-1.2a1.743,1.743,0,0,0-.543-1.179,1.691,1.691,0,0,0-1.207-.461A1.77,1.77,0,0,0,5.889-5.8a3.259,3.259,0,0,0-.53,2.006v.239a3.194,3.194,0,0,0,.526,1.969A1.779,1.779,0,0,0,7.39-.9Zm5.735.9H11.86V-7.4h1.265ZM11.758-9.358a.755.755,0,0,1,.188-.52.706.706,0,0,1,.557-.212.717.717,0,0,1,.561.212.747.747,0,0,1,.191.52.722.722,0,0,1-.191.513.73.73,0,0,1-.561.205.718.718,0,0,1-.557-.205A.73.73,0,0,1,11.758-9.358Zm3.056,5.592a4.369,4.369,0,0,1,.427-1.955,3.187,3.187,0,0,1,1.189-1.34,3.238,3.238,0,0,1,1.74-.472,3.119,3.119,0,0,1,2.444,1.046,4.024,4.024,0,0,1,.933,2.782v.089a4.407,4.407,0,0,1-.414,1.938A3.14,3.14,0,0,1,19.951-.342a3.275,3.275,0,0,1-1.767.479A3.111,3.111,0,0,1,15.747-.909a4,4,0,0,1-.933-2.769Zm1.271.15a3.164,3.164,0,0,0,.571,1.976A1.827,1.827,0,0,0,18.184-.9a1.816,1.816,0,0,0,1.531-.755,3.46,3.46,0,0,0,.567-2.116A3.159,3.159,0,0,0,19.7-5.739a1.836,1.836,0,0,0-1.535-.755,1.816,1.816,0,0,0-1.511.745A3.434,3.434,0,0,0,16.085-3.616ZM18.744-10.5h1.531L18.443-8.49H17.425Zm5.585,3.1.041.93a2.7,2.7,0,0,1,2.215-1.066q2.345,0,2.365,2.646V0H27.686V-4.895a1.7,1.7,0,0,0-.366-1.183A1.466,1.466,0,0,0,26.2-6.46a1.825,1.825,0,0,0-1.08.328,2.228,2.228,0,0,0-.725.861V0H23.133V-7.4ZM36.743-1.853,38.466-7.4h1.354L36.846,1.142q-.69,1.846-2.194,1.846l-.239-.021-.472-.089V1.853l.342.027a1.683,1.683,0,0,0,1-.26,1.88,1.88,0,0,0,.591-.95l.28-.752L33.517-7.4H34.9ZM-33.551,11.738a3.79,3.79,0,0,0-.622-.048,1.667,1.667,0,0,0-1.688,1.06V18h-1.265V10.6h1.23l.021.854a1.969,1.969,0,0,1,1.764-.991,1.292,1.292,0,0,1,.561.1Zm4.231,6.4a3.232,3.232,0,0,1-2.447-.988,3.666,3.666,0,0,1-.943-2.642v-.232a4.438,4.438,0,0,1,.42-1.965,3.28,3.28,0,0,1,1.176-1.354,2.956,2.956,0,0,1,1.637-.489,2.77,2.77,0,0,1,2.242.95,4.114,4.114,0,0,1,.8,2.721v.526h-5.011a2.629,2.629,0,0,0,.639,1.767,2.009,2.009,0,0,0,1.555.673,2.2,2.2,0,0,0,1.135-.273,2.851,2.851,0,0,0,.813-.725l.772.6A3.106,3.106,0,0,1-29.319,18.137Zm-.157-6.631a1.687,1.687,0,0,0-1.285.557,2.708,2.708,0,0,0-.643,1.562H-27.7v-.1a2.409,2.409,0,0,0-.52-1.494A1.588,1.588,0,0,0-29.477,11.506ZM-22,17.1a1.822,1.822,0,0,0,1.183-.41,1.443,1.443,0,0,0,.561-1.025h1.2a2.293,2.293,0,0,1-.437,1.21,2.881,2.881,0,0,1-1.077.916A3.107,3.107,0,0,1-22,18.137a3.047,3.047,0,0,1-2.4-1.008A4.016,4.016,0,0,1-25.3,14.37v-.212a4.453,4.453,0,0,1,.4-1.921,3.02,3.02,0,0,1,1.138-1.306,3.233,3.233,0,0,1,1.753-.465,2.966,2.966,0,0,1,2.068.745,2.663,2.663,0,0,1,.878,1.935h-1.2a1.743,1.743,0,0,0-.543-1.179,1.691,1.691,0,0,0-1.207-.461,1.77,1.77,0,0,0-1.494.694,3.259,3.259,0,0,0-.53,2.006v.239a3.194,3.194,0,0,0,.526,1.969A1.779,1.779,0,0,0-22,17.1Zm4.026-2.871a4.369,4.369,0,0,1,.427-1.955,3.187,3.187,0,0,1,1.189-1.34,3.238,3.238,0,0,1,1.74-.472,3.119,3.119,0,0,1,2.444,1.046,4.024,4.024,0,0,1,.933,2.782v.089a4.407,4.407,0,0,1-.414,1.938,3.14,3.14,0,0,1-1.183,1.336,3.275,3.275,0,0,1-1.767.479,3.111,3.111,0,0,1-2.437-1.046,4,4,0,0,1-.933-2.769Zm1.271.15a3.164,3.164,0,0,0,.571,1.976,1.827,1.827,0,0,0,1.528.745,1.816,1.816,0,0,0,1.531-.755,3.46,3.46,0,0,0,.567-2.116,3.159,3.159,0,0,0-.578-1.972,1.836,1.836,0,0,0-1.535-.755,1.816,1.816,0,0,0-1.511.745A3.435,3.435,0,0,0-16.707,14.384Zm13.3,0A4.429,4.429,0,0,1-4.184,17.1a2.476,2.476,0,0,1-2.092,1.032,2.713,2.713,0,0,1-2.119-.854v3.562H-9.659V10.6H-8.5l.062.82A2.605,2.605,0,0,1-6.3,10.467a2.522,2.522,0,0,1,2.109,1,4.477,4.477,0,0,1,.776,2.8Zm-1.265-.144a3.268,3.268,0,0,0-.533-1.976,1.718,1.718,0,0,0-1.463-.725,1.859,1.859,0,0,0-1.723,1.019v3.534A1.863,1.863,0,0,0-6.658,17.1a1.71,1.71,0,0,0,1.446-.721A3.567,3.567,0,0,0-4.676,14.24ZM-.431,18H-1.7V10.6H-.431ZM-1.8,8.642a.755.755,0,0,1,.188-.52.706.706,0,0,1,.557-.212.717.717,0,0,1,.561.212.747.747,0,0,1,.191.52.722.722,0,0,1-.191.513.73.73,0,0,1-.561.205.718.718,0,0,1-.557-.205A.73.73,0,0,1-1.8,8.642ZM2.967,18H1.7V7.5H2.967Zm6.59,0a2.657,2.657,0,0,1-.178-.779,2.822,2.822,0,0,1-2.105.916,2.611,2.611,0,0,1-1.794-.619,2,2,0,0,1-.7-1.569,2.091,2.091,0,0,1,.878-1.794,4.142,4.142,0,0,1,2.471-.639h1.23v-.581a1.42,1.42,0,0,0-.4-1.056,1.593,1.593,0,0,0-1.169-.393,1.844,1.844,0,0,0-1.135.342,1.007,1.007,0,0,0-.458.827H4.929a1.745,1.745,0,0,1,.393-1.07,2.683,2.683,0,0,1,1.066-.817,3.588,3.588,0,0,1,1.48-.3,2.924,2.924,0,0,1,2,.639,2.306,2.306,0,0,1,.752,1.76v3.4a4.162,4.162,0,0,0,.26,1.62V18Zm-2.1-.964a2.223,2.223,0,0,0,1.128-.308,1.861,1.861,0,0,0,.772-.8V14.411H8.367q-2.324,0-2.324,1.36a1.151,1.151,0,0,0,.4.93A1.524,1.524,0,0,0,7.458,17.036Zm8.114.068a1.822,1.822,0,0,0,1.183-.41,1.443,1.443,0,0,0,.561-1.025h1.2a2.293,2.293,0,0,1-.437,1.21A2.881,2.881,0,0,1,17,17.795a3.107,3.107,0,0,1-1.425.342,3.047,3.047,0,0,1-2.4-1.008,4.016,4.016,0,0,1-.892-2.758v-.212a4.453,4.453,0,0,1,.4-1.921,3.02,3.02,0,0,1,1.138-1.306,3.233,3.233,0,0,1,1.753-.465,2.966,2.966,0,0,1,2.068.745,2.663,2.663,0,0,1,.878,1.935h-1.2a1.743,1.743,0,0,0-.543-1.179,1.691,1.691,0,0,0-1.207-.461,1.77,1.77,0,0,0-1.494.694,3.259,3.259,0,0,0-.53,2.006v.239a3.194,3.194,0,0,0,.526,1.969A1.779,1.779,0,0,0,15.572,17.1Zm5.735.9H20.043V10.6h1.265ZM19.94,8.642a.755.755,0,0,1,.188-.52.706.706,0,0,1,.557-.212.717.717,0,0,1,.561.212.747.747,0,0,1,.191.52.722.722,0,0,1-.191.513.73.73,0,0,1-.561.205.718.718,0,0,1-.557-.205A.73.73,0,0,1,19.94,8.642ZM23,14.233a4.369,4.369,0,0,1,.427-1.955,3.187,3.187,0,0,1,1.189-1.34,3.238,3.238,0,0,1,1.74-.472A3.119,3.119,0,0,1,28.8,11.513a4.024,4.024,0,0,1,.933,2.782v.089a4.407,4.407,0,0,1-.414,1.938,3.14,3.14,0,0,1-1.183,1.336,3.275,3.275,0,0,1-1.767.479,3.111,3.111,0,0,1-2.437-1.046A4,4,0,0,1,23,14.322Zm1.271.15a3.164,3.164,0,0,0,.571,1.976,1.934,1.934,0,0,0,3.059-.01,3.46,3.46,0,0,0,.567-2.116,3.159,3.159,0,0,0-.578-1.972,1.836,1.836,0,0,0-1.535-.755,1.816,1.816,0,0,0-1.511.745A3.435,3.435,0,0,0,24.268,14.384ZM26.927,7.5h1.531L26.626,9.51H25.607Zm5.585,3.1.041.93a2.7,2.7,0,0,1,2.215-1.066q2.345,0,2.365,2.646V18H35.868V13.105a1.7,1.7,0,0,0-.366-1.183,1.466,1.466,0,0,0-1.118-.383,1.825,1.825,0,0,0-1.08.328,2.228,2.228,0,0,0-.725.861V18H31.315V10.6Z" transform="translate(545 4592.981)" fill="#12263f"/>
    <path id="Trazado_1261928" data-name="Trazado 1261928" d="M-35.017-3.9V0H-36.33V-9.953h3.671a3.688,3.688,0,0,1,2.56.834,2.827,2.827,0,0,1,.926,2.208,2.79,2.79,0,0,1-.906,2.232,3.853,3.853,0,0,1-2.594.783Zm0-1.073h2.358a2.361,2.361,0,0,0,1.613-.5A1.811,1.811,0,0,0-30.485-6.9a1.871,1.871,0,0,0-.561-1.422,2.212,2.212,0,0,0-1.538-.554h-2.434Zm10.9-1.292a3.79,3.79,0,0,0-.622-.048,1.667,1.667,0,0,0-1.688,1.06V0H-27.7V-7.4h1.23l.021.854a1.969,1.969,0,0,1,1.764-.991,1.292,1.292,0,0,1,.561.1Zm4.231,6.4a3.232,3.232,0,0,1-2.447-.988,3.666,3.666,0,0,1-.943-2.642v-.232a4.438,4.438,0,0,1,.42-1.965,3.28,3.28,0,0,1,1.176-1.354,2.956,2.956,0,0,1,1.637-.489,2.77,2.77,0,0,1,2.242.95A4.114,4.114,0,0,1-17-3.862v.526h-5.011a2.629,2.629,0,0,0,.639,1.767A2.009,2.009,0,0,0-19.821-.9a2.2,2.2,0,0,0,1.135-.273,2.851,2.851,0,0,0,.813-.725l.772.6A3.106,3.106,0,0,1-19.889.137Zm-.157-6.631a1.687,1.687,0,0,0-1.285.557,2.708,2.708,0,0,0-.643,1.562h3.705v-.1a2.409,2.409,0,0,0-.52-1.494A1.588,1.588,0,0,0-20.046-6.494ZM-9.293-3.616A4.429,4.429,0,0,1-10.066-.9,2.476,2.476,0,0,1-12.158.137a2.713,2.713,0,0,1-2.119-.854V2.844h-1.265V-7.4h1.155l.062.82a2.605,2.605,0,0,1,2.146-.957,2.522,2.522,0,0,1,2.109,1,4.477,4.477,0,0,1,.776,2.8Zm-1.265-.144a3.268,3.268,0,0,0-.533-1.976,1.718,1.718,0,0,0-1.463-.725,1.859,1.859,0,0,0-1.723,1.019v3.534A1.863,1.863,0,0,0-12.541-.9a1.71,1.71,0,0,0,1.446-.721A3.567,3.567,0,0,0-10.558-3.76ZM-3.121,0A2.657,2.657,0,0,1-3.3-.779,2.822,2.822,0,0,1-5.4.137,2.611,2.611,0,0,1-7.2-.482a2,2,0,0,1-.7-1.569,2.091,2.091,0,0,1,.878-1.794,4.142,4.142,0,0,1,2.471-.639h1.23v-.581a1.42,1.42,0,0,0-.4-1.056,1.593,1.593,0,0,0-1.169-.393,1.844,1.844,0,0,0-1.135.342,1.007,1.007,0,0,0-.458.827H-7.749a1.745,1.745,0,0,1,.393-1.07,2.683,2.683,0,0,1,1.066-.817,3.588,3.588,0,0,1,1.48-.3,2.924,2.924,0,0,1,2,.639,2.306,2.306,0,0,1,.752,1.76v3.4a4.162,4.162,0,0,0,.26,1.62V0Zm-2.1-.964a2.223,2.223,0,0,0,1.128-.308,1.861,1.861,0,0,0,.772-.8V-3.589H-4.31q-2.324,0-2.324,1.36a1.151,1.151,0,0,0,.4.93A1.524,1.524,0,0,0-5.219-.964ZM3.5-6.262a3.79,3.79,0,0,0-.622-.048A1.667,1.667,0,0,0,1.193-5.25V0H-.072V-7.4h1.23l.021.854a1.969,1.969,0,0,1,1.764-.991,1.292,1.292,0,0,1,.561.1ZM8.958,0a2.657,2.657,0,0,1-.178-.779A2.822,2.822,0,0,1,6.675.137,2.611,2.611,0,0,1,4.881-.482a2,2,0,0,1-.7-1.569,2.091,2.091,0,0,1,.878-1.794A4.142,4.142,0,0,1,7.53-4.484H8.76v-.581a1.42,1.42,0,0,0-.4-1.056,1.593,1.593,0,0,0-1.169-.393,1.844,1.844,0,0,0-1.135.342,1.007,1.007,0,0,0-.458.827H4.331a1.745,1.745,0,0,1,.393-1.07A2.683,2.683,0,0,1,5.79-7.232a3.588,3.588,0,0,1,1.48-.3,2.924,2.924,0,0,1,2,.639,2.306,2.306,0,0,1,.752,1.76v3.4a4.162,4.162,0,0,0,.26,1.62V0ZM6.86-.964a2.223,2.223,0,0,0,1.128-.308,1.861,1.861,0,0,0,.772-.8V-3.589H7.769q-2.324,0-2.324,1.36a1.151,1.151,0,0,0,.4.93A1.524,1.524,0,0,0,6.86-.964ZM14.974-.9a1.822,1.822,0,0,0,1.183-.41,1.443,1.443,0,0,0,.561-1.025h1.2a2.293,2.293,0,0,1-.437,1.21A2.881,2.881,0,0,1,16.4-.205a3.107,3.107,0,0,1-1.425.342,3.047,3.047,0,0,1-2.4-1.008,4.016,4.016,0,0,1-.892-2.758v-.212a4.453,4.453,0,0,1,.4-1.921,3.02,3.02,0,0,1,1.138-1.306,3.233,3.233,0,0,1,1.753-.465,2.966,2.966,0,0,1,2.068.745,2.663,2.663,0,0,1,.878,1.935h-1.2a1.743,1.743,0,0,0-.543-1.179,1.691,1.691,0,0,0-1.207-.461,1.77,1.77,0,0,0-1.494.694,3.259,3.259,0,0,0-.53,2.006v.239a3.194,3.194,0,0,0,.526,1.969A1.779,1.779,0,0,0,14.974-.9Zm5.735.9H19.445V-7.4h1.265ZM19.342-9.358a.755.755,0,0,1,.188-.52.706.706,0,0,1,.557-.212.717.717,0,0,1,.561.212.747.747,0,0,1,.191.52.722.722,0,0,1-.191.513.73.73,0,0,1-.561.205.718.718,0,0,1-.557-.205A.73.73,0,0,1,19.342-9.358ZM22.4-3.767a4.369,4.369,0,0,1,.427-1.955,3.187,3.187,0,0,1,1.189-1.34,3.238,3.238,0,0,1,1.74-.472A3.119,3.119,0,0,1,28.2-6.487a4.024,4.024,0,0,1,.933,2.782v.089a4.407,4.407,0,0,1-.414,1.938A3.14,3.14,0,0,1,27.535-.342a3.275,3.275,0,0,1-1.767.479A3.111,3.111,0,0,1,23.331-.909,4,4,0,0,1,22.4-3.678Zm1.271.15a3.164,3.164,0,0,0,.571,1.976A1.827,1.827,0,0,0,25.768-.9,1.816,1.816,0,0,0,27.3-1.651a3.46,3.46,0,0,0,.567-2.116,3.159,3.159,0,0,0-.578-1.972,1.836,1.836,0,0,0-1.535-.755,1.816,1.816,0,0,0-1.511.745A3.434,3.434,0,0,0,23.669-3.616ZM26.329-10.5H27.86L26.028-8.49H25.009Zm5.585,3.1.041.93a2.7,2.7,0,0,1,2.215-1.066q2.345,0,2.365,2.646V0H35.27V-4.895A1.7,1.7,0,0,0,34.9-6.077a1.466,1.466,0,0,0-1.118-.383,1.825,1.825,0,0,0-1.08.328,2.228,2.228,0,0,0-.725.861V0H30.717V-7.4ZM-26.315,14.24a4.333,4.333,0,0,1,.807-2.738A2.551,2.551,0,0,1-23.4,10.467a2.565,2.565,0,0,1,2.058.889V7.5h1.265V18h-1.162l-.062-.793a2.575,2.575,0,0,1-2.112.93,2.526,2.526,0,0,1-2.1-1.053,4.382,4.382,0,0,1-.81-2.748Zm1.265.144a3.281,3.281,0,0,0,.52,1.969,1.68,1.68,0,0,0,1.436.711,1.845,1.845,0,0,0,1.757-1.08v-3.4a1.859,1.859,0,0,0-1.743-1.046,1.687,1.687,0,0,0-1.449.718A3.612,3.612,0,0,0-25.05,14.384Zm10.008,3.753a3.232,3.232,0,0,1-2.447-.988,3.666,3.666,0,0,1-.943-2.642v-.232a4.438,4.438,0,0,1,.42-1.965,3.28,3.28,0,0,1,1.176-1.354,2.956,2.956,0,0,1,1.637-.489,2.77,2.77,0,0,1,2.242.95,4.114,4.114,0,0,1,.8,2.721v.526h-5.011a2.629,2.629,0,0,0,.639,1.767,2.009,2.009,0,0,0,1.555.673,2.2,2.2,0,0,0,1.135-.273,2.851,2.851,0,0,0,.813-.725l.772.6A3.106,3.106,0,0,1-15.042,18.137Zm-.157-6.631a1.687,1.687,0,0,0-1.285.557,2.708,2.708,0,0,0-.643,1.562h3.705v-.1a2.409,2.409,0,0,0-.52-1.494A1.588,1.588,0,0,0-15.2,11.506Zm7.663,2.734A4.333,4.333,0,0,1-6.73,11.5a2.551,2.551,0,0,1,2.112-1.036,2.565,2.565,0,0,1,2.058.889V7.5H-1.3V18H-2.458l-.062-.793a2.575,2.575,0,0,1-2.112.93,2.526,2.526,0,0,1-2.1-1.053,4.382,4.382,0,0,1-.81-2.748Zm1.265.144a3.281,3.281,0,0,0,.52,1.969,1.68,1.68,0,0,0,1.436.711,1.845,1.845,0,0,0,1.757-1.08v-3.4A1.859,1.859,0,0,0-4.3,11.54a1.687,1.687,0,0,0-1.449.718A3.612,3.612,0,0,0-6.272,14.384ZM5.233,18a2.657,2.657,0,0,1-.178-.779,2.822,2.822,0,0,1-2.105.916,2.611,2.611,0,0,1-1.794-.619,2,2,0,0,1-.7-1.569,2.091,2.091,0,0,1,.878-1.794A4.142,4.142,0,0,1,3.8,13.516h1.23v-.581a1.42,1.42,0,0,0-.4-1.056,1.593,1.593,0,0,0-1.169-.393,1.844,1.844,0,0,0-1.135.342,1.007,1.007,0,0,0-.458.827H.6A1.745,1.745,0,0,1,1,11.584a2.683,2.683,0,0,1,1.066-.817,3.588,3.588,0,0,1,1.48-.3,2.924,2.924,0,0,1,2,.639,2.306,2.306,0,0,1,.752,1.76v3.4a4.162,4.162,0,0,0,.26,1.62V18Zm-2.1-.964a2.223,2.223,0,0,0,1.128-.308,1.861,1.861,0,0,0,.772-.8V14.411H4.043q-2.324,0-2.324,1.36a1.151,1.151,0,0,0,.4.93A1.524,1.524,0,0,0,3.134,17.036ZM10,8.813V10.6h1.381v.978H10v4.587a1.024,1.024,0,0,0,.185.667.777.777,0,0,0,.629.222,3.062,3.062,0,0,0,.6-.082V18a3.666,3.666,0,0,1-.971.137,1.575,1.575,0,0,1-1.278-.513,2.2,2.2,0,0,1-.431-1.456V11.581H7.386V10.6H8.733V8.813Zm2.386,5.421a4.369,4.369,0,0,1,.427-1.955A3.187,3.187,0,0,1,14,10.938a3.238,3.238,0,0,1,1.74-.472,3.119,3.119,0,0,1,2.444,1.046,4.024,4.024,0,0,1,.933,2.782v.089a4.407,4.407,0,0,1-.414,1.938,3.14,3.14,0,0,1-1.183,1.336,3.275,3.275,0,0,1-1.767.479,3.111,3.111,0,0,1-2.437-1.046,4,4,0,0,1-.933-2.769Zm1.271.15a3.164,3.164,0,0,0,.571,1.976,1.934,1.934,0,0,0,3.059-.01,3.46,3.46,0,0,0,.567-2.116,3.159,3.159,0,0,0-.578-1.972,1.836,1.836,0,0,0-1.535-.755,1.816,1.816,0,0,0-1.511.745A3.435,3.435,0,0,0,13.655,14.384Zm11.354,1.654a.931.931,0,0,0-.386-.8,3.718,3.718,0,0,0-1.347-.489,6.367,6.367,0,0,1-1.524-.492,2.169,2.169,0,0,1-.834-.684,1.635,1.635,0,0,1-.27-.943,1.919,1.919,0,0,1,.769-1.538,3,3,0,0,1,1.965-.629,3.091,3.091,0,0,1,2.041.649,2.063,2.063,0,0,1,.783,1.661H24.934a1.142,1.142,0,0,0-.441-.9,1.652,1.652,0,0,0-1.111-.376,1.729,1.729,0,0,0-1.08.3.947.947,0,0,0-.39.786.767.767,0,0,0,.362.69,4.458,4.458,0,0,0,1.309.444,6.821,6.821,0,0,1,1.535.506,2.239,2.239,0,0,1,.872.708,1.74,1.74,0,0,1,.284,1.008,1.893,1.893,0,0,1-.793,1.589,3.326,3.326,0,0,1-2.058.6,3.725,3.725,0,0,1-1.572-.314,2.557,2.557,0,0,1-1.07-.878,2.117,2.117,0,0,1-.386-1.22H21.66a1.309,1.309,0,0,0,.509,1.008,1.976,1.976,0,0,0,1.254.373,2.039,2.039,0,0,0,1.152-.291A.893.893,0,0,0,25.009,16.038Z" transform="translate(673 4592.981)" fill="#12263f"/>
    <path id="Trazado_1261929" data-name="Trazado 1261929" d="M-28.355-9.953-25.1-1.832l3.254-8.121h1.7V0h-1.312V-3.876l.123-4.184L-24.6,0h-1l-3.261-8.039.13,4.163V0h-1.312V-9.953Zm9.994,6.187a4.369,4.369,0,0,1,.427-1.955,3.187,3.187,0,0,1,1.189-1.34A3.238,3.238,0,0,1-15-7.533a3.119,3.119,0,0,1,2.444,1.046,4.024,4.024,0,0,1,.933,2.782v.089a4.407,4.407,0,0,1-.414,1.938A3.14,3.14,0,0,1-13.224-.342a3.275,3.275,0,0,1-1.767.479A3.111,3.111,0,0,1-17.428-.909a4,4,0,0,1-.933-2.769Zm1.271.15a3.164,3.164,0,0,0,.571,1.976A1.827,1.827,0,0,0-14.991-.9a1.816,1.816,0,0,0,1.531-.755,3.46,3.46,0,0,0,.567-2.116,3.159,3.159,0,0,0-.578-1.972A1.836,1.836,0,0,0-15-6.494a1.816,1.816,0,0,0-1.511.745A3.434,3.434,0,0,0-17.09-3.616Zm6.74-.144A4.333,4.333,0,0,1-9.543-6.5,2.551,2.551,0,0,1-7.431-7.533a2.565,2.565,0,0,1,2.058.889V-10.5h1.265V0H-5.271l-.062-.793a2.575,2.575,0,0,1-2.112.93A2.526,2.526,0,0,1-9.54-.916a4.382,4.382,0,0,1-.81-2.748Zm1.265.144a3.281,3.281,0,0,0,.52,1.969A1.68,1.68,0,0,0-7.13-.937a1.845,1.845,0,0,0,1.757-1.08v-3.4A1.859,1.859,0,0,0-7.116-6.46a1.687,1.687,0,0,0-1.449.718A3.612,3.612,0,0,0-9.085-3.616ZM.923.137A3.232,3.232,0,0,1-1.524-.851a3.666,3.666,0,0,1-.943-2.642v-.232a4.438,4.438,0,0,1,.42-1.965A3.28,3.28,0,0,1-.872-7.044,2.956,2.956,0,0,1,.766-7.533a2.77,2.77,0,0,1,2.242.95,4.114,4.114,0,0,1,.8,2.721v.526H-1.2A2.629,2.629,0,0,0-.564-1.569,2.009,2.009,0,0,0,.991-.9a2.2,2.2,0,0,0,1.135-.273,2.851,2.851,0,0,0,.813-.725l.772.6A3.106,3.106,0,0,1,.923.137ZM.766-6.494A1.687,1.687,0,0,0-.52-5.937a2.708,2.708,0,0,0-.643,1.562H2.543v-.1a2.409,2.409,0,0,0-.52-1.494A1.588,1.588,0,0,0,.766-6.494ZM6.645,0H5.38V-10.5H6.645Zm6.59,0a2.657,2.657,0,0,1-.178-.779,2.822,2.822,0,0,1-2.105.916A2.611,2.611,0,0,1,9.157-.482a2,2,0,0,1-.7-1.569,2.091,2.091,0,0,1,.878-1.794,4.142,4.142,0,0,1,2.471-.639h1.23v-.581a1.42,1.42,0,0,0-.4-1.056,1.593,1.593,0,0,0-1.169-.393,1.844,1.844,0,0,0-1.135.342,1.007,1.007,0,0,0-.458.827H8.606A1.745,1.745,0,0,1,9-6.416a2.683,2.683,0,0,1,1.066-.817,3.588,3.588,0,0,1,1.48-.3,2.924,2.924,0,0,1,2,.639,2.306,2.306,0,0,1,.752,1.76v3.4a4.162,4.162,0,0,0,.26,1.62V0Zm-2.1-.964a2.223,2.223,0,0,0,1.128-.308,1.861,1.861,0,0,0,.772-.8V-3.589h-.991q-2.324,0-2.324,1.36a1.151,1.151,0,0,0,.4.93A1.524,1.524,0,0,0,11.136-.964Zm4.84-2.8A4.333,4.333,0,0,1,16.782-6.5a2.551,2.551,0,0,1,2.112-1.036,2.565,2.565,0,0,1,2.058.889V-10.5h1.265V0H21.055l-.062-.793a2.575,2.575,0,0,1-2.112.93,2.526,2.526,0,0,1-2.1-1.053,4.382,4.382,0,0,1-.81-2.748Zm1.265.144a3.281,3.281,0,0,0,.52,1.969A1.68,1.68,0,0,0,19.2-.937a1.845,1.845,0,0,0,1.757-1.08v-3.4A1.859,1.859,0,0,0,19.209-6.46a1.687,1.687,0,0,0-1.449.718A3.612,3.612,0,0,0,17.24-3.616Zm6.6-.15a4.369,4.369,0,0,1,.427-1.955,3.187,3.187,0,0,1,1.189-1.34,3.238,3.238,0,0,1,1.74-.472,3.119,3.119,0,0,1,2.444,1.046,4.024,4.024,0,0,1,.933,2.782v.089a4.407,4.407,0,0,1-.414,1.938A3.14,3.14,0,0,1,28.981-.342a3.275,3.275,0,0,1-1.767.479A3.111,3.111,0,0,1,24.777-.909a4,4,0,0,1-.933-2.769Zm1.271.15a3.164,3.164,0,0,0,.571,1.976A1.827,1.827,0,0,0,27.214-.9a1.816,1.816,0,0,0,1.531-.755,3.46,3.46,0,0,0,.567-2.116,3.159,3.159,0,0,0-.578-1.972A1.836,1.836,0,0,0,27.2-6.494a1.816,1.816,0,0,0-1.511.745A3.434,3.434,0,0,0,25.115-3.616Z" transform="translate(797 4600.981)" fill="#12263f"/>
    <path id="Trazado_1261930" data-name="Trazado 1261930" d="M-26.838-4.6h-4.313v3.527h5.011V0h-6.323V-9.953h6.255v1.08h-4.942v3.2h4.313Zm4.4,2.885L-20.61-7.4h1.292L-21.971,0h-.964l-2.68-7.4h1.292ZM-13.638,0a2.657,2.657,0,0,1-.178-.779,2.822,2.822,0,0,1-2.105.916,2.611,2.611,0,0,1-1.794-.619,2,2,0,0,1-.7-1.569,2.091,2.091,0,0,1,.878-1.794,4.142,4.142,0,0,1,2.471-.639h1.23v-.581a1.42,1.42,0,0,0-.4-1.056A1.593,1.593,0,0,0-15.4-6.515a1.844,1.844,0,0,0-1.135.342,1.007,1.007,0,0,0-.458.827h-1.271a1.745,1.745,0,0,1,.393-1.07,2.683,2.683,0,0,1,1.066-.817,3.588,3.588,0,0,1,1.48-.3,2.924,2.924,0,0,1,2,.639,2.306,2.306,0,0,1,.752,1.76v3.4a4.162,4.162,0,0,0,.26,1.62V0Zm-2.1-.964a2.223,2.223,0,0,0,1.128-.308,1.861,1.861,0,0,0,.772-.8V-3.589h-.991q-2.324,0-2.324,1.36a1.151,1.151,0,0,0,.4.93A1.524,1.524,0,0,0-15.736-.964ZM-9.215,0h-1.265V-10.5h1.265Zm6.59-.731A2.686,2.686,0,0,1-4.792.137a2.3,2.3,0,0,1-1.8-.687,2.974,2.974,0,0,1-.625-2.034V-7.4h1.265v4.778q0,1.682,1.367,1.682a1.893,1.893,0,0,0,1.928-1.08V-7.4h1.265V0H-2.6ZM5.093,0a2.657,2.657,0,0,1-.178-.779A2.822,2.822,0,0,1,2.81.137,2.611,2.611,0,0,1,1.015-.482a2,2,0,0,1-.7-1.569,2.091,2.091,0,0,1,.878-1.794,4.142,4.142,0,0,1,2.471-.639h1.23v-.581a1.42,1.42,0,0,0-.4-1.056,1.593,1.593,0,0,0-1.169-.393,1.844,1.844,0,0,0-1.135.342,1.007,1.007,0,0,0-.458.827H.465a1.745,1.745,0,0,1,.393-1.07,2.683,2.683,0,0,1,1.066-.817,3.588,3.588,0,0,1,1.48-.3,2.924,2.924,0,0,1,2,.639,2.306,2.306,0,0,1,.752,1.76v3.4a4.162,4.162,0,0,0,.26,1.62V0Zm-2.1-.964a2.223,2.223,0,0,0,1.128-.308,1.861,1.861,0,0,0,.772-.8V-3.589H3.9q-2.324,0-2.324,1.36a1.151,1.151,0,0,0,.4.93A1.524,1.524,0,0,0,2.994-.964ZM11.108-.9a1.822,1.822,0,0,0,1.183-.41,1.443,1.443,0,0,0,.561-1.025h1.2a2.293,2.293,0,0,1-.437,1.21,2.881,2.881,0,0,1-1.077.916,3.107,3.107,0,0,1-1.425.342,3.047,3.047,0,0,1-2.4-1.008A4.016,4.016,0,0,1,7.813-3.63v-.212a4.453,4.453,0,0,1,.4-1.921A3.02,3.02,0,0,1,9.348-7.068,3.233,3.233,0,0,1,11.1-7.533a2.966,2.966,0,0,1,2.068.745,2.663,2.663,0,0,1,.878,1.935h-1.2a1.743,1.743,0,0,0-.543-1.179A1.691,1.691,0,0,0,11.1-6.494,1.77,1.77,0,0,0,9.608-5.8a3.259,3.259,0,0,0-.53,2.006v.239A3.194,3.194,0,0,0,9.6-1.586,1.779,1.779,0,0,0,11.108-.9Zm5.735.9H15.579V-7.4h1.265ZM15.477-9.358a.755.755,0,0,1,.188-.52.706.706,0,0,1,.557-.212.717.717,0,0,1,.561.212.747.747,0,0,1,.191.52.722.722,0,0,1-.191.513.73.73,0,0,1-.561.205.718.718,0,0,1-.557-.205A.73.73,0,0,1,15.477-9.358Zm3.056,5.592a4.369,4.369,0,0,1,.427-1.955,3.187,3.187,0,0,1,1.189-1.34,3.238,3.238,0,0,1,1.74-.472,3.119,3.119,0,0,1,2.444,1.046,4.024,4.024,0,0,1,.933,2.782v.089a4.407,4.407,0,0,1-.414,1.938A3.14,3.14,0,0,1,23.669-.342,3.275,3.275,0,0,1,21.9.137,3.111,3.111,0,0,1,19.465-.909a4,4,0,0,1-.933-2.769Zm1.271.15a3.164,3.164,0,0,0,.571,1.976A1.827,1.827,0,0,0,21.9-.9a1.816,1.816,0,0,0,1.531-.755A3.46,3.46,0,0,0,24-3.767a3.159,3.159,0,0,0-.578-1.972,1.836,1.836,0,0,0-1.535-.755,1.816,1.816,0,0,0-1.511.745A3.434,3.434,0,0,0,19.8-3.616ZM22.463-10.5h1.531L22.162-8.49H21.144Zm5.585,3.1.041.93A2.7,2.7,0,0,1,30.3-7.533q2.345,0,2.365,2.646V0H31.4V-4.895a1.7,1.7,0,0,0-.366-1.183,1.466,1.466,0,0,0-1.118-.383,1.825,1.825,0,0,0-1.08.328,2.228,2.228,0,0,0-.725.861V0H26.852V-7.4Z" transform="translate(943 4600.981)" fill="#12263f"/>
    <path id="Trazado_1261931" data-name="Trazado 1261931" d="M-33.281,0V-9.953h2.81a4.523,4.523,0,0,1,2.3.574,3.884,3.884,0,0,1,1.542,1.634,5.318,5.318,0,0,1,.55,2.434v.636a5.336,5.336,0,0,1-.543,2.468A3.823,3.823,0,0,1-28.178-.581,4.811,4.811,0,0,1-30.526,0Zm1.313-8.873v7.8h1.381a3.006,3.006,0,0,0,2.362-.943A3.9,3.9,0,0,0-27.381-4.7v-.581a3.957,3.957,0,0,0-.8-2.635,2.835,2.835,0,0,0-2.259-.954ZM-21.229.137a3.232,3.232,0,0,1-2.447-.988,3.666,3.666,0,0,1-.943-2.642v-.232a4.438,4.438,0,0,1,.42-1.965,3.28,3.28,0,0,1,1.176-1.354,2.956,2.956,0,0,1,1.637-.489,2.77,2.77,0,0,1,2.242.95,4.114,4.114,0,0,1,.8,2.721v.526h-5.011a2.629,2.629,0,0,0,.639,1.767A2.009,2.009,0,0,0-21.161-.9a2.2,2.2,0,0,0,1.135-.273,2.851,2.851,0,0,0,.813-.725l.772.6A3.106,3.106,0,0,1-21.229.137Zm-.157-6.631a1.687,1.687,0,0,0-1.285.557,2.708,2.708,0,0,0-.643,1.562h3.705v-.1a2.409,2.409,0,0,0-.52-1.494A1.588,1.588,0,0,0-21.386-6.494Zm8.812,4.532a.931.931,0,0,0-.386-.8,3.718,3.718,0,0,0-1.347-.489,6.367,6.367,0,0,1-1.524-.492,2.169,2.169,0,0,1-.834-.684,1.635,1.635,0,0,1-.27-.943A1.919,1.919,0,0,1-16.167-6.9,3,3,0,0,1-14.2-7.533a3.091,3.091,0,0,1,2.041.649,2.063,2.063,0,0,1,.783,1.661H-12.65a1.142,1.142,0,0,0-.441-.9A1.652,1.652,0,0,0-14.2-6.494a1.729,1.729,0,0,0-1.08.3.947.947,0,0,0-.39.786.767.767,0,0,0,.362.69A4.458,4.458,0,0,0-14-4.272a6.821,6.821,0,0,1,1.535.506,2.239,2.239,0,0,1,.872.708,1.74,1.74,0,0,1,.284,1.008A1.893,1.893,0,0,1-12.1-.461a3.326,3.326,0,0,1-2.058.6,3.725,3.725,0,0,1-1.572-.314,2.557,2.557,0,0,1-1.07-.878,2.117,2.117,0,0,1-.386-1.22h1.265a1.309,1.309,0,0,0,.509,1.008A1.976,1.976,0,0,0-14.161-.9a2.039,2.039,0,0,0,1.152-.291A.893.893,0,0,0-12.575-1.962Zm9.16-1.654A4.429,4.429,0,0,1-4.187-.9,2.476,2.476,0,0,1-6.279.137,2.713,2.713,0,0,1-8.4-.718V2.844H-9.663V-7.4h1.155l.062.82A2.605,2.605,0,0,1-6.3-7.533a2.522,2.522,0,0,1,2.109,1,4.477,4.477,0,0,1,.776,2.8ZM-4.679-3.76a3.268,3.268,0,0,0-.533-1.976A1.718,1.718,0,0,0-6.675-6.46,1.859,1.859,0,0,0-8.4-5.441v3.534A1.863,1.863,0,0,0-6.662-.9a1.71,1.71,0,0,0,1.446-.721A3.567,3.567,0,0,0-4.679-3.76ZM-.434,0H-1.7V-10.5H-.434Zm3.4,0H1.7V-7.4H2.963ZM1.6-9.358a.755.755,0,0,1,.188-.52.706.706,0,0,1,.557-.212.717.717,0,0,1,.561.212.747.747,0,0,1,.191.52.722.722,0,0,1-.191.513.73.73,0,0,1-.561.205.718.718,0,0,1-.557-.205A.73.73,0,0,1,1.6-9.358Zm6.46,9.5A3.232,3.232,0,0,1,5.609-.851a3.666,3.666,0,0,1-.943-2.642v-.232a4.438,4.438,0,0,1,.42-1.965A3.28,3.28,0,0,1,6.262-7.044,2.956,2.956,0,0,1,7.9-7.533a2.77,2.77,0,0,1,2.242.95,4.114,4.114,0,0,1,.8,2.721v.526H5.93a2.629,2.629,0,0,0,.639,1.767A2.009,2.009,0,0,0,8.125-.9a2.2,2.2,0,0,0,1.135-.273,2.851,2.851,0,0,0,.813-.725l.772.6A3.106,3.106,0,0,1,8.056.137ZM7.9-6.494a1.687,1.687,0,0,0-1.285.557,2.708,2.708,0,0,0-.643,1.562H9.676v-.1a2.409,2.409,0,0,0-.52-1.494A1.588,1.588,0,0,0,7.9-6.494ZM12.1-3.76a4.347,4.347,0,0,1,.8-2.751,2.558,2.558,0,0,1,2.119-1.022,2.544,2.544,0,0,1,2.112.957L17.2-7.4h1.155V-.178A3.009,3.009,0,0,1,17.5,2.085a3.141,3.141,0,0,1-2.287.827,3.8,3.8,0,0,1-1.565-.342,2.7,2.7,0,0,1-1.169-.937l.656-.759a2.473,2.473,0,0,0,1.989,1,1.938,1.938,0,0,0,1.439-.52A1.986,1.986,0,0,0,17.08-.1V-.738a2.6,2.6,0,0,1-2.071.875,2.527,2.527,0,0,1-2.1-1.046A4.571,4.571,0,0,1,12.1-3.76Zm1.271.144a3.316,3.316,0,0,0,.513,1.965,1.666,1.666,0,0,0,1.436.714A1.852,1.852,0,0,0,17.08-2.023V-5.4a1.874,1.874,0,0,0-1.743-1.06,1.681,1.681,0,0,0-1.442.718A3.612,3.612,0,0,0,13.375-3.616ZM24.825-.731a2.686,2.686,0,0,1-2.167.868,2.3,2.3,0,0,1-1.8-.687,2.974,2.974,0,0,1-.625-2.034V-7.4H21.5v4.778q0,1.682,1.367,1.682a1.893,1.893,0,0,0,1.928-1.08V-7.4h1.265V0h-1.2Zm6.221.868A3.232,3.232,0,0,1,28.6-.851a3.666,3.666,0,0,1-.943-2.642v-.232a4.438,4.438,0,0,1,.42-1.965,3.28,3.28,0,0,1,1.176-1.354,2.956,2.956,0,0,1,1.637-.489,2.77,2.77,0,0,1,2.242.95,4.114,4.114,0,0,1,.8,2.721v.526H28.919a2.629,2.629,0,0,0,.639,1.767A2.009,2.009,0,0,0,31.114-.9a2.2,2.2,0,0,0,1.135-.273,2.851,2.851,0,0,0,.813-.725l.772.6A3.106,3.106,0,0,1,31.045.137Zm-.157-6.631a1.687,1.687,0,0,0-1.285.557,2.708,2.708,0,0,0-.643,1.562h3.705v-.1a2.409,2.409,0,0,0-.52-1.494A1.588,1.588,0,0,0,30.888-6.494Z" transform="translate(1061 4600.981)" fill="#12263f"/>
    <path id="Trazado_1261932" data-name="Trazado 1261932" d="M-21.42-4.026h-2.338V0h-1.319V-9.953h3.295a3.9,3.9,0,0,1,2.587.766,2.755,2.755,0,0,1,.906,2.229,2.68,2.68,0,0,1-.5,1.62,3,3,0,0,1-1.4,1.032l2.338,4.225V0H-19.26ZM-23.758-5.1h2.017a2.277,2.277,0,0,0,1.555-.506,1.709,1.709,0,0,0,.578-1.354,1.8,1.8,0,0,0-.55-1.415,2.333,2.333,0,0,0-1.589-.5h-2.01ZM-13.58.137a3.232,3.232,0,0,1-2.447-.988,3.666,3.666,0,0,1-.943-2.642v-.232a4.438,4.438,0,0,1,.42-1.965,3.28,3.28,0,0,1,1.176-1.354,2.956,2.956,0,0,1,1.637-.489,2.77,2.77,0,0,1,2.242.95,4.114,4.114,0,0,1,.8,2.721v.526h-5.011a2.629,2.629,0,0,0,.639,1.767A2.009,2.009,0,0,0-13.511-.9a2.2,2.2,0,0,0,1.135-.273,2.851,2.851,0,0,0,.813-.725l.772.6A3.106,3.106,0,0,1-13.58.137Zm-.157-6.631a1.687,1.687,0,0,0-1.285.557,2.708,2.708,0,0,0-.643,1.562h3.705v-.1a2.409,2.409,0,0,0-.52-1.494A1.588,1.588,0,0,0-13.737-6.494ZM-6.88-1.716-5.048-7.4h1.292L-6.409,0h-.964l-2.68-7.4H-8.76ZM-1.166,0H-2.43V-7.4h1.265ZM-2.533-9.358a.755.755,0,0,1,.188-.52.706.706,0,0,1,.557-.212.717.717,0,0,1,.561.212.747.747,0,0,1,.191.52.722.722,0,0,1-.191.513.73.73,0,0,1-.561.205.718.718,0,0,1-.557-.205A.73.73,0,0,1-2.533-9.358Zm7.7,7.4a.931.931,0,0,0-.386-.8,3.718,3.718,0,0,0-1.347-.489,6.367,6.367,0,0,1-1.524-.492,2.169,2.169,0,0,1-.834-.684A1.635,1.635,0,0,1,.8-5.366,1.919,1.919,0,0,1,1.572-6.9a3,3,0,0,1,1.965-.629,3.091,3.091,0,0,1,2.041.649,2.063,2.063,0,0,1,.783,1.661H5.089a1.142,1.142,0,0,0-.441-.9,1.652,1.652,0,0,0-1.111-.376,1.729,1.729,0,0,0-1.08.3.947.947,0,0,0-.39.786.767.767,0,0,0,.362.69,4.458,4.458,0,0,0,1.309.444,6.821,6.821,0,0,1,1.535.506,2.239,2.239,0,0,1,.872.708,1.74,1.74,0,0,1,.284,1.008A1.893,1.893,0,0,1,5.636-.461a3.326,3.326,0,0,1-2.058.6A3.725,3.725,0,0,1,2.006-.178a2.557,2.557,0,0,1-1.07-.878A2.117,2.117,0,0,1,.55-2.276H1.815a1.309,1.309,0,0,0,.509,1.008A1.976,1.976,0,0,0,3.579-.9,2.039,2.039,0,0,0,4.73-1.186.893.893,0,0,0,5.165-1.962ZM9.451,0H8.186V-7.4H9.451ZM8.083-9.358a.755.755,0,0,1,.188-.52.706.706,0,0,1,.557-.212.717.717,0,0,1,.561.212.747.747,0,0,1,.191.52.722.722,0,0,1-.191.513.73.73,0,0,1-.561.205.718.718,0,0,1-.557-.205A.73.73,0,0,1,8.083-9.358Zm3.056,5.592a4.369,4.369,0,0,1,.427-1.955,3.187,3.187,0,0,1,1.189-1.34,3.238,3.238,0,0,1,1.74-.472,3.119,3.119,0,0,1,2.444,1.046,4.024,4.024,0,0,1,.933,2.782v.089a4.407,4.407,0,0,1-.414,1.938A3.14,3.14,0,0,1,16.276-.342a3.275,3.275,0,0,1-1.767.479A3.111,3.111,0,0,1,12.072-.909a4,4,0,0,1-.933-2.769Zm1.271.15a3.164,3.164,0,0,0,.571,1.976A1.827,1.827,0,0,0,14.509-.9a1.816,1.816,0,0,0,1.531-.755,3.46,3.46,0,0,0,.567-2.116,3.159,3.159,0,0,0-.578-1.972A1.836,1.836,0,0,0,14.5-6.494a1.816,1.816,0,0,0-1.511.745A3.434,3.434,0,0,0,12.411-3.616ZM15.07-10.5H16.6L14.769-8.49H13.75Zm5.585,3.1.041.93a2.7,2.7,0,0,1,2.215-1.066q2.345,0,2.365,2.646V0H24.011V-4.895a1.7,1.7,0,0,0-.366-1.183,1.466,1.466,0,0,0-1.118-.383,1.825,1.825,0,0,0-1.08.328,2.228,2.228,0,0,0-.725.861V0H19.458V-7.4Z" transform="translate(1129 4655.981)" fill="#12263f"/>
    <path id="Trazado_1261933" data-name="Trazado 1261933" d="M-32.987,0V-9.953h2.81a4.523,4.523,0,0,1,2.3.574,3.884,3.884,0,0,1,1.542,1.634,5.318,5.318,0,0,1,.55,2.434v.636a5.336,5.336,0,0,1-.543,2.468A3.823,3.823,0,0,1-27.884-.581,4.811,4.811,0,0,1-30.232,0Zm1.313-8.873v7.8h1.381a3.006,3.006,0,0,0,2.362-.943A3.9,3.9,0,0,0-27.087-4.7v-.581a3.957,3.957,0,0,0-.8-2.635,2.835,2.835,0,0,0-2.259-.954ZM-20.935.137a3.232,3.232,0,0,1-2.447-.988,3.666,3.666,0,0,1-.943-2.642v-.232a4.438,4.438,0,0,1,.42-1.965,3.28,3.28,0,0,1,1.176-1.354,2.956,2.956,0,0,1,1.637-.489,2.77,2.77,0,0,1,2.242.95,4.114,4.114,0,0,1,.8,2.721v.526h-5.011a2.629,2.629,0,0,0,.639,1.767A2.009,2.009,0,0,0-20.867-.9a2.2,2.2,0,0,0,1.135-.273,2.851,2.851,0,0,0,.813-.725l.772.6A3.106,3.106,0,0,1-20.935.137Zm-.157-6.631a1.687,1.687,0,0,0-1.285.557,2.708,2.708,0,0,0-.643,1.562h3.705v-.1a2.409,2.409,0,0,0-.52-1.494A1.588,1.588,0,0,0-21.092-6.494Zm7.472,5.6a1.822,1.822,0,0,0,1.183-.41,1.443,1.443,0,0,0,.561-1.025h1.2a2.293,2.293,0,0,1-.437,1.21A2.881,2.881,0,0,1-12.2-.205a3.107,3.107,0,0,1-1.425.342,3.047,3.047,0,0,1-2.4-1.008,4.016,4.016,0,0,1-.892-2.758v-.212a4.453,4.453,0,0,1,.4-1.921,3.02,3.02,0,0,1,1.138-1.306,3.233,3.233,0,0,1,1.753-.465,2.966,2.966,0,0,1,2.068.745,2.663,2.663,0,0,1,.878,1.935h-1.2a1.743,1.743,0,0,0-.543-1.179,1.691,1.691,0,0,0-1.207-.461,1.77,1.77,0,0,0-1.494.694,3.259,3.259,0,0,0-.53,2.006v.239a3.194,3.194,0,0,0,.526,1.969A1.779,1.779,0,0,0-13.621-.9Zm5.735.9H-9.15V-7.4h1.265ZM-9.252-9.358a.755.755,0,0,1,.188-.52.706.706,0,0,1,.557-.212.717.717,0,0,1,.561.212.747.747,0,0,1,.191.52.722.722,0,0,1-.191.513.73.73,0,0,1-.561.205.718.718,0,0,1-.557-.205A.73.73,0,0,1-9.252-9.358Zm7.7,7.4a.931.931,0,0,0-.386-.8,3.718,3.718,0,0,0-1.347-.489,6.367,6.367,0,0,1-1.524-.492,2.169,2.169,0,0,1-.834-.684,1.635,1.635,0,0,1-.27-.943A1.919,1.919,0,0,1-5.147-6.9a3,3,0,0,1,1.965-.629,3.091,3.091,0,0,1,2.041.649A2.063,2.063,0,0,1-.359-5.223H-1.63a1.142,1.142,0,0,0-.441-.9,1.652,1.652,0,0,0-1.111-.376,1.729,1.729,0,0,0-1.08.3.947.947,0,0,0-.39.786.767.767,0,0,0,.362.69,4.458,4.458,0,0,0,1.309.444,6.821,6.821,0,0,1,1.535.506,2.239,2.239,0,0,1,.872.708A1.74,1.74,0,0,1-.291-2.051,1.893,1.893,0,0,1-1.083-.461a3.326,3.326,0,0,1-2.058.6A3.725,3.725,0,0,1-4.713-.178a2.557,2.557,0,0,1-1.07-.878,2.117,2.117,0,0,1-.386-1.22H-4.9A1.309,1.309,0,0,0-4.4-1.268,1.976,1.976,0,0,0-3.141-.9a2.039,2.039,0,0,0,1.152-.291A.893.893,0,0,0-1.555-1.962ZM2.731,0H1.466V-7.4H2.731ZM1.364-9.358a.755.755,0,0,1,.188-.52.706.706,0,0,1,.557-.212.717.717,0,0,1,.561.212.747.747,0,0,1,.191.52.722.722,0,0,1-.191.513.73.73,0,0,1-.561.205.718.718,0,0,1-.557-.205A.73.73,0,0,1,1.364-9.358ZM4.419-3.767a4.369,4.369,0,0,1,.427-1.955,3.187,3.187,0,0,1,1.189-1.34,3.238,3.238,0,0,1,1.74-.472A3.119,3.119,0,0,1,10.22-6.487a4.024,4.024,0,0,1,.933,2.782v.089a4.407,4.407,0,0,1-.414,1.938A3.14,3.14,0,0,1,9.557-.342,3.275,3.275,0,0,1,7.79.137,3.111,3.111,0,0,1,5.353-.909a4,4,0,0,1-.933-2.769Zm1.271.15a3.164,3.164,0,0,0,.571,1.976A1.827,1.827,0,0,0,7.79-.9a1.816,1.816,0,0,0,1.531-.755,3.46,3.46,0,0,0,.567-2.116,3.159,3.159,0,0,0-.578-1.972,1.836,1.836,0,0,0-1.535-.755,1.816,1.816,0,0,0-1.511.745A3.434,3.434,0,0,0,5.691-3.616ZM13.935-7.4l.041.93a2.7,2.7,0,0,1,2.215-1.066q2.345,0,2.365,2.646V0H17.292V-4.895a1.7,1.7,0,0,0-.366-1.183,1.466,1.466,0,0,0-1.118-.383,1.825,1.825,0,0,0-1.08.328A2.228,2.228,0,0,0,14-5.271V0H12.739V-7.4Zm9.6,7.533a3.232,3.232,0,0,1-2.447-.988,3.666,3.666,0,0,1-.943-2.642v-.232a4.438,4.438,0,0,1,.42-1.965,3.28,3.28,0,0,1,1.176-1.354,2.956,2.956,0,0,1,1.637-.489,2.77,2.77,0,0,1,2.242.95,4.114,4.114,0,0,1,.8,2.721v.526H21.407a2.629,2.629,0,0,0,.639,1.767A2.009,2.009,0,0,0,23.6-.9a2.2,2.2,0,0,0,1.135-.273,2.851,2.851,0,0,0,.813-.725l.772.6A3.106,3.106,0,0,1,23.533.137Zm-.157-6.631a1.687,1.687,0,0,0-1.285.557,2.708,2.708,0,0,0-.643,1.562h3.705v-.1a2.409,2.409,0,0,0-.52-1.494A1.588,1.588,0,0,0,23.375-6.494Zm8.812,4.532a.931.931,0,0,0-.386-.8,3.718,3.718,0,0,0-1.347-.489,6.367,6.367,0,0,1-1.524-.492,2.169,2.169,0,0,1-.834-.684,1.635,1.635,0,0,1-.27-.943A1.919,1.919,0,0,1,28.595-6.9a3,3,0,0,1,1.965-.629,3.091,3.091,0,0,1,2.041.649,2.063,2.063,0,0,1,.783,1.661H32.112a1.142,1.142,0,0,0-.441-.9,1.652,1.652,0,0,0-1.111-.376,1.729,1.729,0,0,0-1.08.3.947.947,0,0,0-.39.786.767.767,0,0,0,.362.69,4.458,4.458,0,0,0,1.309.444,6.821,6.821,0,0,1,1.535.506,2.239,2.239,0,0,1,.872.708,1.74,1.74,0,0,1,.284,1.008,1.893,1.893,0,0,1-.793,1.589,3.326,3.326,0,0,1-2.058.6,3.725,3.725,0,0,1-1.572-.314,2.557,2.557,0,0,1-1.07-.878,2.117,2.117,0,0,1-.386-1.22h1.265a1.309,1.309,0,0,0,.509,1.008A1.976,1.976,0,0,0,30.6-.9a2.039,2.039,0,0,0,1.152-.291A.893.893,0,0,0,32.187-1.962Z" transform="translate(1129 4564.981)" fill="#12263f"/>
    <path id="Trazado_1261934" data-name="Trazado 1261934" d="M-34.9-3.158A3.662,3.662,0,0,1-36.07-.721a3.82,3.82,0,0,1-2.608.858A3.507,3.507,0,0,1-41.5-1.128a5.088,5.088,0,0,1-1.063-3.384v-.957a5.671,5.671,0,0,1,.5-2.44,3.7,3.7,0,0,1,1.4-1.617,3.911,3.911,0,0,1,2.105-.564,3.6,3.6,0,0,1,2.543.885A3.706,3.706,0,0,1-34.9-6.754h-1.319a2.847,2.847,0,0,0-.742-1.723,2.248,2.248,0,0,0-1.6-.533,2.349,2.349,0,0,0-1.972.93,4.265,4.265,0,0,0-.714,2.646v.964a4.384,4.384,0,0,0,.677,2.577,2.187,2.187,0,0,0,1.894.957A2.526,2.526,0,0,0-37-1.432a2.75,2.75,0,0,0,.776-1.726Zm1.258-.608a4.369,4.369,0,0,1,.427-1.955,3.187,3.187,0,0,1,1.189-1.34,3.238,3.238,0,0,1,1.74-.472,3.119,3.119,0,0,1,2.444,1.046,4.024,4.024,0,0,1,.933,2.782v.089a4.407,4.407,0,0,1-.414,1.938A3.14,3.14,0,0,1-28.509-.342a3.275,3.275,0,0,1-1.767.479A3.111,3.111,0,0,1-32.713-.909a4,4,0,0,1-.933-2.769Zm1.271.15A3.164,3.164,0,0,0-31.8-1.641,1.827,1.827,0,0,0-30.276-.9a1.816,1.816,0,0,0,1.531-.755,3.46,3.46,0,0,0,.567-2.116,3.159,3.159,0,0,0-.578-1.972,1.836,1.836,0,0,0-1.535-.755,1.816,1.816,0,0,0-1.511.745A3.434,3.434,0,0,0-32.375-3.616Zm8.244-3.78.041.93a2.7,2.7,0,0,1,2.215-1.066q2.345,0,2.365,2.646V0h-1.265V-4.895a1.7,1.7,0,0,0-.366-1.183,1.466,1.466,0,0,0-1.118-.383,1.825,1.825,0,0,0-1.08.328,2.228,2.228,0,0,0-.725.861V0h-1.265V-7.4Zm6.193,3.63a4.369,4.369,0,0,1,.427-1.955,3.187,3.187,0,0,1,1.189-1.34,3.238,3.238,0,0,1,1.74-.472,3.119,3.119,0,0,1,2.444,1.046A4.024,4.024,0,0,1-11.2-3.705v.089a4.407,4.407,0,0,1-.414,1.938A3.14,3.14,0,0,1-12.8-.342a3.275,3.275,0,0,1-1.767.479A3.111,3.111,0,0,1-17-.909a4,4,0,0,1-.933-2.769Zm1.271.15A3.164,3.164,0,0,0-16.1-1.641,1.827,1.827,0,0,0-14.567-.9a1.816,1.816,0,0,0,1.531-.755,3.46,3.46,0,0,0,.567-2.116,3.159,3.159,0,0,0-.578-1.972,1.836,1.836,0,0,0-1.535-.755,1.816,1.816,0,0,0-1.511.745A3.434,3.434,0,0,0-16.666-3.616ZM-6.651-.9a1.822,1.822,0,0,0,1.183-.41,1.443,1.443,0,0,0,.561-1.025h1.2a2.293,2.293,0,0,1-.437,1.21,2.881,2.881,0,0,1-1.077.916A3.107,3.107,0,0,1-6.651.137a3.047,3.047,0,0,1-2.4-1.008A4.016,4.016,0,0,1-9.946-3.63v-.212a4.453,4.453,0,0,1,.4-1.921A3.02,3.02,0,0,1-8.412-7.068a3.233,3.233,0,0,1,1.753-.465,2.966,2.966,0,0,1,2.068.745,2.663,2.663,0,0,1,.878,1.935h-1.2a1.743,1.743,0,0,0-.543-1.179,1.691,1.691,0,0,0-1.207-.461A1.77,1.77,0,0,0-8.152-5.8a3.259,3.259,0,0,0-.53,2.006v.239a3.194,3.194,0,0,0,.526,1.969A1.779,1.779,0,0,0-6.651-.9ZM-.916,0H-2.181V-7.4H-.916ZM-2.283-9.358a.755.755,0,0,1,.188-.52.706.706,0,0,1,.557-.212.717.717,0,0,1,.561.212.747.747,0,0,1,.191.52.722.722,0,0,1-.191.513.73.73,0,0,1-.561.205A.718.718,0,0,1-2.1-8.846.73.73,0,0,1-2.283-9.358ZM2.3-7.4l.034.82a2.732,2.732,0,0,1,2.194-.957A2.115,2.115,0,0,1,6.638-6.344a2.8,2.8,0,0,1,.96-.861A2.837,2.837,0,0,1,9-7.533q2.434,0,2.475,2.577V0H10.206V-4.881a1.7,1.7,0,0,0-.362-1.186A1.6,1.6,0,0,0,8.627-6.46a1.677,1.677,0,0,0-1.169.42,1.706,1.706,0,0,0-.54,1.131V0H5.646V-4.847A1.411,1.411,0,0,0,4.067-6.46a1.692,1.692,0,0,0-1.7,1.06V0H1.1V-7.4ZM14.752,0H13.487V-7.4h1.265ZM13.385-9.358a.755.755,0,0,1,.188-.52.706.706,0,0,1,.557-.212.717.717,0,0,1,.561.212.747.747,0,0,1,.191.52.722.722,0,0,1-.191.513.73.73,0,0,1-.561.205.718.718,0,0,1-.557-.205A.73.73,0,0,1,13.385-9.358Zm6.46,9.5A3.232,3.232,0,0,1,17.4-.851a3.666,3.666,0,0,1-.943-2.642v-.232a4.438,4.438,0,0,1,.42-1.965A3.28,3.28,0,0,1,18.05-7.044a2.956,2.956,0,0,1,1.637-.489,2.77,2.77,0,0,1,2.242.95,4.114,4.114,0,0,1,.8,2.721v.526H17.719a2.629,2.629,0,0,0,.639,1.767A2.009,2.009,0,0,0,19.913-.9a2.2,2.2,0,0,0,1.135-.273,2.851,2.851,0,0,0,.813-.725l.772.6A3.106,3.106,0,0,1,19.845.137Zm-.157-6.631a1.687,1.687,0,0,0-1.285.557,2.708,2.708,0,0,0-.643,1.562h3.705v-.1a2.409,2.409,0,0,0-.52-1.494A1.588,1.588,0,0,0,19.688-6.494Zm5.7-.9.041.93a2.7,2.7,0,0,1,2.215-1.066q2.345,0,2.365,2.646V0H28.745V-4.895a1.7,1.7,0,0,0-.366-1.183,1.466,1.466,0,0,0-1.118-.383,1.825,1.825,0,0,0-1.08.328,2.228,2.228,0,0,0-.725.861V0H24.192V-7.4Zm8.244-1.791V-7.4h1.381v.978H33.633v4.587a1.024,1.024,0,0,0,.185.667.777.777,0,0,0,.629.222,3.062,3.062,0,0,0,.6-.082V0a3.666,3.666,0,0,1-.971.137A1.575,1.575,0,0,1,32.8-.376a2.2,2.2,0,0,1-.431-1.456V-6.419H31.021V-7.4h1.347V-9.187Zm2.386,5.421a4.369,4.369,0,0,1,.427-1.955,3.187,3.187,0,0,1,1.189-1.34,3.238,3.238,0,0,1,1.74-.472,3.119,3.119,0,0,1,2.444,1.046,4.024,4.024,0,0,1,.933,2.782v.089a4.407,4.407,0,0,1-.414,1.938A3.14,3.14,0,0,1,41.156-.342a3.275,3.275,0,0,1-1.767.479A3.111,3.111,0,0,1,36.952-.909a4,4,0,0,1-.933-2.769Zm1.271.15a3.164,3.164,0,0,0,.571,1.976A1.827,1.827,0,0,0,39.389-.9a1.816,1.816,0,0,0,1.531-.755,3.46,3.46,0,0,0,.567-2.116,3.159,3.159,0,0,0-.578-1.972,1.836,1.836,0,0,0-1.535-.755,1.816,1.816,0,0,0-1.511.745A3.434,3.434,0,0,0,37.29-3.616Z" transform="translate(995 4564.981)" fill="#12263f"/>
    <path id="Trazado_1261935" data-name="Trazado 1261935" d="M-25.478-3.9V0H-26.79V-9.953h3.671a3.688,3.688,0,0,1,2.56.834,2.827,2.827,0,0,1,.926,2.208,2.79,2.79,0,0,1-.906,2.232,3.853,3.853,0,0,1-2.594.783Zm0-1.073h2.358a2.361,2.361,0,0,0,1.613-.5A1.811,1.811,0,0,0-20.945-6.9a1.871,1.871,0,0,0-.561-1.422,2.212,2.212,0,0,0-1.538-.554h-2.434ZM-13.665,0a2.657,2.657,0,0,1-.178-.779,2.822,2.822,0,0,1-2.105.916,2.611,2.611,0,0,1-1.794-.619,2,2,0,0,1-.7-1.569,2.091,2.091,0,0,1,.878-1.794,4.142,4.142,0,0,1,2.471-.639h1.23v-.581a1.42,1.42,0,0,0-.4-1.056,1.593,1.593,0,0,0-1.169-.393,1.844,1.844,0,0,0-1.135.342,1.007,1.007,0,0,0-.458.827h-1.271a1.745,1.745,0,0,1,.393-1.07,2.683,2.683,0,0,1,1.066-.817,3.588,3.588,0,0,1,1.48-.3,2.924,2.924,0,0,1,2,.639,2.306,2.306,0,0,1,.752,1.76v3.4a4.162,4.162,0,0,0,.26,1.62V0Zm-2.1-.964a2.223,2.223,0,0,0,1.128-.308,1.861,1.861,0,0,0,.772-.8V-3.589h-.991q-2.324,0-2.324,1.36a1.151,1.151,0,0,0,.4.93A1.524,1.524,0,0,0-15.764-.964ZM-8.9-9.187V-7.4H-7.52v.978H-8.9v4.587a1.024,1.024,0,0,0,.185.667.777.777,0,0,0,.629.222,3.062,3.062,0,0,0,.6-.082V0a3.666,3.666,0,0,1-.971.137A1.575,1.575,0,0,1-9.734-.376a2.2,2.2,0,0,1-.431-1.456V-6.419h-1.347V-7.4h1.347V-9.187Zm6.433,2.926A3.79,3.79,0,0,0-3.09-6.31,1.667,1.667,0,0,0-4.778-5.25V0H-6.043V-7.4h1.23l.021.854a1.969,1.969,0,0,1,1.764-.991,1.292,1.292,0,0,1,.561.1Zm.69,2.5A4.369,4.369,0,0,1-1.35-5.722,3.187,3.187,0,0,1-.161-7.062a3.238,3.238,0,0,1,1.74-.472A3.119,3.119,0,0,1,4.023-6.487a4.024,4.024,0,0,1,.933,2.782v.089a4.407,4.407,0,0,1-.414,1.938A3.14,3.14,0,0,1,3.36-.342,3.275,3.275,0,0,1,1.593.137,3.111,3.111,0,0,1-.844-.909a4,4,0,0,1-.933-2.769Zm1.271.15A3.164,3.164,0,0,0,.065-1.641,1.827,1.827,0,0,0,1.593-.9a1.816,1.816,0,0,0,1.531-.755,3.46,3.46,0,0,0,.567-2.116,3.159,3.159,0,0,0-.578-1.972,1.836,1.836,0,0,0-1.535-.755,1.816,1.816,0,0,0-1.511.745A3.434,3.434,0,0,0-.506-3.616ZM7.738-7.4l.041.93A2.7,2.7,0,0,1,9.994-7.533q2.345,0,2.365,2.646V0H11.095V-4.895a1.7,1.7,0,0,0-.366-1.183A1.466,1.466,0,0,0,9.611-6.46a1.825,1.825,0,0,0-1.08.328,2.228,2.228,0,0,0-.725.861V0H6.542V-7.4Zm9.6,7.533a3.232,3.232,0,0,1-2.447-.988,3.666,3.666,0,0,1-.943-2.642v-.232a4.438,4.438,0,0,1,.42-1.965,3.28,3.28,0,0,1,1.176-1.354,2.956,2.956,0,0,1,1.637-.489,2.77,2.77,0,0,1,2.242.95,4.114,4.114,0,0,1,.8,2.721v.526H15.21a2.629,2.629,0,0,0,.639,1.767A2.009,2.009,0,0,0,17.4-.9a2.2,2.2,0,0,0,1.135-.273,2.851,2.851,0,0,0,.813-.725l.772.6A3.106,3.106,0,0,1,17.336.137Zm-.157-6.631a1.687,1.687,0,0,0-1.285.557,2.708,2.708,0,0,0-.643,1.562h3.705v-.1a2.409,2.409,0,0,0-.52-1.494A1.588,1.588,0,0,0,17.179-6.494ZM25.99-1.962a.931.931,0,0,0-.386-.8,3.718,3.718,0,0,0-1.347-.489,6.367,6.367,0,0,1-1.524-.492,2.169,2.169,0,0,1-.834-.684,1.635,1.635,0,0,1-.27-.943A1.919,1.919,0,0,1,22.4-6.9a3,3,0,0,1,1.965-.629,3.091,3.091,0,0,1,2.041.649,2.063,2.063,0,0,1,.783,1.661H25.915a1.142,1.142,0,0,0-.441-.9,1.652,1.652,0,0,0-1.111-.376,1.729,1.729,0,0,0-1.08.3.947.947,0,0,0-.39.786.767.767,0,0,0,.362.69,4.458,4.458,0,0,0,1.309.444,6.821,6.821,0,0,1,1.535.506,2.239,2.239,0,0,1,.872.708,1.74,1.74,0,0,1,.284,1.008,1.893,1.893,0,0,1-.793,1.589,3.326,3.326,0,0,1-2.058.6,3.725,3.725,0,0,1-1.572-.314,2.557,2.557,0,0,1-1.07-.878,2.117,2.117,0,0,1-.386-1.22h1.265a1.309,1.309,0,0,0,.509,1.008A1.976,1.976,0,0,0,24.4-.9a2.039,2.039,0,0,0,1.152-.291A.893.893,0,0,0,25.99-1.962Z" transform="translate(870 4564.981)" fill="#12263f"/>
    <path id="Trazado_1261936" data-name="Trazado 1261936" d="M-37.977-1.743l2.844-8.21H-33.7L-37.389,0h-1.162l-3.685-9.953h1.429ZM-31.189,0h-1.265V-7.4h1.265Zm-1.367-9.358a.755.755,0,0,1,.188-.52.706.706,0,0,1,.557-.212.717.717,0,0,1,.561.212.747.747,0,0,1,.191.52.722.722,0,0,1-.191.513.73.73,0,0,1-.561.205.718.718,0,0,1-.557-.205A.73.73,0,0,1-32.556-9.358Zm7.7,7.4a.931.931,0,0,0-.386-.8,3.718,3.718,0,0,0-1.347-.489,6.367,6.367,0,0,1-1.524-.492,2.169,2.169,0,0,1-.834-.684,1.635,1.635,0,0,1-.27-.943A1.919,1.919,0,0,1-28.451-6.9a3,3,0,0,1,1.965-.629,3.091,3.091,0,0,1,2.041.649,2.063,2.063,0,0,1,.783,1.661h-1.271a1.142,1.142,0,0,0-.441-.9,1.652,1.652,0,0,0-1.111-.376,1.729,1.729,0,0,0-1.08.3.947.947,0,0,0-.39.786.767.767,0,0,0,.362.69,4.458,4.458,0,0,0,1.309.444,6.821,6.821,0,0,1,1.535.506,2.239,2.239,0,0,1,.872.708,1.74,1.74,0,0,1,.284,1.008,1.893,1.893,0,0,1-.793,1.589,3.326,3.326,0,0,1-2.058.6,3.725,3.725,0,0,1-1.572-.314,2.557,2.557,0,0,1-1.07-.878,2.117,2.117,0,0,1-.386-1.22h1.265A1.309,1.309,0,0,0-27.7-1.268,1.976,1.976,0,0,0-26.445-.9a2.039,2.039,0,0,0,1.152-.291A.893.893,0,0,0-24.859-1.962Zm4.628-7.226V-7.4h1.381v.978h-1.381v4.587a1.024,1.024,0,0,0,.185.667.777.777,0,0,0,.629.222,3.062,3.062,0,0,0,.6-.082V0a3.666,3.666,0,0,1-.971.137,1.575,1.575,0,0,1-1.278-.513A2.2,2.2,0,0,1-21.5-1.832V-6.419h-1.347V-7.4H-21.5V-9.187ZM-12.807,0a2.657,2.657,0,0,1-.178-.779A2.822,2.822,0,0,1-15.09.137a2.611,2.611,0,0,1-1.794-.619,2,2,0,0,1-.7-1.569,2.091,2.091,0,0,1,.878-1.794,4.142,4.142,0,0,1,2.471-.639h1.23v-.581a1.42,1.42,0,0,0-.4-1.056,1.593,1.593,0,0,0-1.169-.393,1.844,1.844,0,0,0-1.135.342,1.007,1.007,0,0,0-.458.827h-1.271a1.745,1.745,0,0,1,.393-1.07,2.683,2.683,0,0,1,1.066-.817,3.588,3.588,0,0,1,1.48-.3,2.924,2.924,0,0,1,2,.639,2.306,2.306,0,0,1,.752,1.76v3.4a4.162,4.162,0,0,0,.26,1.62V0Zm-2.1-.964a2.223,2.223,0,0,0,1.128-.308,1.861,1.861,0,0,0,.772-.8V-3.589H-14q-2.324,0-2.324,1.36a1.151,1.151,0,0,0,.4.93A1.524,1.524,0,0,0-14.906-.964ZM-5.1-7.4l.034.82a2.732,2.732,0,0,1,2.194-.957A2.115,2.115,0,0,1-.762-6.344,2.8,2.8,0,0,1,.2-7.205a2.837,2.837,0,0,1,1.4-.328q2.434,0,2.475,2.577V0H2.806V-4.881a1.7,1.7,0,0,0-.362-1.186A1.6,1.6,0,0,0,1.227-6.46a1.677,1.677,0,0,0-1.169.42,1.706,1.706,0,0,0-.54,1.131V0H-1.753V-4.847A1.411,1.411,0,0,0-3.333-6.46a1.692,1.692,0,0,0-1.7,1.06V0H-6.3V-7.4ZM7.352,0H6.087V-7.4H7.352ZM5.985-9.358a.755.755,0,0,1,.188-.52.706.706,0,0,1,.557-.212.717.717,0,0,1,.561.212.747.747,0,0,1,.191.52.722.722,0,0,1-.191.513.73.73,0,0,1-.561.205.718.718,0,0,1-.557-.205A.73.73,0,0,1,5.985-9.358ZM10.572-7.4l.041.93a2.7,2.7,0,0,1,2.215-1.066q2.345,0,2.365,2.646V0H13.928V-4.895a1.7,1.7,0,0,0-.366-1.183,1.466,1.466,0,0,0-1.118-.383,1.825,1.825,0,0,0-1.08.328,2.228,2.228,0,0,0-.725.861V0H9.375V-7.4ZM21.667,0a2.657,2.657,0,0,1-.178-.779,2.822,2.822,0,0,1-2.105.916,2.611,2.611,0,0,1-1.794-.619,2,2,0,0,1-.7-1.569,2.091,2.091,0,0,1,.878-1.794,4.142,4.142,0,0,1,2.471-.639h1.23v-.581a1.42,1.42,0,0,0-.4-1.056A1.593,1.593,0,0,0,19.9-6.515a1.844,1.844,0,0,0-1.135.342,1.007,1.007,0,0,0-.458.827H17.039a1.745,1.745,0,0,1,.393-1.07A2.683,2.683,0,0,1,18.5-7.232a3.588,3.588,0,0,1,1.48-.3,2.924,2.924,0,0,1,2,.639,2.306,2.306,0,0,1,.752,1.76v3.4a4.162,4.162,0,0,0,.26,1.62V0Zm-2.1-.964A2.223,2.223,0,0,0,20.7-1.271a1.861,1.861,0,0,0,.772-.8V-3.589h-.991q-2.324,0-2.324,1.36a1.151,1.151,0,0,0,.4.93A1.524,1.524,0,0,0,19.568-.964ZM30.977-3.616A4.4,4.4,0,0,1,30.2-.892,2.49,2.49,0,0,1,28.106.137a2.578,2.578,0,0,1-2.167-.991L25.877,0H24.715V-10.5H25.98v3.917a2.564,2.564,0,0,1,2.112-.95,2.505,2.505,0,0,1,2.116,1.019,4.53,4.53,0,0,1,.769,2.789ZM29.712-3.76a3.417,3.417,0,0,0-.5-2,1.652,1.652,0,0,0-1.436-.7A1.857,1.857,0,0,0,25.98-5.3v3.2A1.909,1.909,0,0,0,27.792-.937a1.643,1.643,0,0,0,1.415-.7A3.634,3.634,0,0,0,29.712-3.76ZM33.944,0H32.679V-10.5h1.265Zm5.093.137a3.232,3.232,0,0,1-2.447-.988,3.666,3.666,0,0,1-.943-2.642v-.232a4.438,4.438,0,0,1,.42-1.965,3.28,3.28,0,0,1,1.176-1.354,2.956,2.956,0,0,1,1.637-.489,2.77,2.77,0,0,1,2.242.95,4.114,4.114,0,0,1,.8,2.721v.526H36.911a2.629,2.629,0,0,0,.639,1.767A2.009,2.009,0,0,0,39.1-.9a2.2,2.2,0,0,0,1.135-.273,2.851,2.851,0,0,0,.813-.725l.772.6A3.106,3.106,0,0,1,39.037.137Zm-.157-6.631a1.687,1.687,0,0,0-1.285.557,2.708,2.708,0,0,0-.643,1.562h3.705v-.1a2.409,2.409,0,0,0-.52-1.494A1.588,1.588,0,0,0,38.879-6.494Z" transform="translate(727 4564.981)" fill="#12263f"/>
    <path id="Trazado_1261937" data-name="Trazado 1261937" d="M-30.181-2.6h-4.17L-35.287,0h-1.354l3.8-9.953h1.148L-27.884,0H-29.23Zm-3.773-1.08h3.384l-1.7-4.655ZM-25.368,0h-1.265V-10.5h1.265Zm3.213-7.4.034.82a2.732,2.732,0,0,1,2.194-.957,2.115,2.115,0,0,1,2.112,1.189,2.8,2.8,0,0,1,.96-.861,2.837,2.837,0,0,1,1.4-.328q2.434,0,2.475,2.577V0h-1.265V-4.881a1.7,1.7,0,0,0-.362-1.186,1.6,1.6,0,0,0-1.217-.393,1.677,1.677,0,0,0-1.169.42,1.706,1.706,0,0,0-.54,1.131V0h-1.271V-4.847A1.411,1.411,0,0,0-20.385-6.46a1.692,1.692,0,0,0-1.7,1.06V0h-1.265V-7.4ZM-6.508,0a2.657,2.657,0,0,1-.178-.779A2.822,2.822,0,0,1-8.791.137a2.611,2.611,0,0,1-1.794-.619,2,2,0,0,1-.7-1.569,2.091,2.091,0,0,1,.878-1.794,4.142,4.142,0,0,1,2.471-.639h1.23v-.581a1.42,1.42,0,0,0-.4-1.056,1.593,1.593,0,0,0-1.169-.393,1.844,1.844,0,0,0-1.135.342,1.007,1.007,0,0,0-.458.827h-1.271a1.745,1.745,0,0,1,.393-1.07,2.683,2.683,0,0,1,1.066-.817,3.588,3.588,0,0,1,1.48-.3,2.924,2.924,0,0,1,2,.639,2.306,2.306,0,0,1,.752,1.76v3.4a4.162,4.162,0,0,0,.26,1.62V0Zm-2.1-.964a2.223,2.223,0,0,0,1.128-.308,1.861,1.861,0,0,0,.772-.8V-3.589H-7.7q-2.324,0-2.324,1.36a1.151,1.151,0,0,0,.4.93A1.524,1.524,0,0,0-8.606-.964ZM-.492-.9A1.822,1.822,0,0,0,.69-1.306a1.443,1.443,0,0,0,.561-1.025h1.2a2.293,2.293,0,0,1-.437,1.21A2.881,2.881,0,0,1,.933-.205,3.107,3.107,0,0,1-.492.137,3.047,3.047,0,0,1-2.9-.872,4.016,4.016,0,0,1-3.787-3.63v-.212a4.453,4.453,0,0,1,.4-1.921A3.02,3.02,0,0,1-2.252-7.068,3.233,3.233,0,0,1-.5-7.533a2.966,2.966,0,0,1,2.068.745,2.663,2.663,0,0,1,.878,1.935h-1.2A1.743,1.743,0,0,0,.708-6.033,1.691,1.691,0,0,0-.5-6.494,1.77,1.77,0,0,0-1.993-5.8a3.259,3.259,0,0,0-.53,2.006v.239A3.194,3.194,0,0,0-2-1.586,1.779,1.779,0,0,0-.492-.9ZM6.938.137A3.232,3.232,0,0,1,4.491-.851a3.666,3.666,0,0,1-.943-2.642v-.232a4.438,4.438,0,0,1,.42-1.965A3.28,3.28,0,0,1,5.144-7.044a2.956,2.956,0,0,1,1.637-.489,2.77,2.77,0,0,1,2.242.95,4.114,4.114,0,0,1,.8,2.721v.526H4.813a2.629,2.629,0,0,0,.639,1.767A2.009,2.009,0,0,0,7.007-.9a2.2,2.2,0,0,0,1.135-.273,2.851,2.851,0,0,0,.813-.725l.772.6A3.106,3.106,0,0,1,6.938.137ZM6.781-6.494A1.687,1.687,0,0,0,5.5-5.937a2.708,2.708,0,0,0-.643,1.562H8.559v-.1a2.409,2.409,0,0,0-.52-1.494A1.588,1.588,0,0,0,6.781-6.494ZM7.4-10.5H8.928L7.1-8.49H6.077Zm5.086,3.1.041.93a2.7,2.7,0,0,1,2.215-1.066q2.345,0,2.365,2.646V0H15.839V-4.895a1.7,1.7,0,0,0-.366-1.183,1.466,1.466,0,0,0-1.118-.383,1.825,1.825,0,0,0-1.08.328,2.228,2.228,0,0,0-.725.861V0H11.286V-7.4ZM22.169-3.76A4.333,4.333,0,0,1,22.976-6.5a2.551,2.551,0,0,1,2.112-1.036,2.565,2.565,0,0,1,2.058.889V-10.5H28.41V0H27.248l-.062-.793a2.575,2.575,0,0,1-2.112.93,2.526,2.526,0,0,1-2.1-1.053,4.382,4.382,0,0,1-.81-2.748Zm1.265.144a3.281,3.281,0,0,0,.52,1.969,1.68,1.68,0,0,0,1.436.711,1.845,1.845,0,0,0,1.757-1.08v-3.4A1.859,1.859,0,0,0,25.4-6.46a1.687,1.687,0,0,0-1.449.718A3.612,3.612,0,0,0,23.434-3.616ZM33.441.137a3.232,3.232,0,0,1-2.447-.988,3.666,3.666,0,0,1-.943-2.642v-.232a4.438,4.438,0,0,1,.42-1.965,3.28,3.28,0,0,1,1.176-1.354,2.956,2.956,0,0,1,1.637-.489,2.77,2.77,0,0,1,2.242.95,4.114,4.114,0,0,1,.8,2.721v.526H31.315a2.629,2.629,0,0,0,.639,1.767A2.009,2.009,0,0,0,33.51-.9a2.2,2.2,0,0,0,1.135-.273,2.851,2.851,0,0,0,.813-.725l.772.6A3.106,3.106,0,0,1,33.441.137Zm-.157-6.631A1.687,1.687,0,0,0,32-5.937a2.708,2.708,0,0,0-.643,1.562h3.705v-.1a2.409,2.409,0,0,0-.52-1.494A1.588,1.588,0,0,0,33.284-6.494ZM-16.926,14.24a4.333,4.333,0,0,1,.807-2.738,2.551,2.551,0,0,1,2.112-1.036,2.565,2.565,0,0,1,2.058.889V7.5h1.265V18h-1.162l-.062-.793a2.575,2.575,0,0,1-2.112.93,2.526,2.526,0,0,1-2.1-1.053,4.382,4.382,0,0,1-.81-2.748Zm1.265.144a3.281,3.281,0,0,0,.52,1.969,1.68,1.68,0,0,0,1.436.711,1.845,1.845,0,0,0,1.757-1.08v-3.4a1.859,1.859,0,0,0-1.743-1.046,1.687,1.687,0,0,0-1.449.718A3.612,3.612,0,0,0-15.661,14.384ZM-4.156,18a2.657,2.657,0,0,1-.178-.779,2.822,2.822,0,0,1-2.105.916,2.611,2.611,0,0,1-1.794-.619,2,2,0,0,1-.7-1.569,2.091,2.091,0,0,1,.878-1.794,4.142,4.142,0,0,1,2.471-.639h1.23v-.581a1.42,1.42,0,0,0-.4-1.056,1.593,1.593,0,0,0-1.169-.393,1.844,1.844,0,0,0-1.135.342,1.007,1.007,0,0,0-.458.827H-8.784a1.745,1.745,0,0,1,.393-1.07,2.683,2.683,0,0,1,1.066-.817,3.588,3.588,0,0,1,1.48-.3,2.924,2.924,0,0,1,2,.639,2.306,2.306,0,0,1,.752,1.76v3.4a4.162,4.162,0,0,0,.26,1.62V18Zm-2.1-.964a2.223,2.223,0,0,0,1.128-.308,1.861,1.861,0,0,0,.772-.8V14.411h-.991q-2.324,0-2.324,1.36a1.151,1.151,0,0,0,.4.93A1.524,1.524,0,0,0-6.255,17.036ZM.608,8.813V10.6H1.989v.978H.608v4.587a1.024,1.024,0,0,0,.185.667.777.777,0,0,0,.629.222,3.062,3.062,0,0,0,.6-.082V18a3.666,3.666,0,0,1-.971.137,1.575,1.575,0,0,1-1.278-.513,2.2,2.2,0,0,1-.431-1.456V11.581H-2V10.6H-.656V8.813Zm2.386,5.421a4.369,4.369,0,0,1,.427-1.955,3.187,3.187,0,0,1,1.189-1.34,3.238,3.238,0,0,1,1.74-.472,3.119,3.119,0,0,1,2.444,1.046,4.024,4.024,0,0,1,.933,2.782v.089a4.407,4.407,0,0,1-.414,1.938,3.14,3.14,0,0,1-1.183,1.336,3.275,3.275,0,0,1-1.767.479,3.111,3.111,0,0,1-2.437-1.046,4,4,0,0,1-.933-2.769Zm1.271.15a3.164,3.164,0,0,0,.571,1.976,1.827,1.827,0,0,0,1.528.745A1.816,1.816,0,0,0,7.9,16.349a3.46,3.46,0,0,0,.567-2.116,3.159,3.159,0,0,0-.578-1.972,1.836,1.836,0,0,0-1.535-.755,1.816,1.816,0,0,0-1.511.745A3.435,3.435,0,0,0,4.266,14.384ZM15.62,16.038a.931.931,0,0,0-.386-.8,3.718,3.718,0,0,0-1.347-.489,6.367,6.367,0,0,1-1.524-.492,2.169,2.169,0,0,1-.834-.684,1.635,1.635,0,0,1-.27-.943,1.919,1.919,0,0,1,.769-1.538,3,3,0,0,1,1.965-.629,3.091,3.091,0,0,1,2.041.649,2.063,2.063,0,0,1,.783,1.661H15.545a1.142,1.142,0,0,0-.441-.9,1.652,1.652,0,0,0-1.111-.376,1.729,1.729,0,0,0-1.08.3.947.947,0,0,0-.39.786.767.767,0,0,0,.362.69,4.458,4.458,0,0,0,1.309.444,6.821,6.821,0,0,1,1.535.506,2.239,2.239,0,0,1,.872.708,1.74,1.74,0,0,1,.284,1.008,1.893,1.893,0,0,1-.793,1.589,3.326,3.326,0,0,1-2.058.6,3.725,3.725,0,0,1-1.572-.314,2.557,2.557,0,0,1-1.07-.878,2.117,2.117,0,0,1-.386-1.22h1.265a1.309,1.309,0,0,0,.509,1.008,1.976,1.976,0,0,0,1.254.373,2.039,2.039,0,0,0,1.152-.291A.893.893,0,0,0,15.62,16.038Z" transform="translate(610 4551.981)" fill="#12263f"/>
    <path id="Trazado_1261938" data-name="Trazado 1261938" d="M-17.062,0V-9.953h2.81a4.523,4.523,0,0,1,2.3.574,3.884,3.884,0,0,1,1.542,1.634,5.318,5.318,0,0,1,.55,2.434v.636a5.336,5.336,0,0,1-.543,2.468A3.823,3.823,0,0,1-11.959-.581,4.811,4.811,0,0,1-14.308,0Zm1.313-8.873v7.8h1.381a3.006,3.006,0,0,0,2.362-.943A3.9,3.9,0,0,0-11.163-4.7v-.581a3.957,3.957,0,0,0-.8-2.635,2.835,2.835,0,0,0-2.259-.954ZM-3.514,0a2.657,2.657,0,0,1-.178-.779A2.822,2.822,0,0,1-5.8.137,2.611,2.611,0,0,1-7.591-.482a2,2,0,0,1-.7-1.569,2.091,2.091,0,0,1,.878-1.794,4.142,4.142,0,0,1,2.471-.639h1.23v-.581a1.42,1.42,0,0,0-.4-1.056,1.593,1.593,0,0,0-1.169-.393,1.844,1.844,0,0,0-1.135.342,1.007,1.007,0,0,0-.458.827H-8.142a1.745,1.745,0,0,1,.393-1.07,2.683,2.683,0,0,1,1.066-.817,3.588,3.588,0,0,1,1.48-.3,2.924,2.924,0,0,1,2,.639,2.306,2.306,0,0,1,.752,1.76v3.4a4.162,4.162,0,0,0,.26,1.62V0Zm-2.1-.964a2.223,2.223,0,0,0,1.128-.308,1.861,1.861,0,0,0,.772-.8V-3.589H-4.7q-2.324,0-2.324,1.36a1.151,1.151,0,0,0,.4.93A1.524,1.524,0,0,0-5.612-.964ZM1.251-9.187V-7.4H2.632v.978H1.251v4.587a1.024,1.024,0,0,0,.185.667.777.777,0,0,0,.629.222,3.062,3.062,0,0,0,.6-.082V0A3.666,3.666,0,0,1,1.7.137,1.575,1.575,0,0,1,.417-.376,2.2,2.2,0,0,1-.014-1.832V-6.419H-1.36V-7.4H-.014V-9.187ZM3.637-3.767a4.369,4.369,0,0,1,.427-1.955,3.187,3.187,0,0,1,1.189-1.34,3.238,3.238,0,0,1,1.74-.472A3.119,3.119,0,0,1,9.437-6.487a4.024,4.024,0,0,1,.933,2.782v.089a4.407,4.407,0,0,1-.414,1.938A3.14,3.14,0,0,1,8.774-.342,3.275,3.275,0,0,1,7.007.137,3.111,3.111,0,0,1,4.57-.909a4,4,0,0,1-.933-2.769Zm1.271.15a3.164,3.164,0,0,0,.571,1.976A1.827,1.827,0,0,0,7.007-.9a1.816,1.816,0,0,0,1.531-.755,3.46,3.46,0,0,0,.567-2.116,3.159,3.159,0,0,0-.578-1.972,1.836,1.836,0,0,0-1.535-.755,1.816,1.816,0,0,0-1.511.745A3.434,3.434,0,0,0,4.908-3.616ZM16.263-1.962a.931.931,0,0,0-.386-.8,3.718,3.718,0,0,0-1.347-.489,6.367,6.367,0,0,1-1.524-.492,2.169,2.169,0,0,1-.834-.684,1.635,1.635,0,0,1-.27-.943A1.919,1.919,0,0,1,12.67-6.9a3,3,0,0,1,1.965-.629,3.091,3.091,0,0,1,2.041.649,2.063,2.063,0,0,1,.783,1.661H16.188a1.142,1.142,0,0,0-.441-.9,1.652,1.652,0,0,0-1.111-.376,1.729,1.729,0,0,0-1.08.3.947.947,0,0,0-.39.786.767.767,0,0,0,.362.69,4.458,4.458,0,0,0,1.309.444,6.821,6.821,0,0,1,1.535.506,2.239,2.239,0,0,1,.872.708,1.74,1.74,0,0,1,.284,1.008,1.893,1.893,0,0,1-.793,1.589,3.326,3.326,0,0,1-2.058.6A3.725,3.725,0,0,1,13.1-.178a2.557,2.557,0,0,1-1.07-.878,2.117,2.117,0,0,1-.386-1.22h1.265a1.309,1.309,0,0,0,.509,1.008A1.976,1.976,0,0,0,14.677-.9a2.039,2.039,0,0,0,1.152-.291A.893.893,0,0,0,16.263-1.962ZM-23.116,18H-24.38V10.6h1.265Zm-1.367-9.358a.755.755,0,0,1,.188-.52.706.706,0,0,1,.557-.212.717.717,0,0,1,.561.212.747.747,0,0,1,.191.52.722.722,0,0,1-.191.513.73.73,0,0,1-.561.205.718.718,0,0,1-.557-.205A.73.73,0,0,1-24.483,8.642ZM-19.9,10.6l.041.93a2.7,2.7,0,0,1,2.215-1.066q2.345,0,2.365,2.646V18H-16.54V13.105a1.7,1.7,0,0,0-.366-1.183,1.466,1.466,0,0,0-1.118-.383,1.825,1.825,0,0,0-1.08.328,2.228,2.228,0,0,0-.725.861V18h-1.265V10.6Zm7.9,7.4h-1.265V10.6h1.265Zm-1.367-9.358a.755.755,0,0,1,.188-.52.706.706,0,0,1,.557-.212.717.717,0,0,1,.561.212.747.747,0,0,1,.191.52.722.722,0,0,1-.191.513.73.73,0,0,1-.561.205.718.718,0,0,1-.557-.205A.73.73,0,0,1-13.361,8.642ZM-7,17.1a1.822,1.822,0,0,0,1.183-.41,1.443,1.443,0,0,0,.561-1.025h1.2a2.293,2.293,0,0,1-.437,1.21,2.881,2.881,0,0,1-1.077.916A3.107,3.107,0,0,1-7,18.137a3.047,3.047,0,0,1-2.4-1.008A4.016,4.016,0,0,1-10.3,14.37v-.212a4.453,4.453,0,0,1,.4-1.921,3.02,3.02,0,0,1,1.138-1.306,3.233,3.233,0,0,1,1.753-.465,2.966,2.966,0,0,1,2.068.745,2.663,2.663,0,0,1,.878,1.935h-1.2A1.743,1.743,0,0,0-5.8,11.967a1.691,1.691,0,0,0-1.207-.461A1.77,1.77,0,0,0-8.5,12.2a3.259,3.259,0,0,0-.53,2.006v.239a3.194,3.194,0,0,0,.526,1.969A1.779,1.779,0,0,0-7,17.1Zm5.735.9H-2.533V10.6h1.265ZM-2.635,8.642a.755.755,0,0,1,.188-.52A.706.706,0,0,1-1.89,7.91a.717.717,0,0,1,.561.212.747.747,0,0,1,.191.52.722.722,0,0,1-.191.513.73.73,0,0,1-.561.205.718.718,0,0,1-.557-.205A.73.73,0,0,1-2.635,8.642ZM5.322,18a2.657,2.657,0,0,1-.178-.779,2.822,2.822,0,0,1-2.105.916,2.611,2.611,0,0,1-1.794-.619,2,2,0,0,1-.7-1.569,2.091,2.091,0,0,1,.878-1.794,4.142,4.142,0,0,1,2.471-.639h1.23v-.581a1.42,1.42,0,0,0-.4-1.056,1.593,1.593,0,0,0-1.169-.393,1.844,1.844,0,0,0-1.135.342,1.007,1.007,0,0,0-.458.827H.694a1.745,1.745,0,0,1,.393-1.07,2.683,2.683,0,0,1,1.066-.817,3.588,3.588,0,0,1,1.48-.3,2.924,2.924,0,0,1,2,.639,2.306,2.306,0,0,1,.752,1.76v3.4a4.162,4.162,0,0,0,.26,1.62V18Zm-2.1-.964a2.223,2.223,0,0,0,1.128-.308,1.861,1.861,0,0,0,.772-.8V14.411H4.132q-2.324,0-2.324,1.36a1.151,1.151,0,0,0,.4.93A1.524,1.524,0,0,0,3.223,17.036ZM9.745,18H8.48V7.5H9.745Zm5.093.137a3.232,3.232,0,0,1-2.447-.988,3.666,3.666,0,0,1-.943-2.642v-.232a4.438,4.438,0,0,1,.42-1.965,3.28,3.28,0,0,1,1.176-1.354,2.956,2.956,0,0,1,1.637-.489,2.77,2.77,0,0,1,2.242.95,4.114,4.114,0,0,1,.8,2.721v.526H12.711a2.629,2.629,0,0,0,.639,1.767,2.009,2.009,0,0,0,1.555.673,2.2,2.2,0,0,0,1.135-.273,2.851,2.851,0,0,0,.813-.725l.772.6A3.106,3.106,0,0,1,14.837,18.137Zm-.157-6.631a1.687,1.687,0,0,0-1.285.557,2.708,2.708,0,0,0-.643,1.562h3.705v-.1a2.409,2.409,0,0,0-.52-1.494A1.588,1.588,0,0,0,14.68,11.506Zm8.812,4.532a.931.931,0,0,0-.386-.8,3.718,3.718,0,0,0-1.347-.489,6.367,6.367,0,0,1-1.524-.492,2.169,2.169,0,0,1-.834-.684,1.635,1.635,0,0,1-.27-.943A1.919,1.919,0,0,1,19.9,11.1a3,3,0,0,1,1.965-.629,3.091,3.091,0,0,1,2.041.649,2.063,2.063,0,0,1,.783,1.661H23.417a1.142,1.142,0,0,0-.441-.9,1.652,1.652,0,0,0-1.111-.376,1.729,1.729,0,0,0-1.08.3.947.947,0,0,0-.39.786.767.767,0,0,0,.362.69,4.458,4.458,0,0,0,1.309.444,6.821,6.821,0,0,1,1.535.506,2.239,2.239,0,0,1,.872.708,1.74,1.74,0,0,1,.284,1.008,1.893,1.893,0,0,1-.793,1.589,3.326,3.326,0,0,1-2.058.6,3.725,3.725,0,0,1-1.572-.314,2.557,2.557,0,0,1-1.07-.878,2.117,2.117,0,0,1-.386-1.22h1.265a1.309,1.309,0,0,0,.509,1.008,1.976,1.976,0,0,0,1.254.373,2.039,2.039,0,0,0,1.152-.291A.893.893,0,0,0,23.492,16.038Z" transform="translate(457 4570.981)" fill="#12263f"/>
  </g>
</svg>
