<svg xmlns="http://www.w3.org/2000/svg" width="1329.3" height="722.323" viewBox="0 0 1329.3 722.323">
  <g id="Grupo_1204374" data-name="Grupo 1204374" transform="translate(64.15 -3910.392)">
    <path id="Trazado_875951" data-name="Trazado 875951" d="M7355.7,1479.249l.3,511.819h-.3v208.8c-3.4-3.374-6.541-7-10.249-10.08-27.771-23.069-53.827-48.177-83.885-68.57-59.6-40.426-125.685-47.388-195.14-21.322q-36.259,13.608-71.565,29.208c-43.56,19.3-88.791,30.767-137.994,28.2-30.795-1.606-57.989-10.138-81.694-28.039-35.479-26.794-60.184-61.506-88.137-93.884-14.812-17.157-29.933-34.238-46.532-50-34.138-32.41-75.609-47.25-126.535-43.211-54.782,4.345-100.545,20.836-133.615,62.054-27.594,34.395-55.554,68.718-85.981,101.1-49.25,52.415-113.563,70.05-187.941,56.526-26.627-4.839-52.316-13.781-78.435-20.849l-.3-661.757Z" transform="translate(7292.351 6111.464) rotate(180)" fill="#e4f0f9" stroke="rgba(0,0,0,0)" stroke-miterlimit="10" stroke-width="1"/>
  </g>
</svg>
