<svg xmlns="http://www.w3.org/2000/svg" width="503.043" height="219.553" viewBox="0 0 503.043 219.553">
  <g id="Grupo_1204390" data-name="Grupo 1204390" transform="translate(-832 -3195.989)">
    <path id="Trazado_125152" data-name="Trazado 125152" d="M-425.723-7396.776v45.2" transform="translate(1347.078 10639.604)" fill="none" stroke="#aaca79" stroke-width="3"/>
    <path id="Trazado_125153" data-name="Trazado 125153" d="M-425.723-7396.777v72.129" transform="translate(1369.357 10612.674)" fill="none" stroke="#aaca79" stroke-width="3"/>
    <path id="Trazado_125154" data-name="Trazado 125154" d="M-425.723-7396.777v91.026" transform="translate(1391.636 10593.777)" fill="none" stroke="#aaca79" stroke-width="3"/>
    <path id="Trazado_125155" data-name="Trazado 125155" d="M-425.723-7396.777v82.957" transform="translate(1515.887 10601.848)" fill="none" stroke="#aaca79" stroke-width="3"/>
    <path id="Trazado_125156" data-name="Trazado 125156" d="M-425.723-7396.777v89.969" transform="translate(1637.567 10594.834)" fill="none" stroke="#aaca79" stroke-width="3"/>
    <path id="Trazado_125157" data-name="Trazado 125157" d="M-425.723-7396.776v70.351" transform="translate(1659.846 10614.452)" fill="none" stroke="#aaca79" stroke-width="3"/>
    <path id="Trazado_125158" data-name="Trazado 125158" d="M-425.723-7396.776v40.843" transform="translate(1682.125 10643.962)" fill="none" stroke="#aaca79" stroke-width="3"/>
    <path id="Trazado_125881" data-name="Trazado 125881" d="M2.075.669l3.983,9.941L10.042.669h2.084V12.853H10.519V8.109l.151-5.121-4,9.866H5.439L1.448,3.013l.159,5.1v4.745H0V.669Zm16.4,12.351a3.956,3.956,0,0,1-3-1.209,4.488,4.488,0,0,1-1.155-3.234V8.293a5.433,5.433,0,0,1,.515-2.406A4.015,4.015,0,0,1,16.28,4.23a3.619,3.619,0,0,1,2-.6,3.391,3.391,0,0,1,2.745,1.163,5.036,5.036,0,0,1,.979,3.331V8.77H15.874a3.218,3.218,0,0,0,.782,2.163,2.459,2.459,0,0,0,1.9.824,2.7,2.7,0,0,0,1.389-.335,3.49,3.49,0,0,0,1-.887l.946.736A3.8,3.8,0,0,1,18.477,13.021ZM18.284,4.9a2.065,2.065,0,0,0-1.573.682A3.315,3.315,0,0,0,15.925,7.5H20.46V7.381a2.949,2.949,0,0,0-.636-1.828A1.944,1.944,0,0,0,18.284,4.9Zm5.138,3.347A5.3,5.3,0,0,1,24.41,4.9a3.36,3.36,0,0,1,5.1-.18V0h1.548V12.853H29.64l-.075-.971a3.153,3.153,0,0,1-2.586,1.138,3.093,3.093,0,0,1-2.565-1.289,5.364,5.364,0,0,1-.992-3.364Zm1.548.176a4.016,4.016,0,0,0,.636,2.41,2.056,2.056,0,0,0,1.757.87,2.258,2.258,0,0,0,2.151-1.322V6.226a2.276,2.276,0,0,0-2.134-1.28,2.066,2.066,0,0,0-1.774.879A4.422,4.422,0,0,0,24.971,8.427Zm10.176,4.427H33.6V3.8h1.548ZM33.473,1.4A.924.924,0,0,1,33.7.762.864.864,0,0,1,34.385.5a.877.877,0,0,1,.686.259.914.914,0,0,1,.234.636.884.884,0,0,1-.234.628.893.893,0,0,1-.686.251.88.88,0,0,1-.682-.251A.893.893,0,0,1,33.473,1.4Zm9.741,11.456A3.252,3.252,0,0,1,43,11.9a3.454,3.454,0,0,1-2.577,1.121,3.2,3.2,0,0,1-2.2-.757,2.45,2.45,0,0,1-.858-1.92,2.56,2.56,0,0,1,1.075-2.2,5.07,5.07,0,0,1,3.025-.782H42.97V6.653a1.739,1.739,0,0,0-.485-1.293,1.951,1.951,0,0,0-1.431-.481,2.257,2.257,0,0,0-1.389.418A1.233,1.233,0,0,0,39.1,6.31H37.548A2.136,2.136,0,0,1,38.029,5a3.284,3.284,0,0,1,1.305-1,4.392,4.392,0,0,1,1.812-.368,3.579,3.579,0,0,1,2.452.782,2.822,2.822,0,0,1,.92,2.155v4.167a5.1,5.1,0,0,0,.318,1.983v.134Zm-2.569-1.18a2.721,2.721,0,0,0,1.381-.377,2.278,2.278,0,0,0,.946-.979V8.46H41.757q-2.845,0-2.845,1.665a1.409,1.409,0,0,0,.485,1.138A1.866,1.866,0,0,0,40.644,11.674Z" transform="translate(856.122 3309.528)" fill="#12263f"/>
    <path id="Trazado_125884" data-name="Trazado 125884" d="M2.075.669l3.983,9.941L10.042.669h2.084V12.853H10.519V8.109l.151-5.121-4,9.866H5.439L1.448,3.013l.159,5.1v4.745H0V.669Zm16.4,12.351a3.956,3.956,0,0,1-3-1.209,4.488,4.488,0,0,1-1.155-3.234V8.293a5.433,5.433,0,0,1,.515-2.406A4.015,4.015,0,0,1,16.28,4.23a3.619,3.619,0,0,1,2-.6,3.391,3.391,0,0,1,2.745,1.163,5.036,5.036,0,0,1,.979,3.331V8.77H15.874a3.218,3.218,0,0,0,.782,2.163,2.459,2.459,0,0,0,1.9.824,2.7,2.7,0,0,0,1.389-.335,3.49,3.49,0,0,0,1-.887l.946.736A3.8,3.8,0,0,1,18.477,13.021ZM18.284,4.9a2.065,2.065,0,0,0-1.573.682A3.315,3.315,0,0,0,15.925,7.5H20.46V7.381a2.949,2.949,0,0,0-.636-1.828A1.944,1.944,0,0,0,18.284,4.9Zm5.138,3.347A5.3,5.3,0,0,1,24.41,4.9a3.36,3.36,0,0,1,5.1-.18V0h1.548V12.853H29.64l-.075-.971a3.153,3.153,0,0,1-2.586,1.138,3.093,3.093,0,0,1-2.565-1.289,5.364,5.364,0,0,1-.992-3.364Zm1.548.176a4.016,4.016,0,0,0,.636,2.41,2.056,2.056,0,0,0,1.757.87,2.258,2.258,0,0,0,2.151-1.322V6.226a2.276,2.276,0,0,0-2.134-1.28,2.066,2.066,0,0,0-1.774.879A4.422,4.422,0,0,0,24.971,8.427Zm10.176,4.427H33.6V3.8h1.548ZM33.473,1.4A.924.924,0,0,1,33.7.762.864.864,0,0,1,34.385.5a.877.877,0,0,1,.686.259.914.914,0,0,1,.234.636.884.884,0,0,1-.234.628.893.893,0,0,1-.686.251.88.88,0,0,1-.682-.251A.893.893,0,0,1,33.473,1.4Zm9.741,11.456A3.252,3.252,0,0,1,43,11.9a3.454,3.454,0,0,1-2.577,1.121,3.2,3.2,0,0,1-2.2-.757,2.45,2.45,0,0,1-.858-1.92,2.56,2.56,0,0,1,1.075-2.2,5.07,5.07,0,0,1,3.025-.782H42.97V6.653a1.739,1.739,0,0,0-.485-1.293,1.951,1.951,0,0,0-1.431-.481,2.257,2.257,0,0,0-1.389.418A1.233,1.233,0,0,0,39.1,6.31H37.548A2.136,2.136,0,0,1,38.029,5a3.284,3.284,0,0,1,1.305-1,4.392,4.392,0,0,1,1.812-.368,3.579,3.579,0,0,1,2.452.782,2.822,2.822,0,0,1,.92,2.155v4.167a5.1,5.1,0,0,0,.318,1.983v.134Zm-2.569-1.18a2.721,2.721,0,0,0,1.381-.377,2.278,2.278,0,0,0,.946-.979V8.46H41.757q-2.845,0-2.845,1.665a1.409,1.409,0,0,0,.485,1.138A1.866,1.866,0,0,0,40.644,11.674ZM48.41,3.8l.05,1.138a3.3,3.3,0,0,1,2.711-1.305q2.87,0,2.9,3.238v5.983H52.519V6.862a2.084,2.084,0,0,0-.448-1.448A1.794,1.794,0,0,0,50.7,4.946a2.234,2.234,0,0,0-1.322.4A2.728,2.728,0,0,0,48.493,6.4v6.452H46.945V3.8Zm13.582,9.054a3.252,3.252,0,0,1-.218-.954A3.454,3.454,0,0,1,59.2,13.021a3.2,3.2,0,0,1-2.2-.757,2.45,2.45,0,0,1-.858-1.92,2.56,2.56,0,0,1,1.075-2.2,5.07,5.07,0,0,1,3.025-.782h1.506V6.653a1.739,1.739,0,0,0-.485-1.293,1.951,1.951,0,0,0-1.431-.481,2.257,2.257,0,0,0-1.389.418,1.233,1.233,0,0,0-.561,1.013H56.326A2.136,2.136,0,0,1,56.807,5a3.284,3.284,0,0,1,1.305-1,4.392,4.392,0,0,1,1.812-.368,3.579,3.579,0,0,1,2.452.782,2.822,2.822,0,0,1,.92,2.155v4.167a5.1,5.1,0,0,0,.318,1.983v.134Zm-2.569-1.18A2.721,2.721,0,0,0,60.8,11.3a2.278,2.278,0,0,0,.946-.979V8.46H60.535q-2.845,0-2.845,1.665a1.409,1.409,0,0,0,.485,1.138A1.866,1.866,0,0,0,59.422,11.674Z" transform="translate(912.058 3333.521)" fill="#12263f"/>
    <path id="Trazado_125882" data-name="Trazado 125882" d="M2.075.669l3.983,9.941L10.042.669h2.084V12.853H10.519V8.109l.151-5.121-4,9.866H5.439L1.448,3.013l.159,5.1v4.745H0V.669ZM14.31,8.243a5.348,5.348,0,0,1,.523-2.393,3.9,3.9,0,0,1,1.456-1.64,3.964,3.964,0,0,1,2.13-.577,3.818,3.818,0,0,1,2.992,1.28,4.926,4.926,0,0,1,1.142,3.406v.109a5.4,5.4,0,0,1-.506,2.372A3.844,3.844,0,0,1,20.6,12.435a4.009,4.009,0,0,1-2.163.586,3.809,3.809,0,0,1-2.983-1.28A4.9,4.9,0,0,1,14.31,8.351Zm1.556.184a3.874,3.874,0,0,0,.7,2.418,2.368,2.368,0,0,0,3.745-.013A4.236,4.236,0,0,0,21,8.243,3.867,3.867,0,0,0,20.3,5.828,2.248,2.248,0,0,0,18.418,4.9a2.223,2.223,0,0,0-1.849.912A4.2,4.2,0,0,0,15.866,8.427Zm8.251-.176A5.3,5.3,0,0,1,25.1,4.9a3.36,3.36,0,0,1,5.1-.18V0h1.548V12.853H30.335l-.075-.971a3.153,3.153,0,0,1-2.586,1.138,3.093,3.093,0,0,1-2.565-1.289,5.364,5.364,0,0,1-.992-3.364Zm1.548.176a4.016,4.016,0,0,0,.636,2.41,2.056,2.056,0,0,0,1.757.87,2.258,2.258,0,0,0,2.151-1.322V6.226a2.276,2.276,0,0,0-2.134-1.28,2.066,2.066,0,0,0-1.774.879A4.422,4.422,0,0,0,25.665,8.427Zm14.084,4.427a3.252,3.252,0,0,1-.218-.954,3.454,3.454,0,0,1-2.577,1.121,3.2,3.2,0,0,1-2.2-.757,2.45,2.45,0,0,1-.858-1.92,2.56,2.56,0,0,1,1.075-2.2A5.07,5.07,0,0,1,38,7.364h1.506V6.653a1.739,1.739,0,0,0-.485-1.293,1.951,1.951,0,0,0-1.431-.481A2.257,2.257,0,0,0,36.2,5.3,1.233,1.233,0,0,0,35.64,6.31H34.084A2.136,2.136,0,0,1,34.565,5,3.284,3.284,0,0,1,35.87,4a4.392,4.392,0,0,1,1.812-.368,3.579,3.579,0,0,1,2.452.782,2.822,2.822,0,0,1,.92,2.155v4.167a5.1,5.1,0,0,0,.318,1.983v.134Zm-2.569-1.18A2.721,2.721,0,0,0,38.56,11.3a2.278,2.278,0,0,0,.946-.979V8.46H38.293q-2.845,0-2.845,1.665a1.409,1.409,0,0,0,.485,1.138A1.866,1.866,0,0,0,37.18,11.674Z" transform="translate(978.039 3309.528)" fill="#12263f"/>
    <path id="Trazado_125885" data-name="Trazado 125885" d="M2.075.669l3.983,9.941L10.042.669h2.084V12.853H10.519V8.109l.151-5.121-4,9.866H5.439L1.448,3.013l.159,5.1v4.745H0V.669Zm16.4,12.351a3.956,3.956,0,0,1-3-1.209,4.488,4.488,0,0,1-1.155-3.234V8.293a5.433,5.433,0,0,1,.515-2.406A4.015,4.015,0,0,1,16.28,4.23a3.619,3.619,0,0,1,2-.6,3.391,3.391,0,0,1,2.745,1.163,5.036,5.036,0,0,1,.979,3.331V8.77H15.874a3.218,3.218,0,0,0,.782,2.163,2.459,2.459,0,0,0,1.9.824,2.7,2.7,0,0,0,1.389-.335,3.49,3.49,0,0,0,1-.887l.946.736A3.8,3.8,0,0,1,18.477,13.021ZM18.284,4.9a2.065,2.065,0,0,0-1.573.682A3.315,3.315,0,0,0,15.925,7.5H20.46V7.381a2.949,2.949,0,0,0-.636-1.828A1.944,1.944,0,0,0,18.284,4.9Zm5.138,3.347A5.3,5.3,0,0,1,24.41,4.9a3.36,3.36,0,0,1,5.1-.18V0h1.548V12.853H29.64l-.075-.971a3.153,3.153,0,0,1-2.586,1.138,3.093,3.093,0,0,1-2.565-1.289,5.364,5.364,0,0,1-.992-3.364Zm1.548.176a4.016,4.016,0,0,0,.636,2.41,2.056,2.056,0,0,0,1.757.87,2.258,2.258,0,0,0,2.151-1.322V6.226a2.276,2.276,0,0,0-2.134-1.28,2.066,2.066,0,0,0-1.774.879A4.422,4.422,0,0,0,24.971,8.427Zm10.176,4.427H33.6V3.8h1.548ZM33.473,1.4A.924.924,0,0,1,33.7.762.864.864,0,0,1,34.385.5a.877.877,0,0,1,.686.259.914.914,0,0,1,.234.636.884.884,0,0,1-.234.628.893.893,0,0,1-.686.251.88.88,0,0,1-.682-.251A.893.893,0,0,1,33.473,1.4Zm9.741,11.456A3.252,3.252,0,0,1,43,11.9a3.454,3.454,0,0,1-2.577,1.121,3.2,3.2,0,0,1-2.2-.757,2.45,2.45,0,0,1-.858-1.92,2.56,2.56,0,0,1,1.075-2.2,5.07,5.07,0,0,1,3.025-.782H42.97V6.653a1.739,1.739,0,0,0-.485-1.293,1.951,1.951,0,0,0-1.431-.481,2.257,2.257,0,0,0-1.389.418A1.233,1.233,0,0,0,39.1,6.31H37.548A2.136,2.136,0,0,1,38.029,5a3.284,3.284,0,0,1,1.305-1,4.392,4.392,0,0,1,1.812-.368,3.579,3.579,0,0,1,2.452.782,2.822,2.822,0,0,1,.92,2.155v4.167a5.1,5.1,0,0,0,.318,1.983v.134Zm-2.569-1.18a2.721,2.721,0,0,0,1.381-.377,2.278,2.278,0,0,0,.946-.979V8.46H41.757q-2.845,0-2.845,1.665a1.409,1.409,0,0,0,.485,1.138A1.866,1.866,0,0,0,40.644,11.674Z" transform="translate(1068.014 3303.529)" fill="#12263f"/>
    <path id="Trazado_125886" data-name="Trazado 125886" d="M2.075.669l3.983,9.941L10.042.669h2.084V12.853H10.519V8.109l.151-5.121-4,9.866H5.439L1.448,3.013l.159,5.1v4.745H0V.669Zm16.4,12.351a3.956,3.956,0,0,1-3-1.209,4.488,4.488,0,0,1-1.155-3.234V8.293a5.433,5.433,0,0,1,.515-2.406A4.015,4.015,0,0,1,16.28,4.23a3.619,3.619,0,0,1,2-.6,3.391,3.391,0,0,1,2.745,1.163,5.036,5.036,0,0,1,.979,3.331V8.77H15.874a3.218,3.218,0,0,0,.782,2.163,2.459,2.459,0,0,0,1.9.824,2.7,2.7,0,0,0,1.389-.335,3.49,3.49,0,0,0,1-.887l.946.736A3.8,3.8,0,0,1,18.477,13.021ZM18.284,4.9a2.065,2.065,0,0,0-1.573.682A3.315,3.315,0,0,0,15.925,7.5H20.46V7.381a2.949,2.949,0,0,0-.636-1.828A1.944,1.944,0,0,0,18.284,4.9Zm5.138,3.347A5.3,5.3,0,0,1,24.41,4.9a3.36,3.36,0,0,1,5.1-.18V0h1.548V12.853H29.64l-.075-.971a3.153,3.153,0,0,1-2.586,1.138,3.093,3.093,0,0,1-2.565-1.289,5.364,5.364,0,0,1-.992-3.364Zm1.548.176a4.016,4.016,0,0,0,.636,2.41,2.056,2.056,0,0,0,1.757.87,2.258,2.258,0,0,0,2.151-1.322V6.226a2.276,2.276,0,0,0-2.134-1.28,2.066,2.066,0,0,0-1.774.879A4.422,4.422,0,0,0,24.971,8.427Zm10.176,4.427H33.6V3.8h1.548ZM33.473,1.4A.924.924,0,0,1,33.7.762.864.864,0,0,1,34.385.5a.877.877,0,0,1,.686.259.914.914,0,0,1,.234.636.884.884,0,0,1-.234.628.893.893,0,0,1-.686.251.88.88,0,0,1-.682-.251A.893.893,0,0,1,33.473,1.4Zm9.741,11.456A3.252,3.252,0,0,1,43,11.9a3.454,3.454,0,0,1-2.577,1.121,3.2,3.2,0,0,1-2.2-.757,2.45,2.45,0,0,1-.858-1.92,2.56,2.56,0,0,1,1.075-2.2,5.07,5.07,0,0,1,3.025-.782H42.97V6.653a1.739,1.739,0,0,0-.485-1.293,1.951,1.951,0,0,0-1.431-.481,2.257,2.257,0,0,0-1.389.418A1.233,1.233,0,0,0,39.1,6.31H37.548A2.136,2.136,0,0,1,38.029,5a3.284,3.284,0,0,1,1.305-1,4.392,4.392,0,0,1,1.812-.368,3.579,3.579,0,0,1,2.452.782,2.822,2.822,0,0,1,.92,2.155v4.167a5.1,5.1,0,0,0,.318,1.983v.134Zm-2.569-1.18a2.721,2.721,0,0,0,1.381-.377,2.278,2.278,0,0,0,.946-.979V8.46H41.757q-2.845,0-2.845,1.665a1.409,1.409,0,0,0,.485,1.138A1.866,1.866,0,0,0,40.644,11.674ZM48.41,3.8l.05,1.138a3.3,3.3,0,0,1,2.711-1.305q2.87,0,2.9,3.238v5.983H52.519V6.862a2.084,2.084,0,0,0-.448-1.448A1.794,1.794,0,0,0,50.7,4.946a2.234,2.234,0,0,0-1.322.4A2.728,2.728,0,0,0,48.493,6.4v6.452H46.945V3.8Zm13.582,9.054a3.252,3.252,0,0,1-.218-.954A3.454,3.454,0,0,1,59.2,13.021a3.2,3.2,0,0,1-2.2-.757,2.45,2.45,0,0,1-.858-1.92,2.56,2.56,0,0,1,1.075-2.2,5.07,5.07,0,0,1,3.025-.782h1.506V6.653a1.739,1.739,0,0,0-.485-1.293,1.951,1.951,0,0,0-1.431-.481,2.257,2.257,0,0,0-1.389.418,1.233,1.233,0,0,0-.561,1.013H56.326A2.136,2.136,0,0,1,56.807,5a3.284,3.284,0,0,1,1.305-1,4.392,4.392,0,0,1,1.812-.368,3.579,3.579,0,0,1,2.452.782,2.822,2.822,0,0,1,.92,2.155v4.167a5.1,5.1,0,0,0,.318,1.983v.134Zm-2.569-1.18A2.721,2.721,0,0,0,60.8,11.3a2.278,2.278,0,0,0,.946-.979V8.46H60.535q-2.845,0-2.845,1.665a1.409,1.409,0,0,0,.485,1.138A1.866,1.866,0,0,0,59.422,11.674Z" transform="translate(1062.635 3324.096)" fill="#12263f"/>
    <path id="Trazado_125887" data-name="Trazado 125887" d="M2.075.669l3.983,9.941L10.042.669h2.084V12.853H10.519V8.109l.151-5.121-4,9.866H5.439L1.448,3.013l.159,5.1v4.745H0V.669ZM14.31,8.243a5.348,5.348,0,0,1,.523-2.393,3.9,3.9,0,0,1,1.456-1.64,3.964,3.964,0,0,1,2.13-.577,3.818,3.818,0,0,1,2.992,1.28,4.926,4.926,0,0,1,1.142,3.406v.109a5.4,5.4,0,0,1-.506,2.372A3.844,3.844,0,0,1,20.6,12.435a4.009,4.009,0,0,1-2.163.586,3.809,3.809,0,0,1-2.983-1.28A4.9,4.9,0,0,1,14.31,8.351Zm1.556.184a3.874,3.874,0,0,0,.7,2.418,2.368,2.368,0,0,0,3.745-.013A4.236,4.236,0,0,0,21,8.243,3.867,3.867,0,0,0,20.3,5.828,2.248,2.248,0,0,0,18.418,4.9a2.223,2.223,0,0,0-1.849.912A4.2,4.2,0,0,0,15.866,8.427Zm8.251-.176A5.3,5.3,0,0,1,25.1,4.9a3.36,3.36,0,0,1,5.1-.18V0h1.548V12.853H30.335l-.075-.971a3.153,3.153,0,0,1-2.586,1.138,3.093,3.093,0,0,1-2.565-1.289,5.364,5.364,0,0,1-.992-3.364Zm1.548.176a4.016,4.016,0,0,0,.636,2.41,2.056,2.056,0,0,0,1.757.87,2.258,2.258,0,0,0,2.151-1.322V6.226a2.276,2.276,0,0,0-2.134-1.28,2.066,2.066,0,0,0-1.774.879A4.422,4.422,0,0,0,25.665,8.427Zm14.084,4.427a3.252,3.252,0,0,1-.218-.954,3.454,3.454,0,0,1-2.577,1.121,3.2,3.2,0,0,1-2.2-.757,2.45,2.45,0,0,1-.858-1.92,2.56,2.56,0,0,1,1.075-2.2A5.07,5.07,0,0,1,38,7.364h1.506V6.653a1.739,1.739,0,0,0-.485-1.293,1.951,1.951,0,0,0-1.431-.481A2.257,2.257,0,0,0,36.2,5.3,1.233,1.233,0,0,0,35.64,6.31H34.084A2.136,2.136,0,0,1,34.565,5,3.284,3.284,0,0,1,35.87,4a4.392,4.392,0,0,1,1.812-.368,3.579,3.579,0,0,1,2.452.782,2.822,2.822,0,0,1,.92,2.155v4.167a5.1,5.1,0,0,0,.318,1.983v.134Zm-2.569-1.18A2.721,2.721,0,0,0,38.56,11.3a2.278,2.278,0,0,0,.946-.979V8.46H38.293q-2.845,0-2.845,1.665a1.409,1.409,0,0,0,.485,1.138A1.866,1.866,0,0,0,37.18,11.674Z" transform="translate(1068.014 3347.232)" fill="#12263f"/>
    <path id="Trazado_125890" data-name="Trazado 125890" d="M2.075.669l3.983,9.941L10.042.669h2.084V12.853H10.519V8.109l.151-5.121-4,9.866H5.439L1.448,3.013l.159,5.1v4.745H0V.669ZM14.31,8.243a5.348,5.348,0,0,1,.523-2.393,3.9,3.9,0,0,1,1.456-1.64,3.964,3.964,0,0,1,2.13-.577,3.818,3.818,0,0,1,2.992,1.28,4.926,4.926,0,0,1,1.142,3.406v.109a5.4,5.4,0,0,1-.506,2.372A3.844,3.844,0,0,1,20.6,12.435a4.009,4.009,0,0,1-2.163.586,3.809,3.809,0,0,1-2.983-1.28A4.9,4.9,0,0,1,14.31,8.351Zm1.556.184a3.874,3.874,0,0,0,.7,2.418,2.368,2.368,0,0,0,3.745-.013A4.236,4.236,0,0,0,21,8.243,3.867,3.867,0,0,0,20.3,5.828,2.248,2.248,0,0,0,18.418,4.9a2.223,2.223,0,0,0-1.849.912A4.2,4.2,0,0,0,15.866,8.427Zm8.251-.176A5.3,5.3,0,0,1,25.1,4.9a3.36,3.36,0,0,1,5.1-.18V0h1.548V12.853H30.335l-.075-.971a3.153,3.153,0,0,1-2.586,1.138,3.093,3.093,0,0,1-2.565-1.289,5.364,5.364,0,0,1-.992-3.364Zm1.548.176a4.016,4.016,0,0,0,.636,2.41,2.056,2.056,0,0,0,1.757.87,2.258,2.258,0,0,0,2.151-1.322V6.226a2.276,2.276,0,0,0-2.134-1.28,2.066,2.066,0,0,0-1.774.879A4.422,4.422,0,0,0,25.665,8.427Zm14.084,4.427a3.252,3.252,0,0,1-.218-.954,3.454,3.454,0,0,1-2.577,1.121,3.2,3.2,0,0,1-2.2-.757,2.45,2.45,0,0,1-.858-1.92,2.56,2.56,0,0,1,1.075-2.2A5.07,5.07,0,0,1,38,7.364h1.506V6.653a1.739,1.739,0,0,0-.485-1.293,1.951,1.951,0,0,0-1.431-.481A2.257,2.257,0,0,0,36.2,5.3,1.233,1.233,0,0,0,35.64,6.31H34.084A2.136,2.136,0,0,1,34.565,5,3.284,3.284,0,0,1,35.87,4a4.392,4.392,0,0,1,1.812-.368,3.579,3.579,0,0,1,2.452.782,2.822,2.822,0,0,1,.92,2.155v4.167a5.1,5.1,0,0,0,.318,1.983v.134Zm-2.569-1.18A2.721,2.721,0,0,0,38.56,11.3a2.278,2.278,0,0,0,.946-.979V8.46H38.293q-2.845,0-2.845,1.665a1.409,1.409,0,0,0,.485,1.138A1.866,1.866,0,0,0,37.18,11.674Z" transform="translate(1163.15 3312.956)" fill="#12263f"/>
    <path id="Trazado_125894" data-name="Trazado 125894" d="M2.075.669l3.983,9.941L10.042.669h2.084V12.853H10.519V8.109l.151-5.121-4,9.866H5.439L1.448,3.013l.159,5.1v4.745H0V.669Zm16.4,12.351a3.956,3.956,0,0,1-3-1.209,4.488,4.488,0,0,1-1.155-3.234V8.293a5.433,5.433,0,0,1,.515-2.406A4.015,4.015,0,0,1,16.28,4.23a3.619,3.619,0,0,1,2-.6,3.391,3.391,0,0,1,2.745,1.163,5.036,5.036,0,0,1,.979,3.331V8.77H15.874a3.218,3.218,0,0,0,.782,2.163,2.459,2.459,0,0,0,1.9.824,2.7,2.7,0,0,0,1.389-.335,3.49,3.49,0,0,0,1-.887l.946.736A3.8,3.8,0,0,1,18.477,13.021ZM18.284,4.9a2.065,2.065,0,0,0-1.573.682A3.315,3.315,0,0,0,15.925,7.5H20.46V7.381a2.949,2.949,0,0,0-.636-1.828A1.944,1.944,0,0,0,18.284,4.9Zm5.138,3.347A5.3,5.3,0,0,1,24.41,4.9a3.36,3.36,0,0,1,5.1-.18V0h1.548V12.853H29.64l-.075-.971a3.153,3.153,0,0,1-2.586,1.138,3.093,3.093,0,0,1-2.565-1.289,5.364,5.364,0,0,1-.992-3.364Zm1.548.176a4.016,4.016,0,0,0,.636,2.41,2.056,2.056,0,0,0,1.757.87,2.258,2.258,0,0,0,2.151-1.322V6.226a2.276,2.276,0,0,0-2.134-1.28,2.066,2.066,0,0,0-1.774.879A4.422,4.422,0,0,0,24.971,8.427Zm10.176,4.427H33.6V3.8h1.548ZM33.473,1.4A.924.924,0,0,1,33.7.762.864.864,0,0,1,34.385.5a.877.877,0,0,1,.686.259.914.914,0,0,1,.234.636.884.884,0,0,1-.234.628.893.893,0,0,1-.686.251.88.88,0,0,1-.682-.251A.893.893,0,0,1,33.473,1.4Zm9.741,11.456A3.252,3.252,0,0,1,43,11.9a3.454,3.454,0,0,1-2.577,1.121,3.2,3.2,0,0,1-2.2-.757,2.45,2.45,0,0,1-.858-1.92,2.56,2.56,0,0,1,1.075-2.2,5.07,5.07,0,0,1,3.025-.782H42.97V6.653a1.739,1.739,0,0,0-.485-1.293,1.951,1.951,0,0,0-1.431-.481,2.257,2.257,0,0,0-1.389.418A1.233,1.233,0,0,0,39.1,6.31H37.548A2.136,2.136,0,0,1,38.029,5a3.284,3.284,0,0,1,1.305-1,4.392,4.392,0,0,1,1.812-.368,3.579,3.579,0,0,1,2.452.782,2.822,2.822,0,0,1,.92,2.155v4.167a5.1,5.1,0,0,0,.318,1.983v.134Zm-2.569-1.18a2.721,2.721,0,0,0,1.381-.377,2.278,2.278,0,0,0,.946-.979V8.46H41.757q-2.845,0-2.845,1.665a1.409,1.409,0,0,0,.485,1.138A1.866,1.866,0,0,0,40.644,11.674Z" transform="translate(1280.525 3309.528)" fill="#12263f"/>
    <path id="Trazado_125893" data-name="Trazado 125893" d="M2.075.669l3.983,9.941L10.042.669h2.084V12.853H10.519V8.109l.151-5.121-4,9.866H5.439L1.448,3.013l.159,5.1v4.745H0V.669Zm16.4,12.351a3.956,3.956,0,0,1-3-1.209,4.488,4.488,0,0,1-1.155-3.234V8.293a5.433,5.433,0,0,1,.515-2.406A4.015,4.015,0,0,1,16.28,4.23a3.619,3.619,0,0,1,2-.6,3.391,3.391,0,0,1,2.745,1.163,5.036,5.036,0,0,1,.979,3.331V8.77H15.874a3.218,3.218,0,0,0,.782,2.163,2.459,2.459,0,0,0,1.9.824,2.7,2.7,0,0,0,1.389-.335,3.49,3.49,0,0,0,1-.887l.946.736A3.8,3.8,0,0,1,18.477,13.021ZM18.284,4.9a2.065,2.065,0,0,0-1.573.682A3.315,3.315,0,0,0,15.925,7.5H20.46V7.381a2.949,2.949,0,0,0-.636-1.828A1.944,1.944,0,0,0,18.284,4.9Zm5.138,3.347A5.3,5.3,0,0,1,24.41,4.9a3.36,3.36,0,0,1,5.1-.18V0h1.548V12.853H29.64l-.075-.971a3.153,3.153,0,0,1-2.586,1.138,3.093,3.093,0,0,1-2.565-1.289,5.364,5.364,0,0,1-.992-3.364Zm1.548.176a4.016,4.016,0,0,0,.636,2.41,2.056,2.056,0,0,0,1.757.87,2.258,2.258,0,0,0,2.151-1.322V6.226a2.276,2.276,0,0,0-2.134-1.28,2.066,2.066,0,0,0-1.774.879A4.422,4.422,0,0,0,24.971,8.427Zm10.176,4.427H33.6V3.8h1.548ZM33.473,1.4A.924.924,0,0,1,33.7.762.864.864,0,0,1,34.385.5a.877.877,0,0,1,.686.259.914.914,0,0,1,.234.636.884.884,0,0,1-.234.628.893.893,0,0,1-.686.251.88.88,0,0,1-.682-.251A.893.893,0,0,1,33.473,1.4Zm9.741,11.456A3.252,3.252,0,0,1,43,11.9a3.454,3.454,0,0,1-2.577,1.121,3.2,3.2,0,0,1-2.2-.757,2.45,2.45,0,0,1-.858-1.92,2.56,2.56,0,0,1,1.075-2.2,5.07,5.07,0,0,1,3.025-.782H42.97V6.653a1.739,1.739,0,0,0-.485-1.293,1.951,1.951,0,0,0-1.431-.481,2.257,2.257,0,0,0-1.389.418A1.233,1.233,0,0,0,39.1,6.31H37.548A2.136,2.136,0,0,1,38.029,5a3.284,3.284,0,0,1,1.305-1,4.392,4.392,0,0,1,1.812-.368,3.579,3.579,0,0,1,2.452.782,2.822,2.822,0,0,1,.92,2.155v4.167a5.1,5.1,0,0,0,.318,1.983v.134Zm-2.569-1.18a2.721,2.721,0,0,0,1.381-.377,2.278,2.278,0,0,0,.946-.979V8.46H41.757q-2.845,0-2.845,1.665a1.409,1.409,0,0,0,.485,1.138A1.866,1.866,0,0,0,40.644,11.674ZM48.41,3.8l.05,1.138a3.3,3.3,0,0,1,2.711-1.305q2.87,0,2.9,3.238v5.983H52.519V6.862a2.084,2.084,0,0,0-.448-1.448A1.794,1.794,0,0,0,50.7,4.946a2.234,2.234,0,0,0-1.322.4A2.728,2.728,0,0,0,48.493,6.4v6.452H46.945V3.8Zm13.582,9.054a3.252,3.252,0,0,1-.218-.954A3.454,3.454,0,0,1,59.2,13.021a3.2,3.2,0,0,1-2.2-.757,2.45,2.45,0,0,1-.858-1.92,2.56,2.56,0,0,1,1.075-2.2,5.07,5.07,0,0,1,3.025-.782h1.506V6.653a1.739,1.739,0,0,0-.485-1.293,1.951,1.951,0,0,0-1.431-.481,2.257,2.257,0,0,0-1.389.418,1.233,1.233,0,0,0-.561,1.013H56.326A2.136,2.136,0,0,1,56.807,5a3.284,3.284,0,0,1,1.305-1,4.392,4.392,0,0,1,1.812-.368,3.579,3.579,0,0,1,2.452.782,2.822,2.822,0,0,1,.92,2.155v4.167a5.1,5.1,0,0,0,.318,1.983v.134Zm-2.569-1.18A2.721,2.721,0,0,0,60.8,11.3a2.278,2.278,0,0,0,.946-.979V8.46H60.535q-2.845,0-2.845,1.665a1.409,1.409,0,0,0,.485,1.138A1.866,1.866,0,0,0,59.422,11.674Z" transform="translate(1220.304 3333.521)" fill="#12263f"/>
    <path id="Trazado_125888" data-name="Trazado 125888" d="M7.117,9.309H3.156L2.4,11.568H0L4.082.6H6.176l4.1,10.966h-2.4ZM3.766,7.479H6.507l-1.378-4.1ZM15.575,9.316a.7.7,0,0,0-.4-.629,4.491,4.491,0,0,0-1.269-.41Q11,7.667,11,5.807A2.239,2.239,0,0,1,11.9,4a3.63,3.63,0,0,1,2.354-.727A3.907,3.907,0,0,1,16.738,4a2.3,2.3,0,0,1,.93,1.9H15.492a1.053,1.053,0,0,0-.3-.772,1.275,1.275,0,0,0-.941-.305,1.3,1.3,0,0,0-.851.249.785.785,0,0,0-.3.633.671.671,0,0,0,.343.584,3.525,3.525,0,0,0,1.156.384,9.442,9.442,0,0,1,1.371.365,2.252,2.252,0,0,1,1.725,2.192,2.126,2.126,0,0,1-.956,1.8,4.126,4.126,0,0,1-2.47.689,4.309,4.309,0,0,1-1.819-.365,3.052,3.052,0,0,1-1.246-1,2.327,2.327,0,0,1-.452-1.374h2.064a1.136,1.136,0,0,0,.429.889,1.7,1.7,0,0,0,1.069.309,1.576,1.576,0,0,0,.945-.237A.738.738,0,0,0,15.575,9.316Zm5.814,2.252H19.2V3.419h2.184ZM19.077,1.31A1.072,1.072,0,0,1,19.4.5a1.412,1.412,0,0,1,1.781,0,1.066,1.066,0,0,1,.331.806,1.069,1.069,0,0,1-.335.813,1.4,1.4,0,0,1-1.77,0A1.069,1.069,0,0,1,19.077,1.31Zm6.146,2.109.068.911a2.864,2.864,0,0,1,2.342-1.062,2.173,2.173,0,0,1,2.161,1.243,2.8,2.8,0,0,1,2.448-1.243,2.431,2.431,0,0,1,1.973.772,3.548,3.548,0,0,1,.648,2.323v5.2H32.678v-5.2a1.552,1.552,0,0,0-.271-1.013,1.2,1.2,0,0,0-.956-.32,1.358,1.358,0,0,0-1.356.934l.008,5.6H27.926V6.379a1.533,1.533,0,0,0-.279-1.024,1.213,1.213,0,0,0-.949-.316,1.411,1.411,0,0,0-1.341.768v5.761H23.181V3.419Zm15.063,8.3a4,4,0,0,1-2.918-1.1,3.908,3.908,0,0,1-1.126-2.93V7.479a4.923,4.923,0,0,1,.474-2.2A3.482,3.482,0,0,1,38.06,3.792a3.773,3.773,0,0,1,1.985-.523,3.382,3.382,0,0,1,2.632,1.054,4.284,4.284,0,0,1,.96,2.99V8.2H38.448a2.022,2.022,0,0,0,.636,1.28,1.924,1.924,0,0,0,1.344.482,2.349,2.349,0,0,0,1.966-.911l1.069,1.2a3.267,3.267,0,0,1-1.326,1.081A4.349,4.349,0,0,1,40.285,11.719Zm-.249-6.688a1.363,1.363,0,0,0-1.051.437,2.257,2.257,0,0,0-.516,1.25H41.5V6.545a1.609,1.609,0,0,0-.392-1.118A1.407,1.407,0,0,0,40.037,5.031ZM40.232,0H42.6L40.519,2.335h-1.77Zm7.245,1.416v2h1.393v1.6H47.478V9.083a.971.971,0,0,0,.173.648.87.87,0,0,0,.663.2,3.471,3.471,0,0,0,.64-.053v1.649a4.481,4.481,0,0,1-1.318.2A2.078,2.078,0,0,1,45.3,9.407V5.016h-1.19v-1.6H45.3v-2ZM54.662,5.46a5.913,5.913,0,0,0-.783-.06,1.594,1.594,0,0,0-1.619.836v5.332H50.083V3.419h2.056l.06.972a2.017,2.017,0,0,1,1.815-1.122,2.281,2.281,0,0,1,.678.1Zm3.344,6.108H55.822V3.419h2.184ZM55.694,1.31A1.072,1.072,0,0,1,56.022.5,1.412,1.412,0,0,1,57.8.5a1.066,1.066,0,0,1,.331.806,1.069,1.069,0,0,1-.335.813,1.4,1.4,0,0,1-1.77,0A1.069,1.069,0,0,1,55.694,1.31Zm7.494,8.654a1.428,1.428,0,0,0,.979-.331,1.161,1.161,0,0,0,.392-.881H66.6a2.792,2.792,0,0,1-.452,1.518,2.982,2.982,0,0,1-1.216,1.069,3.807,3.807,0,0,1-1.706.38,3.538,3.538,0,0,1-2.756-1.111A4.4,4.4,0,0,1,59.46,7.539V7.4a4.346,4.346,0,0,1,1-3.005,3.5,3.5,0,0,1,2.749-1.122,3.428,3.428,0,0,1,2.451.87A3.08,3.08,0,0,1,66.6,6.454H64.559a1.483,1.483,0,0,0-.392-1.028,1.459,1.459,0,0,0-2.143.158,3.2,3.2,0,0,0-.388,1.8v.226a3.245,3.245,0,0,0,.384,1.808A1.328,1.328,0,0,0,63.188,9.964Zm9.377,1.6a2.417,2.417,0,0,1-.218-.731,2.634,2.634,0,0,1-2.056.881,2.893,2.893,0,0,1-1.985-.693,2.228,2.228,0,0,1-.787-1.747,2.3,2.3,0,0,1,.96-1.988,4.738,4.738,0,0,1,2.775-.7h1V6.123a1.343,1.343,0,0,0-.29-.9,1.141,1.141,0,0,0-.915-.339,1.3,1.3,0,0,0-.862.264.9.9,0,0,0-.313.723H67.7a2.186,2.186,0,0,1,.437-1.31,2.887,2.887,0,0,1,1.235-.945,4.5,4.5,0,0,1,1.792-.343,3.556,3.556,0,0,1,2.391.757,2.648,2.648,0,0,1,.885,2.128V9.685a3.9,3.9,0,0,0,.324,1.755v.128Zm-1.8-1.514a1.875,1.875,0,0,0,.889-.215,1.41,1.41,0,0,0,.6-.576v-1.4h-.813q-1.634,0-1.74,1.13L69.7,9.12a.871.871,0,0,0,.286.67A1.112,1.112,0,0,0,70.764,10.054ZM82.077,4.308a2.717,2.717,0,0,1,2.177-1.039q2.651,0,2.689,3.08v5.219H84.765V6.409a1.514,1.514,0,0,0-.3-1.036,1.292,1.292,0,0,0-1-.335,1.481,1.481,0,0,0-1.386.738v5.792H79.9V0h2.177Zm11.229,7.26a2.417,2.417,0,0,1-.218-.731,2.634,2.634,0,0,1-2.056.881,2.893,2.893,0,0,1-1.985-.693,2.228,2.228,0,0,1-.787-1.747,2.3,2.3,0,0,1,.96-1.988A4.738,4.738,0,0,1,92,6.59h1V6.123a1.343,1.343,0,0,0-.29-.9,1.141,1.141,0,0,0-.915-.339,1.3,1.3,0,0,0-.862.264.9.9,0,0,0-.313.723H88.441a2.186,2.186,0,0,1,.437-1.31,2.887,2.887,0,0,1,1.235-.945A4.5,4.5,0,0,1,91.9,3.269a3.556,3.556,0,0,1,2.391.757,2.648,2.648,0,0,1,.885,2.128V9.685A3.9,3.9,0,0,0,95.5,11.44v.128Zm-1.8-1.514a1.875,1.875,0,0,0,.889-.215,1.41,1.41,0,0,0,.6-.576v-1.4h-.813q-1.634,0-1.74,1.13l-.008.128a.871.871,0,0,0,.286.67A1.112,1.112,0,0,0,91.506,10.054Zm8.736-.09a1.428,1.428,0,0,0,.979-.331,1.161,1.161,0,0,0,.392-.881h2.041a2.792,2.792,0,0,1-.452,1.518,2.982,2.982,0,0,1-1.216,1.069,3.807,3.807,0,0,1-1.706.38,3.538,3.538,0,0,1-2.756-1.111,4.4,4.4,0,0,1-1.009-3.069V7.4a4.346,4.346,0,0,1,1-3.005,3.5,3.5,0,0,1,2.749-1.122,3.428,3.428,0,0,1,2.451.87,3.08,3.08,0,0,1,.938,2.316h-2.041a1.483,1.483,0,0,0-.392-1.028,1.459,1.459,0,0,0-2.143.158,3.2,3.2,0,0,0-.388,1.8v.226a3.245,3.245,0,0,0,.384,1.808A1.328,1.328,0,0,0,100.242,9.964Zm6.951,1.6h-2.184V3.419h2.184ZM104.881,1.31A1.072,1.072,0,0,1,105.209.5a1.412,1.412,0,0,1,1.781,0,1.066,1.066,0,0,1,.331.806,1.069,1.069,0,0,1-.335.813,1.4,1.4,0,0,1-1.77,0A1.069,1.069,0,0,1,104.881,1.31Zm8.827,10.258a2.417,2.417,0,0,1-.218-.731,2.634,2.634,0,0,1-2.056.881,2.893,2.893,0,0,1-1.985-.693,2.228,2.228,0,0,1-.787-1.747,2.3,2.3,0,0,1,.96-1.988,4.738,4.738,0,0,1,2.775-.7h1V6.123a1.343,1.343,0,0,0-.29-.9,1.141,1.141,0,0,0-.915-.339,1.3,1.3,0,0,0-.862.264.9.9,0,0,0-.313.723h-2.177a2.186,2.186,0,0,1,.437-1.31,2.887,2.887,0,0,1,1.235-.945,4.5,4.5,0,0,1,1.792-.343,3.556,3.556,0,0,1,2.391.757,2.648,2.648,0,0,1,.885,2.128V9.685a3.9,3.9,0,0,0,.324,1.755v.128Zm-1.8-1.514a1.875,1.875,0,0,0,.889-.215,1.41,1.41,0,0,0,.6-.576v-1.4h-.813q-1.634,0-1.74,1.13l-.008.128a.871.871,0,0,0,.286.67A1.112,1.112,0,0,0,111.908,10.054ZM3.186,32.889h4.8V34.7H.926V23.739H3.186ZM13.858,34.7a2.417,2.417,0,0,1-.218-.731,2.634,2.634,0,0,1-2.056.881A2.893,2.893,0,0,1,9.6,34.162a2.228,2.228,0,0,1-.787-1.747,2.3,2.3,0,0,1,.96-1.988,4.738,4.738,0,0,1,2.775-.7h1v-.467a1.343,1.343,0,0,0-.29-.9,1.141,1.141,0,0,0-.915-.339,1.3,1.3,0,0,0-.862.264.9.9,0,0,0-.313.723H8.992a2.186,2.186,0,0,1,.437-1.31,2.887,2.887,0,0,1,1.235-.945,4.5,4.5,0,0,1,1.792-.343,3.556,3.556,0,0,1,2.391.757,2.648,2.648,0,0,1,.885,2.128v3.532a3.9,3.9,0,0,0,.324,1.755V34.7Zm-1.8-1.514a1.875,1.875,0,0,0,.889-.215,1.41,1.41,0,0,0,.6-.576V31h-.813Q11.1,31,11,32.129l-.008.128a.871.871,0,0,0,.286.67A1.112,1.112,0,0,0,12.058,33.191ZM23.543,34.7H21.359V26.556h2.184ZM21.231,24.447a1.072,1.072,0,0,1,.328-.806,1.412,1.412,0,0,1,1.781,0,1.15,1.15,0,0,1,0,1.619,1.4,1.4,0,0,1-1.77,0A1.069,1.069,0,0,1,21.231,24.447Zm6.6,8.5H31.82V34.7H25.057V33.379l3.833-5.061H25.17V26.556H31.7v1.288Zm4.888-2.395a4.871,4.871,0,0,1,.855-3.035A2.8,2.8,0,0,1,35.925,26.4a2.5,2.5,0,0,1,2.086,1l.143-.851h1.913V37.837H37.883V34a2.509,2.509,0,0,1-1.973.851,2.774,2.774,0,0,1-2.32-1.13A5.11,5.11,0,0,1,32.724,30.555Zm2.177.158a3.186,3.186,0,0,0,.41,1.777,1.315,1.315,0,0,0,1.156.61,1.464,1.464,0,0,0,1.416-.8V28.935a1.452,1.452,0,0,0-1.4-.768,1.331,1.331,0,0,0-1.167.61A3.519,3.519,0,0,0,34.9,30.713Zm11.756,3.163a2.73,2.73,0,0,1-2.229.979,2.574,2.574,0,0,1-2-.753,3.215,3.215,0,0,1-.7-2.207v-5.34H43.9V31.82q0,1.273,1.16,1.273a1.572,1.572,0,0,0,1.521-.768V26.556h2.184V34.7H46.717ZM52.7,34.7H50.52V26.556H52.7ZM50.392,24.447a1.072,1.072,0,0,1,.328-.806,1.412,1.412,0,0,1,1.781,0,1.15,1.15,0,0,1,0,1.619,1.4,1.4,0,0,1-1.77,0A1.069,1.069,0,0,1,50.392,24.447Zm7.855,10.408a4,4,0,0,1-2.918-1.1,3.908,3.908,0,0,1-1.126-2.93v-.211a4.923,4.923,0,0,1,.474-2.2,3.482,3.482,0,0,1,1.344-1.491,3.773,3.773,0,0,1,1.985-.523,3.382,3.382,0,0,1,2.632,1.054,4.284,4.284,0,0,1,.96,2.99v.889H56.41a2.022,2.022,0,0,0,.636,1.28,1.924,1.924,0,0,0,1.344.482,2.349,2.349,0,0,0,1.966-.911l1.069,1.2A3.267,3.267,0,0,1,60.1,34.467,4.349,4.349,0,0,1,58.247,34.855ZM58,28.167a1.363,1.363,0,0,0-1.051.437,2.257,2.257,0,0,0-.516,1.25H59.46v-.173a1.609,1.609,0,0,0-.392-1.118A1.407,1.407,0,0,0,58,28.167Zm9.414.429a5.913,5.913,0,0,0-.783-.06,1.594,1.594,0,0,0-1.619.836V34.7H62.834V26.556H64.89l.06.972A2.017,2.017,0,0,1,66.765,26.4a2.281,2.281,0,0,1,.678.1Zm.565,1.973a4.911,4.911,0,0,1,.855-3.035,2.774,2.774,0,0,1,2.338-1.13,2.5,2.5,0,0,1,1.966.889V23.136h2.184V34.7H73.355l-.105-.866a2.561,2.561,0,0,1-2.094,1.017,2.766,2.766,0,0,1-2.308-1.133A5.069,5.069,0,0,1,67.978,30.57Zm2.177.158a3.208,3.208,0,0,0,.4,1.755,1.3,1.3,0,0,0,1.16.61,1.457,1.457,0,0,0,1.423-.851V29.026a1.436,1.436,0,0,0-1.408-.851Q70.154,28.175,70.154,30.728ZM81.73,34.7a2.417,2.417,0,0,1-.218-.731,2.634,2.634,0,0,1-2.056.881,2.893,2.893,0,0,1-1.985-.693,2.228,2.228,0,0,1-.787-1.747,2.3,2.3,0,0,1,.96-1.988,4.738,4.738,0,0,1,2.775-.7h1v-.467a1.343,1.343,0,0,0-.29-.9,1.141,1.141,0,0,0-.915-.339,1.3,1.3,0,0,0-.862.264.9.9,0,0,0-.313.723H76.865a2.186,2.186,0,0,1,.437-1.31,2.887,2.887,0,0,1,1.235-.945,4.5,4.5,0,0,1,1.792-.343,3.556,3.556,0,0,1,2.391.757,2.648,2.648,0,0,1,.885,2.128v3.532a3.9,3.9,0,0,0,.324,1.755V34.7Zm-1.8-1.514a1.875,1.875,0,0,0,.889-.215,1.41,1.41,0,0,0,.6-.576V31h-.813q-1.634,0-1.74,1.13l-.008.128a.871.871,0,0,0,.286.67A1.112,1.112,0,0,0,79.93,33.191Z" transform="translate(863.649 3377.705)" fill="#445130"/>
    <path id="Trazado_125889" data-name="Trazado 125889" d="M6.146,8.691a1.159,1.159,0,0,0-.452-.983,5.927,5.927,0,0,0-1.627-.723,11.532,11.532,0,0,1-1.86-.749A3.039,3.039,0,0,1,.339,3.517a2.648,2.648,0,0,1,.5-1.585A3.267,3.267,0,0,1,2.278.844,5.414,5.414,0,0,1,4.383.452,4.928,4.928,0,0,1,6.477.877,3.334,3.334,0,0,1,7.9,2.079a3.143,3.143,0,0,1,.508,1.762H6.153A1.479,1.479,0,0,0,5.679,2.67a1.95,1.95,0,0,0-1.333-.418,2.084,2.084,0,0,0-1.288.35,1.1,1.1,0,0,0-.459.923,1.058,1.058,0,0,0,.538.9A6.084,6.084,0,0,0,4.722,5.1,6.85,6.85,0,0,1,7.531,6.537a2.865,2.865,0,0,1,.881,2.139,2.639,2.639,0,0,1-1.077,2.233,4.715,4.715,0,0,1-2.9.81,5.6,5.6,0,0,1-2.3-.463A3.647,3.647,0,0,1,.546,9.987,3.25,3.25,0,0,1,0,8.119H2.267q0,1.815,2.169,1.815a2.11,2.11,0,0,0,1.258-.328A1.066,1.066,0,0,0,6.146,8.691Zm5.95,2.877H9.911V3.419H12.1ZM9.783,1.31A1.072,1.072,0,0,1,10.111.5,1.231,1.231,0,0,1,11,.188,1.234,1.234,0,0,1,11.892.5a1.066,1.066,0,0,1,.331.806,1.069,1.069,0,0,1-.335.813A1.237,1.237,0,0,1,11,2.44a1.237,1.237,0,0,1-.885-.316A1.069,1.069,0,0,1,9.783,1.31Zm6.146,2.109L16,4.331a2.864,2.864,0,0,1,2.342-1.062A2.173,2.173,0,0,1,20.5,4.511a2.8,2.8,0,0,1,2.448-1.243,2.431,2.431,0,0,1,1.973.772,3.548,3.548,0,0,1,.648,2.323v5.2H23.385v-5.2a1.552,1.552,0,0,0-.271-1.013,1.2,1.2,0,0,0-.956-.32,1.358,1.358,0,0,0-1.356.934l.008,5.6H18.633V6.379a1.533,1.533,0,0,0-.279-1.024,1.213,1.213,0,0,0-.949-.316,1.411,1.411,0,0,0-1.341.768v5.761H13.888V3.419Zm15.063,8.3a4,4,0,0,1-2.918-1.1,3.908,3.908,0,0,1-1.126-2.93V7.479a4.923,4.923,0,0,1,.474-2.2,3.482,3.482,0,0,1,1.344-1.491,3.773,3.773,0,0,1,1.985-.523,3.382,3.382,0,0,1,2.632,1.054,4.284,4.284,0,0,1,.96,2.99V8.2H29.154a2.022,2.022,0,0,0,.636,1.28,1.924,1.924,0,0,0,1.344.482A2.349,2.349,0,0,0,33.1,9.053l1.069,1.2a3.267,3.267,0,0,1-1.326,1.081A4.349,4.349,0,0,1,30.991,11.719Zm-.249-6.688a1.363,1.363,0,0,0-1.051.437,2.257,2.257,0,0,0-.516,1.25H32.2V6.545a1.609,1.609,0,0,0-.392-1.118A1.407,1.407,0,0,0,30.743,5.031ZM30.939,0h2.372L31.225,2.335h-1.77Zm7.245,1.416v2h1.393v1.6H38.184V9.083a.971.971,0,0,0,.173.648.87.87,0,0,0,.663.2,3.471,3.471,0,0,0,.64-.053v1.649a4.481,4.481,0,0,1-1.318.2,2.078,2.078,0,0,1-2.335-2.312V5.016h-1.19v-1.6h1.19v-2ZM45.369,5.46a5.913,5.913,0,0,0-.783-.06,1.594,1.594,0,0,0-1.619.836v5.332H40.79V3.419h2.056l.06.972a2.017,2.017,0,0,1,1.815-1.122,2.281,2.281,0,0,1,.678.1Zm3.344,6.108H46.529V3.419h2.184ZM46.4,1.31A1.072,1.072,0,0,1,46.728.5a1.412,1.412,0,0,1,1.781,0,1.066,1.066,0,0,1,.331.806,1.069,1.069,0,0,1-.335.813,1.4,1.4,0,0,1-1.77,0A1.069,1.069,0,0,1,46.4,1.31Zm7.494,8.654a1.428,1.428,0,0,0,.979-.331,1.161,1.161,0,0,0,.392-.881h2.041a2.792,2.792,0,0,1-.452,1.518,2.982,2.982,0,0,1-1.216,1.069,3.807,3.807,0,0,1-1.706.38,3.538,3.538,0,0,1-2.756-1.111,4.4,4.4,0,0,1-1.009-3.069V7.4a4.346,4.346,0,0,1,1-3.005,3.5,3.5,0,0,1,2.749-1.122,3.427,3.427,0,0,1,2.451.87,3.08,3.08,0,0,1,.938,2.316H55.265a1.483,1.483,0,0,0-.392-1.028,1.459,1.459,0,0,0-2.143.158,3.2,3.2,0,0,0-.388,1.8v.226a3.245,3.245,0,0,0,.384,1.808A1.328,1.328,0,0,0,53.894,9.964Zm9.377,1.6a2.417,2.417,0,0,1-.218-.731A2.634,2.634,0,0,1,61,11.719a2.893,2.893,0,0,1-1.985-.693,2.228,2.228,0,0,1-.787-1.747,2.3,2.3,0,0,1,.96-1.988,4.738,4.738,0,0,1,2.775-.7h1V6.123a1.343,1.343,0,0,0-.29-.9,1.141,1.141,0,0,0-.915-.339,1.3,1.3,0,0,0-.862.264.9.9,0,0,0-.313.723H58.406a2.186,2.186,0,0,1,.437-1.31,2.887,2.887,0,0,1,1.235-.945,4.5,4.5,0,0,1,1.792-.343,3.556,3.556,0,0,1,2.391.757,2.648,2.648,0,0,1,.885,2.128V9.685a3.9,3.9,0,0,0,.324,1.755v.128Zm-1.8-1.514a1.875,1.875,0,0,0,.889-.215,1.41,1.41,0,0,0,.6-.576v-1.4h-.813q-1.634,0-1.74,1.13L60.4,9.12a.871.871,0,0,0,.286.67A1.112,1.112,0,0,0,61.471,10.054Z" transform="translate(1051.458 3379.365)" fill="#445130"/>
    <path id="Trazado_125892" data-name="Trazado 125892" d="M7.117,9.309H3.156L2.4,11.568H0L4.082.6H6.176l4.1,10.966h-2.4ZM3.766,7.479H6.507l-1.378-4.1ZM15.575,9.316a.7.7,0,0,0-.4-.629,4.491,4.491,0,0,0-1.269-.41Q11,7.667,11,5.807A2.239,2.239,0,0,1,11.9,4a3.63,3.63,0,0,1,2.354-.727A3.907,3.907,0,0,1,16.738,4a2.3,2.3,0,0,1,.93,1.9H15.492a1.053,1.053,0,0,0-.3-.772,1.275,1.275,0,0,0-.941-.305,1.3,1.3,0,0,0-.851.249.785.785,0,0,0-.3.633.671.671,0,0,0,.343.584,3.525,3.525,0,0,0,1.156.384,9.442,9.442,0,0,1,1.371.365,2.252,2.252,0,0,1,1.725,2.192,2.126,2.126,0,0,1-.956,1.8,4.126,4.126,0,0,1-2.47.689,4.309,4.309,0,0,1-1.819-.365,3.052,3.052,0,0,1-1.246-1,2.327,2.327,0,0,1-.452-1.374h2.064a1.136,1.136,0,0,0,.429.889,1.7,1.7,0,0,0,1.069.309,1.576,1.576,0,0,0,.945-.237A.738.738,0,0,0,15.575,9.316Zm5.814,2.252H19.2V3.419h2.184ZM19.077,1.31A1.072,1.072,0,0,1,19.4.5a1.412,1.412,0,0,1,1.781,0,1.066,1.066,0,0,1,.331.806,1.069,1.069,0,0,1-.335.813,1.4,1.4,0,0,1-1.77,0A1.069,1.069,0,0,1,19.077,1.31Zm6.146,2.109.068.911a2.864,2.864,0,0,1,2.342-1.062,2.173,2.173,0,0,1,2.161,1.243,2.8,2.8,0,0,1,2.448-1.243,2.431,2.431,0,0,1,1.973.772,3.548,3.548,0,0,1,.648,2.323v5.2H32.678v-5.2a1.552,1.552,0,0,0-.271-1.013,1.2,1.2,0,0,0-.956-.32,1.358,1.358,0,0,0-1.356.934l.008,5.6H27.926V6.379a1.533,1.533,0,0,0-.279-1.024,1.213,1.213,0,0,0-.949-.316,1.411,1.411,0,0,0-1.341.768v5.761H23.181V3.419Zm15.063,8.3a4,4,0,0,1-2.918-1.1,3.908,3.908,0,0,1-1.126-2.93V7.479a4.923,4.923,0,0,1,.474-2.2A3.482,3.482,0,0,1,38.06,3.792a3.773,3.773,0,0,1,1.985-.523,3.382,3.382,0,0,1,2.632,1.054,4.284,4.284,0,0,1,.96,2.99V8.2H38.448a2.022,2.022,0,0,0,.636,1.28,1.924,1.924,0,0,0,1.344.482,2.349,2.349,0,0,0,1.966-.911l1.069,1.2a3.267,3.267,0,0,1-1.326,1.081A4.349,4.349,0,0,1,40.285,11.719Zm-.249-6.688a1.363,1.363,0,0,0-1.051.437,2.257,2.257,0,0,0-.516,1.25H41.5V6.545a1.609,1.609,0,0,0-.392-1.118A1.407,1.407,0,0,0,40.037,5.031ZM40.232,0H42.6L40.519,2.335h-1.77Zm7.245,1.416v2h1.393v1.6H47.478V9.083a.971.971,0,0,0,.173.648.87.87,0,0,0,.663.2,3.471,3.471,0,0,0,.64-.053v1.649a4.481,4.481,0,0,1-1.318.2A2.078,2.078,0,0,1,45.3,9.407V5.016h-1.19v-1.6H45.3v-2ZM54.662,5.46a5.913,5.913,0,0,0-.783-.06,1.594,1.594,0,0,0-1.619.836v5.332H50.083V3.419h2.056l.06.972a2.017,2.017,0,0,1,1.815-1.122,2.281,2.281,0,0,1,.678.1Zm3.344,6.108H55.822V3.419h2.184ZM55.694,1.31A1.072,1.072,0,0,1,56.022.5,1.412,1.412,0,0,1,57.8.5a1.066,1.066,0,0,1,.331.806,1.069,1.069,0,0,1-.335.813,1.4,1.4,0,0,1-1.77,0A1.069,1.069,0,0,1,55.694,1.31Zm7.494,8.654a1.428,1.428,0,0,0,.979-.331,1.161,1.161,0,0,0,.392-.881H66.6a2.792,2.792,0,0,1-.452,1.518,2.982,2.982,0,0,1-1.216,1.069,3.807,3.807,0,0,1-1.706.38,3.538,3.538,0,0,1-2.756-1.111A4.4,4.4,0,0,1,59.46,7.539V7.4a4.346,4.346,0,0,1,1-3.005,3.5,3.5,0,0,1,2.749-1.122,3.428,3.428,0,0,1,2.451.87A3.08,3.08,0,0,1,66.6,6.454H64.559a1.483,1.483,0,0,0-.392-1.028,1.459,1.459,0,0,0-2.143.158,3.2,3.2,0,0,0-.388,1.8v.226a3.245,3.245,0,0,0,.384,1.808A1.328,1.328,0,0,0,63.188,9.964Zm9.377,1.6a2.417,2.417,0,0,1-.218-.731,2.634,2.634,0,0,1-2.056.881,2.893,2.893,0,0,1-1.985-.693,2.228,2.228,0,0,1-.787-1.747,2.3,2.3,0,0,1,.96-1.988,4.738,4.738,0,0,1,2.775-.7h1V6.123a1.343,1.343,0,0,0-.29-.9,1.141,1.141,0,0,0-.915-.339,1.3,1.3,0,0,0-.862.264.9.9,0,0,0-.313.723H67.7a2.186,2.186,0,0,1,.437-1.31,2.887,2.887,0,0,1,1.235-.945,4.5,4.5,0,0,1,1.792-.343,3.556,3.556,0,0,1,2.391.757,2.648,2.648,0,0,1,.885,2.128V9.685a3.9,3.9,0,0,0,.324,1.755v.128Zm-1.8-1.514a1.875,1.875,0,0,0,.889-.215,1.41,1.41,0,0,0,.6-.576v-1.4h-.813q-1.634,0-1.74,1.13L69.7,9.12a.871.871,0,0,0,.286.67A1.112,1.112,0,0,0,70.764,10.054ZM82.077,4.308a2.717,2.717,0,0,1,2.177-1.039q2.651,0,2.689,3.08v5.219H84.765V6.409a1.514,1.514,0,0,0-.3-1.036,1.292,1.292,0,0,0-1-.335,1.481,1.481,0,0,0-1.386.738v5.792H79.9V0h2.177Zm11.229,7.26a2.417,2.417,0,0,1-.218-.731,2.634,2.634,0,0,1-2.056.881,2.893,2.893,0,0,1-1.985-.693,2.228,2.228,0,0,1-.787-1.747,2.3,2.3,0,0,1,.96-1.988A4.738,4.738,0,0,1,92,6.59h1V6.123a1.343,1.343,0,0,0-.29-.9,1.141,1.141,0,0,0-.915-.339,1.3,1.3,0,0,0-.862.264.9.9,0,0,0-.313.723H88.441a2.186,2.186,0,0,1,.437-1.31,2.887,2.887,0,0,1,1.235-.945A4.5,4.5,0,0,1,91.9,3.269a3.556,3.556,0,0,1,2.391.757,2.648,2.648,0,0,1,.885,2.128V9.685A3.9,3.9,0,0,0,95.5,11.44v.128Zm-1.8-1.514a1.875,1.875,0,0,0,.889-.215,1.41,1.41,0,0,0,.6-.576v-1.4h-.813q-1.634,0-1.74,1.13l-.008.128a.871.871,0,0,0,.286.67A1.112,1.112,0,0,0,91.506,10.054Zm8.736-.09a1.428,1.428,0,0,0,.979-.331,1.161,1.161,0,0,0,.392-.881h2.041a2.792,2.792,0,0,1-.452,1.518,2.982,2.982,0,0,1-1.216,1.069,3.807,3.807,0,0,1-1.706.38,3.538,3.538,0,0,1-2.756-1.111,4.4,4.4,0,0,1-1.009-3.069V7.4a4.346,4.346,0,0,1,1-3.005,3.5,3.5,0,0,1,2.749-1.122,3.428,3.428,0,0,1,2.451.87,3.08,3.08,0,0,1,.938,2.316h-2.041a1.483,1.483,0,0,0-.392-1.028,1.459,1.459,0,0,0-2.143.158,3.2,3.2,0,0,0-.388,1.8v.226a3.245,3.245,0,0,0,.384,1.808A1.328,1.328,0,0,0,100.242,9.964Zm6.951,1.6h-2.184V3.419h2.184ZM104.881,1.31A1.072,1.072,0,0,1,105.209.5a1.412,1.412,0,0,1,1.781,0,1.066,1.066,0,0,1,.331.806,1.069,1.069,0,0,1-.335.813,1.4,1.4,0,0,1-1.77,0A1.069,1.069,0,0,1,104.881,1.31Zm8.827,10.258a2.417,2.417,0,0,1-.218-.731,2.634,2.634,0,0,1-2.056.881,2.893,2.893,0,0,1-1.985-.693,2.228,2.228,0,0,1-.787-1.747,2.3,2.3,0,0,1,.96-1.988,4.738,4.738,0,0,1,2.775-.7h1V6.123a1.343,1.343,0,0,0-.29-.9,1.141,1.141,0,0,0-.915-.339,1.3,1.3,0,0,0-.862.264.9.9,0,0,0-.313.723h-2.177a2.186,2.186,0,0,1,.437-1.31,2.887,2.887,0,0,1,1.235-.945,4.5,4.5,0,0,1,1.792-.343,3.556,3.556,0,0,1,2.391.757,2.648,2.648,0,0,1,.885,2.128V9.685a3.9,3.9,0,0,0,.324,1.755v.128Zm-1.8-1.514a1.875,1.875,0,0,0,.889-.215,1.41,1.41,0,0,0,.6-.576v-1.4h-.813q-1.634,0-1.74,1.13l-.008.128a.871.871,0,0,0,.286.67A1.112,1.112,0,0,0,111.908,10.054ZM3.08,34.7H.9V23.136H3.08Zm6.515,0a2.417,2.417,0,0,1-.218-.731,2.634,2.634,0,0,1-2.056.881,2.893,2.893,0,0,1-1.985-.693,2.228,2.228,0,0,1-.787-1.747,2.3,2.3,0,0,1,.96-1.988,4.738,4.738,0,0,1,2.775-.7h1v-.467a1.343,1.343,0,0,0-.29-.9,1.141,1.141,0,0,0-.915-.339,1.3,1.3,0,0,0-.862.264A.9.9,0,0,0,6.906,29H4.73a2.186,2.186,0,0,1,.437-1.31A2.887,2.887,0,0,1,6.4,26.748,4.5,4.5,0,0,1,8.194,26.4a3.556,3.556,0,0,1,2.391.757,2.648,2.648,0,0,1,.885,2.128v3.532a3.9,3.9,0,0,0,.324,1.755V34.7Zm-1.8-1.514a1.875,1.875,0,0,0,.889-.215,1.41,1.41,0,0,0,.6-.576V31H8.473q-1.634,0-1.74,1.13l-.008.128a.871.871,0,0,0,.286.67A1.112,1.112,0,0,0,7.795,33.191Zm12.69-2.621a4.911,4.911,0,0,1,.855-3.035,2.774,2.774,0,0,1,2.338-1.13,2.5,2.5,0,0,1,1.966.889V23.136h2.184V34.7H25.863l-.105-.866a2.561,2.561,0,0,1-2.094,1.017,2.766,2.766,0,0,1-2.308-1.133A5.069,5.069,0,0,1,20.485,30.57Zm2.177.158a3.208,3.208,0,0,0,.4,1.755,1.3,1.3,0,0,0,1.16.61,1.457,1.457,0,0,0,1.423-.851V29.026a1.436,1.436,0,0,0-1.408-.851Q22.662,28.175,22.662,30.728Zm10.6,4.127a4,4,0,0,1-2.918-1.1,3.908,3.908,0,0,1-1.126-2.93v-.211a4.923,4.923,0,0,1,.474-2.2,3.482,3.482,0,0,1,1.344-1.491,3.773,3.773,0,0,1,1.985-.523,3.382,3.382,0,0,1,2.632,1.054,4.284,4.284,0,0,1,.96,2.99v.889H31.428a2.022,2.022,0,0,0,.636,1.28,1.924,1.924,0,0,0,1.344.482,2.349,2.349,0,0,0,1.966-.911l1.069,1.2a3.267,3.267,0,0,1-1.326,1.081A4.349,4.349,0,0,1,33.266,34.855Zm-.249-6.688a1.363,1.363,0,0,0-1.051.437,2.257,2.257,0,0,0-.516,1.25h3.028v-.173a1.609,1.609,0,0,0-.392-1.118A1.407,1.407,0,0,0,33.017,28.167Zm9.414.429a5.913,5.913,0,0,0-.783-.06,1.594,1.594,0,0,0-1.619.836V34.7H37.853V26.556h2.056l.06.972A2.017,2.017,0,0,1,41.784,26.4a2.281,2.281,0,0,1,.678.1Zm4.654,6.259a4,4,0,0,1-2.918-1.1,3.908,3.908,0,0,1-1.126-2.93v-.211a4.923,4.923,0,0,1,.474-2.2,3.482,3.482,0,0,1,1.344-1.491,3.773,3.773,0,0,1,1.985-.523,3.382,3.382,0,0,1,2.632,1.054,4.284,4.284,0,0,1,.96,2.99v.889H45.248a2.022,2.022,0,0,0,.636,1.28,1.924,1.924,0,0,0,1.344.482,2.349,2.349,0,0,0,1.966-.911l1.069,1.2a3.267,3.267,0,0,1-1.326,1.081A4.349,4.349,0,0,1,47.086,34.855Zm-.249-6.688a1.363,1.363,0,0,0-1.051.437,2.257,2.257,0,0,0-.516,1.25H48.3v-.173a1.609,1.609,0,0,0-.392-1.118A1.407,1.407,0,0,0,46.837,28.167ZM55.062,33.1a1.428,1.428,0,0,0,.979-.331,1.161,1.161,0,0,0,.392-.881h2.041a2.792,2.792,0,0,1-.452,1.518,2.982,2.982,0,0,1-1.216,1.069,3.807,3.807,0,0,1-1.706.38,3.538,3.538,0,0,1-2.756-1.111,4.4,4.4,0,0,1-1.009-3.069v-.143a4.346,4.346,0,0,1,1-3.005A3.5,3.5,0,0,1,55.084,26.4a3.428,3.428,0,0,1,2.451.87,3.08,3.08,0,0,1,.938,2.316H56.432a1.483,1.483,0,0,0-.392-1.028,1.459,1.459,0,0,0-2.143.158,3.2,3.2,0,0,0-.388,1.8v.226a3.245,3.245,0,0,0,.384,1.808A1.328,1.328,0,0,0,55.062,33.1Zm6.778-5.656A2.717,2.717,0,0,1,64.016,26.4q2.651,0,2.689,3.08V34.7H64.529V29.545a1.514,1.514,0,0,0-.3-1.036,1.292,1.292,0,0,0-1-.335,1.481,1.481,0,0,0-1.386.738V34.7H59.663V23.136H61.84ZM73.069,34.7a2.417,2.417,0,0,1-.218-.731,2.634,2.634,0,0,1-2.056.881,2.893,2.893,0,0,1-1.985-.693,2.228,2.228,0,0,1-.787-1.747,2.3,2.3,0,0,1,.96-1.988,4.738,4.738,0,0,1,2.775-.7h1v-.467a1.343,1.343,0,0,0-.29-.9,1.141,1.141,0,0,0-.915-.339,1.3,1.3,0,0,0-.862.264A.9.9,0,0,0,70.38,29H68.2a2.186,2.186,0,0,1,.437-1.31,2.887,2.887,0,0,1,1.235-.945,4.5,4.5,0,0,1,1.792-.343,3.556,3.556,0,0,1,2.391.757,2.648,2.648,0,0,1,.885,2.128v3.532a3.9,3.9,0,0,0,.324,1.755V34.7Zm-1.8-1.514a1.875,1.875,0,0,0,.889-.215,1.41,1.41,0,0,0,.6-.576V31h-.813q-1.634,0-1.74,1.13l-.008.128a.871.871,0,0,0,.286.67A1.112,1.112,0,0,0,71.269,33.191Z" transform="translate(1188.631 3380.598)" fill="#445130"/>
    <g id="Grupo_84087" data-name="Grupo 84087" transform="translate(902.152 3298.215)">
      <path id="Trazado_125159" data-name="Trazado 125159" d="M-431.611-7332.141l-11.926,11.606" transform="translate(447.475 7332.141)" fill="none" stroke="#59836c" stroke-width="1"/>
      <path id="Polígono_12" data-name="Polígono 12" d="M3,0,6,5.141H0Z" transform="translate(4.241 15.545) rotate(-135)" fill="#b5c7d1"/>
    </g>
    <g id="Grupo_84086" data-name="Grupo 84086" transform="translate(940.635 3296.457)">
      <path id="Trazado_125160" data-name="Trazado 125160" d="M-399.723-7334.191v29.093" transform="translate(402.722 7334.191)" fill="none" stroke="#59836c" stroke-width="1"/>
      <path id="Polígono_13" data-name="Polígono 13" d="M3,0,6,5.141H0Z" transform="translate(5.998 31.664) rotate(180)" fill="#b5c7d1"/>
    </g>
    <g id="Grupo_84085" data-name="Grupo 84085" transform="translate(965.914 3294.051)">
      <path id="Trazado_125161" data-name="Trazado 125161" d="M-373.723-7337l8.939,10.064" transform="translate(373.723 7337)" fill="none" stroke="#59836c" stroke-width="1"/>
      <path id="Polígono_14" data-name="Polígono 14" d="M3,0,6,5.141H0Z" transform="translate(14.221 10.617) rotate(135)" fill="#b5c7d1"/>
    </g>
    <g id="Grupo_84088" data-name="Grupo 84088" transform="translate(1210.103 3295.307) rotate(90)">
      <path id="Trazado_125161-2" data-name="Trazado 125161" d="M0,0,8.939,10.064" transform="translate(0)" fill="none" stroke="#59836c" stroke-width="1"/>
      <path id="Polígono_14-2" data-name="Polígono 14" d="M3,0,6,5.141H0Z" transform="translate(14.221 10.617) rotate(135)" fill="#b5c7d1"/>
    </g>
    <g id="Grupo_84089" data-name="Grupo 84089" transform="translate(1231.124 3296.457)">
      <path id="Trazado_125160-2" data-name="Trazado 125160" d="M-399.723-7334.191v29.093" transform="translate(402.722 7334.191)" fill="none" stroke="#59836c" stroke-width="1"/>
      <path id="Polígono_13-2" data-name="Polígono 13" d="M3,0,6,5.141H0Z" transform="translate(5.998 31.664) rotate(180)" fill="#b5c7d1"/>
    </g>
    <g id="Grupo_84090" data-name="Grupo 84090" transform="translate(1258.144 3294.051)">
      <path id="Trazado_125161-3" data-name="Trazado 125161" d="M-373.723-7337l8.939,10.064" transform="translate(373.723 7337)" fill="none" stroke="#59836c" stroke-width="1"/>
      <path id="Polígono_14-3" data-name="Polígono 14" d="M3,0,6,5.141H0Z" transform="translate(14.221 10.617) rotate(135)" fill="#b5c7d1"/>
    </g>
    <path id="Trazado_125149" data-name="Trazado 125149" d="M-320.892-7356.61s29.419-.274,45.431-36.637,33.733-65.821,49.383-34.091,36.685,72.593,54.882,68.84" transform="translate(1332.076 10645.909)" fill="none" stroke="#a6cdec" stroke-width="2"/>
    <path id="Trazado_125150" data-name="Trazado 125150" d="M-119.7-7357.782s10.538-131.762,45.871-78.606,65.377,81.927,105.473,77.4" transform="translate(1303.286 10647.08)" fill="none" stroke="#a6cdec" stroke-width="2"/>
    <path id="Trazado_125151" data-name="Trazado 125151" d="M-364.628-7359.882s-12.719-130.271-47.738-78.007-81.057,79.105-108.3,79.287" transform="translate(1360.665 10647.258)" fill="none" stroke="#a6cdec" stroke-width="2"/>
    <path id="Trazado_125880" data-name="Trazado 125880" d="M0,0H172.237V4.284H0Z" transform="translate(832 3287.195)" fill="#a6cdec"/>
    <path id="Trazado_125883" data-name="Trazado 125883" d="M0,0H156.813V4.284H0Z" transform="translate(1008.521 3287.195)" fill="#a6cdec"/>
    <path id="Trazado_125891" data-name="Trazado 125891" d="M0,0H156.813V4.284H0Z" transform="translate(1178.187 3287.195)" fill="#a6cdec"/>
  </g>
</svg>
