<svg xmlns="http://www.w3.org/2000/svg" width="433.978" height="199.465" viewBox="0 0 433.978 199.465">
  <g id="Grupo_1204391" data-name="Grupo 1204391" transform="translate(-318.233 -2633.609)">
    <g id="Grupo_1204390" data-name="Grupo 1204390">
      <g id="Trazado_125865" data-name="Trazado 125865" transform="translate(429.948 2796.446)" fill="#0a4666">
        <path d="M 31.46532249450684 25.59414100646973 L 0.5000022053718567 25.59414100646973 L 0.5000022053718567 0.5000014305114746 L 31.46532249450684 0.5000014305114746 L 31.46532249450684 25.59414100646973 Z" stroke="none"/>
        <path d="M 1.000001907348633 1.000001907348633 L 1.000001907348633 25.09414100646973 L 30.96532249450684 25.09414100646973 L 30.96532249450684 1.000001907348633 L 1.000001907348633 1.000001907348633 M 1.9073486328125e-06 1.9073486328125e-06 L 31.96532249450684 1.9073486328125e-06 L 31.96532249450684 26.09414100646973 L 1.9073486328125e-06 26.09414100646973 L 1.9073486328125e-06 1.9073486328125e-06 Z" stroke="none" fill="#000"/>
      </g>
      <g id="Trazado_125857" data-name="Trazado 125857" transform="translate(460.609 2772.962)" fill="#0a4666">
        <path d="M 31.46532249450684 49.07887268066406 L 0.5000022053718567 49.07887268066406 L 0.5000022053718567 0.5000044107437134 L 31.46532249450684 0.5000044107437134 L 31.46532249450684 49.07887268066406 Z" stroke="none"/>
        <path d="M 1.000001907348633 0.9999961853027344 L 1.000001907348633 48.57886505126953 L 30.96532249450684 48.57886505126953 L 30.96532249450684 0.9999961853027344 L 1.000001907348633 0.9999961853027344 M 1.9073486328125e-06 -3.814697265625e-06 L 31.96532249450684 -3.814697265625e-06 L 31.96532249450684 49.57886505126953 L 1.9073486328125e-06 49.57886505126953 L 1.9073486328125e-06 -3.814697265625e-06 Z" stroke="none" fill="#000"/>
      </g>
      <g id="Trazado_125856" data-name="Trazado 125856" transform="translate(491.922 2726.645)" fill="#0a4666">
        <path d="M 30.85342597961426 95.39598083496094 L 0.5000004768371582 95.39598083496094 L 0.5000004768371582 0.500002920627594 L 30.85342597961426 0.500002920627594 L 30.85342597961426 95.39598083496094 Z" stroke="none"/>
        <path d="M 0.9999923706054688 1 L 0.9999923706054688 94.89598083496094 L 30.35342025756836 94.89598083496094 L 30.35342025756836 1 L 0.9999923706054688 1 M -7.62939453125e-06 0 L 31.35342025756836 0 L 31.35342025756836 95.89598083496094 L -7.62939453125e-06 95.89598083496094 L -7.62939453125e-06 0 Z" stroke="none" fill="#000"/>
      </g>
      <g id="Trazado_125858" data-name="Trazado 125858" transform="translate(522.583 2678.37)" fill="#0a4666">
        <path d="M 30.8129768371582 143.6701354980469 L 0.4999955892562866 143.6701354980469 L 0.4999955892562866 0.4999950230121613 L 30.8129768371582 0.4999950230121613 L 30.8129768371582 143.6701354980469 Z" stroke="none"/>
        <path d="M 1.000005722045898 0.9999847412109375 L 1.000005722045898 143.1701202392578 L 30.31296730041504 143.1701202392578 L 30.31296730041504 0.9999847412109375 L 1.000005722045898 0.9999847412109375 M 5.7220458984375e-06 -1.52587890625e-05 L 31.31296730041504 -1.52587890625e-05 L 31.31296730041504 144.1701202392578 L 5.7220458984375e-06 144.1701202392578 L 5.7220458984375e-06 -1.52587890625e-05 Z" stroke="none" fill="#000"/>
      </g>
      <g id="Trazado_125860" data-name="Trazado 125860" transform="translate(553.243 2708.379)" fill="#0a4666">
        <path d="M 32.11768341064453 113.6618804931641 L 0.4999969303607941 113.6618804931641 L 0.4999969303607941 0.5000078678131104 L 32.11768341064453 0.5000078678131104 L 32.11768341064453 113.6618804931641 Z" stroke="none"/>
        <path d="M 0.9999942779541016 1 L 0.9999942779541016 113.1618728637695 L 31.61768531799316 113.1618728637695 L 31.61768531799316 1 L 0.9999942779541016 1 M -7.62939453125e-06 0 L 32.6176872253418 0 L 32.6176872253418 114.1618728637695 L -7.62939453125e-06 114.1618728637695 L -7.62939453125e-06 0 Z" stroke="none" fill="#000"/>
      </g>
      <g id="Trazado_125862" data-name="Trazado 125862" transform="translate(585.28 2778.181)" fill="#0a4666">
        <path d="M 30.0886344909668 43.86004257202148 L 0.5000044107437134 43.86004257202148 L 0.5000044107437134 0.5000013113021851 L 30.0886344909668 0.5000013113021851 L 30.0886344909668 43.86004257202148 Z" stroke="none"/>
        <path d="M 0.9999942779541016 1 L 0.9999942779541016 43.36004257202148 L 29.58862495422363 43.36004257202148 L 29.58862495422363 1 L 0.9999942779541016 1 M -5.7220458984375e-06 0 L 30.58862495422363 0 L 30.58862495422363 44.36004257202148 L -5.7220458984375e-06 44.36004257202148 L -5.7220458984375e-06 0 Z" stroke="none" fill="#000"/>
      </g>
      <g id="Trazado_125863" data-name="Trazado 125863" transform="translate(615.217 2755.348)" fill="#0a4666">
        <path d="M 31.46532249450684 66.69242095947266 L 0.5000022053718567 66.69242095947266 L 0.5000022053718567 0.5000004768371582 L 31.46532249450684 0.5000004768371582 L 31.46532249450684 66.69242095947266 Z" stroke="none"/>
        <path d="M 1.000001907348633 1 L 1.000001907348633 66.19242095947266 L 30.96532249450684 66.19242095947266 L 30.96532249450684 1 L 1.000001907348633 1 M 1.9073486328125e-06 0 L 31.96532249450684 0 L 31.96532249450684 67.19242095947266 L 1.9073486328125e-06 67.19242095947266 L 1.9073486328125e-06 0 Z" stroke="none" fill="#000"/>
      </g>
      <g id="Trazado_125864" data-name="Trazado 125864" transform="translate(646.53 2773.614)" fill="#0a4666">
        <path d="M 30.8129768371582 48.42651748657227 L 0.4999965131282806 48.42651748657227 L 0.4999965131282806 0.4999987483024597 L 30.8129768371582 0.4999987483024597 L 30.8129768371582 48.42651748657227 Z" stroke="none"/>
        <path d="M 0.9999961853027344 1 L 0.9999961853027344 47.92651748657227 L 30.3129768371582 47.92651748657227 L 30.3129768371582 1 L 0.9999961853027344 1 M -3.814697265625e-06 0 L 31.3129768371582 0 L 31.3129768371582 48.92651748657227 L -3.814697265625e-06 48.92651748657227 L -3.814697265625e-06 0 Z" stroke="none" fill="#000"/>
      </g>
      <g id="Trazado_125867" data-name="Trazado 125867" transform="translate(677.19 2812.755)" fill="#0a4666">
        <path d="M 31.36658096313477 9.285301208496094 L 0.5000004768371582 9.285301208496094 L 0.5000004768371582 0.5000015497207642 L 31.36658096313477 0.5000015497207642 L 31.36658096313477 9.285301208496094 Z" stroke="none"/>
        <path d="M 1 1.000001907348633 L 1 8.785301208496094 L 30.86658096313477 8.785301208496094 L 30.86658096313477 1.000001907348633 L 1 1.000001907348633 M 0 1.9073486328125e-06 L 31.86658096313477 1.9073486328125e-06 L 31.86658096313477 9.785301208496094 L 0 9.785301208496094 L 0 1.9073486328125e-06 Z" stroke="none" fill="#000"/>
      </g>
      <g id="Trazado_125866" data-name="Trazado 125866" transform="translate(708.503 2810.146)" fill="#0a4666">
        <path d="M 30.16061973571777 11.89471817016602 L 0.4999998807907104 11.89471817016602 L 0.4999998807907104 0.4999985992908478 L 30.16061973571777 0.4999985992908478 L 30.16061973571777 11.89471817016602 Z" stroke="none"/>
        <path d="M 1 0.9999990463256836 L 1 11.39471817016602 L 29.66061973571777 11.39471817016602 L 29.66061973571777 0.9999990463256836 L 1 0.9999990463256836 M 0 -9.5367431640625e-07 L 30.66061973571777 -9.5367431640625e-07 L 30.66061973571777 12.39471817016602 L 0 12.39471817016602 L 0 -9.5367431640625e-07 Z" stroke="none" fill="#000"/>
      </g>
      <path id="Trazado_125850" data-name="Trazado 125850" d="M6.09-4.259H.924v-.72L3.653-8.012A6.484,6.484,0,0,0,4.489-9.13a1.866,1.866,0,0,0,.23-.891,1.415,1.415,0,0,0-.374-1.013,1.306,1.306,0,0,0-1-.4A1.547,1.547,0,0,0,2.188-11a1.624,1.624,0,0,0-.414,1.183h-1a2.325,2.325,0,0,1,.7-1.76,2.6,2.6,0,0,1,1.876-.671,2.5,2.5,0,0,1,1.738.577,1.967,1.967,0,0,1,.639,1.535A4.51,4.51,0,0,1,4.243-7.368L2.131-5.077H6.09ZM7.611-8.212l.4-3.931h4.04v.926H8.862l-.238,2.15A2.544,2.544,0,0,1,9.94-9.409a2.175,2.175,0,0,1,1.711.712,2.791,2.791,0,0,1,.634,1.925,2.694,2.694,0,0,1-.658,1.92,2.4,2.4,0,0,1-1.838.7A2.492,2.492,0,0,1,8.082-4.73a2.313,2.313,0,0,1-.753-1.6h.948a1.591,1.591,0,0,0,.482,1.021,1.5,1.5,0,0,0,1.029.344,1.352,1.352,0,0,0,1.1-.477,1.992,1.992,0,0,0,.4-1.316,1.828,1.828,0,0,0-.43-1.27A1.464,1.464,0,0,0,9.707-8.51a1.651,1.651,0,0,0-1.029.287l-.265.217Z" transform="translate(347.483 2681.325)" fill="#6c6c6c"/>
      <path id="Trazado_125869" data-name="Trazado 125869" d="M2.1-7.667h.664A1.46,1.46,0,0,0,3.751-8a1.1,1.1,0,0,0,.358-.865,1.079,1.079,0,0,0-1.218-1.223,1.267,1.267,0,0,0-.915.327,1.145,1.145,0,0,0-.342.867H.751a1.775,1.775,0,0,1,.6-1.374,2.2,2.2,0,0,1,1.536-.547,2.176,2.176,0,0,1,1.543.521,1.881,1.881,0,0,1,.559,1.448,1.527,1.527,0,0,1-.294.879,1.774,1.774,0,0,1-.8.635,1.71,1.71,0,0,1,.886.6A1.672,1.672,0,0,1,5.1-5.7a1.9,1.9,0,0,1-.612,1.486A2.29,2.29,0,0,1,2.9-3.663,2.351,2.351,0,0,1,1.3-4.193a1.759,1.759,0,0,1-.614-1.4h.889a1.137,1.137,0,0,0,.358.879,1.363,1.363,0,0,0,.96.33,1.337,1.337,0,0,0,.979-.334,1.289,1.289,0,0,0,.339-.96,1.17,1.17,0,0,0-.373-.932,1.624,1.624,0,0,0-1.075-.334H2.1Z" transform="translate(426.447 2836.736)" fill="#6c6c6c"/>
      <path id="Trazado_125870" data-name="Trazado 125870" d="M4.445-6.044H5.41v.721H4.445v1.615H3.556V-5.322H.388v-.521L3.5-10.664h.941Zm-3.053,0H3.556V-9.455l-.105.191Z" transform="translate(489.83 2836.686)" fill="#6c6c6c"/>
      <path id="Trazado_125871" data-name="Trazado 125871" d="M1.376-7.2l.354-3.469H5.294v.817H2.48l-.21,1.9a2.245,2.245,0,0,1,1.161-.3,1.919,1.919,0,0,1,1.51.628,2.462,2.462,0,0,1,.559,1.7,2.377,2.377,0,0,1-.581,1.694A2.116,2.116,0,0,1,3.3-3.612a2.2,2.2,0,0,1-1.505-.511,2.041,2.041,0,0,1-.664-1.414h.836a1.4,1.4,0,0,0,.425.9,1.322,1.322,0,0,0,.908.3,1.193,1.193,0,0,0,.968-.42,1.758,1.758,0,0,0,.351-1.161,1.613,1.613,0,0,0-.38-1.12,1.292,1.292,0,0,0-1.011-.423,1.457,1.457,0,0,0-.908.253l-.234.191Z" transform="translate(552.851 2836.686)" fill="#6c6c6c"/>
      <path id="Trazado_125872" data-name="Trazado 125872" d="M4.383-10.671v.75H4.221a2.327,2.327,0,0,0-1.644.612A2.545,2.545,0,0,0,1.87-7.642a1.887,1.887,0,0,1,1.5-.631,1.8,1.8,0,0,1,1.45.64,2.47,2.47,0,0,1,.542,1.653,2.462,2.462,0,0,1-.585,1.72,2.015,2.015,0,0,1-1.57.645,1.986,1.986,0,0,1-1.62-.767A3.039,3.039,0,0,1,.967-6.357V-6.7a4.58,4.58,0,0,1,.819-2.936,3.009,3.009,0,0,1,2.439-1.039ZM3.222-7.537a1.41,1.41,0,0,0-.836.272,1.419,1.419,0,0,0-.53.683v.325a2.282,2.282,0,0,0,.387,1.386,1.16,1.16,0,0,0,.965.526,1.124,1.124,0,0,0,.939-.44,1.824,1.824,0,0,0,.342-1.151A1.825,1.825,0,0,0,4.142-7.1,1.11,1.11,0,0,0,3.222-7.537Z" transform="translate(616.838 2836.688)" fill="#6c6c6c"/>
      <path id="Trazado_125873" data-name="Trazado 125873" d="M5.265-10.167,2.384-3.707H1.457l2.872-6.23H.564v-.726h4.7Z" transform="translate(682.213 2836.686)" fill="#6c6c6c"/>
      <path id="Trazado_125874" data-name="Trazado 125874" d="M5.082-8.9a1.615,1.615,0,0,1-.275.927,1.869,1.869,0,0,1-.743.635,1.994,1.994,0,0,1,.862.683,1.719,1.719,0,0,1,.318,1.018A1.818,1.818,0,0,1,4.636-4.2a2.34,2.34,0,0,1-1.6.535A2.33,2.33,0,0,1,1.425-4.2a1.826,1.826,0,0,1-.6-1.436,1.771,1.771,0,0,1,.308-1.018,1.918,1.918,0,0,1,.853-.688,1.823,1.823,0,0,1-.731-.635A1.638,1.638,0,0,1,.983-8.9a1.8,1.8,0,0,1,.564-1.4,2.115,2.115,0,0,1,1.486-.516,2.117,2.117,0,0,1,1.484.516A1.794,1.794,0,0,1,5.082-8.9ZM4.361-5.655a1.282,1.282,0,0,0-.37-.951,1.313,1.313,0,0,0-.968-.368,1.29,1.29,0,0,0-.958.363,1.3,1.3,0,0,0-.361.956,1.235,1.235,0,0,0,.351.932,1.348,1.348,0,0,0,.977.339,1.344,1.344,0,0,0,.975-.342A1.232,1.232,0,0,0,4.361-5.655ZM3.033-10.084a1.14,1.14,0,0,0-.843.323,1.185,1.185,0,0,0-.323.877,1.179,1.179,0,0,0,.318.858,1.128,1.128,0,0,0,.848.327,1.128,1.128,0,0,0,.848-.327A1.179,1.179,0,0,0,4.2-8.885a1.179,1.179,0,0,0-.33-.865A1.124,1.124,0,0,0,3.033-10.084Z" transform="translate(746.707 2836.736)" fill="#6c6c6c"/>
      <path id="Trazado_125875" data-name="Trazado 125875" d="M5.082-8.9a1.615,1.615,0,0,1-.275.927,1.869,1.869,0,0,1-.743.635,1.994,1.994,0,0,1,.862.683,1.719,1.719,0,0,1,.318,1.018A1.818,1.818,0,0,1,4.636-4.2a2.34,2.34,0,0,1-1.6.535A2.33,2.33,0,0,1,1.425-4.2a1.826,1.826,0,0,1-.6-1.436,1.771,1.771,0,0,1,.308-1.018,1.918,1.918,0,0,1,.853-.688,1.823,1.823,0,0,1-.731-.635A1.638,1.638,0,0,1,.983-8.9a1.8,1.8,0,0,1,.564-1.4,2.115,2.115,0,0,1,1.486-.516,2.117,2.117,0,0,1,1.484.516A1.794,1.794,0,0,1,5.082-8.9ZM4.361-5.655a1.282,1.282,0,0,0-.37-.951,1.313,1.313,0,0,0-.968-.368,1.29,1.29,0,0,0-.958.363,1.3,1.3,0,0,0-.361.956,1.235,1.235,0,0,0,.351.932,1.348,1.348,0,0,0,.977.339,1.344,1.344,0,0,0,.975-.342A1.232,1.232,0,0,0,4.361-5.655ZM3.033-10.084a1.14,1.14,0,0,0-.843.323,1.185,1.185,0,0,0-.323.877,1.179,1.179,0,0,0,.318.858,1.128,1.128,0,0,0,.848.327,1.128,1.128,0,0,0,.848-.327A1.179,1.179,0,0,0,4.2-8.885a1.179,1.179,0,0,0-.33-.865A1.124,1.124,0,0,0,3.033-10.084Z" transform="translate(746.707 2836.736)" fill="#6c6c6c"/>
      <path id="Trazado_125851" data-name="Trazado 125851" d="M6.09-4.259H.924v-.72L3.653-8.012A6.484,6.484,0,0,0,4.489-9.13a1.866,1.866,0,0,0,.23-.891,1.415,1.415,0,0,0-.374-1.013,1.306,1.306,0,0,0-1-.4A1.547,1.547,0,0,0,2.188-11a1.624,1.624,0,0,0-.414,1.183h-1a2.325,2.325,0,0,1,.7-1.76,2.6,2.6,0,0,1,1.876-.671,2.5,2.5,0,0,1,1.738.577,1.967,1.967,0,0,1,.639,1.535A4.51,4.51,0,0,1,4.243-7.368L2.131-5.077H6.09Zm6.005-3.363a4.582,4.582,0,0,1-.6,2.615,2.138,2.138,0,0,1-1.879.856,2.153,2.153,0,0,1-1.868-.837,4.349,4.349,0,0,1-.628-2.5V-8.824a4.48,4.48,0,0,1,.6-2.583A2.154,2.154,0,0,1,9.6-12.252a2.174,2.174,0,0,1,1.874.815,4.323,4.323,0,0,1,.617,2.515Zm-1-1.37a3.671,3.671,0,0,0-.357-1.855A1.23,1.23,0,0,0,9.6-11.429a1.214,1.214,0,0,0-1.121.579A3.584,3.584,0,0,0,8.12-9.068v1.6a3.73,3.73,0,0,0,.371,1.887,1.228,1.228,0,0,0,1.124.609,1.211,1.211,0,0,0,1.1-.574,3.6,3.6,0,0,0,.376-1.809Z" transform="translate(347.483 2711.333)" fill="#6c6c6c"/>
      <path id="Trazado_125854" data-name="Trazado 125854" d="M4.438-4.222H3.431V-10.9l-2.02.742v-.91l2.87-1.078h.157Zm3.4-3.953.4-3.931h4.04v.926H9.084L8.846-9.03a2.544,2.544,0,0,1,1.316-.341,2.175,2.175,0,0,1,1.711.712,2.791,2.791,0,0,1,.634,1.925,2.694,2.694,0,0,1-.658,1.92,2.4,2.4,0,0,1-1.838.7A2.492,2.492,0,0,1,8.3-4.693a2.313,2.313,0,0,1-.753-1.6H8.5a1.591,1.591,0,0,0,.482,1.021,1.5,1.5,0,0,0,1.029.344,1.352,1.352,0,0,0,1.1-.477,1.992,1.992,0,0,0,.4-1.316,1.828,1.828,0,0,0-.43-1.27,1.464,1.464,0,0,0-1.145-.479A1.652,1.652,0,0,0,8.9-8.186l-.265.217Z" transform="translate(347.261 2740.651)" fill="#6c6c6c"/>
      <path id="Trazado_125855" data-name="Trazado 125855" d="M4.438-4.259H3.431v-6.677l-2.02.742v-.91l2.87-1.078h.157Zm7.879-3.363a4.582,4.582,0,0,1-.6,2.615,2.138,2.138,0,0,1-1.879.856,2.153,2.153,0,0,1-1.868-.837,4.349,4.349,0,0,1-.628-2.5V-8.824a4.48,4.48,0,0,1,.6-2.583,2.154,2.154,0,0,1,1.884-.845,2.174,2.174,0,0,1,1.874.815,4.323,4.323,0,0,1,.617,2.515Zm-1-1.37a3.671,3.671,0,0,0-.357-1.855,1.23,1.23,0,0,0-1.132-.582,1.214,1.214,0,0,0-1.121.579,3.584,3.584,0,0,0-.363,1.782v1.6a3.73,3.73,0,0,0,.371,1.887,1.228,1.228,0,0,0,1.124.609,1.211,1.211,0,0,0,1.1-.574,3.6,3.6,0,0,0,.376-1.809Z" transform="translate(347.261 2770.045)" fill="#6c6c6c"/>
      <path id="Trazado_125861" data-name="Trazado 125861" d="M1.376-7.2l.354-3.469H5.294v.817H2.48l-.21,1.9a2.245,2.245,0,0,1,1.161-.3,1.919,1.919,0,0,1,1.51.628,2.462,2.462,0,0,1,.559,1.7,2.377,2.377,0,0,1-.581,1.694A2.116,2.116,0,0,1,3.3-3.612a2.2,2.2,0,0,1-1.505-.511,2.041,2.041,0,0,1-.664-1.414h.836a1.4,1.4,0,0,0,.425.9,1.322,1.322,0,0,0,.908.3,1.193,1.193,0,0,0,.968-.42,1.758,1.758,0,0,0,.351-1.161,1.613,1.613,0,0,0-.38-1.12,1.292,1.292,0,0,0-1.011-.423,1.457,1.457,0,0,0-.908.253l-.234.191Z" transform="translate(347.36 2797.544)" fill="#6c6c6c"/>
      <path id="Trazado_125868" data-name="Trazado 125868" d="M5.233-6.725A4.043,4.043,0,0,1,4.7-4.418a1.886,1.886,0,0,1-1.658.755A1.9,1.9,0,0,1,1.4-4.4,3.837,3.837,0,0,1,.842-6.606v-1.18a3.953,3.953,0,0,1,.53-2.279,1.9,1.9,0,0,1,1.663-.745,1.918,1.918,0,0,1,1.653.719,3.815,3.815,0,0,1,.545,2.219ZM4.349-7.934a3.239,3.239,0,0,0-.315-1.636,1.085,1.085,0,0,0-1-.514,1.071,1.071,0,0,0-.989.511A3.162,3.162,0,0,0,1.726-8v1.414a3.291,3.291,0,0,0,.327,1.665,1.083,1.083,0,0,0,.991.538,1.069,1.069,0,0,0,.972-.506,3.172,3.172,0,0,0,.332-1.6Z" transform="translate(347.459 2828.256)" fill="#6c6c6c"/>
      <path id="Trazado_125876" data-name="Trazado 125876" d="M5.373-3.758H.815v-.635L3.223-7.069a5.721,5.721,0,0,0,.738-.987,1.647,1.647,0,0,0,.2-.786,1.248,1.248,0,0,0-.33-.893,1.153,1.153,0,0,0-.879-.349,1.365,1.365,0,0,0-1.025.375,1.433,1.433,0,0,0-.366,1.044H.681A2.052,2.052,0,0,1,1.3-10.218a2.294,2.294,0,0,1,1.656-.592,2.2,2.2,0,0,1,1.534.509,1.736,1.736,0,0,1,.564,1.355A3.98,3.98,0,0,1,3.744-6.5L1.88-4.48H5.373Z" transform="translate(363.171 2836.736)" fill="#6c6c6c"/>
      <path id="Trazado_125859" data-name="Trazado 125859" d="M11.034-6.472H8.255v-4.842H4.138v4.842h-2.8V-18.066h2.8v4.6H8.255v-4.6h2.779Zm4.475,0H12.818v-8.616h2.692ZM12.659-17.31a1.2,1.2,0,0,1,.414-.94,1.562,1.562,0,0,1,1.075-.366,1.562,1.562,0,0,1,1.075.366,1.2,1.2,0,0,1,.414.94,1.2,1.2,0,0,1-.414.94A1.562,1.562,0,0,1,14.148-16a1.562,1.562,0,0,1-1.075-.366A1.2,1.2,0,0,1,12.659-17.31Zm9.014,8.417a.62.62,0,0,0-.358-.549,5.451,5.451,0,0,0-1.362-.43,6.21,6.21,0,0,1-1.656-.585,2.775,2.775,0,0,1-1-.88,2.1,2.1,0,0,1-.342-1.187,2.381,2.381,0,0,1,.979-1.955,4.035,4.035,0,0,1,2.564-.768,4.47,4.47,0,0,1,2.739.772,2.416,2.416,0,0,1,1.035,2.031H21.585q0-1.035-1.091-1.035a1.081,1.081,0,0,0-.709.235.727.727,0,0,0-.287.585.668.668,0,0,0,.35.581,3.311,3.311,0,0,0,1.119.366,9.668,9.668,0,0,1,1.35.342,2.452,2.452,0,0,1,1.943,2.4,2.257,2.257,0,0,1-1.047,1.919,4.592,4.592,0,0,1-2.712.741,4.686,4.686,0,0,1-1.975-.4,3.3,3.3,0,0,1-1.354-1.083,2.452,2.452,0,0,1-.486-1.441H19.2a1.037,1.037,0,0,0,.4.872,1.638,1.638,0,0,0,.979.275,1.288,1.288,0,0,0,.824-.223A.713.713,0,0,0,21.673-8.893Zm6.968-8.338v2.142h1.417v1.863H28.641v3.942a1.006,1.006,0,0,0,.175.677.94.94,0,0,0,.693.191,3.937,3.937,0,0,0,.669-.048v1.919a4.953,4.953,0,0,1-1.513.231,2.811,2.811,0,0,1-2.047-.653,2.676,2.676,0,0,1-.661-1.983v-4.276h-1.1v-1.863h1.1V-17.23Zm1.9,6.371a5.085,5.085,0,0,1,.5-2.3,3.588,3.588,0,0,1,1.441-1.549,4.341,4.341,0,0,1,2.206-.542,3.962,3.962,0,0,1,3.05,1.2,4.6,4.6,0,0,1,1.115,3.261v.1a4.462,4.462,0,0,1-1.119,3.2A3.972,3.972,0,0,1,34.7-6.312a4.018,4.018,0,0,1-2.954-1.1,4.314,4.314,0,0,1-1.2-2.99Zm2.684.167a3.206,3.206,0,0,0,.374,1.752,1.247,1.247,0,0,0,1.107.557q1.433,0,1.465-2.206v-.271q0-2.317-1.481-2.317-1.346,0-1.457,2Zm6.5-.151a5.818,5.818,0,0,1,.43-2.309A3.462,3.462,0,0,1,41.382-14.7a3.254,3.254,0,0,1,1.871-.545,2.587,2.587,0,0,1,2.1.908l.1-.749h2.437V-6.8a3.633,3.633,0,0,1-.53,1.979,3.4,3.4,0,0,1-1.533,1.29,5.635,5.635,0,0,1-2.325.45,4.861,4.861,0,0,1-1.836-.358,3.313,3.313,0,0,1-1.358-.932L41.43-5.946a2.461,2.461,0,0,0,1.975.884,1.6,1.6,0,0,0,1.784-1.832v-.271a2.52,2.52,0,0,1-1.951.852,3.114,3.114,0,0,1-2.548-1.206,5,5,0,0,1-.972-3.229Zm2.692.167A3.065,3.065,0,0,0,42.808-9a1.256,1.256,0,0,0,1.115.617,1.425,1.425,0,0,0,1.266-.581v-3.623a1.39,1.39,0,0,0-1.25-.589,1.265,1.265,0,0,0-1.123.641A3.5,3.5,0,0,0,42.41-10.676Zm12.216-1.983-.884-.064a1.588,1.588,0,0,0-1.625.8v5.455H49.433v-8.616H51.95l.088,1.107a2.078,2.078,0,0,1,1.887-1.266,2.617,2.617,0,0,1,.749.1Zm5.582,6.187a3.03,3.03,0,0,1-.255-.772,2.5,2.5,0,0,1-2.07.932,3.057,3.057,0,0,1-2.07-.737A2.345,2.345,0,0,1,54.96-8.9a2.41,2.41,0,0,1,1.035-2.118,5.274,5.274,0,0,1,3.01-.717h.828v-.454q0-1.187-1.027-1.187a.838.838,0,0,0-.956.94H55.167a2.409,2.409,0,0,1,1.063-2.031,4.464,4.464,0,0,1,2.712-.78,3.917,3.917,0,0,1,2.6.8,2.8,2.8,0,0,1,.979,2.206v3.814a3.906,3.906,0,0,0,.366,1.816v.135Zm-1.68-1.752a1.5,1.5,0,0,0,.832-.215,1.348,1.348,0,0,0,.474-.486V-10.3h-.78q-1.4,0-1.4,1.258a.768.768,0,0,0,.247.593A.893.893,0,0,0,58.527-8.224Zm8.019-6.864.088,1.011a2.963,2.963,0,0,1,2.461-1.171,2.181,2.181,0,0,1,2.206,1.3,2.867,2.867,0,0,1,2.532-1.3q2.62,0,2.692,3.169v5.606H73.833v-5.439a1.643,1.643,0,0,0-.223-.964.949.949,0,0,0-.812-.3,1.271,1.271,0,0,0-1.187.709l.008.111v5.885H68.927v-5.423a1.726,1.726,0,0,0-.215-.979.946.946,0,0,0-.82-.3,1.287,1.287,0,0,0-1.179.709v6H64.03v-8.616ZM82.911-6.472a3.03,3.03,0,0,1-.255-.772,2.5,2.5,0,0,1-2.07.932,3.057,3.057,0,0,1-2.07-.737A2.345,2.345,0,0,1,77.663-8.9,2.41,2.41,0,0,1,78.7-11.019a5.274,5.274,0,0,1,3.01-.717h.828v-.454q0-1.187-1.027-1.187a.838.838,0,0,0-.956.94H77.87a2.409,2.409,0,0,1,1.063-2.031,4.464,4.464,0,0,1,2.712-.78,3.917,3.917,0,0,1,2.6.8,2.8,2.8,0,0,1,.979,2.206v3.814a3.906,3.906,0,0,0,.366,1.816v.135Zm-1.68-1.752a1.5,1.5,0,0,0,.832-.215,1.347,1.347,0,0,0,.474-.486V-10.3h-.78q-1.4,0-1.4,1.258a.768.768,0,0,0,.247.593A.893.893,0,0,0,81.231-8.224Z" transform="translate(514.94 2652.225)" fill="#12263f"/>
      <path id="Trazado_125852" data-name="Trazado 125852" d="M4.86,5.4h-3.7V9.3H0V.484H5.459V1.44h-4.3V4.454h3.7ZM9.683,3.752a3.355,3.355,0,0,0-.551-.042,1.475,1.475,0,0,0-1.495.938V9.3H6.518V2.748H7.608l.018.757a1.743,1.743,0,0,1,1.561-.878,1.144,1.144,0,0,1,.5.085Zm3.631,5.665a2.861,2.861,0,0,1-2.167-.875A3.246,3.246,0,0,1,10.313,6.2V6a3.93,3.93,0,0,1,.372-1.74,2.9,2.9,0,0,1,1.041-1.2,2.617,2.617,0,0,1,1.449-.433,2.452,2.452,0,0,1,1.985.841,3.642,3.642,0,0,1,.708,2.409v.466H11.432A2.328,2.328,0,0,0,12,7.907a1.779,1.779,0,0,0,1.377.6,1.95,1.95,0,0,0,1-.242,2.524,2.524,0,0,0,.72-.642l.684.533A2.75,2.75,0,0,1,13.315,9.417Zm-.139-5.871a1.493,1.493,0,0,0-1.138.493,2.4,2.4,0,0,0-.569,1.383h3.28V5.338a2.133,2.133,0,0,0-.46-1.322A1.406,1.406,0,0,0,13.175,3.547ZM19.79,8.5a1.613,1.613,0,0,0,1.047-.363,1.278,1.278,0,0,0,.5-.908h1.059A2.03,2.03,0,0,1,22.005,8.3a2.551,2.551,0,0,1-.953.811,2.75,2.75,0,0,1-1.262.3,2.7,2.7,0,0,1-2.127-.893,3.555,3.555,0,0,1-.79-2.442V5.895a3.942,3.942,0,0,1,.351-1.7,2.674,2.674,0,0,1,1.008-1.156,2.862,2.862,0,0,1,1.552-.412,2.626,2.626,0,0,1,1.831.66A2.358,2.358,0,0,1,22.393,5H21.334a1.543,1.543,0,0,0-.481-1.044,1.5,1.5,0,0,0-1.068-.409,1.567,1.567,0,0,0-1.322.614,2.885,2.885,0,0,0-.469,1.776v.212a2.827,2.827,0,0,0,.466,1.743A1.575,1.575,0,0,0,19.79,8.5Zm7.9.145a2.378,2.378,0,0,1-1.919.769,2.036,2.036,0,0,1-1.595-.608,2.633,2.633,0,0,1-.554-1.8V2.748h1.12v4.23q0,1.489,1.21,1.489a1.676,1.676,0,0,0,1.707-.956V2.748h1.12V9.3H27.719Zm5.507.769a2.861,2.861,0,0,1-2.167-.875A3.246,3.246,0,0,1,30.2,6.2V6a3.93,3.93,0,0,1,.372-1.74,2.9,2.9,0,0,1,1.041-1.2,2.617,2.617,0,0,1,1.449-.433,2.452,2.452,0,0,1,1.985.841,3.642,3.642,0,0,1,.708,2.409v.466H31.32a2.328,2.328,0,0,0,.566,1.564,1.779,1.779,0,0,0,1.377.6,1.95,1.95,0,0,0,1-.242,2.524,2.524,0,0,0,.72-.642l.684.533A2.75,2.75,0,0,1,33.2,9.417Zm-.139-5.871a1.493,1.493,0,0,0-1.138.493,2.4,2.4,0,0,0-.569,1.383h3.28V5.338a2.133,2.133,0,0,0-.46-1.322A1.406,1.406,0,0,0,33.063,3.547Zm5.047-.8.036.823a2.386,2.386,0,0,1,1.961-.944q2.076,0,2.094,2.342V9.3h-1.12V4.963a1.508,1.508,0,0,0-.324-1.047,1.3,1.3,0,0,0-.99-.339,1.616,1.616,0,0,0-.956.291,1.973,1.973,0,0,0-.642.763V9.3h-1.12V2.748ZM46.517,8.5a1.613,1.613,0,0,0,1.047-.363,1.278,1.278,0,0,0,.5-.908h1.059A2.03,2.03,0,0,1,48.732,8.3a2.551,2.551,0,0,1-.953.811,2.75,2.75,0,0,1-1.262.3,2.7,2.7,0,0,1-2.127-.893,3.555,3.555,0,0,1-.79-2.442V5.895a3.942,3.942,0,0,1,.351-1.7,2.674,2.674,0,0,1,1.008-1.156,2.862,2.862,0,0,1,1.552-.412,2.626,2.626,0,0,1,1.831.66A2.358,2.358,0,0,1,49.119,5H48.06a1.543,1.543,0,0,0-.481-1.044,1.5,1.5,0,0,0-1.068-.409,1.567,1.567,0,0,0-1.322.614,2.885,2.885,0,0,0-.469,1.776v.212a2.827,2.827,0,0,0,.466,1.743A1.575,1.575,0,0,0,46.517,8.5Zm5.078.793h-1.12V2.748h1.12Zm-1.21-8.285a.668.668,0,0,1,.166-.46.625.625,0,0,1,.493-.188.635.635,0,0,1,.5.188.661.661,0,0,1,.169.46.64.64,0,0,1-.169.454.646.646,0,0,1-.5.182.636.636,0,0,1-.493-.182A.646.646,0,0,1,50.384,1.011ZM57.428,9.3a2.352,2.352,0,0,1-.157-.69,2.5,2.5,0,0,1-1.864.811,2.312,2.312,0,0,1-1.589-.548A1.772,1.772,0,0,1,53.2,7.48a1.851,1.851,0,0,1,.778-1.589,3.667,3.667,0,0,1,2.188-.566h1.089V4.811a1.257,1.257,0,0,0-.351-.935,1.411,1.411,0,0,0-1.035-.348,1.633,1.633,0,0,0-1,.3.892.892,0,0,0-.405.732H53.331a1.545,1.545,0,0,1,.348-.947,2.375,2.375,0,0,1,.944-.723,3.176,3.176,0,0,1,1.31-.266,2.589,2.589,0,0,1,1.773.566,2.041,2.041,0,0,1,.666,1.558V7.765A3.685,3.685,0,0,0,58.6,9.2v.1ZM55.57,8.443a1.968,1.968,0,0,0,1-.272,1.647,1.647,0,0,0,.684-.708V6.119h-.878q-2.058,0-2.058,1.2a1.019,1.019,0,0,0,.351.823A1.349,1.349,0,0,0,55.57,8.443ZM68.238,7H64.546l-.829,2.3h-1.2L65.883.484H66.9L70.271,9.3H69.079ZM64.9,6.04h3l-1.5-4.121Zm11.929.054a3.894,3.894,0,0,1-.69,2.412,2.2,2.2,0,0,1-1.852.911,2.283,2.283,0,0,1-1.919-.878l-.054.757H71.282V0H72.4V3.468a2.27,2.27,0,0,1,1.87-.841,2.218,2.218,0,0,1,1.873.9A4.01,4.01,0,0,1,76.825,6Zm-1.12-.127A3.026,3.026,0,0,0,75.264,4.2a1.463,1.463,0,0,0-1.271-.623A1.644,1.644,0,0,0,72.4,4.606V7.438a1.69,1.69,0,0,0,1.6,1.029,1.455,1.455,0,0,0,1.253-.623A3.217,3.217,0,0,0,75.706,5.967Zm6.343,1.592a.824.824,0,0,0-.342-.705,3.291,3.291,0,0,0-1.192-.433,5.637,5.637,0,0,1-1.35-.436,1.92,1.92,0,0,1-.738-.605,1.448,1.448,0,0,1-.239-.835,1.7,1.7,0,0,1,.681-1.362,2.659,2.659,0,0,1,1.74-.557,2.736,2.736,0,0,1,1.807.575,1.826,1.826,0,0,1,.693,1.471H81.982a1.011,1.011,0,0,0-.39-.793,1.463,1.463,0,0,0-.983-.333,1.531,1.531,0,0,0-.956.266.838.838,0,0,0-.345.7.679.679,0,0,0,.321.611,3.947,3.947,0,0,0,1.159.393,6.039,6.039,0,0,1,1.359.448,1.982,1.982,0,0,1,.772.626,1.54,1.54,0,0,1,.251.893,1.676,1.676,0,0,1-.7,1.407,2.945,2.945,0,0,1-1.822.53,3.3,3.3,0,0,1-1.392-.278,2.264,2.264,0,0,1-.947-.778,1.874,1.874,0,0,1-.342-1.08h1.12a1.159,1.159,0,0,0,.451.893,1.749,1.749,0,0,0,1.111.33,1.806,1.806,0,0,0,1.02-.257A.79.79,0,0,0,82.048,7.559Zm2.282-1.6a3.868,3.868,0,0,1,.378-1.731,2.822,2.822,0,0,1,1.053-1.186,2.867,2.867,0,0,1,1.54-.418,2.762,2.762,0,0,1,2.164.926,3.563,3.563,0,0,1,.826,2.463v.079a3.9,3.9,0,0,1-.366,1.716,2.78,2.78,0,0,1-1.047,1.183,2.9,2.9,0,0,1-1.564.424,2.755,2.755,0,0,1-2.158-.926A3.545,3.545,0,0,1,84.33,6.04Zm1.126.133a2.8,2.8,0,0,0,.505,1.749,1.713,1.713,0,0,0,2.708-.009,3.063,3.063,0,0,0,.5-1.873,2.8,2.8,0,0,0-.511-1.746A1.626,1.626,0,0,0,87.3,3.547a1.608,1.608,0,0,0-1.338.66A3.041,3.041,0,0,0,85.456,6.094Zm7.456,3.2h-1.12V0h1.12Zm5.834-.648a2.378,2.378,0,0,1-1.919.769,2.036,2.036,0,0,1-1.595-.608,2.633,2.633,0,0,1-.554-1.8V2.748H95.8v4.23q0,1.489,1.21,1.489a1.676,1.676,0,0,0,1.707-.956V2.748h1.12V9.3H98.77Zm4.309-7.486V2.748h1.223v.865h-1.223V7.674a.907.907,0,0,0,.163.59.688.688,0,0,0,.557.2,2.711,2.711,0,0,0,.533-.073V9.3a3.246,3.246,0,0,1-.859.121,1.394,1.394,0,0,1-1.132-.454,1.95,1.95,0,0,1-.381-1.289V3.613h-1.192V2.748h1.192V1.162ZM109.628,9.3a2.352,2.352,0,0,1-.157-.69,2.5,2.5,0,0,1-1.864.811,2.312,2.312,0,0,1-1.589-.548,1.772,1.772,0,0,1-.62-1.389,1.851,1.851,0,0,1,.778-1.589,3.667,3.667,0,0,1,2.188-.566h1.089V4.811a1.258,1.258,0,0,0-.351-.935,1.411,1.411,0,0,0-1.035-.348,1.633,1.633,0,0,0-1,.3.892.892,0,0,0-.405.732h-1.126a1.545,1.545,0,0,1,.348-.947,2.375,2.375,0,0,1,.944-.723,3.176,3.176,0,0,1,1.31-.266,2.589,2.589,0,0,1,1.773.566,2.041,2.041,0,0,1,.666,1.558V7.765A3.685,3.685,0,0,0,110.8,9.2v.1Zm-1.858-.853a1.968,1.968,0,0,0,1-.272,1.647,1.647,0,0,0,.684-.708V6.119h-.878q-2.058,0-2.058,1.2a1.019,1.019,0,0,0,.351.823A1.349,1.349,0,0,0,107.77,8.443Z" transform="translate(318.233 2811.732) rotate(-90)" fill="#12263f"/>
      <g id="Trazado_125853" data-name="Trazado 125853" transform="translate(366.018 2671.194)" fill="none">
        <path d="M0,0H386.193V151.346H0Z" stroke="none"/>
        <path d="M 1 1.000015258789062 L 1 150.3460083007812 L 385.1933288574219 150.3460083007812 L 385.1933288574219 1.000015258789062 L 1 1.000015258789062 M 0 1.52587890625e-05 L 386.1933288574219 1.52587890625e-05 L 386.1933288574219 151.3460083007812 L 0 151.3460083007812 L 0 1.52587890625e-05 Z" stroke="none" fill="#b5b5b5"/>
      </g>
      <path id="Trazado_125125" data-name="Trazado 125125" d="M-468-8995.711h3.756" transform="translate(830.906 11667.115)" fill="none" stroke="#b1b1b1" stroke-width="1"/>
      <path id="Trazado_125126" data-name="Trazado 125126" d="M-468-8995.711h3.756" transform="translate(830.906 11699.641)" fill="none" stroke="#b1b1b1" stroke-width="1"/>
      <path id="Trazado_125127" data-name="Trazado 125127" d="M-468-8995.711h3.756" transform="translate(830.906 11728.294)" fill="none" stroke="#b1b1b1" stroke-width="1"/>
      <path id="Trazado_125128" data-name="Trazado 125128" d="M-468-8995.711h3.756" transform="translate(830.906 11758.108)" fill="none" stroke="#b1b1b1" stroke-width="1"/>
      <path id="Trazado_125129" data-name="Trazado 125129" d="M-468-8995.711h3.756" transform="translate(830.906 11786.763)" fill="none" stroke="#b1b1b1" stroke-width="1"/>
      <path id="Trazado_125130" data-name="Trazado 125130" d="M-468-8995.711h3.756" transform="translate(830.906 11816.963)" fill="none" stroke="#b1b1b1" stroke-width="1"/>
    </g>
  </g>
</svg>
