<svg xmlns="http://www.w3.org/2000/svg" width="373.953" height="265.968" viewBox="0 0 373.953 265.968">
  <g id="Grupo_1204388" data-name="Grupo 1204388" transform="translate(-957.409 -639.509)">
    <path id="Trazado_1261951" data-name="Trazado 1261951" d="M0,0H14V194H0Z" transform="translate(987 673)" fill="#0a4666"/>
    <path id="Trazado_1261952" data-name="Trazado 1261952" d="M0,0H14V149H0Z" transform="translate(1019 718)" fill="#0a4666"/>
    <path id="Trazado_1261953" data-name="Trazado 1261953" d="M0,0H14V119H0Z" transform="translate(1051 748)" fill="#0a4666"/>
    <path id="Trazado_1261954" data-name="Trazado 1261954" d="M0,0H13V68H0Z" transform="translate(1084 799)" fill="#0a4666"/>
    <path id="Trazado_1261955" data-name="Trazado 1261955" d="M0,0H13V29H0Z" transform="translate(1116 838)" fill="#0a4666"/>
    <path id="Trazado_1261956" data-name="Trazado 1261956" d="M0,0H13V21H0Z" transform="translate(1148 846)" fill="#0a4666"/>
    <path id="Trazado_1261957" data-name="Trazado 1261957" d="M0,0H13V21H0Z" transform="translate(1180 846)" fill="#0a4666"/>
    <path id="Trazado_1261958" data-name="Trazado 1261958" d="M0,0H13V15H0Z" transform="translate(1214 852)" fill="#0a4666"/>
    <path id="Trazado_1261959" data-name="Trazado 1261959" d="M0,0H14V15H0Z" transform="translate(1246 852)" fill="#0a4666"/>
    <path id="Trazado_1261960" data-name="Trazado 1261960" d="M0,0H13V7H0Z" transform="translate(1280 860)" fill="#0a4666"/>
    <path id="Trazado_1261961" data-name="Trazado 1261961" d="M1.714-3.595h.611a1.343,1.343,0,0,0,.905-.3,1.013,1.013,0,0,0,.33-.8A.992.992,0,0,0,2.439-5.818a1.166,1.166,0,0,0-.842.3,1.054,1.054,0,0,0-.314.8H.47a1.632,1.632,0,0,1,.556-1.263,2.025,2.025,0,0,1,1.413-.5,2,2,0,0,1,1.419.479,1.73,1.73,0,0,1,.514,1.332,1.4,1.4,0,0,1-.27.809,1.632,1.632,0,0,1-.736.584,1.572,1.572,0,0,1,.815.554,1.538,1.538,0,0,1,.288.945A1.745,1.745,0,0,1,3.907-.417,2.106,2.106,0,0,1,2.443.088,2.162,2.162,0,0,1,.978-.4,1.618,1.618,0,0,1,.413-1.687H1.23a1.046,1.046,0,0,0,.33.809,1.254,1.254,0,0,0,.883.3,1.23,1.23,0,0,0,.9-.308,1.186,1.186,0,0,0,.312-.883,1.076,1.076,0,0,0-.343-.857,1.493,1.493,0,0,0-.989-.308H1.714Zm4.245.387L6.284-6.4H9.563v.751H6.974L6.781-3.9a2.065,2.065,0,0,1,1.068-.277A1.765,1.765,0,0,1,9.237-3.6a2.265,2.265,0,0,1,.514,1.562A2.186,2.186,0,0,1,9.218-.481,1.946,1.946,0,0,1,7.726.088a2.023,2.023,0,0,1-1.384-.47,1.877,1.877,0,0,1-.611-1.3H6.5a1.291,1.291,0,0,0,.391.828,1.216,1.216,0,0,0,.835.279,1.1,1.1,0,0,0,.89-.387A1.617,1.617,0,0,0,8.938-2.03a1.484,1.484,0,0,0-.349-1.031A1.188,1.188,0,0,0,7.66-3.45a1.34,1.34,0,0,0-.835.233l-.215.176Zm4.61-1.96a1.3,1.3,0,0,1,.367-.949,1.264,1.264,0,0,1,.943-.374,1.257,1.257,0,0,1,.947.376,1.343,1.343,0,0,1,.363.973v.312a1.282,1.282,0,0,1-.367.947,1.265,1.265,0,0,1-.934.367,1.293,1.293,0,0,1-.945-.367,1.309,1.309,0,0,1-.374-.978Zm.606.338a.828.828,0,0,0,.193.565.653.653,0,0,0,.519.222.64.64,0,0,0,.5-.215.855.855,0,0,0,.191-.589v-.321a.849.849,0,0,0-.189-.567.637.637,0,0,0-.514-.224.637.637,0,0,0-.514.224.876.876,0,0,0-.189.584Zm2.509,3.261a1.291,1.291,0,0,1,.367-.947,1.268,1.268,0,0,1,.943-.371,1.279,1.279,0,0,1,.945.369,1.325,1.325,0,0,1,.369.98v.312a1.291,1.291,0,0,1-.367.947A1.263,1.263,0,0,1,15,.092a1.293,1.293,0,0,1-.945-.367,1.309,1.309,0,0,1-.374-.978Zm.606.343a.835.835,0,0,0,.193.569A.653.653,0,0,0,15-.435a.636.636,0,0,0,.505-.218.87.87,0,0,0,.189-.591v-.325a.832.832,0,0,0-.191-.567.644.644,0,0,0-.512-.22.651.651,0,0,0-.508.218.845.845,0,0,0-.2.587Zm-2.219.743-.461-.29,3.125-5,.461.29Z" transform="translate(957 646)" fill="#6c6c6c"/>
    <path id="Trazado_1261962" data-name="Trazado 1261962" d="M1.714-3.595h.611a1.343,1.343,0,0,0,.905-.3,1.013,1.013,0,0,0,.33-.8A.992.992,0,0,0,2.439-5.818a1.166,1.166,0,0,0-.842.3,1.054,1.054,0,0,0-.314.8H.47a1.632,1.632,0,0,1,.556-1.263,2.025,2.025,0,0,1,1.413-.5,2,2,0,0,1,1.419.479,1.73,1.73,0,0,1,.514,1.332,1.4,1.4,0,0,1-.27.809,1.632,1.632,0,0,1-.736.584,1.572,1.572,0,0,1,.815.554,1.538,1.538,0,0,1,.288.945A1.745,1.745,0,0,1,3.907-.417,2.106,2.106,0,0,1,2.443.088,2.162,2.162,0,0,1,.978-.4,1.618,1.618,0,0,1,.413-1.687H1.23a1.046,1.046,0,0,0,.33.809,1.254,1.254,0,0,0,.883.3,1.23,1.23,0,0,0,.9-.308,1.186,1.186,0,0,0,.312-.883,1.076,1.076,0,0,0-.343-.857,1.493,1.493,0,0,0-.989-.308H1.714ZM9.6-2.729A3.718,3.718,0,0,1,9.11-.606,1.735,1.735,0,0,1,7.585.088,1.747,1.747,0,0,1,6.069-.591a3.529,3.529,0,0,1-.51-2.028V-3.7a3.636,3.636,0,0,1,.488-2.1,1.748,1.748,0,0,1,1.529-.686A1.764,1.764,0,0,1,9.1-5.825a3.508,3.508,0,0,1,.5,2.041ZM8.785-3.841a2.979,2.979,0,0,0-.29-1.505,1,1,0,0,0-.918-.472.985.985,0,0,0-.91.47A2.909,2.909,0,0,0,6.372-3.9v1.3a3.027,3.027,0,0,0,.3,1.531,1,1,0,0,0,.912.494.983.983,0,0,0,.894-.466,2.917,2.917,0,0,0,.305-1.468Zm1.784-1.327a1.3,1.3,0,0,1,.367-.949,1.264,1.264,0,0,1,.943-.374,1.257,1.257,0,0,1,.947.376,1.343,1.343,0,0,1,.363.973v.312a1.282,1.282,0,0,1-.367.947,1.265,1.265,0,0,1-.934.367,1.293,1.293,0,0,1-.945-.367,1.309,1.309,0,0,1-.374-.978Zm.606.338a.828.828,0,0,0,.193.565.653.653,0,0,0,.519.222.64.64,0,0,0,.5-.215.855.855,0,0,0,.191-.589v-.321a.849.849,0,0,0-.189-.567.637.637,0,0,0-.514-.224.637.637,0,0,0-.514.224.876.876,0,0,0-.189.584Zm2.509,3.261a1.291,1.291,0,0,1,.367-.947,1.268,1.268,0,0,1,.943-.371,1.279,1.279,0,0,1,.945.369,1.325,1.325,0,0,1,.369.98v.312a1.291,1.291,0,0,1-.367.947A1.263,1.263,0,0,1,15,.092a1.293,1.293,0,0,1-.945-.367,1.309,1.309,0,0,1-.374-.978Zm.606.343a.835.835,0,0,0,.193.569A.653.653,0,0,0,15-.435a.636.636,0,0,0,.505-.218.87.87,0,0,0,.189-.591v-.325a.832.832,0,0,0-.191-.567.644.644,0,0,0-.512-.22.651.651,0,0,0-.508.218.845.845,0,0,0-.2.587Zm-2.219.743-.461-.29,3.125-5,.461.29Z" transform="translate(957 677)" fill="#6c6c6c"/>
    <path id="Trazado_1261963" data-name="Trazado 1261963" d="M4.724,0H.532V-.584L2.747-3.045a5.262,5.262,0,0,0,.679-.907,1.515,1.515,0,0,0,.187-.723,1.148,1.148,0,0,0-.3-.822A1.06,1.06,0,0,0,2.5-5.818a1.256,1.256,0,0,0-.943.345,1.318,1.318,0,0,0-.336.96H.409A1.887,1.887,0,0,1,.978-5.941,2.11,2.11,0,0,1,2.5-6.486a2.027,2.027,0,0,1,1.411.468A1.6,1.6,0,0,1,4.43-4.772a3.66,3.66,0,0,1-1.2,2.25L1.512-.664H4.724ZM5.959-3.208,6.284-6.4H9.563v.751H6.974L6.781-3.9a2.065,2.065,0,0,1,1.068-.277A1.765,1.765,0,0,1,9.237-3.6a2.265,2.265,0,0,1,.514,1.562A2.186,2.186,0,0,1,9.218-.481,1.946,1.946,0,0,1,7.726.088a2.023,2.023,0,0,1-1.384-.47,1.877,1.877,0,0,1-.611-1.3H6.5a1.291,1.291,0,0,0,.391.828,1.216,1.216,0,0,0,.835.279,1.1,1.1,0,0,0,.89-.387A1.617,1.617,0,0,0,8.938-2.03a1.484,1.484,0,0,0-.349-1.031A1.188,1.188,0,0,0,7.66-3.45a1.34,1.34,0,0,0-.835.233l-.215.176Zm4.61-1.96a1.3,1.3,0,0,1,.367-.949,1.264,1.264,0,0,1,.943-.374,1.257,1.257,0,0,1,.947.376,1.343,1.343,0,0,1,.363.973v.312a1.282,1.282,0,0,1-.367.947,1.265,1.265,0,0,1-.934.367,1.293,1.293,0,0,1-.945-.367,1.309,1.309,0,0,1-.374-.978Zm.606.338a.828.828,0,0,0,.193.565.653.653,0,0,0,.519.222.64.64,0,0,0,.5-.215.855.855,0,0,0,.191-.589v-.321a.849.849,0,0,0-.189-.567.637.637,0,0,0-.514-.224.637.637,0,0,0-.514.224.876.876,0,0,0-.189.584Zm2.509,3.261a1.291,1.291,0,0,1,.367-.947,1.268,1.268,0,0,1,.943-.371,1.279,1.279,0,0,1,.945.369,1.325,1.325,0,0,1,.369.98v.312a1.291,1.291,0,0,1-.367.947A1.263,1.263,0,0,1,15,.092a1.293,1.293,0,0,1-.945-.367,1.309,1.309,0,0,1-.374-.978Zm.606.343a.835.835,0,0,0,.193.569A.653.653,0,0,0,15-.435a.636.636,0,0,0,.505-.218.87.87,0,0,0,.189-.591v-.325a.832.832,0,0,0-.191-.567.644.644,0,0,0-.512-.22.651.651,0,0,0-.508.218.845.845,0,0,0-.2.587Zm-2.219.743-.461-.29,3.125-5,.461.29Z" transform="translate(957 709)" fill="#6c6c6c"/>
    <path id="Trazado_1261964" data-name="Trazado 1261964" d="M4.724,0H.532V-.584L2.747-3.045a5.262,5.262,0,0,0,.679-.907,1.515,1.515,0,0,0,.187-.723,1.148,1.148,0,0,0-.3-.822A1.06,1.06,0,0,0,2.5-5.818a1.256,1.256,0,0,0-.943.345,1.318,1.318,0,0,0-.336.96H.409A1.887,1.887,0,0,1,.978-5.941,2.11,2.11,0,0,1,2.5-6.486a2.027,2.027,0,0,1,1.411.468A1.6,1.6,0,0,1,4.43-4.772a3.66,3.66,0,0,1-1.2,2.25L1.512-.664H4.724ZM9.6-2.729A3.718,3.718,0,0,1,9.11-.606,1.735,1.735,0,0,1,7.585.088,1.747,1.747,0,0,1,6.069-.591a3.529,3.529,0,0,1-.51-2.028V-3.7a3.636,3.636,0,0,1,.488-2.1,1.748,1.748,0,0,1,1.529-.686A1.764,1.764,0,0,1,9.1-5.825a3.508,3.508,0,0,1,.5,2.041ZM8.785-3.841a2.979,2.979,0,0,0-.29-1.505,1,1,0,0,0-.918-.472.985.985,0,0,0-.91.47A2.909,2.909,0,0,0,6.372-3.9v1.3a3.027,3.027,0,0,0,.3,1.531,1,1,0,0,0,.912.494.983.983,0,0,0,.894-.466,2.917,2.917,0,0,0,.305-1.468Zm1.784-1.327a1.3,1.3,0,0,1,.367-.949,1.264,1.264,0,0,1,.943-.374,1.257,1.257,0,0,1,.947.376,1.343,1.343,0,0,1,.363.973v.312a1.282,1.282,0,0,1-.367.947,1.265,1.265,0,0,1-.934.367,1.293,1.293,0,0,1-.945-.367,1.309,1.309,0,0,1-.374-.978Zm.606.338a.828.828,0,0,0,.193.565.653.653,0,0,0,.519.222.64.64,0,0,0,.5-.215.855.855,0,0,0,.191-.589v-.321a.849.849,0,0,0-.189-.567.637.637,0,0,0-.514-.224.637.637,0,0,0-.514.224.876.876,0,0,0-.189.584Zm2.509,3.261a1.291,1.291,0,0,1,.367-.947,1.268,1.268,0,0,1,.943-.371,1.279,1.279,0,0,1,.945.369,1.325,1.325,0,0,1,.369.98v.312a1.291,1.291,0,0,1-.367.947A1.263,1.263,0,0,1,15,.092a1.293,1.293,0,0,1-.945-.367,1.309,1.309,0,0,1-.374-.978Zm.606.343a.835.835,0,0,0,.193.569A.653.653,0,0,0,15-.435a.636.636,0,0,0,.505-.218.87.87,0,0,0,.189-.591v-.325a.832.832,0,0,0-.191-.567.644.644,0,0,0-.512-.22.651.651,0,0,0-.508.218.845.845,0,0,0-.2.587Zm-2.219.743-.461-.29,3.125-5,.461.29Z" transform="translate(957 742)" fill="#6c6c6c"/>
    <path id="Trazado_1261965" data-name="Trazado 1261965" d="M3.2,0H2.386V-5.418l-1.639.6v-.738l2.329-.875H3.2ZM5.959-3.208,6.284-6.4H9.563v.751H6.974L6.781-3.9a2.065,2.065,0,0,1,1.068-.277A1.765,1.765,0,0,1,9.237-3.6a2.265,2.265,0,0,1,.514,1.562A2.186,2.186,0,0,1,9.218-.481,1.946,1.946,0,0,1,7.726.088a2.023,2.023,0,0,1-1.384-.47,1.877,1.877,0,0,1-.611-1.3H6.5a1.291,1.291,0,0,0,.391.828,1.216,1.216,0,0,0,.835.279,1.1,1.1,0,0,0,.89-.387A1.617,1.617,0,0,0,8.938-2.03a1.484,1.484,0,0,0-.349-1.031A1.188,1.188,0,0,0,7.66-3.45a1.34,1.34,0,0,0-.835.233l-.215.176Zm4.61-1.96a1.3,1.3,0,0,1,.367-.949,1.264,1.264,0,0,1,.943-.374,1.257,1.257,0,0,1,.947.376,1.343,1.343,0,0,1,.363.973v.312a1.282,1.282,0,0,1-.367.947,1.265,1.265,0,0,1-.934.367,1.293,1.293,0,0,1-.945-.367,1.309,1.309,0,0,1-.374-.978Zm.606.338a.828.828,0,0,0,.193.565.653.653,0,0,0,.519.222.64.64,0,0,0,.5-.215.855.855,0,0,0,.191-.589v-.321a.849.849,0,0,0-.189-.567.637.637,0,0,0-.514-.224.637.637,0,0,0-.514.224.876.876,0,0,0-.189.584Zm2.509,3.261a1.291,1.291,0,0,1,.367-.947,1.268,1.268,0,0,1,.943-.371,1.279,1.279,0,0,1,.945.369,1.325,1.325,0,0,1,.369.98v.312a1.291,1.291,0,0,1-.367.947A1.263,1.263,0,0,1,15,.092a1.293,1.293,0,0,1-.945-.367,1.309,1.309,0,0,1-.374-.978Zm.606.343a.835.835,0,0,0,.193.569A.653.653,0,0,0,15-.435a.636.636,0,0,0,.505-.218.87.87,0,0,0,.189-.591v-.325a.832.832,0,0,0-.191-.567.644.644,0,0,0-.512-.22.651.651,0,0,0-.508.218.845.845,0,0,0-.2.587Zm-2.219.743-.461-.29,3.125-5,.461.29Z" transform="translate(957 774)" fill="#6c6c6c"/>
    <path id="Trazado_1261966" data-name="Trazado 1261966" d="M3.2,0H2.386V-5.418l-1.639.6v-.738l2.329-.875H3.2ZM9.6-2.729A3.718,3.718,0,0,1,9.11-.606,1.735,1.735,0,0,1,7.585.088,1.747,1.747,0,0,1,6.069-.591a3.529,3.529,0,0,1-.51-2.028V-3.7a3.636,3.636,0,0,1,.488-2.1,1.748,1.748,0,0,1,1.529-.686A1.764,1.764,0,0,1,9.1-5.825a3.508,3.508,0,0,1,.5,2.041ZM8.785-3.841a2.979,2.979,0,0,0-.29-1.505,1,1,0,0,0-.918-.472.985.985,0,0,0-.91.47A2.909,2.909,0,0,0,6.372-3.9v1.3a3.027,3.027,0,0,0,.3,1.531,1,1,0,0,0,.912.494.983.983,0,0,0,.894-.466,2.917,2.917,0,0,0,.305-1.468Zm1.784-1.327a1.3,1.3,0,0,1,.367-.949,1.264,1.264,0,0,1,.943-.374,1.257,1.257,0,0,1,.947.376,1.343,1.343,0,0,1,.363.973v.312a1.282,1.282,0,0,1-.367.947,1.265,1.265,0,0,1-.934.367,1.293,1.293,0,0,1-.945-.367,1.309,1.309,0,0,1-.374-.978Zm.606.338a.828.828,0,0,0,.193.565.653.653,0,0,0,.519.222.64.64,0,0,0,.5-.215.855.855,0,0,0,.191-.589v-.321a.849.849,0,0,0-.189-.567.637.637,0,0,0-.514-.224.637.637,0,0,0-.514.224.876.876,0,0,0-.189.584Zm2.509,3.261a1.291,1.291,0,0,1,.367-.947,1.268,1.268,0,0,1,.943-.371,1.279,1.279,0,0,1,.945.369,1.325,1.325,0,0,1,.369.98v.312a1.291,1.291,0,0,1-.367.947A1.263,1.263,0,0,1,15,.092a1.293,1.293,0,0,1-.945-.367,1.309,1.309,0,0,1-.374-.978Zm.606.343a.835.835,0,0,0,.193.569A.653.653,0,0,0,15-.435a.636.636,0,0,0,.505-.218.87.87,0,0,0,.189-.591v-.325a.832.832,0,0,0-.191-.567.644.644,0,0,0-.512-.22.651.651,0,0,0-.508.218.845.845,0,0,0-.2.587Zm-2.219.743-.461-.29,3.125-5,.461.29Z" transform="translate(957 807)" fill="#6c6c6c"/>
    <path id="Trazado_1261967" data-name="Trazado 1261967" d="M.905-3.208,1.23-6.4H4.509v.751H1.92L1.727-3.9a2.065,2.065,0,0,1,1.068-.277A1.765,1.765,0,0,1,4.184-3.6,2.265,2.265,0,0,1,4.7-2.039,2.186,2.186,0,0,1,4.164-.481,1.946,1.946,0,0,1,2.672.088a2.023,2.023,0,0,1-1.384-.47,1.877,1.877,0,0,1-.611-1.3h.769a1.291,1.291,0,0,0,.391.828,1.216,1.216,0,0,0,.835.279,1.1,1.1,0,0,0,.89-.387A1.617,1.617,0,0,0,3.885-2.03a1.484,1.484,0,0,0-.349-1.031,1.188,1.188,0,0,0-.929-.389,1.34,1.34,0,0,0-.835.233l-.215.176Zm4.61-1.96a1.3,1.3,0,0,1,.367-.949,1.264,1.264,0,0,1,.943-.374,1.257,1.257,0,0,1,.947.376,1.343,1.343,0,0,1,.363.973v.312a1.282,1.282,0,0,1-.367.947,1.265,1.265,0,0,1-.934.367,1.293,1.293,0,0,1-.945-.367,1.309,1.309,0,0,1-.374-.978Zm.606.338a.828.828,0,0,0,.193.565.653.653,0,0,0,.519.222.64.64,0,0,0,.5-.215.855.855,0,0,0,.191-.589v-.321a.849.849,0,0,0-.189-.567.637.637,0,0,0-.514-.224.637.637,0,0,0-.514.224.876.876,0,0,0-.189.584ZM8.631-1.569A1.291,1.291,0,0,1,9-2.516a1.268,1.268,0,0,1,.943-.371,1.279,1.279,0,0,1,.945.369,1.325,1.325,0,0,1,.369.98v.312a1.291,1.291,0,0,1-.367.947,1.263,1.263,0,0,1-.938.371A1.293,1.293,0,0,1,9-.275a1.309,1.309,0,0,1-.374-.978Zm.606.343a.835.835,0,0,0,.193.569.653.653,0,0,0,.519.222.636.636,0,0,0,.505-.218.87.87,0,0,0,.189-.591v-.325a.832.832,0,0,0-.191-.567.644.644,0,0,0-.512-.22.651.651,0,0,0-.508.218.845.845,0,0,0-.2.587ZM7.018-.483l-.461-.29,3.125-5,.461.29Z" transform="translate(957 839)" fill="#6c6c6c"/>
    <path id="Trazado_1261968" data-name="Trazado 1261968" d="M4.544-2.729A3.718,3.718,0,0,1,4.056-.606,1.735,1.735,0,0,1,2.531.088,1.747,1.747,0,0,1,1.015-.591a3.529,3.529,0,0,1-.51-2.028V-3.7A3.636,3.636,0,0,1,.993-5.8a1.748,1.748,0,0,1,1.529-.686,1.764,1.764,0,0,1,1.521.661,3.508,3.508,0,0,1,.5,2.041ZM3.731-3.841a2.979,2.979,0,0,0-.29-1.505,1,1,0,0,0-.918-.472.985.985,0,0,0-.91.47A2.909,2.909,0,0,0,1.318-3.9v1.3a3.027,3.027,0,0,0,.3,1.531,1,1,0,0,0,.912.494.983.983,0,0,0,.894-.466,2.917,2.917,0,0,0,.305-1.468ZM5.515-5.168a1.3,1.3,0,0,1,.367-.949,1.264,1.264,0,0,1,.943-.374,1.257,1.257,0,0,1,.947.376,1.343,1.343,0,0,1,.363.973v.312a1.282,1.282,0,0,1-.367.947,1.265,1.265,0,0,1-.934.367,1.293,1.293,0,0,1-.945-.367,1.309,1.309,0,0,1-.374-.978Zm.606.338a.828.828,0,0,0,.193.565.653.653,0,0,0,.519.222.64.64,0,0,0,.5-.215.855.855,0,0,0,.191-.589v-.321a.849.849,0,0,0-.189-.567.637.637,0,0,0-.514-.224.637.637,0,0,0-.514.224.876.876,0,0,0-.189.584ZM8.631-1.569A1.291,1.291,0,0,1,9-2.516a1.268,1.268,0,0,1,.943-.371,1.279,1.279,0,0,1,.945.369,1.325,1.325,0,0,1,.369.98v.312a1.291,1.291,0,0,1-.367.947,1.263,1.263,0,0,1-.938.371A1.293,1.293,0,0,1,9-.275a1.309,1.309,0,0,1-.374-.978Zm.606.343a.835.835,0,0,0,.193.569.653.653,0,0,0,.519.222.636.636,0,0,0,.505-.218.87.87,0,0,0,.189-.591v-.325a.832.832,0,0,0-.191-.567.644.644,0,0,0-.512-.22.651.651,0,0,0-.508.218.845.845,0,0,0-.2.587ZM7.018-.483l-.461-.29,3.125-5,.461.29Z" transform="translate(957 870)" fill="#6c6c6c"/>
    <path id="Trazado_1261969" data-name="Trazado 1261969" d="M5.449-2.03A2.354,2.354,0,0,1,4.7-.464,2.456,2.456,0,0,1,3.023.088,2.255,2.255,0,0,1,1.206-.725,3.271,3.271,0,0,1,.523-2.9v-.615A3.646,3.646,0,0,1,.842-5.084a2.38,2.38,0,0,1,.9-1.039A2.514,2.514,0,0,1,3.1-6.486a2.312,2.312,0,0,1,1.635.569,2.382,2.382,0,0,1,.716,1.575H4.6a1.83,1.83,0,0,0-.477-1.107A1.445,1.445,0,0,0,3.1-5.792a1.51,1.51,0,0,0-1.268.6,2.742,2.742,0,0,0-.459,1.7v.62a2.819,2.819,0,0,0,.435,1.657A1.406,1.406,0,0,0,3.023-.6,1.624,1.624,0,0,0,4.1-.921a1.768,1.768,0,0,0,.5-1.11ZM9.409,0a1.708,1.708,0,0,1-.114-.5A1.814,1.814,0,0,1,7.941.088a1.678,1.678,0,0,1-1.154-.4,1.287,1.287,0,0,1-.45-1.009A1.344,1.344,0,0,1,6.9-2.472,2.662,2.662,0,0,1,8.49-2.883h.791v-.374a.913.913,0,0,0-.255-.679,1.024,1.024,0,0,0-.751-.253,1.185,1.185,0,0,0-.729.22.647.647,0,0,0-.294.532H6.434a1.122,1.122,0,0,1,.253-.688,1.725,1.725,0,0,1,.686-.525,2.306,2.306,0,0,1,.951-.193,1.88,1.88,0,0,1,1.288.411A1.482,1.482,0,0,1,10.094-3.3v2.188A2.676,2.676,0,0,0,10.261-.07V0ZM8.06-.62a1.429,1.429,0,0,0,.725-.2,1.2,1.2,0,0,0,.5-.514v-.976H8.644q-1.494,0-1.494.875a.74.74,0,0,0,.255.6A.98.98,0,0,0,8.06-.62ZM14.3-.47a1.727,1.727,0,0,1-1.393.558,1.478,1.478,0,0,1-1.158-.442,1.912,1.912,0,0,1-.4-1.307V-4.755h.813v3.072q0,1.081.879,1.081A1.217,1.217,0,0,0,14.282-1.3V-4.755H15.1V0h-.773ZM19.1-1.261a.6.6,0,0,0-.248-.512,2.39,2.39,0,0,0-.866-.314A4.093,4.093,0,0,1,17-2.4a1.394,1.394,0,0,1-.536-.439,1.051,1.051,0,0,1-.174-.606,1.233,1.233,0,0,1,.494-.989,1.931,1.931,0,0,1,1.263-.4,1.987,1.987,0,0,1,1.312.417,1.326,1.326,0,0,1,.5,1.068H19.05a.734.734,0,0,0-.283-.576,1.062,1.062,0,0,0-.714-.242,1.111,1.111,0,0,0-.694.193.609.609,0,0,0-.25.505.493.493,0,0,0,.233.444,2.866,2.866,0,0,0,.842.286,4.385,4.385,0,0,1,.987.325,1.439,1.439,0,0,1,.56.455,1.118,1.118,0,0,1,.182.648A1.217,1.217,0,0,1,19.4-.3a2.138,2.138,0,0,1-1.323.385,2.394,2.394,0,0,1-1.011-.2,1.644,1.644,0,0,1-.688-.565,1.361,1.361,0,0,1-.248-.784h.813a.842.842,0,0,0,.327.648,1.27,1.27,0,0,0,.806.24,1.311,1.311,0,0,0,.74-.187A.574.574,0,0,0,19.1-1.261ZM23.906,0a1.708,1.708,0,0,1-.114-.5,1.814,1.814,0,0,1-1.354.589,1.678,1.678,0,0,1-1.154-.4,1.287,1.287,0,0,1-.45-1.009A1.344,1.344,0,0,1,21.4-2.472a2.662,2.662,0,0,1,1.589-.411h.791v-.374a.913.913,0,0,0-.255-.679,1.024,1.024,0,0,0-.751-.253,1.185,1.185,0,0,0-.729.22.647.647,0,0,0-.294.532h-.817a1.122,1.122,0,0,1,.253-.688,1.725,1.725,0,0,1,.686-.525,2.306,2.306,0,0,1,.951-.193,1.88,1.88,0,0,1,1.288.411A1.482,1.482,0,0,1,24.592-3.3v2.188A2.676,2.676,0,0,0,24.759-.07V0ZM22.557-.62a1.429,1.429,0,0,0,.725-.2,1.2,1.2,0,0,0,.5-.514v-.976h-.637q-1.494,0-1.494.875a.74.74,0,0,0,.255.6A.98.98,0,0,0,22.557-.62ZM30.683,0h-.817V-5.418l-1.639.6v-.738l2.329-.875h.127Z" transform="translate(995 906) rotate(-90)" fill="#6c6c6c"/>
    <path id="Trazado_1261970" data-name="Trazado 1261970" d="M5.449-2.03A2.354,2.354,0,0,1,4.7-.464,2.456,2.456,0,0,1,3.023.088,2.255,2.255,0,0,1,1.206-.725,3.271,3.271,0,0,1,.523-2.9v-.615A3.646,3.646,0,0,1,.842-5.084a2.38,2.38,0,0,1,.9-1.039A2.514,2.514,0,0,1,3.1-6.486a2.312,2.312,0,0,1,1.635.569,2.382,2.382,0,0,1,.716,1.575H4.6a1.83,1.83,0,0,0-.477-1.107A1.445,1.445,0,0,0,3.1-5.792a1.51,1.51,0,0,0-1.268.6,2.742,2.742,0,0,0-.459,1.7v.62a2.819,2.819,0,0,0,.435,1.657A1.406,1.406,0,0,0,3.023-.6,1.624,1.624,0,0,0,4.1-.921a1.768,1.768,0,0,0,.5-1.11ZM9.409,0a1.708,1.708,0,0,1-.114-.5A1.814,1.814,0,0,1,7.941.088a1.678,1.678,0,0,1-1.154-.4,1.287,1.287,0,0,1-.45-1.009A1.344,1.344,0,0,1,6.9-2.472,2.662,2.662,0,0,1,8.49-2.883h.791v-.374a.913.913,0,0,0-.255-.679,1.024,1.024,0,0,0-.751-.253,1.185,1.185,0,0,0-.729.22.647.647,0,0,0-.294.532H6.434a1.122,1.122,0,0,1,.253-.688,1.725,1.725,0,0,1,.686-.525,2.306,2.306,0,0,1,.951-.193,1.88,1.88,0,0,1,1.288.411A1.482,1.482,0,0,1,10.094-3.3v2.188A2.676,2.676,0,0,0,10.261-.07V0ZM8.06-.62a1.429,1.429,0,0,0,.725-.2,1.2,1.2,0,0,0,.5-.514v-.976H8.644q-1.494,0-1.494.875a.74.74,0,0,0,.255.6A.98.98,0,0,0,8.06-.62ZM14.3-.47a1.727,1.727,0,0,1-1.393.558,1.478,1.478,0,0,1-1.158-.442,1.912,1.912,0,0,1-.4-1.307V-4.755h.813v3.072q0,1.081.879,1.081A1.217,1.217,0,0,0,14.282-1.3V-4.755H15.1V0h-.773ZM19.1-1.261a.6.6,0,0,0-.248-.512,2.39,2.39,0,0,0-.866-.314A4.093,4.093,0,0,1,17-2.4a1.394,1.394,0,0,1-.536-.439,1.051,1.051,0,0,1-.174-.606,1.233,1.233,0,0,1,.494-.989,1.931,1.931,0,0,1,1.263-.4,1.987,1.987,0,0,1,1.312.417,1.326,1.326,0,0,1,.5,1.068H19.05a.734.734,0,0,0-.283-.576,1.062,1.062,0,0,0-.714-.242,1.111,1.111,0,0,0-.694.193.609.609,0,0,0-.25.505.493.493,0,0,0,.233.444,2.866,2.866,0,0,0,.842.286,4.385,4.385,0,0,1,.987.325,1.439,1.439,0,0,1,.56.455,1.118,1.118,0,0,1,.182.648A1.217,1.217,0,0,1,19.4-.3a2.138,2.138,0,0,1-1.323.385,2.394,2.394,0,0,1-1.011-.2,1.644,1.644,0,0,1-.688-.565,1.361,1.361,0,0,1-.248-.784h.813a.842.842,0,0,0,.327.648,1.27,1.27,0,0,0,.806.24,1.311,1.311,0,0,0,.74-.187A.574.574,0,0,0,19.1-1.261ZM23.906,0a1.708,1.708,0,0,1-.114-.5,1.814,1.814,0,0,1-1.354.589,1.678,1.678,0,0,1-1.154-.4,1.287,1.287,0,0,1-.45-1.009A1.344,1.344,0,0,1,21.4-2.472a2.662,2.662,0,0,1,1.589-.411h.791v-.374a.913.913,0,0,0-.255-.679,1.024,1.024,0,0,0-.751-.253,1.185,1.185,0,0,0-.729.22.647.647,0,0,0-.294.532h-.817a1.122,1.122,0,0,1,.253-.688,1.725,1.725,0,0,1,.686-.525,2.306,2.306,0,0,1,.951-.193,1.88,1.88,0,0,1,1.288.411A1.482,1.482,0,0,1,24.592-3.3v2.188A2.676,2.676,0,0,0,24.759-.07V0ZM22.557-.62a1.429,1.429,0,0,0,.725-.2,1.2,1.2,0,0,0,.5-.514v-.976h-.637q-1.494,0-1.494.875a.74.74,0,0,0,.255.6A.98.98,0,0,0,22.557-.62ZM32.2,0H28.011V-.584l2.215-2.461a5.262,5.262,0,0,0,.679-.907,1.515,1.515,0,0,0,.187-.723,1.148,1.148,0,0,0-.3-.822,1.06,1.06,0,0,0-.809-.321,1.256,1.256,0,0,0-.943.345,1.318,1.318,0,0,0-.336.96h-.813a1.887,1.887,0,0,1,.569-1.428,2.11,2.11,0,0,1,1.523-.545,2.027,2.027,0,0,1,1.411.468,1.6,1.6,0,0,1,.519,1.246,3.66,3.66,0,0,1-1.2,2.25L28.991-.664H32.2Z" transform="translate(1028 906) rotate(-90)" fill="#6c6c6c"/>
    <path id="Trazado_1261971" data-name="Trazado 1261971" d="M5.449-2.03A2.354,2.354,0,0,1,4.7-.464,2.456,2.456,0,0,1,3.023.088,2.255,2.255,0,0,1,1.206-.725,3.271,3.271,0,0,1,.523-2.9v-.615A3.646,3.646,0,0,1,.842-5.084a2.38,2.38,0,0,1,.9-1.039A2.514,2.514,0,0,1,3.1-6.486a2.312,2.312,0,0,1,1.635.569,2.382,2.382,0,0,1,.716,1.575H4.6a1.83,1.83,0,0,0-.477-1.107A1.445,1.445,0,0,0,3.1-5.792a1.51,1.51,0,0,0-1.268.6,2.742,2.742,0,0,0-.459,1.7v.62a2.819,2.819,0,0,0,.435,1.657A1.406,1.406,0,0,0,3.023-.6,1.624,1.624,0,0,0,4.1-.921a1.768,1.768,0,0,0,.5-1.11ZM9.409,0a1.708,1.708,0,0,1-.114-.5A1.814,1.814,0,0,1,7.941.088a1.678,1.678,0,0,1-1.154-.4,1.287,1.287,0,0,1-.45-1.009A1.344,1.344,0,0,1,6.9-2.472,2.662,2.662,0,0,1,8.49-2.883h.791v-.374a.913.913,0,0,0-.255-.679,1.024,1.024,0,0,0-.751-.253,1.185,1.185,0,0,0-.729.22.647.647,0,0,0-.294.532H6.434a1.122,1.122,0,0,1,.253-.688,1.725,1.725,0,0,1,.686-.525,2.306,2.306,0,0,1,.951-.193,1.88,1.88,0,0,1,1.288.411A1.482,1.482,0,0,1,10.094-3.3v2.188A2.676,2.676,0,0,0,10.261-.07V0ZM8.06-.62a1.429,1.429,0,0,0,.725-.2,1.2,1.2,0,0,0,.5-.514v-.976H8.644q-1.494,0-1.494.875a.74.74,0,0,0,.255.6A.98.98,0,0,0,8.06-.62ZM14.3-.47a1.727,1.727,0,0,1-1.393.558,1.478,1.478,0,0,1-1.158-.442,1.912,1.912,0,0,1-.4-1.307V-4.755h.813v3.072q0,1.081.879,1.081A1.217,1.217,0,0,0,14.282-1.3V-4.755H15.1V0h-.773ZM19.1-1.261a.6.6,0,0,0-.248-.512,2.39,2.39,0,0,0-.866-.314A4.093,4.093,0,0,1,17-2.4a1.394,1.394,0,0,1-.536-.439,1.051,1.051,0,0,1-.174-.606,1.233,1.233,0,0,1,.494-.989,1.931,1.931,0,0,1,1.263-.4,1.987,1.987,0,0,1,1.312.417,1.326,1.326,0,0,1,.5,1.068H19.05a.734.734,0,0,0-.283-.576,1.062,1.062,0,0,0-.714-.242,1.111,1.111,0,0,0-.694.193.609.609,0,0,0-.25.505.493.493,0,0,0,.233.444,2.866,2.866,0,0,0,.842.286,4.385,4.385,0,0,1,.987.325,1.439,1.439,0,0,1,.56.455,1.118,1.118,0,0,1,.182.648A1.217,1.217,0,0,1,19.4-.3a2.138,2.138,0,0,1-1.323.385,2.394,2.394,0,0,1-1.011-.2,1.644,1.644,0,0,1-.688-.565,1.361,1.361,0,0,1-.248-.784h.813a.842.842,0,0,0,.327.648,1.27,1.27,0,0,0,.806.24,1.311,1.311,0,0,0,.74-.187A.574.574,0,0,0,19.1-1.261ZM23.906,0a1.708,1.708,0,0,1-.114-.5,1.814,1.814,0,0,1-1.354.589,1.678,1.678,0,0,1-1.154-.4,1.287,1.287,0,0,1-.45-1.009A1.344,1.344,0,0,1,21.4-2.472a2.662,2.662,0,0,1,1.589-.411h.791v-.374a.913.913,0,0,0-.255-.679,1.024,1.024,0,0,0-.751-.253,1.185,1.185,0,0,0-.729.22.647.647,0,0,0-.294.532h-.817a1.122,1.122,0,0,1,.253-.688,1.725,1.725,0,0,1,.686-.525,2.306,2.306,0,0,1,.951-.193,1.88,1.88,0,0,1,1.288.411A1.482,1.482,0,0,1,24.592-3.3v2.188A2.676,2.676,0,0,0,24.759-.07V0ZM22.557-.62a1.429,1.429,0,0,0,.725-.2,1.2,1.2,0,0,0,.5-.514v-.976h-.637q-1.494,0-1.494.875a.74.74,0,0,0,.255.6A.98.98,0,0,0,22.557-.62Zm6.636-2.975H29.8a1.343,1.343,0,0,0,.905-.3,1.013,1.013,0,0,0,.33-.8.992.992,0,0,0-1.121-1.125,1.166,1.166,0,0,0-.842.3,1.054,1.054,0,0,0-.314.8h-.813a1.632,1.632,0,0,1,.556-1.263,2.025,2.025,0,0,1,1.413-.5,2,2,0,0,1,1.419.479,1.73,1.73,0,0,1,.514,1.332,1.4,1.4,0,0,1-.27.809,1.632,1.632,0,0,1-.736.584,1.572,1.572,0,0,1,.815.554,1.538,1.538,0,0,1,.288.945,1.745,1.745,0,0,1-.562,1.367,2.106,2.106,0,0,1-1.463.505A2.162,2.162,0,0,1,28.457-.4a1.618,1.618,0,0,1-.565-1.288h.817a1.046,1.046,0,0,0,.33.809,1.254,1.254,0,0,0,.883.3,1.23,1.23,0,0,0,.9-.308,1.186,1.186,0,0,0,.312-.883,1.076,1.076,0,0,0-.343-.857,1.493,1.493,0,0,0-.989-.308h-.611Z" transform="translate(1062 906) rotate(-90)" fill="#6c6c6c"/>
    <path id="Trazado_1261972" data-name="Trazado 1261972" d="M5.449-2.03A2.354,2.354,0,0,1,4.7-.464,2.456,2.456,0,0,1,3.023.088,2.255,2.255,0,0,1,1.206-.725,3.271,3.271,0,0,1,.523-2.9v-.615A3.646,3.646,0,0,1,.842-5.084a2.38,2.38,0,0,1,.9-1.039A2.514,2.514,0,0,1,3.1-6.486a2.312,2.312,0,0,1,1.635.569,2.382,2.382,0,0,1,.716,1.575H4.6a1.83,1.83,0,0,0-.477-1.107A1.445,1.445,0,0,0,3.1-5.792a1.51,1.51,0,0,0-1.268.6,2.742,2.742,0,0,0-.459,1.7v.62a2.819,2.819,0,0,0,.435,1.657A1.406,1.406,0,0,0,3.023-.6,1.624,1.624,0,0,0,4.1-.921a1.768,1.768,0,0,0,.5-1.11ZM9.409,0a1.708,1.708,0,0,1-.114-.5A1.814,1.814,0,0,1,7.941.088a1.678,1.678,0,0,1-1.154-.4,1.287,1.287,0,0,1-.45-1.009A1.344,1.344,0,0,1,6.9-2.472,2.662,2.662,0,0,1,8.49-2.883h.791v-.374a.913.913,0,0,0-.255-.679,1.024,1.024,0,0,0-.751-.253,1.185,1.185,0,0,0-.729.22.647.647,0,0,0-.294.532H6.434a1.122,1.122,0,0,1,.253-.688,1.725,1.725,0,0,1,.686-.525,2.306,2.306,0,0,1,.951-.193,1.88,1.88,0,0,1,1.288.411A1.482,1.482,0,0,1,10.094-3.3v2.188A2.676,2.676,0,0,0,10.261-.07V0ZM8.06-.62a1.429,1.429,0,0,0,.725-.2,1.2,1.2,0,0,0,.5-.514v-.976H8.644q-1.494,0-1.494.875a.74.74,0,0,0,.255.6A.98.98,0,0,0,8.06-.62ZM14.3-.47a1.727,1.727,0,0,1-1.393.558,1.478,1.478,0,0,1-1.158-.442,1.912,1.912,0,0,1-.4-1.307V-4.755h.813v3.072q0,1.081.879,1.081A1.217,1.217,0,0,0,14.282-1.3V-4.755H15.1V0h-.773ZM19.1-1.261a.6.6,0,0,0-.248-.512,2.39,2.39,0,0,0-.866-.314A4.093,4.093,0,0,1,17-2.4a1.394,1.394,0,0,1-.536-.439,1.051,1.051,0,0,1-.174-.606,1.233,1.233,0,0,1,.494-.989,1.931,1.931,0,0,1,1.263-.4,1.987,1.987,0,0,1,1.312.417,1.326,1.326,0,0,1,.5,1.068H19.05a.734.734,0,0,0-.283-.576,1.062,1.062,0,0,0-.714-.242,1.111,1.111,0,0,0-.694.193.609.609,0,0,0-.25.505.493.493,0,0,0,.233.444,2.866,2.866,0,0,0,.842.286,4.385,4.385,0,0,1,.987.325,1.439,1.439,0,0,1,.56.455,1.118,1.118,0,0,1,.182.648A1.217,1.217,0,0,1,19.4-.3a2.138,2.138,0,0,1-1.323.385,2.394,2.394,0,0,1-1.011-.2,1.644,1.644,0,0,1-.688-.565,1.361,1.361,0,0,1-.248-.784h.813a.842.842,0,0,0,.327.648,1.27,1.27,0,0,0,.806.24,1.311,1.311,0,0,0,.74-.187A.574.574,0,0,0,19.1-1.261ZM23.906,0a1.708,1.708,0,0,1-.114-.5,1.814,1.814,0,0,1-1.354.589,1.678,1.678,0,0,1-1.154-.4,1.287,1.287,0,0,1-.45-1.009A1.344,1.344,0,0,1,21.4-2.472a2.662,2.662,0,0,1,1.589-.411h.791v-.374a.913.913,0,0,0-.255-.679,1.024,1.024,0,0,0-.751-.253,1.185,1.185,0,0,0-.729.22.647.647,0,0,0-.294.532h-.817a1.122,1.122,0,0,1,.253-.688,1.725,1.725,0,0,1,.686-.525,2.306,2.306,0,0,1,.951-.193,1.88,1.88,0,0,1,1.288.411A1.482,1.482,0,0,1,24.592-3.3v2.188A2.676,2.676,0,0,0,24.759-.07V0ZM22.557-.62a1.429,1.429,0,0,0,.725-.2,1.2,1.2,0,0,0,.5-.514v-.976h-.637q-1.494,0-1.494.875a.74.74,0,0,0,.255.6A.98.98,0,0,0,22.557-.62Zm8.886-1.529h.888v.664h-.888V0h-.817V-1.485H27.712v-.479L30.577-6.4h.866Zm-2.808,0h1.991V-5.287l-.1.176Z" transform="translate(1095 906) rotate(-90)" fill="#6c6c6c"/>
    <path id="Trazado_1261973" data-name="Trazado 1261973" d="M5.449-2.03A2.354,2.354,0,0,1,4.7-.464,2.456,2.456,0,0,1,3.023.088,2.255,2.255,0,0,1,1.206-.725,3.271,3.271,0,0,1,.523-2.9v-.615A3.646,3.646,0,0,1,.842-5.084a2.38,2.38,0,0,1,.9-1.039A2.514,2.514,0,0,1,3.1-6.486a2.312,2.312,0,0,1,1.635.569,2.382,2.382,0,0,1,.716,1.575H4.6a1.83,1.83,0,0,0-.477-1.107A1.445,1.445,0,0,0,3.1-5.792a1.51,1.51,0,0,0-1.268.6,2.742,2.742,0,0,0-.459,1.7v.62a2.819,2.819,0,0,0,.435,1.657A1.406,1.406,0,0,0,3.023-.6,1.624,1.624,0,0,0,4.1-.921a1.768,1.768,0,0,0,.5-1.11ZM9.409,0a1.708,1.708,0,0,1-.114-.5A1.814,1.814,0,0,1,7.941.088a1.678,1.678,0,0,1-1.154-.4,1.287,1.287,0,0,1-.45-1.009A1.344,1.344,0,0,1,6.9-2.472,2.662,2.662,0,0,1,8.49-2.883h.791v-.374a.913.913,0,0,0-.255-.679,1.024,1.024,0,0,0-.751-.253,1.185,1.185,0,0,0-.729.22.647.647,0,0,0-.294.532H6.434a1.122,1.122,0,0,1,.253-.688,1.725,1.725,0,0,1,.686-.525,2.306,2.306,0,0,1,.951-.193,1.88,1.88,0,0,1,1.288.411A1.482,1.482,0,0,1,10.094-3.3v2.188A2.676,2.676,0,0,0,10.261-.07V0ZM8.06-.62a1.429,1.429,0,0,0,.725-.2,1.2,1.2,0,0,0,.5-.514v-.976H8.644q-1.494,0-1.494.875a.74.74,0,0,0,.255.6A.98.98,0,0,0,8.06-.62ZM14.3-.47a1.727,1.727,0,0,1-1.393.558,1.478,1.478,0,0,1-1.158-.442,1.912,1.912,0,0,1-.4-1.307V-4.755h.813v3.072q0,1.081.879,1.081A1.217,1.217,0,0,0,14.282-1.3V-4.755H15.1V0h-.773ZM19.1-1.261a.6.6,0,0,0-.248-.512,2.39,2.39,0,0,0-.866-.314A4.093,4.093,0,0,1,17-2.4a1.394,1.394,0,0,1-.536-.439,1.051,1.051,0,0,1-.174-.606,1.233,1.233,0,0,1,.494-.989,1.931,1.931,0,0,1,1.263-.4,1.987,1.987,0,0,1,1.312.417,1.326,1.326,0,0,1,.5,1.068H19.05a.734.734,0,0,0-.283-.576,1.062,1.062,0,0,0-.714-.242,1.111,1.111,0,0,0-.694.193.609.609,0,0,0-.25.505.493.493,0,0,0,.233.444,2.866,2.866,0,0,0,.842.286,4.385,4.385,0,0,1,.987.325,1.439,1.439,0,0,1,.56.455,1.118,1.118,0,0,1,.182.648A1.217,1.217,0,0,1,19.4-.3a2.138,2.138,0,0,1-1.323.385,2.394,2.394,0,0,1-1.011-.2,1.644,1.644,0,0,1-.688-.565,1.361,1.361,0,0,1-.248-.784h.813a.842.842,0,0,0,.327.648,1.27,1.27,0,0,0,.806.24,1.311,1.311,0,0,0,.74-.187A.574.574,0,0,0,19.1-1.261ZM23.906,0a1.708,1.708,0,0,1-.114-.5,1.814,1.814,0,0,1-1.354.589,1.678,1.678,0,0,1-1.154-.4,1.287,1.287,0,0,1-.45-1.009A1.344,1.344,0,0,1,21.4-2.472a2.662,2.662,0,0,1,1.589-.411h.791v-.374a.913.913,0,0,0-.255-.679,1.024,1.024,0,0,0-.751-.253,1.185,1.185,0,0,0-.729.22.647.647,0,0,0-.294.532h-.817a1.122,1.122,0,0,1,.253-.688,1.725,1.725,0,0,1,.686-.525,2.306,2.306,0,0,1,.951-.193,1.88,1.88,0,0,1,1.288.411A1.482,1.482,0,0,1,24.592-3.3v2.188A2.676,2.676,0,0,0,24.759-.07V0ZM22.557-.62a1.429,1.429,0,0,0,.725-.2,1.2,1.2,0,0,0,.5-.514v-.976h-.637q-1.494,0-1.494.875a.74.74,0,0,0,.255.6A.98.98,0,0,0,22.557-.62Zm5.827-2.588.325-3.19h3.278v.751H29.4L29.206-3.9a2.065,2.065,0,0,1,1.068-.277,1.765,1.765,0,0,1,1.389.578,2.265,2.265,0,0,1,.514,1.562,2.186,2.186,0,0,1-.534,1.558,1.946,1.946,0,0,1-1.492.569,2.023,2.023,0,0,1-1.384-.47,1.877,1.877,0,0,1-.611-1.3h.769a1.291,1.291,0,0,0,.391.828,1.216,1.216,0,0,0,.835.279,1.1,1.1,0,0,0,.89-.387,1.617,1.617,0,0,0,.323-1.068,1.484,1.484,0,0,0-.349-1.031,1.188,1.188,0,0,0-.929-.389,1.34,1.34,0,0,0-.835.233l-.215.176Z" transform="translate(1125 906) rotate(-90)" fill="#6c6c6c"/>
    <path id="Trazado_1261974" data-name="Trazado 1261974" d="M5.449-2.03A2.354,2.354,0,0,1,4.7-.464,2.456,2.456,0,0,1,3.023.088,2.255,2.255,0,0,1,1.206-.725,3.271,3.271,0,0,1,.523-2.9v-.615A3.646,3.646,0,0,1,.842-5.084a2.38,2.38,0,0,1,.9-1.039A2.514,2.514,0,0,1,3.1-6.486a2.312,2.312,0,0,1,1.635.569,2.382,2.382,0,0,1,.716,1.575H4.6a1.83,1.83,0,0,0-.477-1.107A1.445,1.445,0,0,0,3.1-5.792a1.51,1.51,0,0,0-1.268.6,2.742,2.742,0,0,0-.459,1.7v.62a2.819,2.819,0,0,0,.435,1.657A1.406,1.406,0,0,0,3.023-.6,1.624,1.624,0,0,0,4.1-.921a1.768,1.768,0,0,0,.5-1.11ZM9.409,0a1.708,1.708,0,0,1-.114-.5A1.814,1.814,0,0,1,7.941.088a1.678,1.678,0,0,1-1.154-.4,1.287,1.287,0,0,1-.45-1.009A1.344,1.344,0,0,1,6.9-2.472,2.662,2.662,0,0,1,8.49-2.883h.791v-.374a.913.913,0,0,0-.255-.679,1.024,1.024,0,0,0-.751-.253,1.185,1.185,0,0,0-.729.22.647.647,0,0,0-.294.532H6.434a1.122,1.122,0,0,1,.253-.688,1.725,1.725,0,0,1,.686-.525,2.306,2.306,0,0,1,.951-.193,1.88,1.88,0,0,1,1.288.411A1.482,1.482,0,0,1,10.094-3.3v2.188A2.676,2.676,0,0,0,10.261-.07V0ZM8.06-.62a1.429,1.429,0,0,0,.725-.2,1.2,1.2,0,0,0,.5-.514v-.976H8.644q-1.494,0-1.494.875a.74.74,0,0,0,.255.6A.98.98,0,0,0,8.06-.62ZM14.3-.47a1.727,1.727,0,0,1-1.393.558,1.478,1.478,0,0,1-1.158-.442,1.912,1.912,0,0,1-.4-1.307V-4.755h.813v3.072q0,1.081.879,1.081A1.217,1.217,0,0,0,14.282-1.3V-4.755H15.1V0h-.773ZM19.1-1.261a.6.6,0,0,0-.248-.512,2.39,2.39,0,0,0-.866-.314A4.093,4.093,0,0,1,17-2.4a1.394,1.394,0,0,1-.536-.439,1.051,1.051,0,0,1-.174-.606,1.233,1.233,0,0,1,.494-.989,1.931,1.931,0,0,1,1.263-.4,1.987,1.987,0,0,1,1.312.417,1.326,1.326,0,0,1,.5,1.068H19.05a.734.734,0,0,0-.283-.576,1.062,1.062,0,0,0-.714-.242,1.111,1.111,0,0,0-.694.193.609.609,0,0,0-.25.505.493.493,0,0,0,.233.444,2.866,2.866,0,0,0,.842.286,4.385,4.385,0,0,1,.987.325,1.439,1.439,0,0,1,.56.455,1.118,1.118,0,0,1,.182.648A1.217,1.217,0,0,1,19.4-.3a2.138,2.138,0,0,1-1.323.385,2.394,2.394,0,0,1-1.011-.2,1.644,1.644,0,0,1-.688-.565,1.361,1.361,0,0,1-.248-.784h.813a.842.842,0,0,0,.327.648,1.27,1.27,0,0,0,.806.24,1.311,1.311,0,0,0,.74-.187A.574.574,0,0,0,19.1-1.261ZM23.906,0a1.708,1.708,0,0,1-.114-.5,1.814,1.814,0,0,1-1.354.589,1.678,1.678,0,0,1-1.154-.4,1.287,1.287,0,0,1-.45-1.009A1.344,1.344,0,0,1,21.4-2.472a2.662,2.662,0,0,1,1.589-.411h.791v-.374a.913.913,0,0,0-.255-.679,1.024,1.024,0,0,0-.751-.253,1.185,1.185,0,0,0-.729.22.647.647,0,0,0-.294.532h-.817a1.122,1.122,0,0,1,.253-.688,1.725,1.725,0,0,1,.686-.525,2.306,2.306,0,0,1,.951-.193,1.88,1.88,0,0,1,1.288.411A1.482,1.482,0,0,1,24.592-3.3v2.188A2.676,2.676,0,0,0,24.759-.07V0ZM22.557-.62a1.429,1.429,0,0,0,.725-.2,1.2,1.2,0,0,0,.5-.514v-.976h-.637q-1.494,0-1.494.875a.74.74,0,0,0,.255.6A.98.98,0,0,0,22.557-.62ZM31.2-6.4v.69h-.149a2.141,2.141,0,0,0-1.512.563,2.341,2.341,0,0,0-.65,1.534,1.735,1.735,0,0,1,1.38-.58,1.659,1.659,0,0,1,1.334.589,2.271,2.271,0,0,1,.5,1.521,2.264,2.264,0,0,1-.538,1.582A1.854,1.854,0,0,1,30.12.088a1.826,1.826,0,0,1-1.49-.705,2.8,2.8,0,0,1-.571-1.817v-.312a4.212,4.212,0,0,1,.754-2.7A2.768,2.768,0,0,1,31.056-6.4ZM30.133-3.52a1.3,1.3,0,0,0-.769.25,1.305,1.305,0,0,0-.488.628v.3a2.1,2.1,0,0,0,.356,1.274,1.067,1.067,0,0,0,.888.483,1.034,1.034,0,0,0,.864-.4A1.678,1.678,0,0,0,31.3-2.048a1.678,1.678,0,0,0-.319-1.066A1.021,1.021,0,0,0,30.133-3.52Z" transform="translate(1158 906) rotate(-90)" fill="#6c6c6c"/>
    <path id="Trazado_1261975" data-name="Trazado 1261975" d="M5.449-2.03A2.354,2.354,0,0,1,4.7-.464,2.456,2.456,0,0,1,3.023.088,2.255,2.255,0,0,1,1.206-.725,3.271,3.271,0,0,1,.523-2.9v-.615A3.646,3.646,0,0,1,.842-5.084a2.38,2.38,0,0,1,.9-1.039A2.514,2.514,0,0,1,3.1-6.486a2.312,2.312,0,0,1,1.635.569,2.382,2.382,0,0,1,.716,1.575H4.6a1.83,1.83,0,0,0-.477-1.107A1.445,1.445,0,0,0,3.1-5.792a1.51,1.51,0,0,0-1.268.6,2.742,2.742,0,0,0-.459,1.7v.62a2.819,2.819,0,0,0,.435,1.657A1.406,1.406,0,0,0,3.023-.6,1.624,1.624,0,0,0,4.1-.921a1.768,1.768,0,0,0,.5-1.11ZM9.409,0a1.708,1.708,0,0,1-.114-.5A1.814,1.814,0,0,1,7.941.088a1.678,1.678,0,0,1-1.154-.4,1.287,1.287,0,0,1-.45-1.009A1.344,1.344,0,0,1,6.9-2.472,2.662,2.662,0,0,1,8.49-2.883h.791v-.374a.913.913,0,0,0-.255-.679,1.024,1.024,0,0,0-.751-.253,1.185,1.185,0,0,0-.729.22.647.647,0,0,0-.294.532H6.434a1.122,1.122,0,0,1,.253-.688,1.725,1.725,0,0,1,.686-.525,2.306,2.306,0,0,1,.951-.193,1.88,1.88,0,0,1,1.288.411A1.482,1.482,0,0,1,10.094-3.3v2.188A2.676,2.676,0,0,0,10.261-.07V0ZM8.06-.62a1.429,1.429,0,0,0,.725-.2,1.2,1.2,0,0,0,.5-.514v-.976H8.644q-1.494,0-1.494.875a.74.74,0,0,0,.255.6A.98.98,0,0,0,8.06-.62ZM14.3-.47a1.727,1.727,0,0,1-1.393.558,1.478,1.478,0,0,1-1.158-.442,1.912,1.912,0,0,1-.4-1.307V-4.755h.813v3.072q0,1.081.879,1.081A1.217,1.217,0,0,0,14.282-1.3V-4.755H15.1V0h-.773ZM19.1-1.261a.6.6,0,0,0-.248-.512,2.39,2.39,0,0,0-.866-.314A4.093,4.093,0,0,1,17-2.4a1.394,1.394,0,0,1-.536-.439,1.051,1.051,0,0,1-.174-.606,1.233,1.233,0,0,1,.494-.989,1.931,1.931,0,0,1,1.263-.4,1.987,1.987,0,0,1,1.312.417,1.326,1.326,0,0,1,.5,1.068H19.05a.734.734,0,0,0-.283-.576,1.062,1.062,0,0,0-.714-.242,1.111,1.111,0,0,0-.694.193.609.609,0,0,0-.25.505.493.493,0,0,0,.233.444,2.866,2.866,0,0,0,.842.286,4.385,4.385,0,0,1,.987.325,1.439,1.439,0,0,1,.56.455,1.118,1.118,0,0,1,.182.648A1.217,1.217,0,0,1,19.4-.3a2.138,2.138,0,0,1-1.323.385,2.394,2.394,0,0,1-1.011-.2,1.644,1.644,0,0,1-.688-.565,1.361,1.361,0,0,1-.248-.784h.813a.842.842,0,0,0,.327.648,1.27,1.27,0,0,0,.806.24,1.311,1.311,0,0,0,.74-.187A.574.574,0,0,0,19.1-1.261ZM23.906,0a1.708,1.708,0,0,1-.114-.5,1.814,1.814,0,0,1-1.354.589,1.678,1.678,0,0,1-1.154-.4,1.287,1.287,0,0,1-.45-1.009A1.344,1.344,0,0,1,21.4-2.472a2.662,2.662,0,0,1,1.589-.411h.791v-.374a.913.913,0,0,0-.255-.679,1.024,1.024,0,0,0-.751-.253,1.185,1.185,0,0,0-.729.22.647.647,0,0,0-.294.532h-.817a1.122,1.122,0,0,1,.253-.688,1.725,1.725,0,0,1,.686-.525,2.306,2.306,0,0,1,.951-.193,1.88,1.88,0,0,1,1.288.411A1.482,1.482,0,0,1,24.592-3.3v2.188A2.676,2.676,0,0,0,24.759-.07V0ZM22.557-.62a1.429,1.429,0,0,0,.725-.2,1.2,1.2,0,0,0,.5-.514v-.976h-.637q-1.494,0-1.494.875a.74.74,0,0,0,.255.6A.98.98,0,0,0,22.557-.62Zm9.584-5.322L29.492,0h-.853L31.28-5.73H27.817V-6.4h4.324Z" transform="translate(1191 906) rotate(-90)" fill="#6c6c6c"/>
    <path id="Trazado_1261976" data-name="Trazado 1261976" d="M5.449-2.03A2.354,2.354,0,0,1,4.7-.464,2.456,2.456,0,0,1,3.023.088,2.255,2.255,0,0,1,1.206-.725,3.271,3.271,0,0,1,.523-2.9v-.615A3.646,3.646,0,0,1,.842-5.084a2.38,2.38,0,0,1,.9-1.039A2.514,2.514,0,0,1,3.1-6.486a2.312,2.312,0,0,1,1.635.569,2.382,2.382,0,0,1,.716,1.575H4.6a1.83,1.83,0,0,0-.477-1.107A1.445,1.445,0,0,0,3.1-5.792a1.51,1.51,0,0,0-1.268.6,2.742,2.742,0,0,0-.459,1.7v.62a2.819,2.819,0,0,0,.435,1.657A1.406,1.406,0,0,0,3.023-.6,1.624,1.624,0,0,0,4.1-.921a1.768,1.768,0,0,0,.5-1.11ZM9.409,0a1.708,1.708,0,0,1-.114-.5A1.814,1.814,0,0,1,7.941.088a1.678,1.678,0,0,1-1.154-.4,1.287,1.287,0,0,1-.45-1.009A1.344,1.344,0,0,1,6.9-2.472,2.662,2.662,0,0,1,8.49-2.883h.791v-.374a.913.913,0,0,0-.255-.679,1.024,1.024,0,0,0-.751-.253,1.185,1.185,0,0,0-.729.22.647.647,0,0,0-.294.532H6.434a1.122,1.122,0,0,1,.253-.688,1.725,1.725,0,0,1,.686-.525,2.306,2.306,0,0,1,.951-.193,1.88,1.88,0,0,1,1.288.411A1.482,1.482,0,0,1,10.094-3.3v2.188A2.676,2.676,0,0,0,10.261-.07V0ZM8.06-.62a1.429,1.429,0,0,0,.725-.2,1.2,1.2,0,0,0,.5-.514v-.976H8.644q-1.494,0-1.494.875a.74.74,0,0,0,.255.6A.98.98,0,0,0,8.06-.62ZM14.3-.47a1.727,1.727,0,0,1-1.393.558,1.478,1.478,0,0,1-1.158-.442,1.912,1.912,0,0,1-.4-1.307V-4.755h.813v3.072q0,1.081.879,1.081A1.217,1.217,0,0,0,14.282-1.3V-4.755H15.1V0h-.773ZM19.1-1.261a.6.6,0,0,0-.248-.512,2.39,2.39,0,0,0-.866-.314A4.093,4.093,0,0,1,17-2.4a1.394,1.394,0,0,1-.536-.439,1.051,1.051,0,0,1-.174-.606,1.233,1.233,0,0,1,.494-.989,1.931,1.931,0,0,1,1.263-.4,1.987,1.987,0,0,1,1.312.417,1.326,1.326,0,0,1,.5,1.068H19.05a.734.734,0,0,0-.283-.576,1.062,1.062,0,0,0-.714-.242,1.111,1.111,0,0,0-.694.193.609.609,0,0,0-.25.505.493.493,0,0,0,.233.444,2.866,2.866,0,0,0,.842.286,4.385,4.385,0,0,1,.987.325,1.439,1.439,0,0,1,.56.455,1.118,1.118,0,0,1,.182.648A1.217,1.217,0,0,1,19.4-.3a2.138,2.138,0,0,1-1.323.385,2.394,2.394,0,0,1-1.011-.2,1.644,1.644,0,0,1-.688-.565,1.361,1.361,0,0,1-.248-.784h.813a.842.842,0,0,0,.327.648,1.27,1.27,0,0,0,.806.24,1.311,1.311,0,0,0,.74-.187A.574.574,0,0,0,19.1-1.261ZM23.906,0a1.708,1.708,0,0,1-.114-.5,1.814,1.814,0,0,1-1.354.589,1.678,1.678,0,0,1-1.154-.4,1.287,1.287,0,0,1-.45-1.009A1.344,1.344,0,0,1,21.4-2.472a2.662,2.662,0,0,1,1.589-.411h.791v-.374a.913.913,0,0,0-.255-.679,1.024,1.024,0,0,0-.751-.253,1.185,1.185,0,0,0-.729.22.647.647,0,0,0-.294.532h-.817a1.122,1.122,0,0,1,.253-.688,1.725,1.725,0,0,1,.686-.525,2.306,2.306,0,0,1,.951-.193,1.88,1.88,0,0,1,1.288.411A1.482,1.482,0,0,1,24.592-3.3v2.188A2.676,2.676,0,0,0,24.759-.07V0ZM22.557-.62a1.429,1.429,0,0,0,.725-.2,1.2,1.2,0,0,0,.5-.514v-.976h-.637q-1.494,0-1.494.875a.74.74,0,0,0,.255.6A.98.98,0,0,0,22.557-.62Zm9.334-4.109a1.486,1.486,0,0,1-.253.853,1.719,1.719,0,0,1-.683.584,1.834,1.834,0,0,1,.793.628,1.581,1.581,0,0,1,.292.936A1.672,1.672,0,0,1,31.48-.4a2.153,2.153,0,0,1-1.474.492,2.143,2.143,0,0,1-1.479-.494,1.68,1.68,0,0,1-.556-1.321,1.629,1.629,0,0,1,.283-.936,1.764,1.764,0,0,1,.784-.633,1.677,1.677,0,0,1-.672-.584,1.507,1.507,0,0,1-.246-.848,1.654,1.654,0,0,1,.519-1.283,1.945,1.945,0,0,1,1.367-.475,1.947,1.947,0,0,1,1.365.475A1.65,1.65,0,0,1,31.891-4.729Zm-.664,2.984a1.179,1.179,0,0,0-.341-.875A1.208,1.208,0,0,0,30-2.958a1.187,1.187,0,0,0-.881.334,1.193,1.193,0,0,0-.332.879,1.136,1.136,0,0,0,.323.857,1.24,1.24,0,0,0,.9.312,1.236,1.236,0,0,0,.9-.314A1.133,1.133,0,0,0,31.228-1.745ZM30.006-5.818a1.049,1.049,0,0,0-.776.3,1.09,1.09,0,0,0-.3.806,1.084,1.084,0,0,0,.292.789,1.037,1.037,0,0,0,.78.3,1.037,1.037,0,0,0,.78-.3,1.084,1.084,0,0,0,.292-.789,1.085,1.085,0,0,0-.3-.8A1.034,1.034,0,0,0,30.006-5.818Z" transform="translate(1225 906) rotate(-90)" fill="#6c6c6c"/>
    <path id="Trazado_1261977" data-name="Trazado 1261977" d="M5.449-2.03A2.354,2.354,0,0,1,4.7-.464,2.456,2.456,0,0,1,3.023.088,2.255,2.255,0,0,1,1.206-.725,3.271,3.271,0,0,1,.523-2.9v-.615A3.646,3.646,0,0,1,.842-5.084a2.38,2.38,0,0,1,.9-1.039A2.514,2.514,0,0,1,3.1-6.486a2.312,2.312,0,0,1,1.635.569,2.382,2.382,0,0,1,.716,1.575H4.6a1.83,1.83,0,0,0-.477-1.107A1.445,1.445,0,0,0,3.1-5.792a1.51,1.51,0,0,0-1.268.6,2.742,2.742,0,0,0-.459,1.7v.62a2.819,2.819,0,0,0,.435,1.657A1.406,1.406,0,0,0,3.023-.6,1.624,1.624,0,0,0,4.1-.921a1.768,1.768,0,0,0,.5-1.11ZM9.409,0a1.708,1.708,0,0,1-.114-.5A1.814,1.814,0,0,1,7.941.088a1.678,1.678,0,0,1-1.154-.4,1.287,1.287,0,0,1-.45-1.009A1.344,1.344,0,0,1,6.9-2.472,2.662,2.662,0,0,1,8.49-2.883h.791v-.374a.913.913,0,0,0-.255-.679,1.024,1.024,0,0,0-.751-.253,1.185,1.185,0,0,0-.729.22.647.647,0,0,0-.294.532H6.434a1.122,1.122,0,0,1,.253-.688,1.725,1.725,0,0,1,.686-.525,2.306,2.306,0,0,1,.951-.193,1.88,1.88,0,0,1,1.288.411A1.482,1.482,0,0,1,10.094-3.3v2.188A2.676,2.676,0,0,0,10.261-.07V0ZM8.06-.62a1.429,1.429,0,0,0,.725-.2,1.2,1.2,0,0,0,.5-.514v-.976H8.644q-1.494,0-1.494.875a.74.74,0,0,0,.255.6A.98.98,0,0,0,8.06-.62ZM14.3-.47a1.727,1.727,0,0,1-1.393.558,1.478,1.478,0,0,1-1.158-.442,1.912,1.912,0,0,1-.4-1.307V-4.755h.813v3.072q0,1.081.879,1.081A1.217,1.217,0,0,0,14.282-1.3V-4.755H15.1V0h-.773ZM19.1-1.261a.6.6,0,0,0-.248-.512,2.39,2.39,0,0,0-.866-.314A4.093,4.093,0,0,1,17-2.4a1.394,1.394,0,0,1-.536-.439,1.051,1.051,0,0,1-.174-.606,1.233,1.233,0,0,1,.494-.989,1.931,1.931,0,0,1,1.263-.4,1.987,1.987,0,0,1,1.312.417,1.326,1.326,0,0,1,.5,1.068H19.05a.734.734,0,0,0-.283-.576,1.062,1.062,0,0,0-.714-.242,1.111,1.111,0,0,0-.694.193.609.609,0,0,0-.25.505.493.493,0,0,0,.233.444,2.866,2.866,0,0,0,.842.286,4.385,4.385,0,0,1,.987.325,1.439,1.439,0,0,1,.56.455,1.118,1.118,0,0,1,.182.648A1.217,1.217,0,0,1,19.4-.3a2.138,2.138,0,0,1-1.323.385,2.394,2.394,0,0,1-1.011-.2,1.644,1.644,0,0,1-.688-.565,1.361,1.361,0,0,1-.248-.784h.813a.842.842,0,0,0,.327.648,1.27,1.27,0,0,0,.806.24,1.311,1.311,0,0,0,.74-.187A.574.574,0,0,0,19.1-1.261ZM23.906,0a1.708,1.708,0,0,1-.114-.5,1.814,1.814,0,0,1-1.354.589,1.678,1.678,0,0,1-1.154-.4,1.287,1.287,0,0,1-.45-1.009A1.344,1.344,0,0,1,21.4-2.472a2.662,2.662,0,0,1,1.589-.411h.791v-.374a.913.913,0,0,0-.255-.679,1.024,1.024,0,0,0-.751-.253,1.185,1.185,0,0,0-.729.22.647.647,0,0,0-.294.532h-.817a1.122,1.122,0,0,1,.253-.688,1.725,1.725,0,0,1,.686-.525,2.306,2.306,0,0,1,.951-.193,1.88,1.88,0,0,1,1.288.411A1.482,1.482,0,0,1,24.592-3.3v2.188A2.676,2.676,0,0,0,24.759-.07V0ZM22.557-.62a1.429,1.429,0,0,0,.725-.2,1.2,1.2,0,0,0,.5-.514v-.976h-.637q-1.494,0-1.494.875a.74.74,0,0,0,.255.6A.98.98,0,0,0,22.557-.62Zm8.569-2.193a1.989,1.989,0,0,1-.609.488,1.651,1.651,0,0,1-.776.185,1.7,1.7,0,0,1-.965-.272,1.771,1.771,0,0,1-.635-.767,2.614,2.614,0,0,1-.224-1.092,2.664,2.664,0,0,1,.244-1.156,1.792,1.792,0,0,1,.692-.787A1.974,1.974,0,0,1,29.9-6.486a1.787,1.787,0,0,1,1.5.71,3.1,3.1,0,0,1,.547,1.936V-3.6a4.136,4.136,0,0,1-.738,2.727A2.836,2.836,0,0,1,28.978,0h-.158V-.681h.171a2.236,2.236,0,0,0,1.547-.525A2.256,2.256,0,0,0,31.126-2.812Zm-1.252,0a1.255,1.255,0,0,0,.754-.25,1.477,1.477,0,0,0,.5-.62v-.325a2.237,2.237,0,0,0-.347-1.3,1.036,1.036,0,0,0-.879-.5,1.044,1.044,0,0,0-.861.411,1.7,1.7,0,0,0-.325,1.083,1.764,1.764,0,0,0,.314,1.079A1,1,0,0,0,29.874-2.812Z" transform="translate(1257 906) rotate(-90)" fill="#6c6c6c"/>
    <path id="Trazado_1261978" data-name="Trazado 1261978" d="M5.449-2.03A2.354,2.354,0,0,1,4.7-.464,2.456,2.456,0,0,1,3.023.088,2.255,2.255,0,0,1,1.206-.725,3.271,3.271,0,0,1,.523-2.9v-.615A3.646,3.646,0,0,1,.842-5.084a2.38,2.38,0,0,1,.9-1.039A2.514,2.514,0,0,1,3.1-6.486a2.312,2.312,0,0,1,1.635.569,2.382,2.382,0,0,1,.716,1.575H4.6a1.83,1.83,0,0,0-.477-1.107A1.445,1.445,0,0,0,3.1-5.792a1.51,1.51,0,0,0-1.268.6,2.742,2.742,0,0,0-.459,1.7v.62a2.819,2.819,0,0,0,.435,1.657A1.406,1.406,0,0,0,3.023-.6,1.624,1.624,0,0,0,4.1-.921a1.768,1.768,0,0,0,.5-1.11ZM9.409,0a1.708,1.708,0,0,1-.114-.5A1.814,1.814,0,0,1,7.941.088a1.678,1.678,0,0,1-1.154-.4,1.287,1.287,0,0,1-.45-1.009A1.344,1.344,0,0,1,6.9-2.472,2.662,2.662,0,0,1,8.49-2.883h.791v-.374a.913.913,0,0,0-.255-.679,1.024,1.024,0,0,0-.751-.253,1.185,1.185,0,0,0-.729.22.647.647,0,0,0-.294.532H6.434a1.122,1.122,0,0,1,.253-.688,1.725,1.725,0,0,1,.686-.525,2.306,2.306,0,0,1,.951-.193,1.88,1.88,0,0,1,1.288.411A1.482,1.482,0,0,1,10.094-3.3v2.188A2.676,2.676,0,0,0,10.261-.07V0ZM8.06-.62a1.429,1.429,0,0,0,.725-.2,1.2,1.2,0,0,0,.5-.514v-.976H8.644q-1.494,0-1.494.875a.74.74,0,0,0,.255.6A.98.98,0,0,0,8.06-.62ZM14.3-.47a1.727,1.727,0,0,1-1.393.558,1.478,1.478,0,0,1-1.158-.442,1.912,1.912,0,0,1-.4-1.307V-4.755h.813v3.072q0,1.081.879,1.081A1.217,1.217,0,0,0,14.282-1.3V-4.755H15.1V0h-.773ZM19.1-1.261a.6.6,0,0,0-.248-.512,2.39,2.39,0,0,0-.866-.314A4.093,4.093,0,0,1,17-2.4a1.394,1.394,0,0,1-.536-.439,1.051,1.051,0,0,1-.174-.606,1.233,1.233,0,0,1,.494-.989,1.931,1.931,0,0,1,1.263-.4,1.987,1.987,0,0,1,1.312.417,1.326,1.326,0,0,1,.5,1.068H19.05a.734.734,0,0,0-.283-.576,1.062,1.062,0,0,0-.714-.242,1.111,1.111,0,0,0-.694.193.609.609,0,0,0-.25.505.493.493,0,0,0,.233.444,2.866,2.866,0,0,0,.842.286,4.385,4.385,0,0,1,.987.325,1.439,1.439,0,0,1,.56.455,1.118,1.118,0,0,1,.182.648A1.217,1.217,0,0,1,19.4-.3a2.138,2.138,0,0,1-1.323.385,2.394,2.394,0,0,1-1.011-.2,1.644,1.644,0,0,1-.688-.565,1.361,1.361,0,0,1-.248-.784h.813a.842.842,0,0,0,.327.648,1.27,1.27,0,0,0,.806.24,1.311,1.311,0,0,0,.74-.187A.574.574,0,0,0,19.1-1.261ZM23.906,0a1.708,1.708,0,0,1-.114-.5,1.814,1.814,0,0,1-1.354.589,1.678,1.678,0,0,1-1.154-.4,1.287,1.287,0,0,1-.45-1.009A1.344,1.344,0,0,1,21.4-2.472a2.662,2.662,0,0,1,1.589-.411h.791v-.374a.913.913,0,0,0-.255-.679,1.024,1.024,0,0,0-.751-.253,1.185,1.185,0,0,0-.729.22.647.647,0,0,0-.294.532h-.817a1.122,1.122,0,0,1,.253-.688,1.725,1.725,0,0,1,.686-.525,2.306,2.306,0,0,1,.951-.193,1.88,1.88,0,0,1,1.288.411A1.482,1.482,0,0,1,24.592-3.3v2.188A2.676,2.676,0,0,0,24.759-.07V0ZM22.557-.62a1.429,1.429,0,0,0,.725-.2,1.2,1.2,0,0,0,.5-.514v-.976h-.637q-1.494,0-1.494.875a.74.74,0,0,0,.255.6A.98.98,0,0,0,22.557-.62ZM30.683,0h-.817V-5.418l-1.639.6v-.738l2.329-.875h.127Zm6.394-2.729a3.718,3.718,0,0,1-.488,2.123,1.735,1.735,0,0,1-1.525.694,1.747,1.747,0,0,1-1.516-.679,3.529,3.529,0,0,1-.51-2.028V-3.7a3.636,3.636,0,0,1,.488-2.1,1.748,1.748,0,0,1,1.529-.686,1.764,1.764,0,0,1,1.521.661,3.508,3.508,0,0,1,.5,2.041Zm-.813-1.112a2.979,2.979,0,0,0-.29-1.505,1,1,0,0,0-.918-.472.985.985,0,0,0-.91.47A2.909,2.909,0,0,0,33.851-3.9v1.3a3.027,3.027,0,0,0,.3,1.531,1,1,0,0,0,.912.494.983.983,0,0,0,.894-.466,2.917,2.917,0,0,0,.305-1.468Z" transform="translate(1290 906) rotate(-90)" fill="#6c6c6c"/>
    <path id="Trazado_1261979" data-name="Trazado 1261979" d="M3.2,0H2.386V-5.418l-1.639.6v-.738l2.329-.875H3.2ZM9.778,0H5.585V-.584L7.8-3.045a5.262,5.262,0,0,0,.679-.907,1.515,1.515,0,0,0,.187-.723,1.148,1.148,0,0,0-.3-.822,1.06,1.06,0,0,0-.809-.321,1.256,1.256,0,0,0-.943.345,1.318,1.318,0,0,0-.336.96H5.462a1.887,1.887,0,0,1,.569-1.428,2.11,2.11,0,0,1,1.523-.545,2.027,2.027,0,0,1,1.411.468,1.6,1.6,0,0,1,.519,1.246,3.66,3.66,0,0,1-1.2,2.25L6.565-.664H9.778Zm4.874-2.729a3.718,3.718,0,0,1-.488,2.123,1.735,1.735,0,0,1-1.525.694,1.747,1.747,0,0,1-1.516-.679,3.529,3.529,0,0,1-.51-2.028V-3.7A3.636,3.636,0,0,1,11.1-5.8a1.748,1.748,0,0,1,1.529-.686,1.764,1.764,0,0,1,1.521.661,3.508,3.508,0,0,1,.5,2.041Zm-.813-1.112a2.979,2.979,0,0,0-.29-1.505,1,1,0,0,0-.918-.472.985.985,0,0,0-.91.47A2.909,2.909,0,0,0,11.426-3.9v1.3a3.027,3.027,0,0,0,.3,1.531,1,1,0,0,0,.912.494.983.983,0,0,0,.894-.466,2.917,2.917,0,0,0,.305-1.468Zm1.784-1.327a1.3,1.3,0,0,1,.367-.949,1.264,1.264,0,0,1,.943-.374,1.257,1.257,0,0,1,.947.376,1.343,1.343,0,0,1,.363.973v.312a1.282,1.282,0,0,1-.367.947,1.265,1.265,0,0,1-.934.367A1.293,1.293,0,0,1,16-3.883a1.309,1.309,0,0,1-.374-.978Zm.606.338a.828.828,0,0,0,.193.565.653.653,0,0,0,.519.222.64.64,0,0,0,.5-.215.855.855,0,0,0,.191-.589v-.321a.849.849,0,0,0-.189-.567.637.637,0,0,0-.514-.224.637.637,0,0,0-.514.224.876.876,0,0,0-.189.584Zm2.509,3.261a1.291,1.291,0,0,1,.367-.947,1.268,1.268,0,0,1,.943-.371,1.279,1.279,0,0,1,.945.369,1.325,1.325,0,0,1,.369.98v.312a1.291,1.291,0,0,1-.367.947,1.263,1.263,0,0,1-.938.371,1.293,1.293,0,0,1-.945-.367,1.309,1.309,0,0,1-.374-.978Zm.606.343a.835.835,0,0,0,.193.569.653.653,0,0,0,.519.222.636.636,0,0,0,.505-.218.87.87,0,0,0,.189-.591v-.325a.832.832,0,0,0-.191-.567.644.644,0,0,0-.512-.22.651.651,0,0,0-.508.218.845.845,0,0,0-.2.587Zm-2.219.743-.461-.29,3.125-5,.461.29Z" transform="translate(1310 646)" fill="#6c6c6c"/>
    <path id="Trazado_1261980" data-name="Trazado 1261980" d="M3.2,0H2.386V-5.418l-1.639.6v-.738l2.329-.875H3.2ZM9.6-2.729A3.718,3.718,0,0,1,9.11-.606,1.735,1.735,0,0,1,7.585.088,1.747,1.747,0,0,1,6.069-.591a3.529,3.529,0,0,1-.51-2.028V-3.7a3.636,3.636,0,0,1,.488-2.1,1.748,1.748,0,0,1,1.529-.686A1.764,1.764,0,0,1,9.1-5.825a3.508,3.508,0,0,1,.5,2.041ZM8.785-3.841a2.979,2.979,0,0,0-.29-1.505,1,1,0,0,0-.918-.472.985.985,0,0,0-.91.47A2.909,2.909,0,0,0,6.372-3.9v1.3a3.027,3.027,0,0,0,.3,1.531,1,1,0,0,0,.912.494.983.983,0,0,0,.894-.466,2.917,2.917,0,0,0,.305-1.468Zm5.867,1.112a3.718,3.718,0,0,1-.488,2.123,1.735,1.735,0,0,1-1.525.694,1.747,1.747,0,0,1-1.516-.679,3.529,3.529,0,0,1-.51-2.028V-3.7A3.636,3.636,0,0,1,11.1-5.8a1.748,1.748,0,0,1,1.529-.686,1.764,1.764,0,0,1,1.521.661,3.508,3.508,0,0,1,.5,2.041Zm-.813-1.112a2.979,2.979,0,0,0-.29-1.505,1,1,0,0,0-.918-.472.985.985,0,0,0-.91.47A2.909,2.909,0,0,0,11.426-3.9v1.3a3.027,3.027,0,0,0,.3,1.531,1,1,0,0,0,.912.494.983.983,0,0,0,.894-.466,2.917,2.917,0,0,0,.305-1.468Zm1.784-1.327a1.3,1.3,0,0,1,.367-.949,1.264,1.264,0,0,1,.943-.374,1.257,1.257,0,0,1,.947.376,1.343,1.343,0,0,1,.363.973v.312a1.282,1.282,0,0,1-.367.947,1.265,1.265,0,0,1-.934.367A1.293,1.293,0,0,1,16-3.883a1.309,1.309,0,0,1-.374-.978Zm.606.338a.828.828,0,0,0,.193.565.653.653,0,0,0,.519.222.64.64,0,0,0,.5-.215.855.855,0,0,0,.191-.589v-.321a.849.849,0,0,0-.189-.567.637.637,0,0,0-.514-.224.637.637,0,0,0-.514.224.876.876,0,0,0-.189.584Zm2.509,3.261a1.291,1.291,0,0,1,.367-.947,1.268,1.268,0,0,1,.943-.371,1.279,1.279,0,0,1,.945.369,1.325,1.325,0,0,1,.369.98v.312a1.291,1.291,0,0,1-.367.947,1.263,1.263,0,0,1-.938.371,1.293,1.293,0,0,1-.945-.367,1.309,1.309,0,0,1-.374-.978Zm.606.343a.835.835,0,0,0,.193.569.653.653,0,0,0,.519.222.636.636,0,0,0,.505-.218.87.87,0,0,0,.189-.591v-.325a.832.832,0,0,0-.191-.567.644.644,0,0,0-.512-.22.651.651,0,0,0-.508.218.845.845,0,0,0-.2.587Zm-2.219.743-.461-.29,3.125-5,.461.29Z" transform="translate(1310 681)" fill="#6c6c6c"/>
    <path id="Trazado_1261981" data-name="Trazado 1261981" d="M4.412-4.729a1.486,1.486,0,0,1-.253.853,1.719,1.719,0,0,1-.683.584,1.834,1.834,0,0,1,.793.628,1.581,1.581,0,0,1,.292.936A1.672,1.672,0,0,1,4-.4,2.153,2.153,0,0,1,2.527.088,2.143,2.143,0,0,1,1.048-.406,1.68,1.68,0,0,1,.492-1.727a1.629,1.629,0,0,1,.283-.936A1.764,1.764,0,0,1,1.56-3.3,1.677,1.677,0,0,1,.888-3.88a1.507,1.507,0,0,1-.246-.848A1.654,1.654,0,0,1,1.16-6.012a1.945,1.945,0,0,1,1.367-.475,1.947,1.947,0,0,1,1.365.475A1.65,1.65,0,0,1,4.412-4.729ZM3.749-1.745a1.179,1.179,0,0,0-.341-.875,1.208,1.208,0,0,0-.89-.338,1.187,1.187,0,0,0-.881.334,1.193,1.193,0,0,0-.332.879,1.136,1.136,0,0,0,.323.857,1.24,1.24,0,0,0,.9.312,1.236,1.236,0,0,0,.9-.314A1.133,1.133,0,0,0,3.749-1.745ZM2.527-5.818a1.049,1.049,0,0,0-.776.3,1.09,1.09,0,0,0-.3.806,1.084,1.084,0,0,0,.292.789,1.037,1.037,0,0,0,.78.3,1.037,1.037,0,0,0,.78-.3A1.084,1.084,0,0,0,3.6-4.715a1.085,1.085,0,0,0-.3-.8A1.034,1.034,0,0,0,2.527-5.818ZM9.6-2.729A3.718,3.718,0,0,1,9.11-.606,1.735,1.735,0,0,1,7.585.088,1.747,1.747,0,0,1,6.069-.591a3.529,3.529,0,0,1-.51-2.028V-3.7a3.636,3.636,0,0,1,.488-2.1,1.748,1.748,0,0,1,1.529-.686A1.764,1.764,0,0,1,9.1-5.825a3.508,3.508,0,0,1,.5,2.041ZM8.785-3.841a2.979,2.979,0,0,0-.29-1.505,1,1,0,0,0-.918-.472.985.985,0,0,0-.91.47A2.909,2.909,0,0,0,6.372-3.9v1.3a3.027,3.027,0,0,0,.3,1.531,1,1,0,0,0,.912.494.983.983,0,0,0,.894-.466,2.917,2.917,0,0,0,.305-1.468Zm1.784-1.327a1.3,1.3,0,0,1,.367-.949,1.264,1.264,0,0,1,.943-.374,1.257,1.257,0,0,1,.947.376,1.343,1.343,0,0,1,.363.973v.312a1.282,1.282,0,0,1-.367.947,1.265,1.265,0,0,1-.934.367,1.293,1.293,0,0,1-.945-.367,1.309,1.309,0,0,1-.374-.978Zm.606.338a.828.828,0,0,0,.193.565.653.653,0,0,0,.519.222.64.64,0,0,0,.5-.215.855.855,0,0,0,.191-.589v-.321a.849.849,0,0,0-.189-.567.637.637,0,0,0-.514-.224.637.637,0,0,0-.514.224.876.876,0,0,0-.189.584Zm2.509,3.261a1.291,1.291,0,0,1,.367-.947,1.268,1.268,0,0,1,.943-.371,1.279,1.279,0,0,1,.945.369,1.325,1.325,0,0,1,.369.98v.312a1.291,1.291,0,0,1-.367.947A1.263,1.263,0,0,1,15,.092a1.293,1.293,0,0,1-.945-.367,1.309,1.309,0,0,1-.374-.978Zm.606.343a.835.835,0,0,0,.193.569A.653.653,0,0,0,15-.435a.636.636,0,0,0,.505-.218.87.87,0,0,0,.189-.591v-.325a.832.832,0,0,0-.191-.567.644.644,0,0,0-.512-.22.651.651,0,0,0-.508.218.845.845,0,0,0-.2.587Zm-2.219.743-.461-.29,3.125-5,.461.29Z" transform="translate(1310 720)" fill="#6c6c6c"/>
    <path id="Trazado_1261982" data-name="Trazado 1261982" d="M3.722-6.4v.69H3.573a2.141,2.141,0,0,0-1.512.563,2.341,2.341,0,0,0-.65,1.534,1.735,1.735,0,0,1,1.38-.58,1.659,1.659,0,0,1,1.334.589,2.271,2.271,0,0,1,.5,1.521A2.264,2.264,0,0,1,4.085-.505,1.854,1.854,0,0,1,2.641.088a1.826,1.826,0,0,1-1.49-.705A2.8,2.8,0,0,1,.58-2.435v-.312a4.212,4.212,0,0,1,.754-2.7A2.768,2.768,0,0,1,3.577-6.4ZM2.654-3.52a1.3,1.3,0,0,0-.769.25,1.305,1.305,0,0,0-.488.628v.3a2.1,2.1,0,0,0,.356,1.274,1.067,1.067,0,0,0,.888.483,1.034,1.034,0,0,0,.864-.4,1.678,1.678,0,0,0,.314-1.059A1.678,1.678,0,0,0,3.5-3.114,1.021,1.021,0,0,0,2.654-3.52ZM9.6-2.729A3.718,3.718,0,0,1,9.11-.606,1.735,1.735,0,0,1,7.585.088,1.747,1.747,0,0,1,6.069-.591a3.529,3.529,0,0,1-.51-2.028V-3.7a3.636,3.636,0,0,1,.488-2.1,1.748,1.748,0,0,1,1.529-.686A1.764,1.764,0,0,1,9.1-5.825a3.508,3.508,0,0,1,.5,2.041ZM8.785-3.841a2.979,2.979,0,0,0-.29-1.505,1,1,0,0,0-.918-.472.985.985,0,0,0-.91.47A2.909,2.909,0,0,0,6.372-3.9v1.3a3.027,3.027,0,0,0,.3,1.531,1,1,0,0,0,.912.494.983.983,0,0,0,.894-.466,2.917,2.917,0,0,0,.305-1.468Zm1.784-1.327a1.3,1.3,0,0,1,.367-.949,1.264,1.264,0,0,1,.943-.374,1.257,1.257,0,0,1,.947.376,1.343,1.343,0,0,1,.363.973v.312a1.282,1.282,0,0,1-.367.947,1.265,1.265,0,0,1-.934.367,1.293,1.293,0,0,1-.945-.367,1.309,1.309,0,0,1-.374-.978Zm.606.338a.828.828,0,0,0,.193.565.653.653,0,0,0,.519.222.64.64,0,0,0,.5-.215.855.855,0,0,0,.191-.589v-.321a.849.849,0,0,0-.189-.567.637.637,0,0,0-.514-.224.637.637,0,0,0-.514.224.876.876,0,0,0-.189.584Zm2.509,3.261a1.291,1.291,0,0,1,.367-.947,1.268,1.268,0,0,1,.943-.371,1.279,1.279,0,0,1,.945.369,1.325,1.325,0,0,1,.369.98v.312a1.291,1.291,0,0,1-.367.947A1.263,1.263,0,0,1,15,.092a1.293,1.293,0,0,1-.945-.367,1.309,1.309,0,0,1-.374-.978Zm.606.343a.835.835,0,0,0,.193.569A.653.653,0,0,0,15-.435a.636.636,0,0,0,.505-.218.87.87,0,0,0,.189-.591v-.325a.832.832,0,0,0-.191-.567.644.644,0,0,0-.512-.22.651.651,0,0,0-.508.218.845.845,0,0,0-.2.587Zm-2.219.743-.461-.29,3.125-5,.461.29Z" transform="translate(1310 757)" fill="#6c6c6c"/>
    <path id="Trazado_1261983" data-name="Trazado 1261983" d="M3.964-2.149h.888v.664H3.964V0H3.146V-1.485H.233v-.479L3.1-6.4h.866Zm-2.808,0H3.146V-5.287l-.1.176ZM9.6-2.729A3.718,3.718,0,0,1,9.11-.606,1.735,1.735,0,0,1,7.585.088,1.747,1.747,0,0,1,6.069-.591a3.529,3.529,0,0,1-.51-2.028V-3.7a3.636,3.636,0,0,1,.488-2.1,1.748,1.748,0,0,1,1.529-.686A1.764,1.764,0,0,1,9.1-5.825a3.508,3.508,0,0,1,.5,2.041ZM8.785-3.841a2.979,2.979,0,0,0-.29-1.505,1,1,0,0,0-.918-.472.985.985,0,0,0-.91.47A2.909,2.909,0,0,0,6.372-3.9v1.3a3.027,3.027,0,0,0,.3,1.531,1,1,0,0,0,.912.494.983.983,0,0,0,.894-.466,2.917,2.917,0,0,0,.305-1.468Zm1.784-1.327a1.3,1.3,0,0,1,.367-.949,1.264,1.264,0,0,1,.943-.374,1.257,1.257,0,0,1,.947.376,1.343,1.343,0,0,1,.363.973v.312a1.282,1.282,0,0,1-.367.947,1.265,1.265,0,0,1-.934.367,1.293,1.293,0,0,1-.945-.367,1.309,1.309,0,0,1-.374-.978Zm.606.338a.828.828,0,0,0,.193.565.653.653,0,0,0,.519.222.64.64,0,0,0,.5-.215.855.855,0,0,0,.191-.589v-.321a.849.849,0,0,0-.189-.567.637.637,0,0,0-.514-.224.637.637,0,0,0-.514.224.876.876,0,0,0-.189.584Zm2.509,3.261a1.291,1.291,0,0,1,.367-.947,1.268,1.268,0,0,1,.943-.371,1.279,1.279,0,0,1,.945.369,1.325,1.325,0,0,1,.369.98v.312a1.291,1.291,0,0,1-.367.947A1.263,1.263,0,0,1,15,.092a1.293,1.293,0,0,1-.945-.367,1.309,1.309,0,0,1-.374-.978Zm.606.343a.835.835,0,0,0,.193.569A.653.653,0,0,0,15-.435a.636.636,0,0,0,.505-.218.87.87,0,0,0,.189-.591v-.325a.832.832,0,0,0-.191-.567.644.644,0,0,0-.512-.22.651.651,0,0,0-.508.218.845.845,0,0,0-.2.587Zm-2.219.743-.461-.29,3.125-5,.461.29Z" transform="translate(1310 794)" fill="#6c6c6c"/>
    <path id="Trazado_1261984" data-name="Trazado 1261984" d="M4.724,0H.532V-.584L2.747-3.045a5.262,5.262,0,0,0,.679-.907,1.515,1.515,0,0,0,.187-.723,1.148,1.148,0,0,0-.3-.822A1.06,1.06,0,0,0,2.5-5.818a1.256,1.256,0,0,0-.943.345,1.318,1.318,0,0,0-.336.96H.409A1.887,1.887,0,0,1,.978-5.941,2.11,2.11,0,0,1,2.5-6.486a2.027,2.027,0,0,1,1.411.468A1.6,1.6,0,0,1,4.43-4.772a3.66,3.66,0,0,1-1.2,2.25L1.512-.664H4.724ZM9.6-2.729A3.718,3.718,0,0,1,9.11-.606,1.735,1.735,0,0,1,7.585.088,1.747,1.747,0,0,1,6.069-.591a3.529,3.529,0,0,1-.51-2.028V-3.7a3.636,3.636,0,0,1,.488-2.1,1.748,1.748,0,0,1,1.529-.686A1.764,1.764,0,0,1,9.1-5.825a3.508,3.508,0,0,1,.5,2.041ZM8.785-3.841a2.979,2.979,0,0,0-.29-1.505,1,1,0,0,0-.918-.472.985.985,0,0,0-.91.47A2.909,2.909,0,0,0,6.372-3.9v1.3a3.027,3.027,0,0,0,.3,1.531,1,1,0,0,0,.912.494.983.983,0,0,0,.894-.466,2.917,2.917,0,0,0,.305-1.468Zm1.784-1.327a1.3,1.3,0,0,1,.367-.949,1.264,1.264,0,0,1,.943-.374,1.257,1.257,0,0,1,.947.376,1.343,1.343,0,0,1,.363.973v.312a1.282,1.282,0,0,1-.367.947,1.265,1.265,0,0,1-.934.367,1.293,1.293,0,0,1-.945-.367,1.309,1.309,0,0,1-.374-.978Zm.606.338a.828.828,0,0,0,.193.565.653.653,0,0,0,.519.222.64.64,0,0,0,.5-.215.855.855,0,0,0,.191-.589v-.321a.849.849,0,0,0-.189-.567.637.637,0,0,0-.514-.224.637.637,0,0,0-.514.224.876.876,0,0,0-.189.584Zm2.509,3.261a1.291,1.291,0,0,1,.367-.947,1.268,1.268,0,0,1,.943-.371,1.279,1.279,0,0,1,.945.369,1.325,1.325,0,0,1,.369.98v.312a1.291,1.291,0,0,1-.367.947A1.263,1.263,0,0,1,15,.092a1.293,1.293,0,0,1-.945-.367,1.309,1.309,0,0,1-.374-.978Zm.606.343a.835.835,0,0,0,.193.569A.653.653,0,0,0,15-.435a.636.636,0,0,0,.505-.218.87.87,0,0,0,.189-.591v-.325a.832.832,0,0,0-.191-.567.644.644,0,0,0-.512-.22.651.651,0,0,0-.508.218.845.845,0,0,0-.2.587Zm-2.219.743-.461-.29,3.125-5,.461.29Z" transform="translate(1310 834)" fill="#6c6c6c"/>
    <path id="Trazado_1261985" data-name="Trazado 1261985" d="M4.544-2.729A3.718,3.718,0,0,1,4.056-.606,1.735,1.735,0,0,1,2.531.088,1.747,1.747,0,0,1,1.015-.591a3.529,3.529,0,0,1-.51-2.028V-3.7A3.636,3.636,0,0,1,.993-5.8a1.748,1.748,0,0,1,1.529-.686,1.764,1.764,0,0,1,1.521.661,3.508,3.508,0,0,1,.5,2.041ZM3.731-3.841a2.979,2.979,0,0,0-.29-1.505,1,1,0,0,0-.918-.472.985.985,0,0,0-.91.47A2.909,2.909,0,0,0,1.318-3.9v1.3a3.027,3.027,0,0,0,.3,1.531,1,1,0,0,0,.912.494.983.983,0,0,0,.894-.466,2.917,2.917,0,0,0,.305-1.468ZM5.515-5.168a1.3,1.3,0,0,1,.367-.949,1.264,1.264,0,0,1,.943-.374,1.257,1.257,0,0,1,.947.376,1.343,1.343,0,0,1,.363.973v.312a1.282,1.282,0,0,1-.367.947,1.265,1.265,0,0,1-.934.367,1.293,1.293,0,0,1-.945-.367,1.309,1.309,0,0,1-.374-.978Zm.606.338a.828.828,0,0,0,.193.565.653.653,0,0,0,.519.222.64.64,0,0,0,.5-.215.855.855,0,0,0,.191-.589v-.321a.849.849,0,0,0-.189-.567.637.637,0,0,0-.514-.224.637.637,0,0,0-.514.224.876.876,0,0,0-.189.584ZM8.631-1.569A1.291,1.291,0,0,1,9-2.516a1.268,1.268,0,0,1,.943-.371,1.279,1.279,0,0,1,.945.369,1.325,1.325,0,0,1,.369.98v.312a1.291,1.291,0,0,1-.367.947,1.263,1.263,0,0,1-.938.371A1.293,1.293,0,0,1,9-.275a1.309,1.309,0,0,1-.374-.978Zm.606.343a.835.835,0,0,0,.193.569.653.653,0,0,0,.519.222.636.636,0,0,0,.505-.218.87.87,0,0,0,.189-.591v-.325a.832.832,0,0,0-.191-.567.644.644,0,0,0-.512-.22.651.651,0,0,0-.508.218.845.845,0,0,0-.2.587ZM7.018-.483l-.461-.29,3.125-5,.461.29Z" transform="translate(1310 868)" fill="#6c6c6c"/>
    <path id="Trazado_125261" data-name="Trazado 125261" d="M-1982-10926.111l34.1-46.218,32.576-35.288,31.913-19.156,31.14-8.191,33.6-7.463,31.581-6.155,32.389-3.78,31.275-3.156,33.971-3.152" transform="translate(2974.81 11739.094)" fill="none" stroke="red" stroke-width="2"/>
    <path id="Trazado_1261986" data-name="Trazado 1261986" d="M0,0H4V5H0Z" transform="translate(991 810)" fill="#ff361a"/>
    <path id="Trazado_1261987" data-name="Trazado 1261987" d="M0,0H5V4H0Z" transform="translate(1024 766)" fill="#ff361a"/>
    <path id="Trazado_1261988" data-name="Trazado 1261988" d="M0,0H5V5H0Z" transform="translate(1056 730)" fill="#ff361a"/>
    <path id="Trazado_1261989" data-name="Trazado 1261989" d="M0,0H4V5H0Z" transform="translate(1089 710)" fill="#ff361a"/>
    <path id="Trazado_1261990" data-name="Trazado 1261990" d="M0,0H4V5H0Z" transform="translate(1121 701)" fill="#ff361a"/>
    <path id="Trazado_1261991" data-name="Trazado 1261991" d="M0,0H4V5H0Z" transform="translate(1154 694)" fill="#ff361a"/>
    <path id="Trazado_1261992" data-name="Trazado 1261992" d="M0,0H4V4H0Z" transform="translate(1187 689)" fill="#ff361a"/>
    <path id="Trazado_1261993" data-name="Trazado 1261993" d="M0,0H4V4H0Z" transform="translate(1219 685)" fill="#ff361a"/>
    <path id="Trazado_1261994" data-name="Trazado 1261994" d="M0,0H4V4H0Z" transform="translate(1251 681)" fill="#ff361a"/>
    <path id="Trazado_1261995" data-name="Trazado 1261995" d="M0,0H5V5H0Z" transform="translate(1282 678)" fill="#ff361a"/>
    <g id="Trazado_1261996" data-name="Trazado 1261996" transform="translate(977 644)" fill="none">
      <path d="M0,0H325V224H0Z" stroke="none"/>
      <path d="M 1 1 L 1 223 L 324 223 L 324 1 L 1 1 M 0 0 L 325 0 L 325 224 L 0 224 L 0 0 Z" stroke="none" fill="#cbcbcb"/>
    </g>
    <path id="Trazado_125262" data-name="Trazado 125262" d="M-2007-11067h324.338" transform="translate(2984.375 11742.279)" fill="none" stroke="#a6cdec" stroke-width="1"/>
    <path id="Trazado_125263" data-name="Trazado 125263" d="M-2007-11067h324.338" transform="translate(2984.375 11773.768)" fill="none" stroke="#a6cdec" stroke-width="1"/>
    <path id="Trazado_125264" data-name="Trazado 125264" d="M-2007-11067h324.338" transform="translate(2984.375 11805.256)" fill="none" stroke="#a6cdec" stroke-width="1"/>
    <path id="Trazado_125265" data-name="Trazado 125265" d="M-2007-11067h324.338" transform="translate(2984.375 11838.596)" fill="none" stroke="#a6cdec" stroke-width="1"/>
    <path id="Trazado_125266" data-name="Trazado 125266" d="M-2007-11067h324.338" transform="translate(2984.375 11870.702)" fill="none" stroke="#a6cdec" stroke-width="1"/>
    <path id="Trazado_125267" data-name="Trazado 125267" d="M-2007-11067h324.338" transform="translate(2984.375 11902.189)" fill="none" stroke="#a6cdec" stroke-width="1"/>
    <path id="Trazado_125268" data-name="Trazado 125268" d="M-1481.684-11058.672h3.454" transform="translate(2783.396 11739.094)" fill="none" stroke="#707070" stroke-width="1"/>
    <path id="Trazado_125269" data-name="Trazado 125269" d="M-1481.684-11058.672h3.454" transform="translate(2783.396 11776.553)" fill="none" stroke="#707070" stroke-width="1"/>
    <path id="Trazado_125270" data-name="Trazado 125270" d="M-1481.684-11058.672h3.454" transform="translate(2783.396 11814.524)" fill="none" stroke="#707070" stroke-width="1"/>
    <path id="Trazado_125271" data-name="Trazado 125271" d="M-1481.684-11058.672h3.454" transform="translate(2783.396 11851.568)" fill="none" stroke="#707070" stroke-width="1"/>
    <path id="Trazado_125272" data-name="Trazado 125272" d="M-1481.684-11058.672h3.454" transform="translate(2783.396 11888.613)" fill="none" stroke="#707070" stroke-width="1"/>
    <path id="Trazado_125273" data-name="Trazado 125273" d="M-1481.684-11058.672h3.454" transform="translate(2783.396 11702.464)" fill="none" stroke="#707070" stroke-width="1"/>
  </g>
</svg>
